M48
;FILE_FORMAT=2:4
INCH,LZ
FMAT,2
ICI,OFF
;TYPE=PLATED
T1C.022
T2C.035
T3C.037
T4C.03937
T5C.04291
T6C.05
T7C.055
;TYPE=NON_PLATED
T8C.1
%
M72
G90
G93X0Y0
T1C.022F197S55
X0532Y06785
X05165Y07135
X0533Y0778
X04585Y08255
X0533Y0996
X05275Y10075
X05662Y09925
X0554Y0815
X0548Y08105
X05495Y07985
X05675Y07985
X0554Y07725
X05515Y07005
X05432Y0683
X05515Y0667
X05365Y0567
X05764Y05556
X0564Y04624
X05429Y04624
X0567Y0453
X05563Y04491
X05991Y0952
X05989Y09669
T2C.035F197S55
X035324Y100243
X034324Y100243
X038324Y100243
X037324Y100243
X036324Y100243
X038324Y101243
X034324Y101243
X037324Y101243
X035324Y101243
X036324Y101243
X040324Y101243
X039324Y101243
X043324Y101243
X042324Y101243
X041324Y101243
X044324Y101243
X045324Y101243
X040324Y100243
X041324Y100243
X043324Y100243
X044324Y100243
X039324Y100243
X045324Y100243
X042324Y100243
X046324Y100243
X047324Y100243
X048324Y100243
X049324Y100243
X050324Y100243
X051324Y100243
X052324Y100243
X053324Y100243
X046324Y101243
X050324Y101243
X048324Y101243
X051324Y101243
X047324Y101243
X052324Y101243
X049324Y101243
X053324Y101243
X060313Y08247
X060313Y08147
T3C.037F197S55
X0264Y0489
X0264Y0529
X02777Y060901
X024761Y063604
X024761Y064604
X0284Y0729
X02476Y07515
X02476Y07615
X0284Y0769
X0284Y0809
X0284Y0849
X02476Y08637
X02476Y08737
X0244Y0949
X0264Y0949
X0284Y0949
X0284Y0989
X0324Y1009
X0324Y0989
X02975Y09715
X033405Y09601
X033405Y09501
X02975Y0793
X0304Y0769
X0304Y0609
X0324Y0589
X0304Y0569
X0304Y0529
X0304Y0489
X0324Y0449
X0384Y0429
X0344Y0449
X0344Y0569
X0344Y0609
X03815Y06375
X0344Y0689
X0344Y0769
X0344Y0809
X0344Y0849
X0344Y0889
X035405Y09501
X034405Y09501
X037405Y09501
X036405Y09501
X034405Y09601
X036405Y09601
X037405Y09601
X035405Y09601
X0424Y0909
X0424Y0889
X0424Y0829
X0424Y0789
X0424Y0749
X0424Y0709
X039395Y069041
X0424Y0669
X0424Y0429
X0504Y0429
X0484Y0629
X0504Y0629
X0484Y0669
X0484Y0709
X0504Y0749
X0484Y0789
X0484Y0809
X0484Y0849
X0484Y0869
X0484Y0889
X0463Y0982
X0512Y09715
X0564Y0949
X0584Y0949
X05244Y09473
X05588Y09137
X0584Y0909
X0584Y0869
X0584Y0849
X0567Y08185
X05665Y07745
X0584Y0769
X0544Y0729
X0584Y0729
X0564Y06965
X0564Y0672
X0584Y0669
X0524Y0629
X0564Y0609
X0584Y0609
X0584Y0589
X0544Y0589
X0524Y0589
X0584Y0569
X0524Y0569
X0584Y0549
X0584Y0509
X0584Y0469
X0544Y0429
X0624Y0509
X0624Y0569
X0624Y0609
X06055Y0651
X0624Y0669
X0624Y0749
X0624Y0769
X0624Y0849
X0624Y0909
X0644Y0929
X0624Y0949
X05976Y09879
T4C.03937F197S55
X048481Y092838
X047497Y092838
X05045Y092838
X049466Y092838
X052418Y092838
X051434Y092838
X025942Y069148G85X025942Y068164
X023582Y069148G85X023582Y068164
X025254Y066806G85X02427Y066806
X025942Y092376G85X025942Y091392
X023582Y092376G85X023582Y091392
X025254Y090034G85X02427Y090034
X025942Y080172G85X025942Y079187
X023582Y080172G85X023582Y079187
X025254Y07783G85X02427Y07783
X023582Y05714G85X023582Y058124
X025942Y05714G85X025942Y058124
X02427Y059482G85X025254Y059482
T5C.04291F139S55
X0374Y061197
X0384Y061197
X0394Y061197
X0424Y061197
X0434Y061197
X0444Y061197
X0474Y061197
X0484Y061197
X0494Y061197
X060338Y069075
X060338Y070075
X060338Y071075
X060313Y07847
X060313Y07947
X060313Y08047
X060353Y086975
X060353Y087975
X060353Y088975
T6C.05F107S55
X037855Y04596
X040855Y04596
X043215Y09584
X04141Y095865
X04497Y09586
X04393Y04596
X04693Y04596
X04993Y04596
X05293Y04596
T7C.055F107S55
X02842Y066225
X03442Y066225
T8C.1F069S658
X030784Y100953
X056849Y100953
M30
