M48
;FILE_FORMAT=2:4
INCH,LZ
FMAT,2
ICI,OFF
;TYPE=PLATED
T1C.01181
T2C.012
;TYPE=NON_PLATED
T3C.039
T4C.09843
T5C.15157
T6C.27559
%
M72
G90
G93X0Y0
T1C.01181F095S3
X016398Y018169
X019055Y018169
X022047Y018169
X025059Y018169
X026527Y018165
X026516Y020945
X026516Y023937
X018051Y023799
X016398Y023799
X016417Y027323
X01874Y027795
X018917Y026142
X019685Y026929
X019941Y025886
X022037Y027621
X026516Y027638
X026516Y031437
X01876Y029331
X016811Y028327
X016417Y02939
X016398Y031457
X016398Y035315
X017717Y034469
X01874Y033524
X019114Y035315
X022128Y035275
X024154Y033563
X024488Y035295
X025138Y033819
X026516Y035295
X026516Y039055
X025472Y035768
X01876Y037047
X017776Y03626
X016398Y039114
X016398Y042992
X018071Y042461
X01874Y041201
X019606Y042362
X019941Y04126
X025315Y041299
X025551Y043031
X026516Y042972
X026516Y046811
X025354Y044764
X018386Y045335
X016398Y046772
X016398Y049252
X017028Y04998
X017028Y051555
X018366Y052736
X018386Y050669
X022039Y050675
X024154Y048937
X025236Y052165
X025335Y048917
X025335Y050945
X026516Y050669
X026519Y054476
X025138Y05689
X019685Y057638
X01876Y056693
X018051Y058071
X01689Y056142
X01689Y054154
X016831Y057618
X016398Y057185
X016398Y060079
X01815Y059291
X018465Y058917
X018524Y059724
X018524Y060433
X019232Y059724
X019232Y060433
X020059Y058425
X020079Y059567
X020591Y058406
X020906Y059213
X021043Y058406
X02124Y059941
X02126Y05939
X021437Y058346
X021555Y060551
X02189Y060354
X022205Y060354
X022854Y059921
X023189Y060118
X023366Y059646
X023839Y058189
X024488Y06061
X024862Y059252
X025059Y06061
X026516Y058209
X026516Y060354
X026516Y062224
X026142Y062598
X024882Y062028
X023267Y06086
X023031Y062028
X022854Y060768
X02248Y062657
X022382Y061378
X02124Y060787
X021063Y062028
X020846Y062657
X01939Y062264
X019055Y06315
X018091Y060866
X017815Y062205
X016398Y062854
X016398Y066122
X017638Y06502
X017638Y06622
X026181Y067992
X026522Y06596
X026516Y070433
X025098Y070433
X024488Y070059
X022047Y070433
X019488Y070079
X019016Y070433
X016398Y070433
T2C.012F095S3
X020866Y060531
X026004Y061102
X024567Y061102
X021713Y061378
X020591Y061732
T3C.039F197S55
X023839Y05961
X024239Y06161
X023439Y06161
T4C.09843F066S55
X018268Y018858
X025827Y018858
X025827Y069724
X018268Y069724
T5C.15157F035S9
X022047Y022365
X022047Y025187
X022047Y030046
X022047Y032869
X022047Y037728
X022047Y040551
X022047Y045411
X022047Y048234
X022047Y053093
X022047Y055915
T6C.27559F0S0
X022047Y066112
M30
