*
*
G04 PADS VX.2.3 Build Number: 9191294 generated Gerber (RS-274-X) file*
G04 PC Version=2.1*
*
%IN "Encoder.pcb"*%
*
%MOIN*%
*
%FSLAX35Y35*%
*
*
*
*
G04 PC Standard Apertures*
*
*
G04 Thermal Relief Aperture macro.*
%AMTER*
1,1,$1,0,0*
1,0,$1-$2,0,0*
21,0,$3,$4,0,0,45*
21,0,$3,$4,0,0,135*
%
*
*
G04 Annular Aperture macro.*
%AMANN*
1,1,$1,0,0*
1,0,$2,0,0*
%
*
*
G04 Odd Aperture macro.*
%AMODD*
1,1,$1,0,0*
1,0,$1-0.005,0,0*
%
*
*
G04 PC Custom Aperture Macros*
*
*
*
*
*
*
G04 PC Aperture Table*
*
%ADD010C,0.001*%
%ADD021C,0.01*%
%ADD022C,0.006*%
%ADD036C,0.005*%
*
*
*
*
G04 PC Circuitry*
G04 Layer Name Encoder.pcb - circuitry*
%LPD*%
*
*
G04 PC Custom Flashes*
G04 Layer Name Encoder.pcb - flashes*
%LPD*%
*
*
G04 PC Circuitry*
G04 Layer Name Encoder.pcb - circuitry*
%LPD*%
*
G54D10*
G01X1000000Y1084646D02*
X1000003D01*
X1157480D02*
X1157483D01*
X1157480Y1000000D02*
X1157483D01*
X1157480Y1084646D02*
X1157483D01*
X1067717Y1036155D02*
X1067719D01*
X1000000Y1019140D02*
X1000003D01*
X1095276Y1039370D02*
X1095278D01*
X1020472D02*
X1020475D01*
X1088386Y1060039D02*
X1088388D01*
X1067717Y1039370D02*
X1067719D01*
X1088386Y1018701D02*
X1088388D01*
X1067717Y1039370D02*
X1067719D01*
X1095276D02*
X1095278D01*
X1020472D02*
X1020475D01*
X1078740Y1042323D02*
X1078743D01*
X1067717Y1039370D02*
X1067719D01*
X1042126D02*
X1042129D01*
X1020472D02*
X1020475D01*
X1051660Y1031883D02*
X1051663D01*
X1067717Y1039370D02*
X1067719D01*
X1122835D02*
X1122837D01*
X1067717D02*
X1067719D01*
X1085827Y1070866D02*
X1085829D01*
X1067717Y1039370D02*
X1067719D01*
X1099213Y1021260D02*
X1099215D01*
X1067717Y1039370D02*
X1067719D01*
X1122835D02*
X1122837D01*
X1067717D02*
X1067719D01*
X1078740Y1042323D02*
X1078743D01*
X1157480D02*
X1157483D01*
G54D21*
X1035707Y1022309D02*
X1043707Y1030309D01*
X1035707D02*
X1043707Y1022309D01*
X1027500Y1018482D02*
X1035500Y1026482D01*
X1027500D02*
X1035500Y1018482D01*
X1040539Y1024525D02*
G75*
G03X1038875Y1028093I-832J1784D01*
G01X1030668Y1024266*
G03X1032332Y1020698I832J-1784*
G01X1040539Y1024525*
X1099934Y1052258D02*
X1107934Y1060258D01*
X1099934D02*
X1107934Y1052258D01*
X1091727Y1048431D02*
X1099727Y1056431D01*
X1091727D02*
X1099727Y1048431D01*
X1104766Y1054474D02*
G03X1103102Y1058042I-832J1784D01*
G01X1094895Y1054215*
G03X1096559Y1050647I832J-1784*
G01X1104766Y1054474*
X1145437Y1021364D02*
X1145750Y1020682D01*
X1146687Y1020227*
X1146687D02*
X1148250Y1020000D01*
X1149187*
X1149187D02*
X1150750Y1020227D01*
X1151687Y1020682*
X1151687D02*
X1152000Y1021364D01*
Y1021818*
X1151687Y1022500*
X1151687D02*
X1150750Y1022955D01*
X1149187Y1023182*
X1149187D02*
X1148250D01*
X1146687Y1022955*
X1146687D02*
X1145750Y1022500D01*
X1145437Y1021818*
X1145437D02*
Y1021364D01*
Y1028182D02*
Y1025909D01*
X1145437D02*
X1148250Y1025682D01*
X1147937Y1025909*
X1147937D02*
X1147625Y1026591D01*
Y1027273*
X1147937Y1027955*
X1147937D02*
X1148562Y1028409D01*
X1148562D02*
X1149500Y1028636D01*
X1150125Y1028409*
X1151062Y1028182*
X1151062D02*
X1151687Y1027727D01*
X1151687D02*
X1152000Y1027045D01*
Y1026364*
X1151687Y1025682*
X1151687D02*
X1151375Y1025455D01*
X1150750Y1025227*
X1147000Y1030909D02*
X1146687D01*
X1146687D02*
X1146062Y1031136D01*
X1146062D02*
X1145750Y1031364D01*
X1145437Y1031818*
X1145437D02*
Y1032727D01*
X1145437D02*
X1145750Y1033182D01*
X1146062Y1033409*
X1146062D02*
X1146687Y1033636D01*
X1146687D02*
X1147312D01*
X1147312D02*
X1147937Y1033409D01*
X1147937D02*
X1148875Y1032955D01*
X1152000Y1030682*
Y1033864*
X1145437Y1036364D02*
Y1038864D01*
X1145437D02*
X1147937Y1037500D01*
X1147937D02*
Y1038182D01*
X1147937D02*
X1148250Y1038636D01*
X1148562Y1038864*
X1148562D02*
X1149500Y1039091D01*
X1150125*
X1151062Y1038864*
X1151062D02*
X1151687Y1038409D01*
X1151687D02*
X1152000Y1037727D01*
Y1037045*
X1151687Y1036364*
X1151687D02*
X1151375Y1036136D01*
X1150750Y1035909*
X1145437Y1044091D02*
Y1041818D01*
X1145437D02*
X1148250Y1041591D01*
X1147937Y1041818*
X1147937D02*
X1147625Y1042500D01*
Y1043182*
X1147937Y1043864*
X1147937D02*
X1148562Y1044318D01*
X1148562D02*
X1149500Y1044545D01*
X1150125Y1044318*
X1151062Y1044091*
X1151062D02*
X1151687Y1043636D01*
X1151687D02*
X1152000Y1042955D01*
Y1042273*
X1151687Y1041591*
X1151687D02*
X1151375Y1041364D01*
X1150750Y1041136*
X1145437Y1049773D02*
X1152000Y1047500D01*
X1145437Y1046591D02*
Y1049773D01*
X1149187Y1051818D02*
Y1055909D01*
X1147625Y1060909D02*
X1148562Y1060682D01*
X1148562D02*
X1149187Y1060227D01*
X1149187D02*
X1149500Y1059545D01*
Y1059318*
X1149187Y1058636*
X1149187D02*
X1148562Y1058182D01*
X1148562D02*
X1147625Y1057955D01*
X1147312*
X1147312D02*
X1146375Y1058182D01*
X1145750Y1058636*
X1145437Y1059318*
X1145437D02*
Y1059545D01*
X1145437D02*
X1145750Y1060227D01*
X1146375Y1060682*
X1147625Y1060909*
X1149187*
X1149187D02*
X1150750Y1060682D01*
X1151687Y1060227*
X1151687D02*
X1152000Y1059545D01*
Y1059091*
X1151687Y1058409*
X1151687D02*
X1151062Y1058182D01*
X1145437Y1064773D02*
X1152000Y1062955D01*
X1145437Y1064773D02*
X1152000Y1066591D01*
X1149812Y1063636D02*
Y1065909D01*
X1270898Y1139483D02*
X1270444Y1140108D01*
X1269762Y1140421*
X1268853*
X1268171Y1140108*
X1267717Y1139483*
Y1138858*
X1267944Y1138233*
X1268171Y1137921*
X1268626Y1137608*
X1269989Y1136983*
X1270444Y1136671*
X1270671Y1136358*
X1270898Y1135733*
Y1134796*
X1270444Y1134171*
X1269762Y1133858*
X1268853*
X1268171Y1134171*
X1267717Y1134796*
X1272944Y1140421D02*
Y1133858D01*
Y1140421D02*
X1274989D01*
X1275671Y1140108*
X1275898Y1139796*
X1276126Y1139171*
Y1138233*
X1275898Y1137608*
X1275671Y1137296*
X1274989Y1136983*
X1272944*
X1278171Y1140421D02*
Y1133858D01*
Y1140421D02*
X1281126D01*
X1278171Y1137296D02*
X1279989D01*
X1278171Y1133858D02*
X1281126D01*
X1286580Y1138858D02*
X1286353Y1139483D01*
X1285898Y1140108*
X1285444Y1140421*
X1284535*
X1284080Y1140108*
X1283626Y1139483*
X1283398Y1138858*
X1283171Y1137921*
Y1136358*
X1283398Y1135421*
X1283626Y1134796*
X1284080Y1134171*
X1284535Y1133858*
X1285444*
X1285898Y1134171*
X1286353Y1134796*
X1286580Y1135421*
X1288626Y1140421D02*
Y1133858D01*
X1290671Y1140421D02*
Y1133858D01*
Y1140421D02*
X1293626D01*
X1290671Y1137296D02*
X1292489D01*
X1295671Y1140421D02*
Y1133858D01*
X1301126Y1138858D02*
X1300898Y1139483D01*
X1300444Y1140108*
X1299989Y1140421*
X1299080*
X1298626Y1140108*
X1298171Y1139483*
X1297944Y1138858*
X1297717Y1137921*
Y1136358*
X1297944Y1135421*
X1298171Y1134796*
X1298626Y1134171*
X1299080Y1133858*
X1299989*
X1300444Y1134171*
X1300898Y1134796*
X1301126Y1135421*
X1304989Y1140421D02*
X1303171Y1133858D01*
X1304989Y1140421D02*
X1306807Y1133858D01*
X1303853Y1136046D02*
X1306126D01*
X1310444Y1140421D02*
Y1133858D01*
X1308853Y1140421D02*
X1312035D01*
X1314080D02*
Y1133858D01*
X1317489Y1140421D02*
X1317035Y1140108D01*
X1316580Y1139483*
X1316353Y1138858*
X1316126Y1137921*
Y1136358*
X1316353Y1135421*
X1316580Y1134796*
X1317035Y1134171*
X1317489Y1133858*
X1318398*
X1318853Y1134171*
X1319307Y1134796*
X1319535Y1135421*
X1319762Y1136358*
Y1137921*
X1319535Y1138858*
X1319307Y1139483*
X1318853Y1140108*
X1318398Y1140421*
X1317489*
X1321807D02*
Y1133858D01*
Y1140421D02*
X1324989Y1133858D01*
Y1140421D02*
Y1133858D01*
X1330217Y1139483D02*
X1329762Y1140108D01*
X1329080Y1140421*
X1328171*
X1327489Y1140108*
X1327035Y1139483*
Y1138858*
X1327262Y1138233*
X1327489Y1137921*
X1327944Y1137608*
X1329307Y1136983*
X1329762Y1136671*
X1329989Y1136358*
X1330217Y1135733*
Y1134796*
X1329762Y1134171*
X1329080Y1133858*
X1328171*
X1327489Y1134171*
X1327035Y1134796*
X1216535Y1119486D02*
X1216990Y1119798D01*
X1217672Y1120736*
Y1114173*
X1219945Y1114798D02*
X1219717Y1114486D01*
X1219945Y1114173*
X1220172Y1114486*
X1219945Y1114798*
X1237899Y1120736D02*
Y1114173D01*
Y1120736D02*
X1239717Y1114173D01*
X1241535Y1120736D02*
X1239717Y1114173D01*
X1241535Y1120736D02*
Y1114173D01*
X1245399Y1120736D02*
X1243581Y1114173D01*
X1245399Y1120736D02*
X1247217Y1114173D01*
X1244263Y1116361D02*
X1246535D01*
X1250854Y1120736D02*
Y1114173D01*
X1249263Y1120736D02*
X1252445D01*
X1254490D02*
Y1114173D01*
Y1120736D02*
X1257445D01*
X1254490Y1117611D02*
X1256308D01*
X1254490Y1114173D02*
X1257445D01*
X1259490Y1120736D02*
Y1114173D01*
Y1120736D02*
X1261535D01*
X1262217Y1120423*
X1262445Y1120111*
X1262672Y1119486*
Y1118861*
X1262445Y1118236*
X1262217Y1117923*
X1261535Y1117611*
X1259490*
X1261081D02*
X1262672Y1114173D01*
X1264717Y1120736D02*
Y1114173D01*
X1268581Y1120736D02*
X1266763Y1114173D01*
X1268581Y1120736D02*
X1270399Y1114173D01*
X1267445Y1116361D02*
X1269717D01*
X1272445Y1120736D02*
Y1114173D01*
X1275172*
X1277445Y1118548D02*
X1277217Y1118236D01*
X1277445Y1117923*
X1277672Y1118236*
X1277445Y1118548*
Y1114798D02*
X1277217Y1114486D01*
X1277445Y1114173*
X1277672Y1114486*
X1277445Y1114798*
X1293581Y1119173D02*
X1293354Y1119798D01*
X1292899Y1120423*
X1292445Y1120736*
X1291535*
X1291081Y1120423*
X1290626Y1119798*
X1290399Y1119173*
X1290172Y1118236*
Y1116673*
X1290399Y1115736*
X1290626Y1115111*
X1291081Y1114486*
X1291535Y1114173*
X1292445*
X1292899Y1114486*
X1293354Y1115111*
X1293581Y1115736*
X1296763Y1118548D02*
X1296308Y1118236D01*
X1295854Y1117611*
X1295626Y1116673*
Y1116048*
X1295854Y1115111*
X1296308Y1114486*
X1296763Y1114173*
X1297445*
X1297899Y1114486*
X1298354Y1115111*
X1298581Y1116048*
Y1116673*
X1298354Y1117611*
X1297899Y1118236*
X1297445Y1118548*
X1296763*
X1300626D02*
Y1111986D01*
Y1117611D02*
X1301081Y1118236D01*
X1301535Y1118548*
X1302217*
X1302672Y1118236*
X1303126Y1117611*
X1303354Y1116673*
Y1116048*
X1303126Y1115111*
X1302672Y1114486*
X1302217Y1114173*
X1301535*
X1301081Y1114486*
X1300626Y1115111*
X1305399Y1118548D02*
Y1111986D01*
Y1117611D02*
X1305854Y1118236D01*
X1306308Y1118548*
X1306990*
X1307445Y1118236*
X1307899Y1117611*
X1308126Y1116673*
Y1116048*
X1307899Y1115111*
X1307445Y1114486*
X1306990Y1114173*
X1306308*
X1305854Y1114486*
X1305399Y1115111*
X1310172Y1116673D02*
X1312899D01*
Y1117298*
X1312672Y1117923*
X1312445Y1118236*
X1311990Y1118548*
X1311308*
X1310854Y1118236*
X1310399Y1117611*
X1310172Y1116673*
Y1116048*
X1310399Y1115111*
X1310854Y1114486*
X1311308Y1114173*
X1311990*
X1312445Y1114486*
X1312899Y1115111*
X1314945Y1118548D02*
Y1114173D01*
Y1116673D02*
X1315172Y1117611D01*
X1315626Y1118236*
X1316081Y1118548*
X1316763*
X1326763Y1117611D02*
X1326308Y1118236D01*
X1325854Y1118548*
X1325172*
X1324717Y1118236*
X1324263Y1117611*
X1324035Y1116673*
Y1116048*
X1324263Y1115111*
X1324717Y1114486*
X1325172Y1114173*
X1325854*
X1326308Y1114486*
X1326763Y1115111*
X1328808Y1120736D02*
Y1114173D01*
X1333581Y1118548D02*
Y1114173D01*
Y1117611D02*
X1333126Y1118236D01*
X1332672Y1118548*
X1331990*
X1331535Y1118236*
X1331081Y1117611*
X1330854Y1116673*
Y1116048*
X1331081Y1115111*
X1331535Y1114486*
X1331990Y1114173*
X1332672*
X1333126Y1114486*
X1333581Y1115111*
X1338354Y1120736D02*
Y1114173D01*
Y1117611D02*
X1337899Y1118236D01*
X1337445Y1118548*
X1336763*
X1336308Y1118236*
X1335854Y1117611*
X1335626Y1116673*
Y1116048*
X1335854Y1115111*
X1336308Y1114486*
X1336763Y1114173*
X1337445*
X1337899Y1114486*
X1338354Y1115111*
X1345626Y1120736D02*
Y1114173D01*
Y1120736D02*
X1348581D01*
X1345626Y1117611D02*
X1347445D01*
X1350626Y1120736D02*
Y1114173D01*
Y1120736D02*
X1352672D01*
X1353354Y1120423*
X1353581Y1120111*
X1353808Y1119486*
Y1118861*
X1353581Y1118236*
X1353354Y1117923*
X1352672Y1117611*
X1350626*
X1352217D02*
X1353808Y1114173D01*
X1355854Y1116986D02*
X1359945D01*
X1364263Y1120736D02*
X1361990Y1116361D01*
X1365399*
X1364263Y1120736D02*
Y1114173D01*
X1372672Y1120736D02*
Y1114173D01*
X1375399*
X1380172Y1118548D02*
Y1114173D01*
Y1117611D02*
X1379717Y1118236D01*
X1379263Y1118548*
X1378581*
X1378126Y1118236*
X1377672Y1117611*
X1377445Y1116673*
Y1116048*
X1377672Y1115111*
X1378126Y1114486*
X1378581Y1114173*
X1379263*
X1379717Y1114486*
X1380172Y1115111*
X1382217Y1118548D02*
Y1114173D01*
Y1117298D02*
X1382899Y1118236D01*
X1383354Y1118548*
X1384035*
X1384490Y1118236*
X1384717Y1117298*
Y1114173*
Y1117298D02*
X1385399Y1118236D01*
X1385854Y1118548*
X1386535*
X1386990Y1118236*
X1387217Y1117298*
Y1114173*
X1389263Y1120736D02*
X1389490Y1120423D01*
X1389717Y1120736*
X1389490Y1121048*
X1389263Y1120736*
X1389490Y1118548D02*
Y1114173D01*
X1391763Y1118548D02*
Y1114173D01*
Y1117298D02*
X1392445Y1118236D01*
X1392899Y1118548*
X1393581*
X1394035Y1118236*
X1394263Y1117298*
Y1114173*
X1399035Y1118548D02*
Y1114173D01*
Y1117611D02*
X1398581Y1118236D01*
X1398126Y1118548*
X1397445*
X1396990Y1118236*
X1396535Y1117611*
X1396308Y1116673*
Y1116048*
X1396535Y1115111*
X1396990Y1114486*
X1397445Y1114173*
X1398126*
X1398581Y1114486*
X1399035Y1115111*
X1401763Y1120736D02*
Y1115423D01*
X1401990Y1114486*
X1402445Y1114173*
X1402899*
X1401081Y1118548D02*
X1402672D01*
X1404945Y1116673D02*
X1407672D01*
Y1117298*
X1407445Y1117923*
X1407217Y1118236*
X1406763Y1118548*
X1406081*
X1405626Y1118236*
X1405172Y1117611*
X1404945Y1116673*
Y1116048*
X1405172Y1115111*
X1405626Y1114486*
X1406081Y1114173*
X1406763*
X1407217Y1114486*
X1407672Y1115111*
X1414945Y1118548D02*
Y1111986D01*
Y1117611D02*
X1415399Y1118236D01*
X1415854Y1118548*
X1416535*
X1416990Y1118236*
X1417445Y1117611*
X1417672Y1116673*
Y1116048*
X1417445Y1115111*
X1416990Y1114486*
X1416535Y1114173*
X1415854*
X1415399Y1114486*
X1414945Y1115111*
X1419717Y1116673D02*
X1422445D01*
Y1117298*
X1422217Y1117923*
X1421990Y1118236*
X1421535Y1118548*
X1420854*
X1420399Y1118236*
X1419945Y1117611*
X1419717Y1116673*
Y1116048*
X1419945Y1115111*
X1420399Y1114486*
X1420854Y1114173*
X1421535*
X1421990Y1114486*
X1422445Y1115111*
X1424490Y1118548D02*
Y1114173D01*
Y1116673D02*
X1424717Y1117611D01*
X1425172Y1118236*
X1425626Y1118548*
X1426308*
X1433581Y1120736D02*
Y1114173D01*
Y1120736D02*
X1435399Y1114173D01*
X1437217Y1120736D02*
X1435399Y1114173D01*
X1437217Y1120736D02*
Y1114173D01*
X1439263Y1120736D02*
Y1114173D01*
X1441308Y1120736D02*
Y1114173D01*
X1444035*
X1446081Y1116986D02*
X1450172D01*
X1452217Y1120736D02*
Y1114173D01*
Y1120736D02*
X1454263D01*
X1454945Y1120423*
X1455172Y1120111*
X1455399Y1119486*
Y1118548*
X1455172Y1117923*
X1454945Y1117611*
X1454263Y1117298*
X1452217*
X1457445Y1116986D02*
X1461535D01*
X1463581Y1119486D02*
X1464035Y1119798D01*
X1464717Y1120736*
Y1114173*
X1467217Y1120736D02*
X1469717D01*
X1468354Y1118236*
X1469035*
X1469490Y1117923*
X1469717Y1117611*
X1469945Y1116673*
Y1116048*
X1469717Y1115111*
X1469263Y1114486*
X1468581Y1114173*
X1467899*
X1467217Y1114486*
X1466990Y1114798*
X1466763Y1115423*
X1474945Y1118548D02*
X1474717Y1117611D01*
X1474263Y1116986*
X1473581Y1116673*
X1473354*
X1472672Y1116986*
X1472217Y1117611*
X1471990Y1118548*
Y1118861*
X1472217Y1119798*
X1472672Y1120423*
X1473354Y1120736*
X1473581*
X1474263Y1120423*
X1474717Y1119798*
X1474945Y1118548*
Y1116986*
X1474717Y1115423*
X1474263Y1114486*
X1473581Y1114173*
X1473126*
X1472445Y1114486*
X1472217Y1115111*
X1479263Y1120736D02*
X1476990Y1116361D01*
X1480399*
X1479263Y1120736D02*
Y1114173D01*
X1485399Y1118548D02*
X1485172Y1117611D01*
X1484717Y1116986*
X1484035Y1116673*
X1483808*
X1483126Y1116986*
X1482672Y1117611*
X1482445Y1118548*
Y1118861*
X1482672Y1119798*
X1483126Y1120423*
X1483808Y1120736*
X1484035*
X1484717Y1120423*
X1485172Y1119798*
X1485399Y1118548*
Y1116986*
X1485172Y1115423*
X1484717Y1114486*
X1484035Y1114173*
X1483581*
X1482899Y1114486*
X1482672Y1115111*
X1491535Y1121986D02*
X1487445Y1111986D01*
X1495854Y1120736D02*
X1493581Y1116361D01*
X1496990*
X1495854Y1120736D02*
Y1114173D01*
X1507672Y1119173D02*
X1507445Y1119798D01*
X1506990Y1120423*
X1506535Y1120736*
X1505626*
X1505172Y1120423*
X1504717Y1119798*
X1504490Y1119173*
X1504263Y1118236*
Y1116673*
X1504490Y1115736*
X1504717Y1115111*
X1505172Y1114486*
X1505626Y1114173*
X1506535*
X1506990Y1114486*
X1507445Y1115111*
X1507672Y1115736*
Y1116673*
X1506535D02*
X1507672D01*
X1509717Y1120736D02*
Y1114173D01*
Y1120736D02*
X1512672D01*
X1509717Y1117611D02*
X1511535D01*
X1514717Y1120736D02*
Y1114173D01*
Y1120736D02*
X1517899Y1114173D01*
Y1120736D02*
Y1114173D01*
X1525172Y1120736D02*
Y1114173D01*
Y1120736D02*
X1528126D01*
X1525172Y1117611D02*
X1526990D01*
X1530172Y1120736D02*
X1530399Y1120423D01*
X1530626Y1120736*
X1530399Y1121048*
X1530172Y1120736*
X1530399Y1118548D02*
Y1114173D01*
X1532672Y1118548D02*
Y1114173D01*
Y1117298D02*
X1533354Y1118236D01*
X1533808Y1118548*
X1534490*
X1534945Y1118236*
X1535172Y1117298*
Y1114173*
X1537217Y1120736D02*
X1537445Y1120423D01*
X1537672Y1120736*
X1537445Y1121048*
X1537217Y1120736*
X1537445Y1118548D02*
Y1114173D01*
X1542217Y1117611D02*
X1541990Y1118236D01*
X1541308Y1118548*
X1540626*
X1539945Y1118236*
X1539717Y1117611*
X1539945Y1116986*
X1540399Y1116673*
X1541535Y1116361*
X1541990Y1116048*
X1542217Y1115423*
Y1115111*
X1541990Y1114486*
X1541308Y1114173*
X1540626*
X1539945Y1114486*
X1539717Y1115111*
X1544263Y1120736D02*
Y1114173D01*
Y1117298D02*
X1544945Y1118236D01*
X1545399Y1118548*
X1546081*
X1546535Y1118236*
X1546763Y1117298*
Y1114173*
X1548808Y1116673D02*
X1551535D01*
Y1117298*
X1551308Y1117923*
X1551081Y1118236*
X1550626Y1118548*
X1549945*
X1549490Y1118236*
X1549035Y1117611*
X1548808Y1116673*
Y1116048*
X1549035Y1115111*
X1549490Y1114486*
X1549945Y1114173*
X1550626*
X1551081Y1114486*
X1551535Y1115111*
X1556308Y1120736D02*
Y1114173D01*
Y1117611D02*
X1555854Y1118236D01*
X1555399Y1118548*
X1554717*
X1554263Y1118236*
X1553808Y1117611*
X1553581Y1116673*
Y1116048*
X1553808Y1115111*
X1554263Y1114486*
X1554717Y1114173*
X1555399*
X1555854Y1114486*
X1556308Y1115111*
X1216763Y1107362D02*
Y1107675D01*
X1216990Y1108300*
X1217217Y1108612*
X1217672Y1108925*
X1218581*
X1219035Y1108612*
X1219263Y1108300*
X1219490Y1107675*
Y1107050*
X1219263Y1106425*
X1218808Y1105487*
X1216535Y1102362*
X1219717*
X1221990Y1102987D02*
X1221763Y1102675D01*
X1221990Y1102362*
X1222217Y1102675*
X1221990Y1102987*
X1243354Y1107362D02*
X1243126Y1107987D01*
X1242672Y1108612*
X1242217Y1108925*
X1241308*
X1240854Y1108612*
X1240399Y1107987*
X1240172Y1107362*
X1239945Y1106425*
Y1104862*
X1240172Y1103925*
X1240399Y1103300*
X1240854Y1102675*
X1241308Y1102362*
X1242217*
X1242672Y1102675*
X1243126Y1103300*
X1243354Y1103925*
X1246763Y1108925D02*
X1246308Y1108612D01*
X1245854Y1107987*
X1245626Y1107362*
X1245399Y1106425*
Y1104862*
X1245626Y1103925*
X1245854Y1103300*
X1246308Y1102675*
X1246763Y1102362*
X1247672*
X1248126Y1102675*
X1248581Y1103300*
X1248808Y1103925*
X1249035Y1104862*
Y1106425*
X1248808Y1107362*
X1248581Y1107987*
X1248126Y1108612*
X1247672Y1108925*
X1246763*
X1251081D02*
Y1102362D01*
Y1108925D02*
X1253126D01*
X1253808Y1108612*
X1254035Y1108300*
X1254263Y1107675*
Y1106737*
X1254035Y1106112*
X1253808Y1105800*
X1253126Y1105487*
X1251081*
X1256308Y1108925D02*
Y1102362D01*
Y1108925D02*
X1258354D01*
X1259035Y1108612*
X1259263Y1108300*
X1259490Y1107675*
Y1106737*
X1259263Y1106112*
X1259035Y1105800*
X1258354Y1105487*
X1256308*
X1261535Y1108925D02*
Y1102362D01*
Y1108925D02*
X1264490D01*
X1261535Y1105800D02*
X1263354D01*
X1261535Y1102362D02*
X1264490D01*
X1266535Y1108925D02*
Y1102362D01*
Y1108925D02*
X1268581D01*
X1269263Y1108612*
X1269490Y1108300*
X1269717Y1107675*
Y1107050*
X1269490Y1106425*
X1269263Y1106112*
X1268581Y1105800*
X1266535*
X1268126D02*
X1269717Y1102362D01*
X1276990Y1108925D02*
X1278126Y1102362D01*
X1279263Y1108925D02*
X1278126Y1102362D01*
X1279263Y1108925D02*
X1280399Y1102362D01*
X1281535Y1108925D02*
X1280399Y1102362D01*
X1283581Y1108925D02*
Y1102362D01*
Y1108925D02*
X1286535D01*
X1283581Y1105800D02*
X1285399D01*
X1283581Y1102362D02*
X1286535D01*
X1288581Y1108925D02*
Y1102362D01*
X1294035Y1107362D02*
X1293808Y1107987D01*
X1293354Y1108612*
X1292899Y1108925*
X1291990*
X1291535Y1108612*
X1291081Y1107987*
X1290854Y1107362*
X1290626Y1106425*
Y1104862*
X1290854Y1103925*
X1291081Y1103300*
X1291535Y1102675*
X1291990Y1102362*
X1292899*
X1293354Y1102675*
X1293808Y1103300*
X1294035Y1103925*
Y1104862*
X1292899D02*
X1294035D01*
X1296081Y1108925D02*
Y1102362D01*
X1299263Y1108925D02*
Y1102362D01*
X1296081Y1105800D02*
X1299263D01*
X1302899Y1108925D02*
Y1102362D01*
X1301308Y1108925D02*
X1304490D01*
X1306763Y1106737D02*
X1306535Y1106425D01*
X1306763Y1106112*
X1306990Y1106425*
X1306763Y1106737*
Y1102987D02*
X1306535Y1102675D01*
X1306763Y1102362*
X1306990Y1102675*
X1306763Y1102987*
X1324717Y1107675D02*
X1325172Y1107987D01*
X1325854Y1108925*
Y1102362*
X1334263Y1106737D02*
X1333808Y1106425D01*
X1333354Y1105800*
X1333126Y1104862*
Y1104237*
X1333354Y1103300*
X1333808Y1102675*
X1334263Y1102362*
X1334945*
X1335399Y1102675*
X1335854Y1103300*
X1336081Y1104237*
Y1104862*
X1335854Y1105800*
X1335399Y1106425*
X1334945Y1106737*
X1334263*
X1340626D02*
X1338126Y1102362D01*
Y1106737D02*
X1340626D01*
X1338126Y1102362D02*
X1340626D01*
X1342899Y1102987D02*
X1342672Y1102675D01*
X1342899Y1102362*
X1343126Y1102675*
X1342899Y1102987*
X1216990Y1097114D02*
X1219490D01*
X1218126Y1094614*
X1218808*
X1219263Y1094301*
X1219490Y1093989*
X1219717Y1093051*
Y1092426*
X1219490Y1091489*
X1219035Y1090864*
X1218354Y1090551*
X1217672*
X1216990Y1090864*
X1216763Y1091176*
X1216535Y1091801*
X1221990Y1091176D02*
X1221763Y1090864D01*
X1221990Y1090551*
X1222217Y1090864*
X1221990Y1091176*
X1239945Y1097114D02*
Y1090551D01*
Y1097114D02*
X1243126Y1090551D01*
Y1097114D02*
Y1090551D01*
X1245172Y1097114D02*
Y1092426D01*
X1245399Y1091489*
X1245854Y1090864*
X1246535Y1090551*
X1246990*
X1247672Y1090864*
X1248126Y1091489*
X1248354Y1092426*
Y1097114*
X1250399D02*
Y1090551D01*
Y1097114D02*
X1252217Y1090551D01*
X1254035Y1097114D02*
X1252217Y1090551D01*
X1254035Y1097114D02*
Y1090551D01*
X1256081Y1097114D02*
Y1090551D01*
Y1097114D02*
X1258126D01*
X1258808Y1096801*
X1259035Y1096489*
X1259263Y1095864*
Y1095239*
X1259035Y1094614*
X1258808Y1094301*
X1258126Y1093989*
X1256081D02*
X1258126D01*
X1258808Y1093676*
X1259035Y1093364*
X1259263Y1092739*
Y1091801*
X1259035Y1091176*
X1258808Y1090864*
X1258126Y1090551*
X1256081*
X1261308Y1097114D02*
Y1090551D01*
Y1097114D02*
X1264263D01*
X1261308Y1093989D02*
X1263126D01*
X1261308Y1090551D02*
X1264263D01*
X1266308Y1097114D02*
Y1090551D01*
Y1097114D02*
X1268354D01*
X1269035Y1096801*
X1269263Y1096489*
X1269490Y1095864*
Y1095239*
X1269263Y1094614*
X1269035Y1094301*
X1268354Y1093989*
X1266308*
X1267899D02*
X1269490Y1090551D01*
X1278126Y1097114D02*
X1277672Y1096801D01*
X1277217Y1096176*
X1276990Y1095551*
X1276763Y1094614*
Y1093051*
X1276990Y1092114*
X1277217Y1091489*
X1277672Y1090864*
X1278126Y1090551*
X1279035*
X1279490Y1090864*
X1279945Y1091489*
X1280172Y1092114*
X1280399Y1093051*
Y1094614*
X1280172Y1095551*
X1279945Y1096176*
X1279490Y1096801*
X1279035Y1097114*
X1278126*
X1282445D02*
Y1090551D01*
Y1097114D02*
X1285399D01*
X1282445Y1093989D02*
X1284263D01*
X1296081Y1095551D02*
X1295854Y1096176D01*
X1295399Y1096801*
X1294945Y1097114*
X1294035*
X1293581Y1096801*
X1293126Y1096176*
X1292899Y1095551*
X1292672Y1094614*
Y1093051*
X1292899Y1092114*
X1293126Y1091489*
X1293581Y1090864*
X1294035Y1090551*
X1294945*
X1295399Y1090864*
X1295854Y1091489*
X1296081Y1092114*
X1299490Y1097114D02*
X1299035Y1096801D01*
X1298581Y1096176*
X1298354Y1095551*
X1298126Y1094614*
Y1093051*
X1298354Y1092114*
X1298581Y1091489*
X1299035Y1090864*
X1299490Y1090551*
X1300399*
X1300854Y1090864*
X1301308Y1091489*
X1301535Y1092114*
X1301763Y1093051*
Y1094614*
X1301535Y1095551*
X1301308Y1096176*
X1300854Y1096801*
X1300399Y1097114*
X1299490*
X1303808D02*
Y1090551D01*
Y1097114D02*
X1305854D01*
X1306535Y1096801*
X1306763Y1096489*
X1306990Y1095864*
Y1094926*
X1306763Y1094301*
X1306535Y1093989*
X1305854Y1093676*
X1303808*
X1309035Y1097114D02*
Y1090551D01*
Y1097114D02*
X1311081D01*
X1311763Y1096801*
X1311990Y1096489*
X1312217Y1095864*
Y1094926*
X1311990Y1094301*
X1311763Y1093989*
X1311081Y1093676*
X1309035*
X1314263Y1097114D02*
Y1090551D01*
Y1097114D02*
X1317217D01*
X1314263Y1093989D02*
X1316081D01*
X1314263Y1090551D02*
X1317217D01*
X1319263Y1097114D02*
Y1090551D01*
Y1097114D02*
X1321308D01*
X1321990Y1096801*
X1322217Y1096489*
X1322445Y1095864*
Y1095239*
X1322217Y1094614*
X1321990Y1094301*
X1321308Y1093989*
X1319263*
X1320854D02*
X1322445Y1090551D01*
X1329717Y1097114D02*
Y1090551D01*
X1332445*
X1336308Y1097114D02*
X1334490Y1090551D01*
X1336308Y1097114D02*
X1338126Y1090551D01*
X1335172Y1092739D02*
X1337445D01*
X1340172Y1097114D02*
X1341990Y1093989D01*
Y1090551*
X1343808Y1097114D02*
X1341990Y1093989D01*
X1345854Y1097114D02*
Y1090551D01*
Y1097114D02*
X1348808D01*
X1345854Y1093989D02*
X1347672D01*
X1345854Y1090551D02*
X1348808D01*
X1350854Y1097114D02*
Y1090551D01*
Y1097114D02*
X1352899D01*
X1353581Y1096801*
X1353808Y1096489*
X1354035Y1095864*
Y1095239*
X1353808Y1094614*
X1353581Y1094301*
X1352899Y1093989*
X1350854*
X1352445D02*
X1354035Y1090551D01*
X1359263Y1096176D02*
X1358808Y1096801D01*
X1358126Y1097114*
X1357217*
X1356535Y1096801*
X1356081Y1096176*
Y1095551*
X1356308Y1094926*
X1356535Y1094614*
X1356990Y1094301*
X1358354Y1093676*
X1358808Y1093364*
X1359035Y1093051*
X1359263Y1092426*
Y1091489*
X1358808Y1090864*
X1358126Y1090551*
X1357217*
X1356535Y1090864*
X1356081Y1091489*
X1361535Y1094926D02*
X1361308Y1094614D01*
X1361535Y1094301*
X1361763Y1094614*
X1361535Y1094926*
Y1091176D02*
X1361308Y1090864D01*
X1361535Y1090551*
X1361763Y1090864*
X1361535Y1091176*
X1374490Y1095551D02*
Y1095864D01*
X1374717Y1096489*
X1374945Y1096801*
X1375399Y1097114*
X1376308*
X1376763Y1096801*
X1376990Y1096489*
X1377217Y1095864*
Y1095239*
X1376990Y1094614*
X1376535Y1093676*
X1374263Y1090551*
X1377445*
X1218808Y1085303D02*
X1216535Y1080928D01*
X1219945*
X1218808Y1085303D02*
Y1078740D01*
X1222217Y1079365D02*
X1221990Y1079053D01*
X1222217Y1078740*
X1222445Y1079053*
X1222217Y1079365*
X1241535Y1085303D02*
X1241081Y1084990D01*
X1240626Y1084365*
X1240399Y1083740*
X1240172Y1082803*
Y1081240*
X1240399Y1080303*
X1240626Y1079678*
X1241081Y1079053*
X1241535Y1078740*
X1242445*
X1242899Y1079053*
X1243354Y1079678*
X1243581Y1080303*
X1243808Y1081240*
Y1082803*
X1243581Y1083740*
X1243354Y1084365*
X1242899Y1084990*
X1242445Y1085303*
X1241535*
X1245854D02*
X1247672Y1078740D01*
X1249490Y1085303D02*
X1247672Y1078740D01*
X1251535Y1085303D02*
Y1078740D01*
Y1085303D02*
X1254490D01*
X1251535Y1082178D02*
X1253354D01*
X1251535Y1078740D02*
X1254490D01*
X1256535Y1085303D02*
Y1078740D01*
Y1085303D02*
X1258581D01*
X1259263Y1084990*
X1259490Y1084678*
X1259717Y1084053*
Y1083428*
X1259490Y1082803*
X1259263Y1082490*
X1258581Y1082178*
X1256535*
X1258126D02*
X1259717Y1078740D01*
X1263581Y1085303D02*
X1261763Y1078740D01*
X1263581Y1085303D02*
X1265399Y1078740D01*
X1262445Y1080928D02*
X1264717D01*
X1267445Y1085303D02*
Y1078740D01*
X1270172*
X1272217Y1085303D02*
Y1078740D01*
X1274945*
X1283808Y1085303D02*
Y1078740D01*
X1282217Y1085303D02*
X1285399D01*
X1287445D02*
Y1078740D01*
X1290626Y1085303D02*
Y1078740D01*
X1287445Y1082178D02*
X1290626D01*
X1292672Y1085303D02*
Y1078740D01*
X1298126Y1083740D02*
X1297899Y1084365D01*
X1297445Y1084990*
X1296990Y1085303*
X1296081*
X1295626Y1084990*
X1295172Y1084365*
X1294945Y1083740*
X1294717Y1082803*
Y1081240*
X1294945Y1080303*
X1295172Y1079678*
X1295626Y1079053*
X1296081Y1078740*
X1296990*
X1297445Y1079053*
X1297899Y1079678*
X1298126Y1080303*
X1300172Y1085303D02*
Y1078740D01*
X1303354Y1085303D02*
X1300172Y1080928D01*
X1301308Y1082490D02*
X1303354Y1078740D01*
X1305399Y1085303D02*
Y1078740D01*
Y1085303D02*
X1308581Y1078740D01*
Y1085303D02*
Y1078740D01*
X1310626Y1085303D02*
Y1078740D01*
Y1085303D02*
X1313581D01*
X1310626Y1082178D02*
X1312445D01*
X1310626Y1078740D02*
X1313581D01*
X1318808Y1084365D02*
X1318354Y1084990D01*
X1317672Y1085303*
X1316763*
X1316081Y1084990*
X1315626Y1084365*
Y1083740*
X1315854Y1083115*
X1316081Y1082803*
X1316535Y1082490*
X1317899Y1081865*
X1318354Y1081553*
X1318581Y1081240*
X1318808Y1080615*
Y1079678*
X1318354Y1079053*
X1317672Y1078740*
X1316763*
X1316081Y1079053*
X1315626Y1079678*
X1324035Y1084365D02*
X1323581Y1084990D01*
X1322899Y1085303*
X1321990*
X1321308Y1084990*
X1320854Y1084365*
Y1083740*
X1321081Y1083115*
X1321308Y1082803*
X1321763Y1082490*
X1323126Y1081865*
X1323581Y1081553*
X1323808Y1081240*
X1324035Y1080615*
Y1079678*
X1323581Y1079053*
X1322899Y1078740*
X1321990*
X1321308Y1079053*
X1320854Y1079678*
X1326308Y1083115D02*
X1326081Y1082803D01*
X1326308Y1082490*
X1326535Y1082803*
X1326308Y1083115*
Y1079365D02*
X1326081Y1079053D01*
X1326308Y1078740*
X1326535Y1079053*
X1326308Y1079365*
X1344263Y1084053D02*
X1344717Y1084365D01*
X1345399Y1085303*
Y1078740*
X1347672Y1079365D02*
X1347445Y1079053D01*
X1347672Y1078740*
X1347899Y1079053*
X1347672Y1079365*
X1351308Y1085303D02*
X1350626Y1084990D01*
X1350172Y1084053*
X1349945Y1082490*
Y1081553*
X1350172Y1079990*
X1350626Y1079053*
X1351308Y1078740*
X1351763*
X1352445Y1079053*
X1352899Y1079990*
X1353126Y1081553*
Y1082490*
X1352899Y1084053*
X1352445Y1084990*
X1351763Y1085303*
X1351308*
X1355172Y1083115D02*
Y1078740D01*
Y1081865D02*
X1355854Y1082803D01*
X1356308Y1083115*
X1356990*
X1357445Y1082803*
X1357672Y1081865*
Y1078740*
Y1081865D02*
X1358354Y1082803D01*
X1358808Y1083115*
X1359490*
X1359945Y1082803*
X1360172Y1081865*
Y1078740*
X1362217Y1083115D02*
Y1078740D01*
Y1081865D02*
X1362899Y1082803D01*
X1363354Y1083115*
X1364035*
X1364490Y1082803*
X1364717Y1081865*
Y1078740*
Y1081865D02*
X1365399Y1082803D01*
X1365854Y1083115*
X1366535*
X1366990Y1082803*
X1367217Y1081865*
Y1078740*
X1376535Y1084365D02*
Y1078740D01*
X1374490Y1081553D02*
X1378581D01*
X1384717Y1086553D02*
X1380626Y1076553D01*
X1386763Y1081553D02*
X1390854D01*
X1399490Y1085303D02*
X1398808Y1084990D01*
X1398354Y1084053*
X1398126Y1082490*
Y1081553*
X1398354Y1079990*
X1398808Y1079053*
X1399490Y1078740*
X1399945*
X1400626Y1079053*
X1401081Y1079990*
X1401308Y1081553*
Y1082490*
X1401081Y1084053*
X1400626Y1084990*
X1399945Y1085303*
X1399490*
X1403581Y1079365D02*
X1403354Y1079053D01*
X1403581Y1078740*
X1403808Y1079053*
X1403581Y1079365*
X1405854Y1084053D02*
X1406308Y1084365D01*
X1406990Y1085303*
Y1078740*
X1409035Y1083115D02*
Y1078740D01*
Y1081865D02*
X1409717Y1082803D01*
X1410172Y1083115*
X1410854*
X1411308Y1082803*
X1411535Y1081865*
Y1078740*
Y1081865D02*
X1412217Y1082803D01*
X1412672Y1083115*
X1413354*
X1413808Y1082803*
X1414035Y1081865*
Y1078740*
X1416081Y1083115D02*
Y1078740D01*
Y1081865D02*
X1416763Y1082803D01*
X1417217Y1083115*
X1417899*
X1418354Y1082803*
X1418581Y1081865*
Y1078740*
Y1081865D02*
X1419263Y1082803D01*
X1419717Y1083115*
X1420399*
X1420854Y1082803*
X1421081Y1081865*
Y1078740*
X1219490Y1073492D02*
X1217217D01*
X1216990Y1070679*
X1217217Y1070992*
X1217899Y1071304*
X1218581*
X1219263Y1070992*
X1219717Y1070367*
X1219945Y1069429*
X1219717Y1068804*
X1219490Y1067867*
X1219035Y1067242*
X1218354Y1066929*
X1217672*
X1216990Y1067242*
X1216763Y1067554*
X1216535Y1068179*
X1222217Y1067554D02*
X1221990Y1067242D01*
X1222217Y1066929*
X1222445Y1067242*
X1222217Y1067554*
X1243354Y1072554D02*
X1242899Y1073179D01*
X1242217Y1073492*
X1241308*
X1240626Y1073179*
X1240172Y1072554*
Y1071929*
X1240399Y1071304*
X1240626Y1070992*
X1241081Y1070679*
X1242445Y1070054*
X1242899Y1069742*
X1243126Y1069429*
X1243354Y1068804*
Y1067867*
X1242899Y1067242*
X1242217Y1066929*
X1241308*
X1240626Y1067242*
X1240172Y1067867*
X1246763Y1073492D02*
X1246308Y1073179D01*
X1245854Y1072554*
X1245626Y1071929*
X1245399Y1070992*
Y1069429*
X1245626Y1068492*
X1245854Y1067867*
X1246308Y1067242*
X1246763Y1066929*
X1247672*
X1248126Y1067242*
X1248581Y1067867*
X1248808Y1068492*
X1249035Y1069429*
Y1070992*
X1248808Y1071929*
X1248581Y1072554*
X1248126Y1073179*
X1247672Y1073492*
X1246763*
X1251081D02*
Y1066929D01*
X1253808*
X1255854Y1073492D02*
Y1066929D01*
Y1073492D02*
X1257445D01*
X1258126Y1073179*
X1258581Y1072554*
X1258808Y1071929*
X1259035Y1070992*
Y1069429*
X1258808Y1068492*
X1258581Y1067867*
X1258126Y1067242*
X1257445Y1066929*
X1255854*
X1261081Y1073492D02*
Y1066929D01*
Y1073492D02*
X1264035D01*
X1261081Y1070367D02*
X1262899D01*
X1261081Y1066929D02*
X1264035D01*
X1266081Y1073492D02*
Y1066929D01*
Y1073492D02*
X1268126D01*
X1268808Y1073179*
X1269035Y1072867*
X1269263Y1072242*
Y1071617*
X1269035Y1070992*
X1268808Y1070679*
X1268126Y1070367*
X1266081*
X1267672D02*
X1269263Y1066929D01*
X1271308Y1073492D02*
Y1066929D01*
Y1073492D02*
X1273126Y1066929D01*
X1274945Y1073492D02*
X1273126Y1066929D01*
X1274945Y1073492D02*
Y1066929D01*
X1278808Y1073492D02*
X1276990Y1066929D01*
X1278808Y1073492D02*
X1280626Y1066929D01*
X1277672Y1069117D02*
X1279945D01*
X1285854Y1072554D02*
X1285399Y1073179D01*
X1284717Y1073492*
X1283808*
X1283126Y1073179*
X1282672Y1072554*
Y1071929*
X1282899Y1071304*
X1283126Y1070992*
X1283581Y1070679*
X1284945Y1070054*
X1285399Y1069742*
X1285626Y1069429*
X1285854Y1068804*
Y1067867*
X1285399Y1067242*
X1284717Y1066929*
X1283808*
X1283126Y1067242*
X1282672Y1067867*
X1287899Y1073492D02*
Y1066929D01*
X1291081Y1073492D02*
X1287899Y1069117D01*
X1289035Y1070679D02*
X1291081Y1066929D01*
X1293354Y1071304D02*
X1293126Y1070992D01*
X1293354Y1070679*
X1293581Y1070992*
X1293354Y1071304*
Y1067554D02*
X1293126Y1067242D01*
X1293354Y1066929*
X1293581Y1067242*
X1293354Y1067554*
X1314490Y1072554D02*
X1314035Y1073179D01*
X1313354Y1073492*
X1312445*
X1311763Y1073179*
X1311308Y1072554*
Y1071929*
X1311535Y1071304*
X1311763Y1070992*
X1312217Y1070679*
X1313581Y1070054*
X1314035Y1069742*
X1314263Y1069429*
X1314490Y1068804*
Y1067867*
X1314035Y1067242*
X1313354Y1066929*
X1312445*
X1311763Y1067242*
X1311308Y1067867*
X1316535Y1073492D02*
Y1066929D01*
Y1073492D02*
X1318354Y1066929D01*
X1320172Y1073492D02*
X1318354Y1066929D01*
X1320172Y1073492D02*
Y1066929D01*
X1323581Y1073492D02*
X1323126Y1073179D01*
X1322672Y1072554*
X1322445Y1071929*
X1322217Y1070992*
Y1069429*
X1322445Y1068492*
X1322672Y1067867*
X1323126Y1067242*
X1323581Y1066929*
X1324490*
X1324945Y1067242*
X1325399Y1067867*
X1325626Y1068492*
X1325854Y1069429*
Y1070992*
X1325626Y1071929*
X1325399Y1072554*
X1324945Y1073179*
X1324490Y1073492*
X1323581*
X1327899D02*
Y1066929D01*
Y1073492D02*
X1329945D01*
X1330626Y1073179*
X1330854Y1072867*
X1331081Y1072242*
Y1071617*
X1330854Y1070992*
X1330626Y1070679*
X1329945Y1070367*
X1327899D02*
X1329945D01*
X1330626Y1070054*
X1330854Y1069742*
X1331081Y1069117*
Y1068179*
X1330854Y1067554*
X1330626Y1067242*
X1329945Y1066929*
X1327899*
X1336535Y1071929D02*
X1336308Y1072554D01*
X1335854Y1073179*
X1335399Y1073492*
X1334490*
X1334035Y1073179*
X1333581Y1072554*
X1333354Y1071929*
X1333126Y1070992*
Y1069429*
X1333354Y1068492*
X1333581Y1067867*
X1334035Y1067242*
X1334490Y1066929*
X1335399*
X1335854Y1067242*
X1336308Y1067867*
X1336535Y1068492*
X1343808Y1073492D02*
Y1066929D01*
X1345854Y1073492D02*
X1346081Y1073179D01*
X1346308Y1073492*
X1346081Y1073804*
X1345854Y1073492*
X1346081Y1071304D02*
Y1066929D01*
X1351081Y1071304D02*
Y1064742D01*
Y1070367D02*
X1350626Y1070992D01*
X1350172Y1071304*
X1349490*
X1349035Y1070992*
X1348581Y1070367*
X1348354Y1069429*
Y1068804*
X1348581Y1067867*
X1349035Y1067242*
X1349490Y1066929*
X1350172*
X1350626Y1067242*
X1351081Y1067867*
X1353126Y1071304D02*
Y1068179D01*
X1353354Y1067242*
X1353808Y1066929*
X1354490*
X1354945Y1067242*
X1355626Y1068179*
Y1071304D02*
Y1066929D01*
X1357672Y1073492D02*
X1357899Y1073179D01*
X1358126Y1073492*
X1357899Y1073804*
X1357672Y1073492*
X1357899Y1071304D02*
Y1066929D01*
X1362899Y1073492D02*
Y1066929D01*
Y1070367D02*
X1362445Y1070992D01*
X1361990Y1071304*
X1361308*
X1360854Y1070992*
X1360399Y1070367*
X1360172Y1069429*
Y1068804*
X1360399Y1067867*
X1360854Y1067242*
X1361308Y1066929*
X1361990*
X1362445Y1067242*
X1362899Y1067867*
X1370172Y1071304D02*
Y1064742D01*
Y1070367D02*
X1370626Y1070992D01*
X1371081Y1071304*
X1371763*
X1372217Y1070992*
X1372672Y1070367*
X1372899Y1069429*
Y1068804*
X1372672Y1067867*
X1372217Y1067242*
X1371763Y1066929*
X1371081*
X1370626Y1067242*
X1370172Y1067867*
X1374945Y1073492D02*
Y1066929D01*
Y1070054D02*
X1375626Y1070992D01*
X1376081Y1071304*
X1376763*
X1377217Y1070992*
X1377445Y1070054*
Y1066929*
X1380626Y1071304D02*
X1380172Y1070992D01*
X1379717Y1070367*
X1379490Y1069429*
Y1068804*
X1379717Y1067867*
X1380172Y1067242*
X1380626Y1066929*
X1381308*
X1381763Y1067242*
X1382217Y1067867*
X1382445Y1068804*
Y1069429*
X1382217Y1070367*
X1381763Y1070992*
X1381308Y1071304*
X1380626*
X1385172Y1073492D02*
Y1068179D01*
X1385399Y1067242*
X1385854Y1066929*
X1386308*
X1384490Y1071304D02*
X1386081D01*
X1389490D02*
X1389035Y1070992D01*
X1388581Y1070367*
X1388354Y1069429*
Y1068804*
X1388581Y1067867*
X1389035Y1067242*
X1389490Y1066929*
X1390172*
X1390626Y1067242*
X1391081Y1067867*
X1391308Y1068804*
Y1069429*
X1391081Y1070367*
X1390626Y1070992*
X1390172Y1071304*
X1389490*
X1393354Y1073492D02*
X1393581Y1073179D01*
X1393808Y1073492*
X1393581Y1073804*
X1393354Y1073492*
X1393581Y1071304D02*
Y1066929D01*
X1395854Y1071304D02*
Y1066929D01*
Y1070054D02*
X1396535Y1070992D01*
X1396990Y1071304*
X1397672*
X1398126Y1070992*
X1398354Y1070054*
Y1066929*
Y1070054D02*
X1399035Y1070992D01*
X1399490Y1071304*
X1400172*
X1400626Y1070992*
X1400854Y1070054*
Y1066929*
X1405626Y1071304D02*
Y1066929D01*
Y1070367D02*
X1405172Y1070992D01*
X1404717Y1071304*
X1404035*
X1403581Y1070992*
X1403126Y1070367*
X1402899Y1069429*
Y1068804*
X1403126Y1067867*
X1403581Y1067242*
X1404035Y1066929*
X1404717*
X1405172Y1067242*
X1405626Y1067867*
X1410399Y1071304D02*
Y1066304D01*
X1410172Y1065367*
X1409945Y1065054*
X1409490Y1064742*
X1408808*
X1408354Y1065054*
X1410399Y1070367D02*
X1409945Y1070992D01*
X1409490Y1071304*
X1408808*
X1408354Y1070992*
X1407899Y1070367*
X1407672Y1069429*
Y1068804*
X1407899Y1067867*
X1408354Y1067242*
X1408808Y1066929*
X1409490*
X1409945Y1067242*
X1410399Y1067867*
X1412445Y1069429D02*
X1415172D01*
Y1070054*
X1414945Y1070679*
X1414717Y1070992*
X1414263Y1071304*
X1413581*
X1413126Y1070992*
X1412672Y1070367*
X1412445Y1069429*
Y1068804*
X1412672Y1067867*
X1413126Y1067242*
X1413581Y1066929*
X1414263*
X1414717Y1067242*
X1415172Y1067867*
X1419945Y1071304D02*
Y1066929D01*
Y1070367D02*
X1419490Y1070992D01*
X1419035Y1071304*
X1418354*
X1417899Y1070992*
X1417445Y1070367*
X1417217Y1069429*
Y1068804*
X1417445Y1067867*
X1417899Y1067242*
X1418354Y1066929*
X1419035*
X1419490Y1067242*
X1419945Y1067867*
X1421990Y1073492D02*
Y1066929D01*
Y1070367D02*
X1422445Y1070992D01*
X1422899Y1071304*
X1423581*
X1424035Y1070992*
X1424490Y1070367*
X1424717Y1069429*
Y1068804*
X1424490Y1067867*
X1424035Y1067242*
X1423581Y1066929*
X1422899*
X1422445Y1067242*
X1421990Y1067867*
X1426763Y1073492D02*
Y1066929D01*
X1428808Y1069429D02*
X1431535D01*
Y1070054*
X1431308Y1070679*
X1431081Y1070992*
X1430626Y1071304*
X1429945*
X1429490Y1070992*
X1429035Y1070367*
X1428808Y1069429*
Y1068804*
X1429035Y1067867*
X1429490Y1067242*
X1429945Y1066929*
X1430626*
X1431081Y1067242*
X1431535Y1067867*
X1439490Y1073492D02*
Y1068179D01*
X1439717Y1067242*
X1440172Y1066929*
X1440626*
X1438808Y1071304D02*
X1440399D01*
X1442672D02*
Y1066929D01*
Y1069429D02*
X1442899Y1070367D01*
X1443354Y1070992*
X1443808Y1071304*
X1444490*
X1449263D02*
Y1066929D01*
Y1070367D02*
X1448808Y1070992D01*
X1448354Y1071304*
X1447672*
X1447217Y1070992*
X1446763Y1070367*
X1446535Y1069429*
Y1068804*
X1446763Y1067867*
X1447217Y1067242*
X1447672Y1066929*
X1448354*
X1448808Y1067242*
X1449263Y1067867*
X1451308Y1071304D02*
Y1066929D01*
Y1070054D02*
X1451990Y1070992D01*
X1452445Y1071304*
X1453126*
X1453581Y1070992*
X1453808Y1070054*
Y1066929*
X1458354Y1070367D02*
X1458126Y1070992D01*
X1457445Y1071304*
X1456763*
X1456081Y1070992*
X1455854Y1070367*
X1456081Y1069742*
X1456535Y1069429*
X1457672Y1069117*
X1458126Y1068804*
X1458354Y1068179*
Y1067867*
X1458126Y1067242*
X1457445Y1066929*
X1456763*
X1456081Y1067242*
X1455854Y1067867*
X1460399Y1073492D02*
Y1066929D01*
X1462445Y1071304D02*
Y1068179D01*
X1462672Y1067242*
X1463126Y1066929*
X1463808*
X1464263Y1067242*
X1464945Y1068179*
Y1071304D02*
Y1066929D01*
X1469717Y1070367D02*
X1469263Y1070992D01*
X1468808Y1071304*
X1468126*
X1467672Y1070992*
X1467217Y1070367*
X1466990Y1069429*
Y1068804*
X1467217Y1067867*
X1467672Y1067242*
X1468126Y1066929*
X1468808*
X1469263Y1067242*
X1469717Y1067867*
X1471763Y1069429D02*
X1474490D01*
Y1070054*
X1474263Y1070679*
X1474035Y1070992*
X1473581Y1071304*
X1472899*
X1472445Y1070992*
X1471990Y1070367*
X1471763Y1069429*
Y1068804*
X1471990Y1067867*
X1472445Y1067242*
X1472899Y1066929*
X1473581*
X1474035Y1067242*
X1474490Y1067867*
X1476535Y1071304D02*
Y1066929D01*
Y1070054D02*
X1477217Y1070992D01*
X1477672Y1071304*
X1478354*
X1478808Y1070992*
X1479035Y1070054*
Y1066929*
X1481763Y1073492D02*
Y1068179D01*
X1481990Y1067242*
X1482445Y1066929*
X1482899*
X1481081Y1071304D02*
X1482672D01*
X1490172D02*
Y1066929D01*
Y1069429D02*
X1490399Y1070367D01*
X1490854Y1070992*
X1491308Y1071304*
X1491990*
X1494035Y1069429D02*
X1496763D01*
Y1070054*
X1496535Y1070679*
X1496308Y1070992*
X1495854Y1071304*
X1495172*
X1494717Y1070992*
X1494263Y1070367*
X1494035Y1069429*
Y1068804*
X1494263Y1067867*
X1494717Y1067242*
X1495172Y1066929*
X1495854*
X1496308Y1067242*
X1496763Y1067867*
X1501535Y1073492D02*
Y1066929D01*
Y1070367D02*
X1501081Y1070992D01*
X1500626Y1071304*
X1499945*
X1499490Y1070992*
X1499035Y1070367*
X1498808Y1069429*
Y1068804*
X1499035Y1067867*
X1499490Y1067242*
X1499945Y1066929*
X1500626*
X1501081Y1067242*
X1501535Y1067867*
X1504035Y1067242D02*
X1503808Y1066929D01*
X1503581Y1067242*
X1503808Y1067554*
X1504035Y1067242*
Y1066617*
X1503808Y1065992*
X1503581Y1065679*
X1512899Y1073492D02*
Y1066929D01*
X1511308Y1073492D02*
X1514490D01*
X1517672Y1071304D02*
X1517217Y1070992D01*
X1516763Y1070367*
X1516535Y1069429*
Y1068804*
X1516763Y1067867*
X1517217Y1067242*
X1517672Y1066929*
X1518354*
X1518808Y1067242*
X1519263Y1067867*
X1519490Y1068804*
Y1069429*
X1519263Y1070367*
X1518808Y1070992*
X1518354Y1071304*
X1517672*
X1521535D02*
Y1064742D01*
Y1070367D02*
X1521990Y1070992D01*
X1522445Y1071304*
X1523126*
X1523581Y1070992*
X1524035Y1070367*
X1524263Y1069429*
Y1068804*
X1524035Y1067867*
X1523581Y1067242*
X1523126Y1066929*
X1522445*
X1521990Y1067242*
X1521535Y1067867*
X1534263Y1071304D02*
Y1066929D01*
Y1070367D02*
X1533808Y1070992D01*
X1533354Y1071304*
X1532672*
X1532217Y1070992*
X1531763Y1070367*
X1531535Y1069429*
Y1068804*
X1531763Y1067867*
X1532217Y1067242*
X1532672Y1066929*
X1533354*
X1533808Y1067242*
X1534263Y1067867*
X1536308Y1071304D02*
Y1066929D01*
Y1070054D02*
X1536990Y1070992D01*
X1537445Y1071304*
X1538126*
X1538581Y1070992*
X1538808Y1070054*
Y1066929*
X1543581Y1073492D02*
Y1066929D01*
Y1070367D02*
X1543126Y1070992D01*
X1542672Y1071304*
X1541990*
X1541535Y1070992*
X1541081Y1070367*
X1540854Y1069429*
Y1068804*
X1541081Y1067867*
X1541535Y1067242*
X1541990Y1066929*
X1542672*
X1543126Y1067242*
X1543581Y1067867*
X1550854Y1073492D02*
Y1066929D01*
Y1073492D02*
X1552899D01*
X1553581Y1073179*
X1553808Y1072867*
X1554035Y1072242*
Y1071617*
X1553808Y1070992*
X1553581Y1070679*
X1552899Y1070367*
X1550854D02*
X1552899D01*
X1553581Y1070054*
X1553808Y1069742*
X1554035Y1069117*
Y1068179*
X1553808Y1067554*
X1553581Y1067242*
X1552899Y1066929*
X1550854*
X1557217Y1071304D02*
X1556763Y1070992D01*
X1556308Y1070367*
X1556081Y1069429*
Y1068804*
X1556308Y1067867*
X1556763Y1067242*
X1557217Y1066929*
X1557899*
X1558354Y1067242*
X1558808Y1067867*
X1559035Y1068804*
Y1069429*
X1558808Y1070367*
X1558354Y1070992*
X1557899Y1071304*
X1557217*
X1561763Y1073492D02*
Y1068179D01*
X1561990Y1067242*
X1562445Y1066929*
X1562899*
X1561081Y1071304D02*
X1562672D01*
X1565626Y1073492D02*
Y1068179D01*
X1565854Y1067242*
X1566308Y1066929*
X1566763*
X1564945Y1071304D02*
X1566535D01*
X1569945D02*
X1569490Y1070992D01*
X1569035Y1070367*
X1568808Y1069429*
Y1068804*
X1569035Y1067867*
X1569490Y1067242*
X1569945Y1066929*
X1570626*
X1571081Y1067242*
X1571535Y1067867*
X1571763Y1068804*
Y1069429*
X1571535Y1070367*
X1571081Y1070992*
X1570626Y1071304*
X1569945*
X1573808D02*
Y1066929D01*
Y1070054D02*
X1574490Y1070992D01*
X1574945Y1071304*
X1575626*
X1576081Y1070992*
X1576308Y1070054*
Y1066929*
Y1070054D02*
X1576990Y1070992D01*
X1577445Y1071304*
X1578126*
X1578581Y1070992*
X1578808Y1070054*
Y1066929*
X1581081Y1067554D02*
X1580854Y1067242D01*
X1581081Y1066929*
X1581308Y1067242*
X1581081Y1067554*
X1219263Y1060743D02*
X1219035Y1061368D01*
X1218354Y1061681*
X1217899*
X1217217Y1061368*
X1216763Y1060431*
X1216535Y1058868*
Y1057306*
X1216763Y1056056*
X1217217Y1055431*
X1217899Y1055118*
X1218126*
X1218808Y1055431*
X1219263Y1056056*
X1219490Y1056993*
Y1057306*
X1219263Y1058243*
X1218808Y1058868*
X1218126Y1059181*
X1217899*
X1217217Y1058868*
X1216763Y1058243*
X1216535Y1057306*
X1221763Y1055743D02*
X1221535Y1055431D01*
X1221763Y1055118*
X1221990Y1055431*
X1221763Y1055743*
X1239717Y1061681D02*
Y1055118D01*
Y1061681D02*
X1241763D01*
X1242445Y1061368*
X1242672Y1061056*
X1242899Y1060431*
Y1059493*
X1242672Y1058868*
X1242445Y1058556*
X1241763Y1058243*
X1239717*
X1244945Y1061681D02*
Y1055118D01*
X1247672*
X1251535Y1061681D02*
X1249717Y1055118D01*
X1251535Y1061681D02*
X1253354Y1055118D01*
X1250399Y1057306D02*
X1252672D01*
X1256990Y1061681D02*
Y1055118D01*
X1255399Y1061681D02*
X1258581D01*
X1260626D02*
Y1055118D01*
X1262672Y1061681D02*
Y1055118D01*
Y1061681D02*
X1265854Y1055118D01*
Y1061681D02*
Y1055118D01*
X1271308Y1060118D02*
X1271081Y1060743D01*
X1270626Y1061368*
X1270172Y1061681*
X1269263*
X1268808Y1061368*
X1268354Y1060743*
X1268126Y1060118*
X1267899Y1059181*
Y1057618*
X1268126Y1056681*
X1268354Y1056056*
X1268808Y1055431*
X1269263Y1055118*
X1270172*
X1270626Y1055431*
X1271081Y1056056*
X1271308Y1056681*
Y1057618*
X1270172D02*
X1271308D01*
X1273581Y1059493D02*
X1273354Y1059181D01*
X1273581Y1058868*
X1273808Y1059181*
X1273581Y1059493*
Y1055743D02*
X1273354Y1055431D01*
X1273581Y1055118*
X1273808Y1055431*
X1273581Y1055743*
X1291535Y1061681D02*
Y1055118D01*
Y1061681D02*
X1294490D01*
X1291535Y1058556D02*
X1293354D01*
X1291535Y1055118D02*
X1294490D01*
X1296535Y1061681D02*
Y1055118D01*
Y1061681D02*
X1299717Y1055118D01*
Y1061681D02*
Y1055118D01*
X1301763Y1061681D02*
Y1055118D01*
X1307217Y1060118D02*
X1306990Y1060743D01*
X1306535Y1061368*
X1306081Y1061681*
X1305172*
X1304717Y1061368*
X1304263Y1060743*
X1304035Y1060118*
X1303808Y1059181*
Y1057618*
X1304035Y1056681*
X1304263Y1056056*
X1304717Y1055431*
X1305172Y1055118*
X1306081*
X1306535Y1055431*
X1306990Y1056056*
X1307217Y1056681*
Y1057618*
X1306081D02*
X1307217D01*
X1219717Y1049870D02*
X1217445Y1043307D01*
X1216535Y1049870D02*
X1219717D01*
X1221990Y1043932D02*
X1221763Y1043620D01*
X1221990Y1043307*
X1222217Y1043620*
X1221990Y1043932*
X1243126Y1048932D02*
X1242672Y1049557D01*
X1241990Y1049870*
X1241081*
X1240399Y1049557*
X1239945Y1048932*
Y1048307*
X1240172Y1047682*
X1240399Y1047370*
X1240854Y1047057*
X1242217Y1046432*
X1242672Y1046120*
X1242899Y1045807*
X1243126Y1045182*
Y1044245*
X1242672Y1043620*
X1241990Y1043307*
X1241081*
X1240399Y1043620*
X1239945Y1044245*
X1245172Y1049870D02*
Y1043307D01*
X1247217Y1049870D02*
Y1043307D01*
X1249945*
X1251990Y1049870D02*
Y1043307D01*
X1255172Y1049870D02*
X1251990Y1045495D01*
X1253126Y1047057D02*
X1255172Y1043307D01*
X1260399Y1048932D02*
X1259945Y1049557D01*
X1259263Y1049870*
X1258354*
X1257672Y1049557*
X1257217Y1048932*
Y1048307*
X1257445Y1047682*
X1257672Y1047370*
X1258126Y1047057*
X1259490Y1046432*
X1259945Y1046120*
X1260172Y1045807*
X1260399Y1045182*
Y1044245*
X1259945Y1043620*
X1259263Y1043307*
X1258354*
X1257672Y1043620*
X1257217Y1044245*
X1265854Y1048307D02*
X1265626Y1048932D01*
X1265172Y1049557*
X1264717Y1049870*
X1263808*
X1263354Y1049557*
X1262899Y1048932*
X1262672Y1048307*
X1262445Y1047370*
Y1045807*
X1262672Y1044870*
X1262899Y1044245*
X1263354Y1043620*
X1263808Y1043307*
X1264717*
X1265172Y1043620*
X1265626Y1044245*
X1265854Y1044870*
X1267899Y1049870D02*
Y1043307D01*
Y1049870D02*
X1269945D01*
X1270626Y1049557*
X1270854Y1049245*
X1271081Y1048620*
Y1047995*
X1270854Y1047370*
X1270626Y1047057*
X1269945Y1046745*
X1267899*
X1269490D02*
X1271081Y1043307D01*
X1273126Y1049870D02*
Y1043307D01*
Y1049870D02*
X1276081D01*
X1273126Y1046745D02*
X1274945D01*
X1273126Y1043307D02*
X1276081D01*
X1278126Y1049870D02*
Y1043307D01*
Y1049870D02*
X1281081D01*
X1278126Y1046745D02*
X1279945D01*
X1278126Y1043307D02*
X1281081D01*
X1283126Y1049870D02*
Y1043307D01*
Y1049870D02*
X1286308Y1043307D01*
Y1049870D02*
Y1043307D01*
X1288581Y1047682D02*
X1288354Y1047370D01*
X1288581Y1047057*
X1288808Y1047370*
X1288581Y1047682*
Y1043932D02*
X1288354Y1043620D01*
X1288581Y1043307*
X1288808Y1043620*
X1288581Y1043932*
X1306535Y1049870D02*
X1307672Y1043307D01*
X1308808Y1049870D02*
X1307672Y1043307D01*
X1308808Y1049870D02*
X1309945Y1043307D01*
X1311081Y1049870D02*
X1309945Y1043307D01*
X1313126Y1049870D02*
Y1043307D01*
Y1046432D02*
X1313808Y1047370D01*
X1314263Y1047682*
X1314945*
X1315399Y1047370*
X1315626Y1046432*
Y1043307*
X1317672Y1049870D02*
X1317899Y1049557D01*
X1318126Y1049870*
X1317899Y1050182*
X1317672Y1049870*
X1317899Y1047682D02*
Y1043307D01*
X1320854Y1049870D02*
Y1044557D01*
X1321081Y1043620*
X1321535Y1043307*
X1321990*
X1320172Y1047682D02*
X1321763D01*
X1324035Y1045807D02*
X1326763D01*
Y1046432*
X1326535Y1047057*
X1326308Y1047370*
X1325854Y1047682*
X1325172*
X1324717Y1047370*
X1324263Y1046745*
X1324035Y1045807*
Y1045182*
X1324263Y1044245*
X1324717Y1043620*
X1325172Y1043307*
X1325854*
X1326308Y1043620*
X1326763Y1044245*
X1334035Y1049870D02*
Y1043307D01*
Y1049870D02*
X1336990D01*
X1334035Y1046745D02*
X1335854D01*
X1334035Y1043307D02*
X1336990D01*
X1339035Y1047682D02*
Y1041120D01*
Y1046745D02*
X1339490Y1047370D01*
X1339945Y1047682*
X1340626*
X1341081Y1047370*
X1341535Y1046745*
X1341763Y1045807*
Y1045182*
X1341535Y1044245*
X1341081Y1043620*
X1340626Y1043307*
X1339945*
X1339490Y1043620*
X1339035Y1044245*
X1344945Y1047682D02*
X1344490Y1047370D01*
X1344035Y1046745*
X1343808Y1045807*
Y1045182*
X1344035Y1044245*
X1344490Y1043620*
X1344945Y1043307*
X1345626*
X1346081Y1043620*
X1346535Y1044245*
X1346763Y1045182*
Y1045807*
X1346535Y1046745*
X1346081Y1047370*
X1345626Y1047682*
X1344945*
X1348808D02*
X1351308Y1043307D01*
Y1047682D02*
X1348808Y1043307D01*
X1353581Y1047682D02*
X1354945Y1043307D01*
X1356308Y1047682D02*
X1354945Y1043307D01*
X1354490Y1042057*
X1354035Y1041432*
X1353581Y1041120*
X1353354*
X1365172Y1049870D02*
Y1043307D01*
X1363581Y1049870D02*
X1366763D01*
X1369945Y1047682D02*
X1369490Y1047370D01*
X1369035Y1046745*
X1368808Y1045807*
Y1045182*
X1369035Y1044245*
X1369490Y1043620*
X1369945Y1043307*
X1370626*
X1371081Y1043620*
X1371535Y1044245*
X1371763Y1045182*
Y1045807*
X1371535Y1046745*
X1371081Y1047370*
X1370626Y1047682*
X1369945*
X1373808D02*
Y1041120D01*
Y1046745D02*
X1374263Y1047370D01*
X1374717Y1047682*
X1375399*
X1375854Y1047370*
X1376308Y1046745*
X1376535Y1045807*
Y1045182*
X1376308Y1044245*
X1375854Y1043620*
X1375399Y1043307*
X1374717*
X1374263Y1043620*
X1373808Y1044245*
X1385172Y1049870D02*
X1384717Y1049557D01*
X1384263Y1048932*
X1384035Y1048307*
X1383808Y1047370*
Y1045807*
X1384035Y1044870*
X1384263Y1044245*
X1384717Y1043620*
X1385172Y1043307*
X1386081*
X1386535Y1043620*
X1386990Y1044245*
X1387217Y1044870*
X1387445Y1045807*
Y1047370*
X1387217Y1048307*
X1386990Y1048932*
X1386535Y1049557*
X1386081Y1049870*
X1385172*
X1389490Y1047682D02*
Y1043307D01*
Y1046432D02*
X1390172Y1047370D01*
X1390626Y1047682*
X1391308*
X1391763Y1047370*
X1391990Y1046432*
Y1043307*
X1394035Y1049870D02*
Y1043307D01*
X1396308Y1047682D02*
X1397672Y1043307D01*
X1399035Y1047682D02*
X1397672Y1043307D01*
X1397217Y1042057*
X1396763Y1041432*
X1396308Y1041120*
X1396081*
X1217672Y1038059D02*
X1216990Y1037746D01*
X1216763Y1037121*
Y1036496*
X1216990Y1035871*
X1217445Y1035559*
X1218354Y1035246*
X1219035Y1034934*
X1219490Y1034309*
X1219717Y1033684*
Y1032746*
X1219490Y1032121*
X1219263Y1031809*
X1218581Y1031496*
X1217672*
X1216990Y1031809*
X1216763Y1032121*
X1216535Y1032746*
Y1033684*
X1216763Y1034309*
X1217217Y1034934*
X1217899Y1035246*
X1218808Y1035559*
X1219263Y1035871*
X1219490Y1036496*
Y1037121*
X1219263Y1037746*
X1218581Y1038059*
X1217672*
X1221990Y1032121D02*
X1221763Y1031809D01*
X1221990Y1031496*
X1222217Y1031809*
X1221990Y1032121*
X1239945Y1038059D02*
X1241763Y1031496D01*
X1243581Y1038059D02*
X1241763Y1031496D01*
X1245626Y1038059D02*
Y1031496D01*
X1249490Y1038059D02*
X1247672Y1031496D01*
X1249490Y1038059D02*
X1251308Y1031496D01*
X1248354Y1033684D02*
X1250626D01*
X1256535Y1037121D02*
X1256081Y1037746D01*
X1255399Y1038059*
X1254490*
X1253808Y1037746*
X1253354Y1037121*
Y1036496*
X1253581Y1035871*
X1253808Y1035559*
X1254263Y1035246*
X1255626Y1034621*
X1256081Y1034309*
X1256308Y1033996*
X1256535Y1033371*
Y1032434*
X1256081Y1031809*
X1255399Y1031496*
X1254490*
X1253808Y1031809*
X1253354Y1032434*
X1258808Y1035871D02*
X1258581Y1035559D01*
X1258808Y1035246*
X1259035Y1035559*
X1258808Y1035871*
Y1032121D02*
X1258581Y1031809D01*
X1258808Y1031496*
X1259035Y1031809*
X1258808Y1032121*
X1283581Y1038059D02*
Y1031496D01*
X1281990Y1038059D02*
X1285172D01*
X1287217Y1033996D02*
X1289945D01*
Y1034621*
X1289717Y1035246*
X1289490Y1035559*
X1289035Y1035871*
X1288354*
X1287899Y1035559*
X1287445Y1034934*
X1287217Y1033996*
Y1033371*
X1287445Y1032434*
X1287899Y1031809*
X1288354Y1031496*
X1289035*
X1289490Y1031809*
X1289945Y1032434*
X1291990Y1035871D02*
Y1031496D01*
Y1034621D02*
X1292672Y1035559D01*
X1293126Y1035871*
X1293808*
X1294263Y1035559*
X1294490Y1034621*
Y1031496*
X1297217Y1038059D02*
Y1032746D01*
X1297445Y1031809*
X1297899Y1031496*
X1298354*
X1296535Y1035871D02*
X1298126D01*
X1300399Y1033996D02*
X1303126D01*
Y1034621*
X1302899Y1035246*
X1302672Y1035559*
X1302217Y1035871*
X1301535*
X1301081Y1035559*
X1300626Y1034934*
X1300399Y1033996*
Y1033371*
X1300626Y1032434*
X1301081Y1031809*
X1301535Y1031496*
X1302217*
X1302672Y1031809*
X1303126Y1032434*
X1307899Y1038059D02*
Y1031496D01*
Y1034934D02*
X1307445Y1035559D01*
X1306990Y1035871*
X1306308*
X1305854Y1035559*
X1305399Y1034934*
X1305172Y1033996*
Y1033371*
X1305399Y1032434*
X1305854Y1031809*
X1306308Y1031496*
X1306990*
X1307445Y1031809*
X1307899Y1032434*
X1310399Y1031809D02*
X1310172Y1031496D01*
X1309945Y1031809*
X1310172Y1032121*
X1310399Y1031809*
Y1031184*
X1310172Y1030559*
X1309945Y1030246*
X1317672Y1035871D02*
Y1031496D01*
Y1034621D02*
X1318354Y1035559D01*
X1318808Y1035871*
X1319490*
X1319945Y1035559*
X1320172Y1034621*
Y1031496*
X1323354Y1035871D02*
X1322899Y1035559D01*
X1322445Y1034934*
X1322217Y1033996*
Y1033371*
X1322445Y1032434*
X1322899Y1031809*
X1323354Y1031496*
X1324035*
X1324490Y1031809*
X1324945Y1032434*
X1325172Y1033371*
Y1033996*
X1324945Y1034934*
X1324490Y1035559*
X1324035Y1035871*
X1323354*
X1327899Y1038059D02*
Y1032746D01*
X1328126Y1031809*
X1328581Y1031496*
X1329035*
X1327217Y1035871D02*
X1328808D01*
X1338126Y1038059D02*
X1337672D01*
X1337217Y1037746*
X1336990Y1036809*
Y1031496*
X1336308Y1035871D02*
X1337899D01*
X1340172Y1038059D02*
X1340399Y1037746D01*
X1340626Y1038059*
X1340399Y1038371*
X1340172Y1038059*
X1340399Y1035871D02*
Y1031496D01*
X1342672Y1038059D02*
Y1031496D01*
X1344717Y1038059D02*
Y1031496D01*
X1346763Y1033996D02*
X1349490D01*
Y1034621*
X1349263Y1035246*
X1349035Y1035559*
X1348581Y1035871*
X1347899*
X1347445Y1035559*
X1346990Y1034934*
X1346763Y1033996*
Y1033371*
X1346990Y1032434*
X1347445Y1031809*
X1347899Y1031496*
X1348581*
X1349035Y1031809*
X1349490Y1032434*
X1354263Y1038059D02*
Y1031496D01*
Y1034934D02*
X1353808Y1035559D01*
X1353354Y1035871*
X1352672*
X1352217Y1035559*
X1351763Y1034934*
X1351535Y1033996*
Y1033371*
X1351763Y1032434*
X1352217Y1031809*
X1352672Y1031496*
X1353354*
X1353808Y1031809*
X1354263Y1032434*
X1356535Y1032121D02*
X1356308Y1031809D01*
X1356535Y1031496*
X1356763Y1031809*
X1356535Y1032121*
X1219490Y1024060D02*
X1219263Y1023123D01*
X1218808Y1022498*
X1218126Y1022185*
X1217899*
X1217217Y1022498*
X1216763Y1023123*
X1216535Y1024060*
Y1024373*
X1216763Y1025310*
X1217217Y1025935*
X1217899Y1026248*
X1218126*
X1218808Y1025935*
X1219263Y1025310*
X1219490Y1024060*
Y1022498*
X1219263Y1020935*
X1218808Y1019998*
X1218126Y1019685*
X1217672*
X1216990Y1019998*
X1216763Y1020623*
X1221763Y1020310D02*
X1221535Y1019998D01*
X1221763Y1019685*
X1221990Y1019998*
X1221763Y1020310*
X1239717Y1026248D02*
Y1019685D01*
Y1026248D02*
X1241308D01*
X1241990Y1025935*
X1242445Y1025310*
X1242672Y1024685*
X1242899Y1023748*
Y1022185*
X1242672Y1021248*
X1242445Y1020623*
X1241990Y1019998*
X1241308Y1019685*
X1239717*
X1244945Y1026248D02*
Y1019685D01*
X1246990Y1026248D02*
Y1019685D01*
Y1026248D02*
X1249945D01*
X1246990Y1023123D02*
X1248808D01*
X1246990Y1019685D02*
X1249945D01*
X1251990Y1026248D02*
Y1019685D01*
X1254717*
X1256763Y1026248D02*
Y1019685D01*
Y1026248D02*
X1259717D01*
X1256763Y1023123D02*
X1258581D01*
X1256763Y1019685D02*
X1259717D01*
X1265172Y1024685D02*
X1264945Y1025310D01*
X1264490Y1025935*
X1264035Y1026248*
X1263126*
X1262672Y1025935*
X1262217Y1025310*
X1261990Y1024685*
X1261763Y1023748*
Y1022185*
X1261990Y1021248*
X1262217Y1020623*
X1262672Y1019998*
X1263126Y1019685*
X1264035*
X1264490Y1019998*
X1264945Y1020623*
X1265172Y1021248*
X1268808Y1026248D02*
Y1019685D01*
X1267217Y1026248D02*
X1270399D01*
X1272445D02*
Y1019685D01*
Y1026248D02*
X1274490D01*
X1275172Y1025935*
X1275399Y1025623*
X1275626Y1024998*
Y1024373*
X1275399Y1023748*
X1275172Y1023435*
X1274490Y1023123*
X1272445*
X1274035D02*
X1275626Y1019685D01*
X1277672Y1026248D02*
Y1019685D01*
X1283126Y1024685D02*
X1282899Y1025310D01*
X1282445Y1025935*
X1281990Y1026248*
X1281081*
X1280626Y1025935*
X1280172Y1025310*
X1279945Y1024685*
X1279717Y1023748*
Y1022185*
X1279945Y1021248*
X1280172Y1020623*
X1280626Y1019998*
X1281081Y1019685*
X1281990*
X1282445Y1019998*
X1282899Y1020623*
X1283126Y1021248*
X1293808Y1024685D02*
X1293581Y1025310D01*
X1293126Y1025935*
X1292672Y1026248*
X1291763*
X1291308Y1025935*
X1290854Y1025310*
X1290626Y1024685*
X1290399Y1023748*
Y1022185*
X1290626Y1021248*
X1290854Y1020623*
X1291308Y1019998*
X1291763Y1019685*
X1292672*
X1293126Y1019998*
X1293581Y1020623*
X1293808Y1021248*
X1297217Y1026248D02*
X1296763Y1025935D01*
X1296308Y1025310*
X1296081Y1024685*
X1295854Y1023748*
Y1022185*
X1296081Y1021248*
X1296308Y1020623*
X1296763Y1019998*
X1297217Y1019685*
X1298126*
X1298581Y1019998*
X1299035Y1020623*
X1299263Y1021248*
X1299490Y1022185*
Y1023748*
X1299263Y1024685*
X1299035Y1025310*
X1298581Y1025935*
X1298126Y1026248*
X1297217*
X1301535D02*
Y1019685D01*
Y1026248D02*
X1304717Y1019685D01*
Y1026248D02*
Y1019685D01*
X1309945Y1025310D02*
X1309490Y1025935D01*
X1308808Y1026248*
X1307899*
X1307217Y1025935*
X1306763Y1025310*
Y1024685*
X1306990Y1024060*
X1307217Y1023748*
X1307672Y1023435*
X1309035Y1022810*
X1309490Y1022498*
X1309717Y1022185*
X1309945Y1021560*
Y1020623*
X1309490Y1019998*
X1308808Y1019685*
X1307899*
X1307217Y1019998*
X1306763Y1020623*
X1313581Y1026248D02*
Y1019685D01*
X1311990Y1026248D02*
X1315172D01*
X1319035D02*
X1317217Y1019685D01*
X1319035Y1026248D02*
X1320854Y1019685D01*
X1317899Y1021873D02*
X1320172D01*
X1322899Y1026248D02*
Y1019685D01*
Y1026248D02*
X1326081Y1019685D01*
Y1026248D02*
Y1019685D01*
X1329717Y1026248D02*
Y1019685D01*
X1328126Y1026248D02*
X1331308D01*
X1333581Y1024060D02*
X1333354Y1023748D01*
X1333581Y1023435*
X1333808Y1023748*
X1333581Y1024060*
Y1020310D02*
X1333354Y1019998D01*
X1333581Y1019685*
X1333808Y1019998*
X1333581Y1020310*
X1351535Y1026248D02*
Y1019685D01*
Y1026248D02*
X1354717Y1019685D01*
Y1026248D02*
Y1019685D01*
X1357899Y1024060D02*
X1357445Y1023748D01*
X1356990Y1023123*
X1356763Y1022185*
Y1021560*
X1356990Y1020623*
X1357445Y1019998*
X1357899Y1019685*
X1358581*
X1359035Y1019998*
X1359490Y1020623*
X1359717Y1021560*
Y1022185*
X1359490Y1023123*
X1359035Y1023748*
X1358581Y1024060*
X1357899*
X1362445Y1026248D02*
Y1020935D01*
X1362672Y1019998*
X1363126Y1019685*
X1363581*
X1361763Y1024060D02*
X1363354D01*
X1373354Y1023123D02*
X1373126Y1023748D01*
X1372445Y1024060*
X1371763*
X1371081Y1023748*
X1370854Y1023123*
X1371081Y1022498*
X1371535Y1022185*
X1372672Y1021873*
X1373126Y1021560*
X1373354Y1020935*
Y1020623*
X1373126Y1019998*
X1372445Y1019685*
X1371763*
X1371081Y1019998*
X1370854Y1020623*
X1375399Y1024060D02*
Y1017498D01*
Y1023123D02*
X1375854Y1023748D01*
X1376308Y1024060*
X1376990*
X1377445Y1023748*
X1377899Y1023123*
X1378126Y1022185*
Y1021560*
X1377899Y1020623*
X1377445Y1019998*
X1376990Y1019685*
X1376308*
X1375854Y1019998*
X1375399Y1020623*
X1380172Y1022185D02*
X1382899D01*
Y1022810*
X1382672Y1023435*
X1382445Y1023748*
X1381990Y1024060*
X1381308*
X1380854Y1023748*
X1380399Y1023123*
X1380172Y1022185*
Y1021560*
X1380399Y1020623*
X1380854Y1019998*
X1381308Y1019685*
X1381990*
X1382445Y1019998*
X1382899Y1020623*
X1387672Y1023123D02*
X1387217Y1023748D01*
X1386763Y1024060*
X1386081*
X1385626Y1023748*
X1385172Y1023123*
X1384945Y1022185*
Y1021560*
X1385172Y1020623*
X1385626Y1019998*
X1386081Y1019685*
X1386763*
X1387217Y1019998*
X1387672Y1020623*
X1389717Y1026248D02*
X1389945Y1025935D01*
X1390172Y1026248*
X1389945Y1026560*
X1389717Y1026248*
X1389945Y1024060D02*
Y1019685D01*
X1394035Y1026248D02*
X1393581D01*
X1393126Y1025935*
X1392899Y1024998*
Y1019685*
X1392217Y1024060D02*
X1393808D01*
X1396081Y1026248D02*
X1396308Y1025935D01*
X1396535Y1026248*
X1396308Y1026560*
X1396081Y1026248*
X1396308Y1024060D02*
Y1019685D01*
X1398581Y1022185D02*
X1401308D01*
Y1022810*
X1401081Y1023435*
X1400854Y1023748*
X1400399Y1024060*
X1399717*
X1399263Y1023748*
X1398808Y1023123*
X1398581Y1022185*
Y1021560*
X1398808Y1020623*
X1399263Y1019998*
X1399717Y1019685*
X1400399*
X1400854Y1019998*
X1401308Y1020623*
X1406081Y1026248D02*
Y1019685D01*
Y1023123D02*
X1405626Y1023748D01*
X1405172Y1024060*
X1404490*
X1404035Y1023748*
X1403581Y1023123*
X1403354Y1022185*
Y1021560*
X1403581Y1020623*
X1404035Y1019998*
X1404490Y1019685*
X1405172*
X1405626Y1019998*
X1406081Y1020623*
X1408354Y1020310D02*
X1408126Y1019998D01*
X1408354Y1019685*
X1408581Y1019998*
X1408354Y1020310*
X1216535Y1013187D02*
X1216990Y1013499D01*
X1217672Y1014437*
Y1007874*
X1221081Y1014437D02*
X1220399Y1014124D01*
X1219945Y1013187*
X1219717Y1011624*
Y1010687*
X1219945Y1009124*
X1220399Y1008187*
X1221081Y1007874*
X1221535*
X1222217Y1008187*
X1222672Y1009124*
X1222899Y1010687*
Y1011624*
X1222672Y1013187*
X1222217Y1014124*
X1221535Y1014437*
X1221081*
X1225172Y1008499D02*
X1224945Y1008187D01*
X1225172Y1007874*
X1225399Y1008187*
X1225172Y1008499*
X1243126Y1014437D02*
Y1007874D01*
Y1014437D02*
X1246081D01*
X1243126Y1011312D02*
X1244945D01*
X1249945Y1014437D02*
X1248126Y1007874D01*
X1249945Y1014437D02*
X1251763Y1007874D01*
X1248808Y1010062D02*
X1251081D01*
X1253808Y1014437D02*
Y1007874D01*
Y1014437D02*
X1255854D01*
X1256535Y1014124*
X1256763Y1013812*
X1256990Y1013187*
Y1012562*
X1256763Y1011937*
X1256535Y1011624*
X1255854Y1011312*
X1253808D02*
X1255854D01*
X1256535Y1010999*
X1256763Y1010687*
X1256990Y1010062*
Y1009124*
X1256763Y1008499*
X1256535Y1008187*
X1255854Y1007874*
X1253808*
X1259035Y1014437D02*
Y1007874D01*
Y1014437D02*
X1261081D01*
X1261763Y1014124*
X1261990Y1013812*
X1262217Y1013187*
Y1012562*
X1261990Y1011937*
X1261763Y1011624*
X1261081Y1011312*
X1259035*
X1260626D02*
X1262217Y1007874D01*
X1264263Y1014437D02*
Y1007874D01*
X1269717Y1012874D02*
X1269490Y1013499D01*
X1269035Y1014124*
X1268581Y1014437*
X1267672*
X1267217Y1014124*
X1266763Y1013499*
X1266535Y1012874*
X1266308Y1011937*
Y1010374*
X1266535Y1009437*
X1266763Y1008812*
X1267217Y1008187*
X1267672Y1007874*
X1268581*
X1269035Y1008187*
X1269490Y1008812*
X1269717Y1009437*
X1273581Y1014437D02*
X1271763Y1007874D01*
X1273581Y1014437D02*
X1275399Y1007874D01*
X1272445Y1010062D02*
X1274717D01*
X1279035Y1014437D02*
Y1007874D01*
X1277445Y1014437D02*
X1280626D01*
X1282672D02*
Y1007874D01*
X1286081Y1014437D02*
X1285626Y1014124D01*
X1285172Y1013499*
X1284945Y1012874*
X1284717Y1011937*
Y1010374*
X1284945Y1009437*
X1285172Y1008812*
X1285626Y1008187*
X1286081Y1007874*
X1286990*
X1287445Y1008187*
X1287899Y1008812*
X1288126Y1009437*
X1288354Y1010374*
Y1011937*
X1288126Y1012874*
X1287899Y1013499*
X1287445Y1014124*
X1286990Y1014437*
X1286081*
X1290399D02*
Y1007874D01*
Y1014437D02*
X1293581Y1007874D01*
Y1014437D02*
Y1007874D01*
X1304035Y1013499D02*
X1303581Y1014124D01*
X1302899Y1014437*
X1301990*
X1301308Y1014124*
X1300854Y1013499*
Y1012874*
X1301081Y1012249*
X1301308Y1011937*
X1301763Y1011624*
X1303126Y1010999*
X1303581Y1010687*
X1303808Y1010374*
X1304035Y1009749*
Y1008812*
X1303581Y1008187*
X1302899Y1007874*
X1301990*
X1301308Y1008187*
X1300854Y1008812*
X1307672Y1014437D02*
Y1007874D01*
X1306081Y1014437D02*
X1309263D01*
X1313126D02*
X1311308Y1007874D01*
X1313126Y1014437D02*
X1314945Y1007874D01*
X1311990Y1010062D02*
X1314263D01*
X1316990Y1014437D02*
Y1007874D01*
Y1014437D02*
X1320172Y1007874D01*
Y1014437D02*
Y1007874D01*
X1322217Y1014437D02*
Y1007874D01*
Y1014437D02*
X1323808D01*
X1324490Y1014124*
X1324945Y1013499*
X1325172Y1012874*
X1325399Y1011937*
Y1010374*
X1325172Y1009437*
X1324945Y1008812*
X1324490Y1008187*
X1323808Y1007874*
X1322217*
X1329263Y1014437D02*
X1327445Y1007874D01*
X1329263Y1014437D02*
X1331081Y1007874D01*
X1328126Y1010062D02*
X1330399D01*
X1333126Y1014437D02*
Y1007874D01*
Y1014437D02*
X1335172D01*
X1335854Y1014124*
X1336081Y1013812*
X1336308Y1013187*
Y1012562*
X1336081Y1011937*
X1335854Y1011624*
X1335172Y1011312*
X1333126*
X1334717D02*
X1336308Y1007874D01*
X1338354Y1014437D02*
Y1007874D01*
Y1014437D02*
X1339945D01*
X1340626Y1014124*
X1341081Y1013499*
X1341308Y1012874*
X1341535Y1011937*
Y1010374*
X1341308Y1009437*
X1341081Y1008812*
X1340626Y1008187*
X1339945Y1007874*
X1338354*
X1343808Y1012249D02*
X1343581Y1011937D01*
X1343808Y1011624*
X1344035Y1011937*
X1343808Y1012249*
Y1008499D02*
X1343581Y1008187D01*
X1343808Y1007874*
X1344035Y1008187*
X1343808Y1008499*
X1361763Y1014437D02*
Y1007874D01*
X1363808Y1014437D02*
Y1007874D01*
Y1014437D02*
X1365854D01*
X1366535Y1014124*
X1366763Y1013812*
X1366990Y1013187*
Y1012249*
X1366763Y1011624*
X1366535Y1011312*
X1365854Y1010999*
X1363808*
X1372445Y1012874D02*
X1372217Y1013499D01*
X1371763Y1014124*
X1371308Y1014437*
X1370399*
X1369945Y1014124*
X1369490Y1013499*
X1369263Y1012874*
X1369035Y1011937*
Y1010374*
X1369263Y1009437*
X1369490Y1008812*
X1369945Y1008187*
X1370399Y1007874*
X1371308*
X1371763Y1008187*
X1372217Y1008812*
X1372445Y1009437*
X1374490Y1010687D02*
X1378581D01*
X1382445Y1014437D02*
X1380626Y1007874D01*
X1382445Y1014437D02*
X1384263Y1007874D01*
X1381308Y1010062D02*
X1383581D01*
X1386308Y1010687D02*
X1390399D01*
X1395172Y1013499D02*
X1394945Y1014124D01*
X1394263Y1014437*
X1393808*
X1393126Y1014124*
X1392672Y1013187*
X1392445Y1011624*
Y1010062*
X1392672Y1008812*
X1393126Y1008187*
X1393808Y1007874*
X1394035*
X1394717Y1008187*
X1395172Y1008812*
X1395399Y1009749*
Y1010062*
X1395172Y1010999*
X1394717Y1011624*
X1394035Y1011937*
X1393808*
X1393126Y1011624*
X1392672Y1010999*
X1392445Y1010062*
X1398808Y1014437D02*
X1398126Y1014124D01*
X1397672Y1013187*
X1397445Y1011624*
Y1010687*
X1397672Y1009124*
X1398126Y1008187*
X1398808Y1007874*
X1399263*
X1399945Y1008187*
X1400399Y1009124*
X1400626Y1010687*
Y1011624*
X1400399Y1013187*
X1399945Y1014124*
X1399263Y1014437*
X1398808*
X1404035D02*
X1403354Y1014124D01*
X1402899Y1013187*
X1402672Y1011624*
Y1010687*
X1402899Y1009124*
X1403354Y1008187*
X1404035Y1007874*
X1404490*
X1405172Y1008187*
X1405626Y1009124*
X1405854Y1010687*
Y1011624*
X1405626Y1013187*
X1405172Y1014124*
X1404490Y1014437*
X1404035*
X1407899D02*
Y1007874D01*
Y1014437D02*
X1410854D01*
X1407899Y1011312D02*
X1409717D01*
X1413354Y1008187D02*
X1413126Y1007874D01*
X1412899Y1008187*
X1413126Y1008499*
X1413354Y1008187*
Y1007562*
X1413126Y1006937*
X1412899Y1006624*
X1424035Y1012874D02*
X1423808Y1013499D01*
X1423354Y1014124*
X1422899Y1014437*
X1421990*
X1421535Y1014124*
X1421081Y1013499*
X1420854Y1012874*
X1420626Y1011937*
Y1010374*
X1420854Y1009437*
X1421081Y1008812*
X1421535Y1008187*
X1421990Y1007874*
X1422899*
X1423354Y1008187*
X1423808Y1008812*
X1424035Y1009437*
X1426081Y1014437D02*
Y1007874D01*
X1430854Y1012249D02*
Y1007874D01*
Y1011312D02*
X1430399Y1011937D01*
X1429945Y1012249*
X1429263*
X1428808Y1011937*
X1428354Y1011312*
X1428126Y1010374*
Y1009749*
X1428354Y1008812*
X1428808Y1008187*
X1429263Y1007874*
X1429945*
X1430399Y1008187*
X1430854Y1008812*
X1435399Y1011312D02*
X1435172Y1011937D01*
X1434490Y1012249*
X1433808*
X1433126Y1011937*
X1432899Y1011312*
X1433126Y1010687*
X1433581Y1010374*
X1434717Y1010062*
X1435172Y1009749*
X1435399Y1009124*
Y1008812*
X1435172Y1008187*
X1434490Y1007874*
X1433808*
X1433126Y1008187*
X1432899Y1008812*
X1439945Y1011312D02*
X1439717Y1011937D01*
X1439035Y1012249*
X1438354*
X1437672Y1011937*
X1437445Y1011312*
X1437672Y1010687*
X1438126Y1010374*
X1439263Y1010062*
X1439717Y1009749*
X1439945Y1009124*
Y1008812*
X1439717Y1008187*
X1439035Y1007874*
X1438354*
X1437672Y1008187*
X1437445Y1008812*
X1447445Y1012874D02*
Y1013187D01*
X1447672Y1013812*
X1447899Y1014124*
X1448354Y1014437*
X1449263*
X1449717Y1014124*
X1449945Y1013812*
X1450172Y1013187*
Y1012562*
X1449945Y1011937*
X1449490Y1010999*
X1447217Y1007874*
X1450399*
X1216535Y1001375D02*
X1216990Y1001688D01*
X1217672Y1002625*
Y996063*
X1219717Y1001375D02*
X1220172Y1001688D01*
X1220854Y1002625*
Y996063*
X1223126Y996688D02*
X1222899Y996375D01*
X1223126Y996063*
X1223354Y996375*
X1223126Y996688*
X1241081Y1002625D02*
Y997938D01*
X1241308Y997000*
X1241763Y996375*
X1242445Y996063*
X1242899*
X1243581Y996375*
X1244035Y997000*
X1244263Y997938*
Y1002625*
X1246308D02*
Y996063D01*
X1249035*
X1254263Y1002625D02*
X1251990Y996063D01*
X1251081Y1002625D02*
X1254263D01*
X1259263Y1000438D02*
X1259035Y999500D01*
X1258581Y998875*
X1257899Y998563*
X1257672*
X1256990Y998875*
X1256535Y999500*
X1256308Y1000438*
Y1000750*
X1256535Y1001688*
X1256990Y1002313*
X1257672Y1002625*
X1257899*
X1258581Y1002313*
X1259035Y1001688*
X1259263Y1000438*
Y998875*
X1259035Y997313*
X1258581Y996375*
X1257899Y996063*
X1257445*
X1256763Y996375*
X1256535Y997000*
X1264035Y1001688D02*
X1263808Y1002313D01*
X1263126Y1002625*
X1262672*
X1261990Y1002313*
X1261535Y1001375*
X1261308Y999813*
Y998250*
X1261535Y997000*
X1261990Y996375*
X1262672Y996063*
X1262899*
X1263581Y996375*
X1264035Y997000*
X1264263Y997938*
Y998250*
X1264035Y999188*
X1263581Y999813*
X1262899Y1000125*
X1262672*
X1261990Y999813*
X1261535Y999188*
X1261308Y998250*
X1271535Y1002625D02*
Y996063D01*
Y1002625D02*
X1274490D01*
X1271535Y999500D02*
X1273354D01*
X1276535Y1002625D02*
Y996063D01*
X1279263*
X1283126Y1002625D02*
X1281308Y996063D01*
X1283126Y1002625D02*
X1284945Y996063D01*
X1281990Y998250D02*
X1284263D01*
X1286990Y1002625D02*
Y996063D01*
Y1002625D02*
X1288808Y996063D01*
X1290626Y1002625D02*
X1288808Y996063D01*
X1290626Y1002625D02*
Y996063D01*
X1292672Y1002625D02*
Y996063D01*
Y1002625D02*
X1295626D01*
X1292672Y999500D02*
X1294490D01*
X1292672Y996063D02*
X1295626D01*
X1302899Y1002625D02*
Y996063D01*
Y1002625D02*
X1304945D01*
X1305626Y1002313*
X1305854Y1002000*
X1306081Y1001375*
Y1000750*
X1305854Y1000125*
X1305626Y999813*
X1304945Y999500*
X1302899*
X1304490D02*
X1306081Y996063D01*
X1309945Y1002625D02*
X1308126Y996063D01*
X1309945Y1002625D02*
X1311763Y996063D01*
X1308808Y998250D02*
X1311081D01*
X1315399Y1002625D02*
Y996063D01*
X1313808Y1002625D02*
X1316990D01*
X1319035D02*
Y996063D01*
X1321081Y1002625D02*
Y996063D01*
Y1002625D02*
X1324263Y996063D01*
Y1002625D02*
Y996063D01*
X1329717Y1001063D02*
X1329490Y1001688D01*
X1329035Y1002313*
X1328581Y1002625*
X1327672*
X1327217Y1002313*
X1326763Y1001688*
X1326535Y1001063*
X1326308Y1000125*
Y998563*
X1326535Y997625*
X1326763Y997000*
X1327217Y996375*
X1327672Y996063*
X1328581*
X1329035Y996375*
X1329490Y997000*
X1329717Y997625*
Y998563*
X1328581D02*
X1329717D01*
X1331990Y1000438D02*
X1331763Y1000125D01*
X1331990Y999813*
X1332217Y1000125*
X1331990Y1000438*
Y996688D02*
X1331763Y996375D01*
X1331990Y996063*
X1332217Y996375*
X1331990Y996688*
X1349945Y1002625D02*
Y996063D01*
Y1002625D02*
X1353126Y996063D01*
Y1002625D02*
Y996063D01*
X1356308Y1000438D02*
X1355854Y1000125D01*
X1355399Y999500*
X1355172Y998563*
Y997938*
X1355399Y997000*
X1355854Y996375*
X1356308Y996063*
X1356990*
X1357445Y996375*
X1357899Y997000*
X1358126Y997938*
Y998563*
X1357899Y999500*
X1357445Y1000125*
X1356990Y1000438*
X1356308*
X1360854Y1002625D02*
Y997313D01*
X1361081Y996375*
X1361535Y996063*
X1361990*
X1360172Y1000438D02*
X1361763D01*
X1369263D02*
Y996063D01*
Y998563D02*
X1369490Y999500D01*
X1369945Y1000125*
X1370399Y1000438*
X1371081*
X1373126Y998563D02*
X1375854D01*
Y999188*
X1375626Y999813*
X1375399Y1000125*
X1374945Y1000438*
X1374263*
X1373808Y1000125*
X1373354Y999500*
X1373126Y998563*
Y997938*
X1373354Y997000*
X1373808Y996375*
X1374263Y996063*
X1374945*
X1375399Y996375*
X1375854Y997000*
X1380626Y1000438D02*
Y993875D01*
Y999500D02*
X1380172Y1000125D01*
X1379717Y1000438*
X1379035*
X1378581Y1000125*
X1378126Y999500*
X1377899Y998563*
Y997938*
X1378126Y997000*
X1378581Y996375*
X1379035Y996063*
X1379717*
X1380172Y996375*
X1380626Y997000*
X1382672Y1000438D02*
Y997313D01*
X1382899Y996375*
X1383354Y996063*
X1384035*
X1384490Y996375*
X1385172Y997313*
Y1000438D02*
Y996063D01*
X1387217Y1002625D02*
X1387445Y1002313D01*
X1387672Y1002625*
X1387445Y1002938*
X1387217Y1002625*
X1387445Y1000438D02*
Y996063D01*
X1389717Y1000438D02*
Y996063D01*
Y998563D02*
X1389945Y999500D01*
X1390399Y1000125*
X1390854Y1000438*
X1391535*
X1393581Y998563D02*
X1396308D01*
Y999188*
X1396081Y999813*
X1395854Y1000125*
X1395399Y1000438*
X1394717*
X1394263Y1000125*
X1393808Y999500*
X1393581Y998563*
Y997938*
X1393808Y997000*
X1394263Y996375*
X1394717Y996063*
X1395399*
X1395854Y996375*
X1396308Y997000*
X1401081Y1002625D02*
Y996063D01*
Y999500D02*
X1400626Y1000125D01*
X1400172Y1000438*
X1399490*
X1399035Y1000125*
X1398581Y999500*
X1398354Y998563*
Y997938*
X1398581Y997000*
X1399035Y996375*
X1399490Y996063*
X1400172*
X1400626Y996375*
X1401081Y997000*
X1216535Y989564D02*
X1216990Y989877D01*
X1217672Y990814*
Y984252*
X1219945Y989252D02*
Y989564D01*
X1220172Y990189*
X1220399Y990502*
X1220854Y990814*
X1221763*
X1222217Y990502*
X1222445Y990189*
X1222672Y989564*
Y988939*
X1222445Y988314*
X1221990Y987377*
X1219717Y984252*
X1222899*
X1225172Y984877D02*
X1224945Y984564D01*
X1225172Y984252*
X1225399Y984564*
X1225172Y984877*
X1243126Y990814D02*
Y984252D01*
X1245854*
X1249717Y990814D02*
X1247899Y984252D01*
X1249717Y990814D02*
X1251535Y984252D01*
X1248581Y986439D02*
X1250854D01*
X1253581Y990814D02*
Y984252D01*
Y990814D02*
X1255399Y984252D01*
X1257217Y990814D02*
X1255399Y984252D01*
X1257217Y990814D02*
Y984252D01*
X1259263Y990814D02*
Y984252D01*
X1261308Y990814D02*
Y984252D01*
Y990814D02*
X1264490Y984252D01*
Y990814D02*
Y984252D01*
X1268354Y990814D02*
X1266535Y984252D01*
X1268354Y990814D02*
X1270172Y984252D01*
X1267217Y986439D02*
X1269490D01*
X1273808Y990814D02*
Y984252D01*
X1272217Y990814D02*
X1275399D01*
X1277445D02*
Y984252D01*
Y990814D02*
X1280399D01*
X1277445Y987689D02*
X1279263D01*
X1277445Y984252D02*
X1280399D01*
X1291081Y989252D02*
X1290854Y989877D01*
X1290399Y990502*
X1289945Y990814*
X1289035*
X1288581Y990502*
X1288126Y989877*
X1287899Y989252*
X1287672Y988314*
Y986752*
X1287899Y985814*
X1288126Y985189*
X1288581Y984564*
X1289035Y984252*
X1289945*
X1290399Y984564*
X1290854Y985189*
X1291081Y985814*
Y986752*
X1289945D02*
X1291081D01*
X1293126Y990814D02*
Y984252D01*
X1295854*
X1299717Y990814D02*
X1297899Y984252D01*
X1299717Y990814D02*
X1301535Y984252D01*
X1298581Y986439D02*
X1300854D01*
X1306763Y989877D02*
X1306308Y990502D01*
X1305626Y990814*
X1304717*
X1304035Y990502*
X1303581Y989877*
Y989252*
X1303808Y988627*
X1304035Y988314*
X1304490Y988002*
X1305854Y987377*
X1306308Y987064*
X1306535Y986752*
X1306763Y986127*
Y985189*
X1306308Y984564*
X1305626Y984252*
X1304717*
X1304035Y984564*
X1303581Y985189*
X1311990Y989877D02*
X1311535Y990502D01*
X1310854Y990814*
X1309945*
X1309263Y990502*
X1308808Y989877*
Y989252*
X1309035Y988627*
X1309263Y988314*
X1309717Y988002*
X1311081Y987377*
X1311535Y987064*
X1311763Y986752*
X1311990Y986127*
Y985189*
X1311535Y984564*
X1310854Y984252*
X1309945*
X1309263Y984564*
X1308808Y985189*
X1320854Y990814D02*
Y984252D01*
X1319263Y990814D02*
X1322445D01*
X1324490D02*
Y984252D01*
Y990814D02*
X1326535D01*
X1327217Y990502*
X1327445Y990189*
X1327672Y989564*
Y988939*
X1327445Y988314*
X1327217Y988002*
X1326535Y987689*
X1324490*
X1326081D02*
X1327672Y984252D01*
X1331535Y990814D02*
X1329717Y984252D01*
X1331535Y990814D02*
X1333354Y984252D01*
X1330399Y986439D02*
X1332672D01*
X1335399Y990814D02*
Y984252D01*
Y990814D02*
X1338581Y984252D01*
Y990814D02*
Y984252D01*
X1343808Y989877D02*
X1343354Y990502D01*
X1342672Y990814*
X1341763*
X1341081Y990502*
X1340626Y989877*
Y989252*
X1340854Y988627*
X1341081Y988314*
X1341535Y988002*
X1342899Y987377*
X1343354Y987064*
X1343581Y986752*
X1343808Y986127*
Y985189*
X1343354Y984564*
X1342672Y984252*
X1341763*
X1341081Y984564*
X1340626Y985189*
X1345854Y990814D02*
Y984252D01*
X1349490Y990814D02*
Y984252D01*
X1347899Y990814D02*
X1351081D01*
X1353126D02*
Y984252D01*
X1356535Y990814D02*
X1356081Y990502D01*
X1355626Y989877*
X1355399Y989252*
X1355172Y988314*
Y986752*
X1355399Y985814*
X1355626Y985189*
X1356081Y984564*
X1356535Y984252*
X1357445*
X1357899Y984564*
X1358354Y985189*
X1358581Y985814*
X1358808Y986752*
Y988314*
X1358581Y989252*
X1358354Y989877*
X1357899Y990502*
X1357445Y990814*
X1356535*
X1360854D02*
Y984252D01*
Y990814D02*
X1364035Y984252D01*
Y990814D02*
Y984252D01*
X1372899Y990814D02*
Y984252D01*
X1371308Y990814D02*
X1374490D01*
X1376535D02*
Y984252D01*
Y990814D02*
X1379490D01*
X1376535Y987689D02*
X1378354D01*
X1376535Y984252D02*
X1379490D01*
X1381535Y990814D02*
Y984252D01*
Y990814D02*
X1383354Y984252D01*
X1385172Y990814D02*
X1383354Y984252D01*
X1385172Y990814D02*
Y984252D01*
X1387217Y990814D02*
Y984252D01*
Y990814D02*
X1389263D01*
X1389945Y990502*
X1390172Y990189*
X1390399Y989564*
Y988627*
X1390172Y988002*
X1389945Y987689*
X1389263Y987377*
X1387217*
X1392672Y988627D02*
X1392445Y988314D01*
X1392672Y988002*
X1392899Y988314*
X1392672Y988627*
Y984877D02*
X1392445Y984564D01*
X1392672Y984252*
X1392899Y984564*
X1392672Y984877*
X1410626Y989564D02*
X1411081Y989877D01*
X1411763Y990814*
Y984252*
X1416990Y990814D02*
X1414717Y984252D01*
X1413808Y990814D02*
X1416990D01*
X1420399D02*
X1419717Y990502D01*
X1419263Y989564*
X1419035Y988002*
Y987064*
X1419263Y985502*
X1419717Y984564*
X1420399Y984252*
X1420854*
X1421535Y984564*
X1421990Y985502*
X1422217Y987064*
Y988002*
X1421990Y989564*
X1421535Y990502*
X1420854Y990814*
X1420399*
X1427672Y989252D02*
X1427445Y989877D01*
X1426990Y990502*
X1426535Y990814*
X1425626*
X1425172Y990502*
X1424717Y989877*
X1424490Y989252*
X1424263Y988314*
Y986752*
X1424490Y985814*
X1424717Y985189*
X1425172Y984564*
X1425626Y984252*
X1426535*
X1426990Y984564*
X1427445Y985189*
X1427672Y985814*
X1436081Y988627D02*
X1435626Y988314D01*
X1435172Y987689*
X1434945Y986752*
Y986127*
X1435172Y985189*
X1435626Y984564*
X1436081Y984252*
X1436763*
X1437217Y984564*
X1437672Y985189*
X1437899Y986127*
Y986752*
X1437672Y987689*
X1437217Y988314*
X1436763Y988627*
X1436081*
X1439945D02*
Y984252D01*
Y986752D02*
X1440172Y987689D01*
X1440626Y988314*
X1441081Y988627*
X1441763*
X1449035Y990814D02*
Y984252D01*
Y987689D02*
X1449490Y988314D01*
X1449945Y988627*
X1450626*
X1451081Y988314*
X1451535Y987689*
X1451763Y986752*
Y986127*
X1451535Y985189*
X1451081Y984564*
X1450626Y984252*
X1449945*
X1449490Y984564*
X1449035Y985189*
X1453808Y986752D02*
X1456535D01*
Y987377*
X1456308Y988002*
X1456081Y988314*
X1455626Y988627*
X1454945*
X1454490Y988314*
X1454035Y987689*
X1453808Y986752*
Y986127*
X1454035Y985189*
X1454490Y984564*
X1454945Y984252*
X1455626*
X1456081Y984564*
X1456535Y985189*
X1459263Y990814D02*
Y985502D01*
X1459490Y984564*
X1459945Y984252*
X1460399*
X1458581Y988627D02*
X1460172D01*
X1463126Y990814D02*
Y985502D01*
X1463354Y984564*
X1463808Y984252*
X1464263*
X1462445Y988627D02*
X1464035D01*
X1466308Y986752D02*
X1469035D01*
Y987377*
X1468808Y988002*
X1468581Y988314*
X1468126Y988627*
X1467445*
X1466990Y988314*
X1466535Y987689*
X1466308Y986752*
Y986127*
X1466535Y985189*
X1466990Y984564*
X1467445Y984252*
X1468126*
X1468581Y984564*
X1469035Y985189*
X1471081Y988627D02*
Y984252D01*
Y986752D02*
X1471308Y987689D01*
X1471763Y988314*
X1472217Y988627*
X1472899*
X1356149Y967192D02*
X1354331Y960630D01*
X1356149Y967192D02*
X1357967Y960630D01*
X1355013Y962817D02*
X1357285D01*
X1360013Y967192D02*
X1363194Y960630D01*
Y967192D02*
X1360013Y960630D01*
X1365240Y967192D02*
Y960630D01*
X1370467Y966255D02*
X1370013Y966880D01*
X1369331Y967192*
X1368422*
X1367740Y966880*
X1367285Y966255*
Y965630*
X1367513Y965005*
X1367740Y964692*
X1368194Y964380*
X1369558Y963755*
X1370013Y963442*
X1370240Y963130*
X1370467Y962505*
Y961567*
X1370013Y960942*
X1369331Y960630*
X1368422*
X1367740Y960942*
X1367285Y961567*
X1377740Y967192D02*
Y960630D01*
X1380467*
X1385240Y965005D02*
Y960630D01*
Y964067D02*
X1384785Y964692D01*
X1384331Y965005*
X1383649*
X1383194Y964692*
X1382740Y964067*
X1382513Y963130*
Y962505*
X1382740Y961567*
X1383194Y960942*
X1383649Y960630*
X1384331*
X1384785Y960942*
X1385240Y961567*
X1387285Y967192D02*
Y960630D01*
Y964067D02*
X1387740Y964692D01*
X1388194Y965005*
X1388876*
X1389331Y964692*
X1389785Y964067*
X1390013Y963130*
Y962505*
X1389785Y961567*
X1389331Y960942*
X1388876Y960630*
X1388194*
X1387740Y960942*
X1387285Y961567*
X1394558Y964067D02*
X1394331Y964692D01*
X1393649Y965005*
X1392967*
X1392285Y964692*
X1392058Y964067*
X1392285Y963442*
X1392740Y963130*
X1393876Y962817*
X1394331Y962505*
X1394558Y961880*
Y961567*
X1394331Y960942*
X1393649Y960630*
X1392967*
X1392285Y960942*
X1392058Y961567*
X1401831Y967192D02*
Y960630D01*
X1403876Y965005D02*
Y960630D01*
Y963755D02*
X1404558Y964692D01*
X1405013Y965005*
X1405694*
X1406149Y964692*
X1406376Y963755*
Y960630*
X1411149Y964067D02*
X1410694Y964692D01*
X1410240Y965005*
X1409558*
X1409103Y964692*
X1408649Y964067*
X1408422Y963130*
Y962505*
X1408649Y961567*
X1409103Y960942*
X1409558Y960630*
X1410240*
X1410694Y960942*
X1411149Y961567*
X1413422Y961255D02*
X1413194Y960942D01*
X1413422Y960630*
X1413649Y960942*
X1413422Y961255*
X1354331Y947507D02*
Y940945D01*
Y947507D02*
X1357285D01*
X1354331Y944382D02*
X1356149D01*
X1354331Y940945D02*
X1357285D01*
X1359331Y945320D02*
Y940945D01*
Y944070D02*
X1360013Y945007D01*
X1360467Y945320*
X1361149*
X1361603Y945007*
X1361831Y944070*
Y940945*
X1366603Y944382D02*
X1366149Y945007D01*
X1365694Y945320*
X1365013*
X1364558Y945007*
X1364103Y944382*
X1363876Y943445*
Y942820*
X1364103Y941882*
X1364558Y941257*
X1365013Y940945*
X1365694*
X1366149Y941257*
X1366603Y941882*
X1369785Y945320D02*
X1369331Y945007D01*
X1368876Y944382*
X1368649Y943445*
Y942820*
X1368876Y941882*
X1369331Y941257*
X1369785Y940945*
X1370467*
X1370922Y941257*
X1371376Y941882*
X1371603Y942820*
Y943445*
X1371376Y944382*
X1370922Y945007*
X1370467Y945320*
X1369785*
X1376376Y947507D02*
Y940945D01*
Y944382D02*
X1375922Y945007D01*
X1375467Y945320*
X1374785*
X1374331Y945007*
X1373876Y944382*
X1373649Y943445*
Y942820*
X1373876Y941882*
X1374331Y941257*
X1374785Y940945*
X1375467*
X1375922Y941257*
X1376376Y941882*
X1378422Y943445D02*
X1381149D01*
Y944070*
X1380922Y944695*
X1380694Y945007*
X1380240Y945320*
X1379558*
X1379103Y945007*
X1378649Y944382*
X1378422Y943445*
Y942820*
X1378649Y941882*
X1379103Y941257*
X1379558Y940945*
X1380240*
X1380694Y941257*
X1381149Y941882*
X1383194Y945320D02*
Y940945D01*
Y943445D02*
X1383422Y944382D01*
X1383876Y945007*
X1384331Y945320*
X1385013*
X1392285Y947507D02*
Y940945D01*
Y947507D02*
X1394331D01*
X1395013Y947195*
X1395240Y946882*
X1395467Y946257*
Y945632*
X1395240Y945007*
X1395013Y944695*
X1394331Y944382*
X1392285D02*
X1394331D01*
X1395013Y944070*
X1395240Y943757*
X1395467Y943132*
Y942195*
X1395240Y941570*
X1395013Y941257*
X1394331Y940945*
X1392285*
X1398649Y945320D02*
X1398194Y945007D01*
X1397740Y944382*
X1397513Y943445*
Y942820*
X1397740Y941882*
X1398194Y941257*
X1398649Y940945*
X1399331*
X1399785Y941257*
X1400240Y941882*
X1400467Y942820*
Y943445*
X1400240Y944382*
X1399785Y945007*
X1399331Y945320*
X1398649*
X1405240D02*
Y940945D01*
Y944382D02*
X1404785Y945007D01*
X1404331Y945320*
X1403649*
X1403194Y945007*
X1402740Y944382*
X1402513Y943445*
Y942820*
X1402740Y941882*
X1403194Y941257*
X1403649Y940945*
X1404331*
X1404785Y941257*
X1405240Y941882*
X1407285Y945320D02*
Y940945D01*
Y943445D02*
X1407513Y944382D01*
X1407967Y945007*
X1408422Y945320*
X1409103*
X1413876Y947507D02*
Y940945D01*
Y944382D02*
X1413422Y945007D01*
X1412967Y945320*
X1412285*
X1411831Y945007*
X1411376Y944382*
X1411149Y943445*
Y942820*
X1411376Y941882*
X1411831Y941257*
X1412285Y940945*
X1412967*
X1413422Y941257*
X1413876Y941882*
X1509692Y927822D02*
X1507874Y921260D01*
X1509692Y927822D02*
X1511510Y921260D01*
X1508556Y923447D02*
X1510829D01*
X1244094Y967192D02*
Y960630D01*
Y967192D02*
X1246140D01*
X1246822Y966880*
X1247049Y966567*
X1247276Y965942*
Y965317*
X1247049Y964692*
X1246822Y964380*
X1246140Y964067*
X1244094D02*
X1246140D01*
X1246822Y963755*
X1247049Y963442*
X1247276Y962817*
Y961880*
X1247049Y961255*
X1246822Y960942*
X1246140Y960630*
X1244094*
X1249322Y967192D02*
X1252504Y960630D01*
Y967192D02*
X1249322Y960630D01*
X1013500Y1041000D02*
X1017500Y1045000D01*
X1013500Y1049000*
X1009500Y1045000*
X1013500Y1041000*
Y1045000D02*
Y1049000D01*
X1009500Y1071000D02*
X1013500Y1075000D01*
X1009500Y1079000*
X1005500Y1075000*
X1009500Y1071000*
Y1075000D02*
Y1079000D01*
X1017500Y1071000D02*
X1021500Y1075000D01*
X1017500Y1079000*
X1013500Y1075000*
X1017500Y1071000*
Y1075000D02*
Y1079000D01*
X1077497Y1069366D02*
X1085497D01*
Y1077366*
X1077497*
Y1069366*
X1081497Y1073366D02*
Y1077366D01*
X1081827Y1066866D02*
X1089827D01*
Y1074866*
X1081827*
Y1066866*
X1085827Y1070866D02*
Y1074866D01*
X1086157Y1064366D02*
X1094157D01*
Y1072366*
X1086157*
Y1064366*
X1090157Y1068366D02*
Y1072366D01*
X1097713Y1021590D02*
X1105713D01*
Y1029590*
X1097713*
Y1021590*
X1101713Y1025590D02*
Y1029590D01*
X1095213Y1017260D02*
X1103213D01*
Y1025260*
X1095213*
Y1017260*
X1099213Y1021260D02*
Y1025260D01*
X1092713Y1012930D02*
X1100713D01*
Y1020930*
X1092713*
Y1012930*
X1096713Y1016930D02*
Y1020930D01*
X1005270Y1014210D02*
X1013270D01*
X1009270Y1010210D02*
Y1018210D01*
X1049000Y1006200D02*
X1057000D01*
X1053000Y1002200D02*
Y1010200D01*
X1064980Y1009250D02*
X1072980D01*
X1068980Y1005250D02*
Y1013250D01*
X1103350Y1011700D02*
X1111350D01*
X1107350Y1007700D02*
Y1015700D01*
X1106200Y1022600D02*
X1114200D01*
X1110200Y1018600D02*
Y1026600D01*
X1004300Y1033240D02*
X1012300D01*
X1008300Y1029240D02*
Y1037240D01*
X1061720Y1027380D02*
X1069720D01*
X1065720Y1023380D02*
Y1031380D01*
X1023200Y1039000D02*
X1031200D01*
X1027200Y1035000D02*
Y1043000D01*
X1090200Y1039000D02*
X1098200D01*
X1094200Y1035000D02*
Y1043000D01*
X1005100Y1047100D02*
X1013100D01*
X1009100Y1043100D02*
Y1051100D01*
X1004500Y1052500D02*
X1012500D01*
X1008500Y1048500D02*
Y1056500D01*
X1053600Y1048400D02*
X1061600D01*
X1057600Y1044400D02*
Y1052400D01*
X1125000Y1046490D02*
X1133000D01*
X1129000Y1042490D02*
Y1050490D01*
X1002850Y1060240D02*
X1010850D01*
X1006850Y1056240D02*
Y1064240D01*
X1015050Y1057650D02*
X1023050D01*
X1019050Y1053650D02*
Y1061650D01*
X1014500Y1062500D02*
X1022500D01*
X1018500Y1058500D02*
Y1066500D01*
X1022700Y1054920D02*
X1030700D01*
X1026700Y1050920D02*
Y1058920D01*
X1025500Y1063900D02*
X1033500D01*
X1029500Y1059900D02*
Y1067900D01*
X1027920Y1062070D02*
X1035920D01*
X1031920Y1058070D02*
Y1066070D01*
X1104900Y1062310D02*
X1112900D01*
X1108900Y1058310D02*
Y1066310D01*
X1002600Y1067500D02*
X1010600D01*
X1006600Y1063500D02*
Y1071500D01*
X1002210Y1071520D02*
X1010210D01*
X1006210Y1067520D02*
Y1075520D01*
X1014500Y1067500D02*
X1022500D01*
X1018500Y1063500D02*
Y1071500D01*
X1017800Y1069900D02*
X1025800D01*
X1021800Y1065900D02*
Y1073900D01*
X1017800Y1066000D02*
X1025800D01*
X1021800Y1062000D02*
Y1070000D01*
X1046020Y1070760D02*
X1054020D01*
X1050020Y1066760D02*
Y1074760D01*
X1040500Y1070020D02*
X1048500D01*
X1044500Y1066020D02*
Y1074020D01*
X1048220Y1068150D02*
X1056220D01*
X1052220Y1064150D02*
Y1072150D01*
X1072400Y1071960D02*
X1080400D01*
X1076400Y1067960D02*
Y1075960D01*
X1071000Y1065800D02*
X1079000D01*
X1075000Y1061800D02*
Y1069800D01*
X1109300Y1074030D02*
X1117300D01*
X1113300Y1070030D02*
Y1078030D01*
X1060100Y1076000D02*
X1068100D01*
X1064100Y1072000D02*
Y1080000D01*
X1065730Y1077020D02*
X1073730D01*
X1069730Y1073020D02*
Y1081020D01*
X1000000Y1084646D02*
X1157480D01*
Y1000000*
X1000000*
Y1084646*
X1074409Y1039370D02*
G03X1074409I-6692J0D01*
G01X1000000Y1101000D02*
X1028000D01*
X1000000D02*
X1010000Y1103500D01*
Y1098500*
X1000000Y1101000*
X1157480D02*
X1065364D01*
X1157480D02*
X1147480Y1098500D01*
Y1103500*
X1157480Y1101000*
X1000000Y1089646D02*
Y1106000D01*
X1157480Y1089646D02*
Y1106000D01*
X1033273Y1104563D02*
X1031000Y1100188D01*
X1031000D02*
X1034409D01*
X1033273Y1104563D02*
Y1098000D01*
X1037818Y1104563D02*
X1037136Y1104250D01*
X1036682Y1103313*
X1036682D02*
X1036455Y1101750D01*
Y1100813*
X1036455D02*
X1036682Y1099250D01*
X1037136Y1098313*
X1037136D02*
X1037818Y1098000D01*
X1038273*
X1038955Y1098313*
X1038955D02*
X1039409Y1099250D01*
X1039636Y1100813*
X1039636D02*
Y1101750D01*
X1039409Y1103313*
X1039409D02*
X1038955Y1104250D01*
X1038273Y1104563*
X1038273D02*
X1037818D01*
X1041909Y1098625D02*
X1041682Y1098313D01*
X1041682D02*
X1041909Y1098000D01*
X1042136Y1098313*
X1042136D02*
X1041909Y1098625D01*
X1045545Y1104563D02*
X1044864Y1104250D01*
X1044409Y1103313*
X1044409D02*
X1044182Y1101750D01*
Y1100813*
X1044182D02*
X1044409Y1099250D01*
X1044864Y1098313*
X1044864D02*
X1045545Y1098000D01*
X1046000*
X1046682Y1098313*
X1046682D02*
X1047136Y1099250D01*
X1047364Y1100813*
X1047364D02*
Y1101750D01*
X1047136Y1103313*
X1047136D02*
X1046682Y1104250D01*
X1046000Y1104563*
X1046000D02*
X1045545D01*
X1049409Y1102375D02*
Y1098000D01*
Y1101125D02*
X1050091Y1102063D01*
X1050091D02*
X1050545Y1102375D01*
X1051227*
X1051682Y1102063*
X1051682D02*
X1051909Y1101125D01*
Y1098000*
Y1101125D02*
X1052591Y1102063D01*
X1052591D02*
X1053045Y1102375D01*
X1053727*
X1054182Y1102063*
X1054182D02*
X1054409Y1101125D01*
Y1098000*
X1056455Y1102375D02*
Y1098000D01*
Y1101125D02*
X1057136Y1102063D01*
X1057136D02*
X1057591Y1102375D01*
X1058273*
X1058727Y1102063*
X1058727D02*
X1058955Y1101125D01*
Y1098000*
Y1101125D02*
X1059636Y1102063D01*
X1059636D02*
X1060091Y1102375D01*
X1060773*
X1061227Y1102063*
X1061227D02*
X1061455Y1101125D01*
Y1098000*
X1180000Y1000000D02*
Y1051000D01*
Y1000000D02*
X1177500Y1010000D01*
X1182500*
X1180000Y1000000*
Y1084646D02*
Y1064500D01*
Y1084646D02*
X1182500Y1074646D01*
X1177500*
X1180000Y1084646*
X1162480Y1000000D02*
X1185000D01*
X1162480Y1084646D02*
X1185000D01*
X1167227Y1059000D02*
Y1059313D01*
X1167227D02*
X1167455Y1059938D01*
X1167455D02*
X1167682Y1060250D01*
X1168136Y1060563*
X1168136D02*
X1169045D01*
X1169045D02*
X1169500Y1060250D01*
X1169727Y1059938*
X1169727D02*
X1169955Y1059313D01*
X1169955D02*
Y1058688D01*
X1169955D02*
X1169727Y1058063D01*
X1169727D02*
X1169273Y1057125D01*
X1167000Y1054000*
X1170182*
X1172227Y1059313D02*
X1172682Y1059625D01*
X1173364Y1060563*
X1173364D02*
Y1054000D01*
X1175636Y1054625D02*
X1175409Y1054313D01*
X1175409D02*
X1175636Y1054000D01*
X1175864Y1054313*
X1175864D02*
X1175636Y1054625D01*
X1180864Y1060563D02*
X1178591D01*
X1178591D02*
X1178364Y1057750D01*
X1178591Y1058063*
X1178591D02*
X1179273Y1058375D01*
X1179955*
X1180636Y1058063*
X1180636D02*
X1181091Y1057438D01*
X1181091D02*
X1181318Y1056500D01*
X1181091Y1055875*
X1180864Y1054938*
X1180864D02*
X1180409Y1054313D01*
X1180409D02*
X1179727Y1054000D01*
X1179045*
X1178364Y1054313*
X1178364D02*
X1178136Y1054625D01*
X1177909Y1055250*
X1183364Y1058375D02*
Y1054000D01*
Y1057125D02*
X1184045Y1058063D01*
X1184045D02*
X1184500Y1058375D01*
X1185182*
X1185636Y1058063*
X1185636D02*
X1185864Y1057125D01*
Y1054000*
Y1057125D02*
X1186545Y1058063D01*
X1186545D02*
X1187000Y1058375D01*
X1187682*
X1188136Y1058063*
X1188136D02*
X1188364Y1057125D01*
Y1054000*
X1190409Y1058375D02*
Y1054000D01*
Y1057125D02*
X1191091Y1058063D01*
X1191091D02*
X1191545Y1058375D01*
X1192227*
X1192682Y1058063*
X1192682D02*
X1192909Y1057125D01*
Y1054000*
Y1057125D02*
X1193591Y1058063D01*
X1193591D02*
X1194045Y1058375D01*
X1194727*
X1195182Y1058063*
X1195182D02*
X1195409Y1057125D01*
Y1054000*
X1095276Y1039370D02*
G03X1095276I-27559J0D01*
G01X1114961D02*
G03X1114961I-47244J0D01*
G01X1067717Y1043307D02*
Y1035433D01*
X1012598Y1039370D02*
X1071654D01*
X1000000Y1084646D02*
X1157480D01*
Y1000000*
X1000000*
Y1084646*
X1067717Y972000D02*
X1051404D01*
X1067717D02*
X1057717Y969500D01*
Y974500*
X1067717Y972000*
X1000000D02*
X1016313D01*
X1000000D02*
X1010000Y974500D01*
Y969500*
X1000000Y972000*
X1067717Y1031155D02*
Y967000D01*
X1000000Y1014140D02*
Y967000D01*
X1019313Y973563D02*
X1019767Y973875D01*
X1020449Y974813*
X1020449D02*
Y968250D01*
X1025676Y974813D02*
X1023404Y968250D01*
X1022495Y974813D02*
X1025676D01*
X1027949Y968875D02*
X1027722Y968563D01*
X1027722D02*
X1027949Y968250D01*
X1028176Y968563*
X1028176D02*
X1027949Y968875D01*
X1030449Y973250D02*
Y973563D01*
X1030449D02*
X1030676Y974188D01*
X1030676D02*
X1030904Y974500D01*
X1031358Y974813*
X1031358D02*
X1032267D01*
X1032267D02*
X1032722Y974500D01*
X1032949Y974188*
X1032949D02*
X1033176Y973563D01*
X1033176D02*
Y972938D01*
X1033176D02*
X1032949Y972313D01*
X1032949D02*
X1032495Y971375D01*
X1030222Y968250*
X1033404*
X1035449Y972625D02*
Y968250D01*
Y971375D02*
X1036131Y972313D01*
X1036131D02*
X1036586Y972625D01*
X1037267*
X1037722Y972313*
X1037722D02*
X1037949Y971375D01*
Y968250*
Y971375D02*
X1038631Y972313D01*
X1038631D02*
X1039086Y972625D01*
X1039767*
X1040222Y972313*
X1040222D02*
X1040449Y971375D01*
Y968250*
X1042495Y972625D02*
Y968250D01*
Y971375D02*
X1043176Y972313D01*
X1043176D02*
X1043631Y972625D01*
X1044313*
X1044767Y972313*
X1044767D02*
X1044995Y971375D01*
Y968250*
Y971375D02*
X1045676Y972313D01*
X1045676D02*
X1046131Y972625D01*
X1046813*
X1047267Y972313*
X1047267D02*
X1047495Y971375D01*
Y968250*
X1067717Y1039370D02*
X1067719D01*
X1034236Y1072703D02*
X1034239D01*
X1067717Y1039370D02*
X1060412Y1046642D01*
X1034236Y1072703D02*
X1048627Y1058375D01*
X1034236Y1072703D02*
X1043087Y1067419D01*
X1039559Y1063876*
X1034236Y1072703*
X1037361Y1055321D02*
Y1048759D01*
Y1055321D02*
X1039406D01*
X1040088Y1055009*
X1040315Y1054696*
X1040543Y1054071*
Y1053446*
X1040315Y1052821*
X1040088Y1052509*
X1039406Y1052196*
X1037361*
X1038952D02*
X1040543Y1048759D01*
X1042588Y1054071D02*
X1043043Y1054384D01*
X1043724Y1055321*
Y1048759*
X1045997Y1053759D02*
Y1054071D01*
X1046224Y1054696*
X1046452Y1055009*
X1046906Y1055321*
X1047815*
X1048270Y1055009*
X1048497Y1054696*
X1048724Y1054071*
Y1053446*
X1048497Y1052821*
X1048043Y1051884*
X1045770Y1048759*
X1048952*
X1051224Y1049384D02*
X1050997Y1049071D01*
X1051224Y1048759*
X1051452Y1049071*
X1051224Y1049384*
X1054861Y1055321D02*
X1054179Y1055009D01*
X1053724Y1054071*
X1053497Y1052509*
Y1051571*
X1053724Y1050009*
X1054179Y1049071*
X1054861Y1048759*
X1055315*
X1055997Y1049071*
X1056452Y1050009*
X1056679Y1051571*
Y1052509*
X1056452Y1054071*
X1055997Y1055009*
X1055315Y1055321*
X1054861*
X1058724Y1053134D02*
Y1048759D01*
Y1051884D02*
X1059406Y1052821D01*
X1059861Y1053134*
X1060543*
X1060997Y1052821*
X1061224Y1051884*
Y1048759*
Y1051884D02*
X1061906Y1052821D01*
X1062361Y1053134*
X1063043*
X1063497Y1052821*
X1063724Y1051884*
Y1048759*
X1065770Y1053134D02*
Y1048759D01*
Y1051884D02*
X1066452Y1052821D01*
X1066906Y1053134*
X1067588*
X1068043Y1052821*
X1068270Y1051884*
Y1048759*
Y1051884D02*
X1068952Y1052821D01*
X1069406Y1053134*
X1070088*
X1070543Y1052821*
X1070770Y1051884*
Y1048759*
X1067717Y1039370D02*
X1099213Y1021260D01*
X1067717Y1039370D02*
X1122835D01*
X1067717D02*
X1085827Y1070866D01*
X1100276Y1039370D02*
X1151242D01*
X1100276D02*
X1150944D01*
X1078740Y1000000D02*
Y1084646D01*
Y1127000D02*
X1093740D01*
X1078740D02*
X1088740Y1129500D01*
Y1124500*
X1078740Y1127000*
X1067717D02*
X1052717D01*
X1067717D02*
X1057717Y1124500D01*
Y1129500*
X1067717Y1127000*
X1078740Y1047323D02*
Y1132000D01*
X1067717Y1044370D02*
Y1132000D01*
X1062227Y1140000D02*
Y1140313D01*
X1062227D02*
X1062455Y1140938D01*
X1062455D02*
X1062682Y1141250D01*
X1063136Y1141563*
X1063136D02*
X1064045D01*
X1064045D02*
X1064500Y1141250D01*
X1064727Y1140938*
X1064727D02*
X1064955Y1140313D01*
X1064955D02*
Y1139688D01*
X1064955D02*
X1064727Y1139063D01*
X1064727D02*
X1064273Y1138125D01*
X1062000Y1135000*
X1065182*
X1067455Y1135625D02*
X1067227Y1135313D01*
X1067227D02*
X1067455Y1135000D01*
X1067682Y1135313*
X1067682D02*
X1067455Y1135625D01*
X1070864Y1141563D02*
X1070182Y1141250D01*
X1069955Y1140625*
Y1140000*
X1070182Y1139375*
X1070636Y1139063*
X1070636D02*
X1071545Y1138750D01*
X1072227Y1138438*
X1072227D02*
X1072682Y1137813D01*
X1072682D02*
X1072909Y1137188D01*
X1072909D02*
Y1136250D01*
X1072682Y1135625*
X1072455Y1135313*
X1072455D02*
X1071773Y1135000D01*
X1070864*
X1070182Y1135313*
X1070182D02*
X1069955Y1135625D01*
X1069727Y1136250*
Y1137188*
X1069727D02*
X1069955Y1137813D01*
X1069955D02*
X1070409Y1138438D01*
X1070409D02*
X1071091Y1138750D01*
X1072000Y1139063*
X1072000D02*
X1072455Y1139375D01*
X1072682Y1140000*
Y1140625*
X1072455Y1141250*
X1071773Y1141563*
X1071773D02*
X1070864D01*
X1074955Y1139375D02*
Y1135000D01*
Y1138125D02*
X1075636Y1139063D01*
X1075636D02*
X1076091Y1139375D01*
X1076773*
X1077227Y1139063*
X1077227D02*
X1077455Y1138125D01*
Y1135000*
Y1138125D02*
X1078136Y1139063D01*
X1078136D02*
X1078591Y1139375D01*
X1079273*
X1079727Y1139063*
X1079727D02*
X1079955Y1138125D01*
Y1135000*
X1082000Y1139375D02*
Y1135000D01*
Y1138125D02*
X1082682Y1139063D01*
X1082682D02*
X1083136Y1139375D01*
X1083818*
X1084273Y1139063*
X1084273D02*
X1084500Y1138125D01*
Y1135000*
Y1138125D02*
X1085182Y1139063D01*
X1085182D02*
X1085636Y1139375D01*
X1086318*
X1086773Y1139063*
X1086773D02*
X1087000Y1138125D01*
Y1135000*
X1067717Y1039370D02*
X1035603Y1024395D01*
X964000Y1039370D02*
G03X965193Y1023682I103717J0D01*
G01X964000Y1039370D02*
X966500Y1029370D01*
X961500*
X964000Y1039370*
X968169Y1010260D02*
G03X973717Y995537I99548J29110D01*
G01X967225Y1003544*
X971757Y1005657*
X973717Y995537*
X1015472Y1039370D02*
X959000D01*
X1047128Y1029770D02*
X969186Y993424D01*
X961913Y1018172D02*
Y1018484D01*
X962140Y1019109*
X962367Y1019422*
X962822Y1019734*
X963731*
X964185Y1019422*
X964413Y1019109*
X964640Y1018484*
Y1017859*
X964413Y1017234*
X963958Y1016297*
X961685Y1013172*
X964867*
X969867Y1019734D02*
X967595D01*
X967367Y1016922*
X967595Y1017234*
X968276Y1017547*
X968958*
X969640Y1017234*
X970095Y1016609*
X970322Y1015672*
X970095Y1015047*
X969867Y1014109*
X969413Y1013484*
X968731Y1013172*
X968049*
X967367Y1013484*
X967140Y1013797*
X966913Y1014422*
X1067717Y1039370D02*
X1067719D01*
X1058442Y1013419D02*
X1058444D01*
X1067717Y1039370D02*
X1058442Y1013419D01*
X1059453Y1023677*
X1064161Y1021994*
X1058442Y1013419*
X1049000Y987000*
X1039000*
X1004864Y989813D02*
Y983250D01*
Y989813D02*
X1006909D01*
X1006909D02*
X1007591Y989500D01*
X1007818Y989188*
X1007818D02*
X1008045Y988563D01*
X1008045D02*
Y987938D01*
X1008045D02*
X1007818Y987313D01*
X1007818D02*
X1007591Y987000D01*
X1006909Y986688*
X1006909D02*
X1004864D01*
X1006455D02*
X1008045Y983250D01*
X1013273Y989813D02*
X1011000Y983250D01*
X1010091Y989813D02*
X1013273D01*
X1015545Y983875D02*
X1015318Y983563D01*
X1015318D02*
X1015545Y983250D01*
X1015773Y983563*
X1015773D02*
X1015545Y983875D01*
X1019182Y989813D02*
X1018500Y989500D01*
X1018045Y988563*
X1018045D02*
X1017818Y987000D01*
Y986063*
X1017818D02*
X1018045Y984500D01*
X1018500Y983563*
X1018500D02*
X1019182Y983250D01*
X1019636*
X1020318Y983563*
X1020318D02*
X1020773Y984500D01*
X1021000Y986063*
X1021000D02*
Y987000D01*
X1020773Y988563*
X1020773D02*
X1020318Y989500D01*
X1019636Y989813*
X1019636D02*
X1019182D01*
X1023045Y987625D02*
Y983250D01*
Y986375D02*
X1023727Y987313D01*
X1023727D02*
X1024182Y987625D01*
X1024864*
X1025318Y987313*
X1025318D02*
X1025545Y986375D01*
Y983250*
Y986375D02*
X1026227Y987313D01*
X1026227D02*
X1026682Y987625D01*
X1027364*
X1027818Y987313*
X1027818D02*
X1028045Y986375D01*
Y983250*
X1030091Y987625D02*
Y983250D01*
Y986375D02*
X1030773Y987313D01*
X1030773D02*
X1031227Y987625D01*
X1031909*
X1032364Y987313*
X1032364D02*
X1032591Y986375D01*
Y983250*
Y986375D02*
X1033273Y987313D01*
X1033273D02*
X1033727Y987625D01*
X1034409*
X1034864Y987313*
X1034864D02*
X1035091Y986375D01*
Y983250*
X1136182Y1039370D02*
G03X1130263Y1067218I-68465J0D01*
G01X1136182Y1039370D02*
X1133682Y1049370D01*
X1138682*
X1136182Y1039370*
X1122895Y1079903D02*
G03X1101846Y1098723I-55178J-40533D01*
G01X1101845D02*
X1111760Y1095906D01*
X1109267Y1091571*
X1101845Y1098723*
X1127835Y1039370D02*
X1141182D01*
X1088319Y1075201D02*
X1104337Y1103058D01*
X1125161Y1075530D02*
X1124934Y1076155D01*
X1124252Y1076468*
X1123797*
X1123116Y1076155*
X1122661Y1075218*
X1122434Y1073655*
Y1072093*
X1122661Y1070843*
X1123116Y1070218*
X1123797Y1069905*
X1124025*
X1124706Y1070218*
X1125161Y1070843*
X1125388Y1071780*
Y1072093*
X1125161Y1073030*
X1124706Y1073655*
X1124025Y1073968*
X1123797*
X1123116Y1073655*
X1122661Y1073030*
X1122434Y1072093*
X1128797Y1076468D02*
X1128116Y1076155D01*
X1127661Y1075218*
X1127434Y1073655*
Y1072718*
X1127661Y1071155*
X1128116Y1070218*
X1128797Y1069905*
X1129252*
X1129934Y1070218*
X1130388Y1071155*
X1130616Y1072718*
Y1073655*
X1130388Y1075218*
X1129934Y1076155*
X1129252Y1076468*
X1128797*
X1141280Y997069D02*
G03X1147658Y1010904I-73563J42301D01*
G01X1141281Y997071D02*
X1144098Y1006986D01*
X1148433Y1004494*
X1141281Y997071*
X1151207Y1024197D02*
G03X1152575Y1039370I-83490J15173D01*
G01X1155075Y1029370*
X1150075*
X1152575Y1039370*
X1103547Y1018767D02*
X1145615Y994578D01*
X1127835Y1039370D02*
X1157575D01*
X1145498Y1020292D02*
X1147998D01*
X1146634Y1017792*
X1147316*
X1147771Y1017480*
X1147771D02*
X1147998Y1017167D01*
X1148225Y1016230*
X1148225D02*
Y1015605D01*
X1148225D02*
X1147998Y1014667D01*
X1147543Y1014042*
X1146862Y1013730*
X1146862D02*
X1146180D01*
X1146180D02*
X1145498Y1014042D01*
X1145271Y1014355*
X1145271D02*
X1145043Y1014980D01*
X1151634Y1020292D02*
X1150953Y1019980D01*
X1150953D02*
X1150498Y1019042D01*
X1150271Y1017480*
X1150271D02*
Y1016542D01*
X1150498Y1014980*
X1150498D02*
X1150953Y1014042D01*
X1151634Y1013730*
X1151634D02*
X1152089D01*
X1152089D02*
X1152771Y1014042D01*
X1153225Y1014980*
X1153225D02*
X1153453Y1016542D01*
Y1017480*
X1153453D02*
X1153225Y1019042D01*
X1152771Y1019980*
X1152771D02*
X1152089Y1020292D01*
X1151634*
X1078740Y972000D02*
X1099542D01*
X1078740D02*
X1088740Y974500D01*
Y969500*
X1078740Y972000*
X1157480D02*
X1136678D01*
X1157480D02*
X1147480Y969500D01*
Y974500*
X1157480Y972000*
X1078740Y1037323D02*
Y967000D01*
X1157480Y1037323D02*
Y967000D01*
X1102769Y973250D02*
Y973563D01*
X1102769D02*
X1102997Y974188D01*
X1102997D02*
X1103224Y974500D01*
X1103678Y974813*
X1103678D02*
X1104588D01*
X1104588D02*
X1105042Y974500D01*
X1105269Y974188*
X1105269D02*
X1105497Y973563D01*
X1105497D02*
Y972938D01*
X1105497D02*
X1105269Y972313D01*
X1105269D02*
X1104815Y971375D01*
X1102542Y968250*
X1105724*
X1109133Y974813D02*
X1108451Y974500D01*
X1107997Y973563*
X1107997D02*
X1107769Y972000D01*
Y971063*
X1107769D02*
X1107997Y969500D01*
X1108451Y968563*
X1108451D02*
X1109133Y968250D01*
X1109588*
X1110269Y968563*
X1110269D02*
X1110724Y969500D01*
X1110951Y971063*
X1110951D02*
Y972000D01*
X1110724Y973563*
X1110724D02*
X1110269Y974500D01*
X1109588Y974813*
X1109588D02*
X1109133D01*
X1113224Y968875D02*
X1112997Y968563D01*
X1112997D02*
X1113224Y968250D01*
X1113451Y968563*
X1113451D02*
X1113224Y968875D01*
X1116860Y974813D02*
X1116178Y974500D01*
X1115724Y973563*
X1115724D02*
X1115497Y972000D01*
Y971063*
X1115497D02*
X1115724Y969500D01*
X1116178Y968563*
X1116178D02*
X1116860Y968250D01*
X1117315*
X1117997Y968563*
X1117997D02*
X1118451Y969500D01*
X1118678Y971063*
X1118678D02*
Y972000D01*
X1118451Y973563*
X1118451D02*
X1117997Y974500D01*
X1117315Y974813*
X1117315D02*
X1116860D01*
X1120724Y972625D02*
Y968250D01*
Y971375D02*
X1121406Y972313D01*
X1121406D02*
X1121860Y972625D01*
X1122542*
X1122997Y972313*
X1122997D02*
X1123224Y971375D01*
Y968250*
Y971375D02*
X1123906Y972313D01*
X1123906D02*
X1124360Y972625D01*
X1125042*
X1125497Y972313*
X1125497D02*
X1125724Y971375D01*
Y968250*
X1127769Y972625D02*
Y968250D01*
Y971375D02*
X1128451Y972313D01*
X1128451D02*
X1128906Y972625D01*
X1129588*
X1130042Y972313*
X1130042D02*
X1130269Y971375D01*
Y968250*
Y971375D02*
X1130951Y972313D01*
X1130951D02*
X1131406Y972625D01*
X1132088*
X1132542Y972313*
X1132542D02*
X1132769Y971375D01*
Y968250*
X1067717Y1039370D02*
X1067719D01*
X1074192Y1037676D02*
X1074194D01*
X1074192D02*
X1084499Y1037563D01*
X1083233Y1032726*
X1074192Y1037676*
X1113850Y1027300*
X1116850Y1030113D02*
Y1023550D01*
Y1030113D02*
X1118895D01*
X1118895D02*
X1119577Y1029800D01*
X1119805Y1029488*
X1119805D02*
X1120032Y1028863D01*
X1120032D02*
Y1028238D01*
X1120032D02*
X1119805Y1027613D01*
X1119805D02*
X1119577Y1027300D01*
X1118895Y1026988*
X1118895D02*
X1116850D01*
X1118441D02*
X1120032Y1023550D01*
X1122077Y1028863D02*
X1122532Y1029175D01*
X1123214Y1030113*
X1123214D02*
Y1023550D01*
X1125486Y1024175D02*
X1125259Y1023863D01*
X1125259D02*
X1125486Y1023550D01*
X1125714Y1023863*
X1125714D02*
X1125486Y1024175D01*
X1130941Y1030113D02*
X1128668Y1023550D01*
X1127759Y1030113D02*
X1130941D01*
X1132986Y1027925D02*
Y1023550D01*
Y1026675D02*
X1133668Y1027613D01*
X1133668D02*
X1134123Y1027925D01*
X1134805*
X1135259Y1027613*
X1135259D02*
X1135486Y1026675D01*
Y1023550*
Y1026675D02*
X1136168Y1027613D01*
X1136168D02*
X1136623Y1027925D01*
X1137305*
X1137759Y1027613*
X1137759D02*
X1137986Y1026675D01*
Y1023550*
X1140032Y1027925D02*
Y1023550D01*
Y1026675D02*
X1140714Y1027613D01*
X1140714D02*
X1141168Y1027925D01*
X1141850*
X1142305Y1027613*
X1142305D02*
X1142532Y1026675D01*
Y1023550*
Y1026675D02*
X1143214Y1027613D01*
X1143214D02*
X1143668Y1027925D01*
X1144350*
X1144805Y1027613*
X1144805D02*
X1145032Y1026675D01*
Y1023550*
X1216535Y972441D02*
X1531496D01*
Y893701*
X1216535*
Y972441*
X1318898D02*
Y893701D01*
Y952756D02*
X1531496D01*
X1318898Y933071D02*
X1531496D01*
X1318898Y913386D02*
X1531496D01*
X1366142Y933071D02*
Y913386D01*
X1488189Y933071D02*
Y913386D01*
X1452756D02*
Y893701D01*
X1216535Y952756D02*
X1318898D01*
X1216535Y933071D02*
X1318898D01*
X1216535Y913386D02*
X1318898D01*
X1263780Y893701D02*
Y972441D01*
X937008Y1196850D02*
X1602362D01*
Y862205*
X937008*
Y1196850*
X1200000Y1520000D02*
X1458000D01*
X1200000Y1496000D02*
X1458000D01*
X1200000Y1472000D02*
X1458000D01*
X1200000Y1448000D02*
X1458000D01*
X1200000Y1424000D02*
X1458000D01*
X1200000Y1400000D02*
X1458000D01*
X1200000Y1520000D02*
Y1400000D01*
X1284000Y1520000D02*
Y1400000D01*
X1320000Y1520000D02*
Y1400000D01*
X1356000Y1520000D02*
Y1400000D01*
X1410000Y1520000D02*
Y1400000D01*
X1458000Y1520000D02*
Y1400000D01*
X1235500Y1508750D02*
X1234955Y1509500D01*
X1234136Y1509875*
X1233045*
X1232227Y1509500*
X1231682Y1508750*
Y1508000*
X1231955Y1507250*
X1232227Y1506875*
X1232773Y1506500*
X1234409Y1505750*
X1234955Y1505375*
X1235227Y1505000*
X1235500Y1504250*
Y1503125*
X1234955Y1502375*
X1234136Y1502000*
X1233045*
X1232227Y1502375*
X1231682Y1503125*
X1237955Y1509875D02*
Y1502000D01*
X1244227Y1509875D02*
X1240409Y1502000D01*
Y1509875D02*
X1244227D01*
X1240409Y1502000D02*
X1244227D01*
X1246682Y1509875D02*
Y1502000D01*
Y1509875D02*
X1250227D01*
X1246682Y1506125D02*
X1248864D01*
X1246682Y1502000D02*
X1250227D01*
X1293864Y1509875D02*
X1293318Y1509500D01*
X1292773Y1508750*
X1292500Y1508000*
X1292227Y1506875*
Y1505000*
X1292500Y1503875*
X1292773Y1503125*
X1293318Y1502375*
X1293864Y1502000*
X1294955*
X1295500Y1502375*
X1296045Y1503125*
X1296318Y1503875*
X1296591Y1505000*
Y1506875*
X1296318Y1508000*
X1296045Y1508750*
X1295500Y1509500*
X1294955Y1509875*
X1293864*
X1294682Y1503500D02*
X1296318Y1501250D01*
X1300955Y1509875D02*
Y1502000D01*
X1299045Y1509875D02*
X1302864D01*
X1305318D02*
X1307500Y1506125D01*
Y1502000*
X1309682Y1509875D02*
X1307500Y1506125D01*
X1332045Y1508750D02*
X1331500Y1509500D01*
X1330682Y1509875*
X1329591*
X1328773Y1509500*
X1328227Y1508750*
Y1508000*
X1328500Y1507250*
X1328773Y1506875*
X1329318Y1506500*
X1330955Y1505750*
X1331500Y1505375*
X1331773Y1505000*
X1332045Y1504250*
Y1503125*
X1331500Y1502375*
X1330682Y1502000*
X1329591*
X1328773Y1502375*
X1328227Y1503125*
X1334500Y1509875D02*
X1336682Y1506125D01*
Y1502000*
X1338864Y1509875D02*
X1336682Y1506125D01*
X1341318Y1509875D02*
Y1502000D01*
Y1509875D02*
X1343500Y1502000D01*
X1345682Y1509875D02*
X1343500Y1502000D01*
X1345682Y1509875D02*
Y1502000D01*
X1367500Y1509875D02*
Y1502000D01*
Y1509875D02*
X1369955D01*
X1370773Y1509500*
X1371045Y1509125*
X1371318Y1508375*
Y1507250*
X1371045Y1506500*
X1370773Y1506125*
X1369955Y1505750*
X1367500*
X1373773Y1509875D02*
Y1502000D01*
X1377045*
X1381682Y1509875D02*
X1379500Y1502000D01*
X1381682Y1509875D02*
X1383864Y1502000D01*
X1380318Y1504625D02*
X1383045D01*
X1388227Y1509875D02*
Y1502000D01*
X1386318Y1509875D02*
X1390136D01*
X1392591D02*
Y1502000D01*
Y1509875D02*
X1396136D01*
X1392591Y1506125D02*
X1394773D01*
X1392591Y1502000D02*
X1396136D01*
X1398591Y1509875D02*
Y1502000D01*
Y1509875D02*
X1400500D01*
X1401318Y1509500*
X1401864Y1508750*
X1402136Y1508000*
X1402409Y1506875*
Y1505000*
X1402136Y1503875*
X1401864Y1503125*
X1401318Y1502375*
X1400500Y1502000*
X1398591*
X1426682Y1509875D02*
Y1502000D01*
X1424773Y1509875D02*
X1428591D01*
X1432682D02*
X1432136Y1509500D01*
X1431591Y1508750*
X1431318Y1508000*
X1431045Y1506875*
Y1505000*
X1431318Y1503875*
X1431591Y1503125*
X1432136Y1502375*
X1432682Y1502000*
X1433773*
X1434318Y1502375*
X1434864Y1503125*
X1435136Y1503875*
X1435409Y1505000*
Y1506875*
X1435136Y1508000*
X1434864Y1508750*
X1434318Y1509500*
X1433773Y1509875*
X1432682*
X1437864D02*
Y1502000D01*
X1441136*
X1206000Y1484375D02*
X1206545Y1484750D01*
X1207364Y1485875*
Y1478000*
X1210091Y1484000D02*
Y1484375D01*
X1210364Y1485125*
X1210636Y1485500*
X1211182Y1485875*
X1212273*
X1212818Y1485500*
X1213091Y1485125*
X1213364Y1484375*
Y1483625*
X1213091Y1482875*
X1212545Y1481750*
X1209818Y1478000*
X1213636*
X1296455Y1485875D02*
X1299455D01*
X1297818Y1482875*
X1298636*
X1299182Y1482500*
X1299455Y1482125*
X1299727Y1481000*
Y1480250*
X1299455Y1479125*
X1298909Y1478375*
X1298091Y1478000*
X1297273*
X1296455Y1478375*
X1296182Y1478750*
X1295909Y1479500*
X1302727Y1485875D02*
X1305727D01*
X1304091Y1482875*
X1304909*
X1305455Y1482500*
X1305727Y1482125*
X1306000Y1481000*
Y1480250*
X1305727Y1479125*
X1305182Y1478375*
X1304364Y1478000*
X1303545*
X1302727Y1478375*
X1302455Y1478750*
X1302182Y1479500*
X1332000Y1484000D02*
X1344000D01*
X1338000Y1478000D02*
Y1490000D01*
X1364636Y1485875D02*
X1366818Y1482125D01*
Y1478000*
X1369000Y1485875D02*
X1366818Y1482125D01*
X1371455Y1485875D02*
Y1478000D01*
Y1485875D02*
X1375000D01*
X1371455Y1482125D02*
X1373636D01*
X1371455Y1478000D02*
X1375000D01*
X1381273Y1484750D02*
X1380727Y1485500D01*
X1379909Y1485875*
X1378818*
X1378000Y1485500*
X1377455Y1484750*
Y1484000*
X1377727Y1483250*
X1378000Y1482875*
X1378545Y1482500*
X1380182Y1481750*
X1380727Y1481375*
X1381000Y1481000*
X1381273Y1480250*
Y1479125*
X1380727Y1478375*
X1379909Y1478000*
X1378818*
X1378000Y1478375*
X1377455Y1479125*
X1417818Y1484750D02*
Y1478000D01*
X1415364Y1481375D02*
X1420273D01*
X1427636Y1487375D02*
X1422727Y1475375D01*
X1430091Y1481375D02*
X1435000D01*
X1439091Y1485875D02*
X1438273Y1485500D01*
X1437727Y1484375*
X1437455Y1482500*
Y1481375*
X1437727Y1479500*
X1438273Y1478375*
X1439091Y1478000*
X1439636*
X1440455Y1478375*
X1441000Y1479500*
X1441273Y1481375*
Y1482500*
X1441000Y1484375*
X1440455Y1485500*
X1439636Y1485875*
X1439091*
X1444000Y1478750D02*
X1443727Y1478375D01*
X1444000Y1478000*
X1444273Y1478375*
X1444000Y1478750*
X1448364Y1485875D02*
X1447545Y1485500D01*
X1447000Y1484375*
X1446727Y1482500*
Y1481375*
X1447000Y1479500*
X1447545Y1478375*
X1448364Y1478000*
X1448909*
X1449727Y1478375*
X1450273Y1479500*
X1450545Y1481375*
Y1482500*
X1450273Y1484375*
X1449727Y1485500*
X1448909Y1485875*
X1448364*
X1206545Y1461875D02*
X1209545D01*
X1207909Y1458875*
X1208727*
X1209273Y1458500*
X1209545Y1458125*
X1209818Y1457000*
Y1456250*
X1209545Y1455125*
X1209000Y1454375*
X1208182Y1454000*
X1207364*
X1206545Y1454375*
X1206273Y1454750*
X1206000Y1455500*
X1215818Y1459250D02*
X1215545Y1458125D01*
X1215000Y1457375*
X1214182Y1457000*
X1213909*
X1213091Y1457375*
X1212545Y1458125*
X1212273Y1459250*
Y1459625*
X1212545Y1460750*
X1213091Y1461500*
X1213909Y1461875*
X1214182*
X1215000Y1461500*
X1215545Y1460750*
X1215818Y1459250*
Y1457375*
X1215545Y1455500*
X1215000Y1454375*
X1214182Y1454000*
X1213636*
X1212818Y1454375*
X1212545Y1455125*
X1218545Y1454750D02*
X1218273Y1454375D01*
X1218545Y1454000*
X1218818Y1454375*
X1218545Y1454750*
X1221818Y1461875D02*
X1224818D01*
X1223182Y1458875*
X1224000*
X1224545Y1458500*
X1224818Y1458125*
X1225091Y1457000*
Y1456250*
X1224818Y1455125*
X1224273Y1454375*
X1223455Y1454000*
X1222636*
X1221818Y1454375*
X1221545Y1454750*
X1221273Y1455500*
X1231364Y1461875D02*
X1228636Y1454000D01*
X1227545Y1461875D02*
X1231364D01*
X1240091Y1459250D02*
X1243091Y1454000D01*
Y1459250D02*
X1240091Y1454000D01*
X1251818Y1460375D02*
X1252364Y1460750D01*
X1253182Y1461875*
Y1454000*
X1255909Y1460000D02*
Y1460375D01*
X1256182Y1461125*
X1256455Y1461500*
X1257000Y1461875*
X1258091*
X1258636Y1461500*
X1258909Y1461125*
X1259182Y1460375*
Y1459625*
X1258909Y1458875*
X1258364Y1457750*
X1255636Y1454000*
X1259455*
X1265455Y1459250D02*
X1265182Y1458125D01*
X1264636Y1457375*
X1263818Y1457000*
X1263545*
X1262727Y1457375*
X1262182Y1458125*
X1261909Y1459250*
Y1459625*
X1262182Y1460750*
X1262727Y1461500*
X1263545Y1461875*
X1263818*
X1264636Y1461500*
X1265182Y1460750*
X1265455Y1459250*
Y1457375*
X1265182Y1455500*
X1264636Y1454375*
X1263818Y1454000*
X1263273*
X1262455Y1454375*
X1262182Y1455125*
X1268182Y1454750D02*
X1267909Y1454375D01*
X1268182Y1454000*
X1268455Y1454375*
X1268182Y1454750*
X1274455Y1459250D02*
X1274182Y1458125D01*
X1273636Y1457375*
X1272818Y1457000*
X1272545*
X1271727Y1457375*
X1271182Y1458125*
X1270909Y1459250*
Y1459625*
X1271182Y1460750*
X1271727Y1461500*
X1272545Y1461875*
X1272818*
X1273636Y1461500*
X1274182Y1460750*
X1274455Y1459250*
Y1457375*
X1274182Y1455500*
X1273636Y1454375*
X1272818Y1454000*
X1272273*
X1271455Y1454375*
X1271182Y1455125*
X1277182Y1460000D02*
Y1460375D01*
X1277455Y1461125*
X1277727Y1461500*
X1278273Y1461875*
X1279364*
X1279909Y1461500*
X1280182Y1461125*
X1280455Y1460375*
Y1459625*
X1280182Y1458875*
X1279636Y1457750*
X1276909Y1454000*
X1280727*
X1299318Y1460000D02*
Y1460375D01*
X1299591Y1461125*
X1299864Y1461500*
X1300409Y1461875*
X1301500*
X1302045Y1461500*
X1302318Y1461125*
X1302591Y1460375*
Y1459625*
X1302318Y1458875*
X1301773Y1457750*
X1299045Y1454000*
X1302864*
X1332000D02*
X1344000Y1466000D01*
X1332000D02*
X1344000Y1454000D01*
X1364636Y1461875D02*
X1366818Y1458125D01*
Y1454000*
X1369000Y1461875D02*
X1366818Y1458125D01*
X1371455Y1461875D02*
Y1454000D01*
Y1461875D02*
X1375000D01*
X1371455Y1458125D02*
X1373636D01*
X1371455Y1454000D02*
X1375000D01*
X1381273Y1460750D02*
X1380727Y1461500D01*
X1379909Y1461875*
X1378818*
X1378000Y1461500*
X1377455Y1460750*
Y1460000*
X1377727Y1459250*
X1378000Y1458875*
X1378545Y1458500*
X1380182Y1457750*
X1380727Y1457375*
X1381000Y1457000*
X1381273Y1456250*
Y1455125*
X1380727Y1454375*
X1379909Y1454000*
X1378818*
X1378000Y1454375*
X1377455Y1455125*
X1417818Y1460750D02*
Y1454000D01*
X1415364Y1457375D02*
X1420273D01*
X1427636Y1463375D02*
X1422727Y1451375D01*
X1430091Y1457375D02*
X1435000D01*
X1439091Y1461875D02*
X1438273Y1461500D01*
X1437727Y1460375*
X1437455Y1458500*
Y1457375*
X1437727Y1455500*
X1438273Y1454375*
X1439091Y1454000*
X1439636*
X1440455Y1454375*
X1441000Y1455500*
X1441273Y1457375*
Y1458500*
X1441000Y1460375*
X1440455Y1461500*
X1439636Y1461875*
X1439091*
X1444000Y1454750D02*
X1443727Y1454375D01*
X1444000Y1454000*
X1444273Y1454375*
X1444000Y1454750*
X1448364Y1461875D02*
X1447545Y1461500D01*
X1447000Y1460375*
X1446727Y1458500*
Y1457375*
X1447000Y1455500*
X1447545Y1454375*
X1448364Y1454000*
X1448909*
X1449727Y1454375*
X1450273Y1455500*
X1450545Y1457375*
Y1458500*
X1450273Y1460375*
X1449727Y1461500*
X1448909Y1461875*
X1448364*
X1206273Y1436000D02*
Y1436375D01*
X1206545Y1437125*
X1206818Y1437500*
X1207364Y1437875*
X1208455*
X1209000Y1437500*
X1209273Y1437125*
X1209545Y1436375*
Y1435625*
X1209273Y1434875*
X1208727Y1433750*
X1206000Y1430000*
X1209818*
X1213909Y1437875D02*
X1213091Y1437500D01*
X1212545Y1436375*
X1212273Y1434500*
Y1433375*
X1212545Y1431500*
X1213091Y1430375*
X1213909Y1430000*
X1214455*
X1215273Y1430375*
X1215818Y1431500*
X1216091Y1433375*
Y1434500*
X1215818Y1436375*
X1215273Y1437500*
X1214455Y1437875*
X1213909*
X1302455Y1436750D02*
X1302182Y1437500D01*
X1301364Y1437875*
X1300818*
X1300000Y1437500*
X1299455Y1436375*
X1299182Y1434500*
Y1432625*
X1299455Y1431125*
X1300000Y1430375*
X1300818Y1430000*
X1301091*
X1301909Y1430375*
X1302455Y1431125*
X1302727Y1432250*
Y1432625*
X1302455Y1433750*
X1301909Y1434500*
X1301091Y1434875*
X1300818*
X1300000Y1434500*
X1299455Y1433750*
X1299182Y1432625*
X1332000Y1430000D02*
X1344000D01*
Y1442000*
X1332000*
Y1430000*
X1338000Y1436000D02*
Y1442000D01*
X1364636Y1437875D02*
X1366818Y1434125D01*
Y1430000*
X1369000Y1437875D02*
X1366818Y1434125D01*
X1371455Y1437875D02*
Y1430000D01*
Y1437875D02*
X1375000D01*
X1371455Y1434125D02*
X1373636D01*
X1371455Y1430000D02*
X1375000D01*
X1381273Y1436750D02*
X1380727Y1437500D01*
X1379909Y1437875*
X1378818*
X1378000Y1437500*
X1377455Y1436750*
Y1436000*
X1377727Y1435250*
X1378000Y1434875*
X1378545Y1434500*
X1380182Y1433750*
X1380727Y1433375*
X1381000Y1433000*
X1381273Y1432250*
Y1431125*
X1380727Y1430375*
X1379909Y1430000*
X1378818*
X1378000Y1430375*
X1377455Y1431125*
X1417818Y1436750D02*
Y1430000D01*
X1415364Y1433375D02*
X1420273D01*
X1427636Y1439375D02*
X1422727Y1427375D01*
X1430091Y1433375D02*
X1435000D01*
X1439091Y1437875D02*
X1438273Y1437500D01*
X1437727Y1436375*
X1437455Y1434500*
Y1433375*
X1437727Y1431500*
X1438273Y1430375*
X1439091Y1430000*
X1439636*
X1440455Y1430375*
X1441000Y1431500*
X1441273Y1433375*
Y1434500*
X1441000Y1436375*
X1440455Y1437500*
X1439636Y1437875*
X1439091*
X1444000Y1430750D02*
X1443727Y1430375D01*
X1444000Y1430000*
X1444273Y1430375*
X1444000Y1430750*
X1448364Y1437875D02*
X1447545Y1437500D01*
X1447000Y1436375*
X1446727Y1434500*
Y1433375*
X1447000Y1431500*
X1447545Y1430375*
X1448364Y1430000*
X1448909*
X1449727Y1430375*
X1450273Y1431500*
X1450545Y1433375*
Y1434500*
X1450273Y1436375*
X1449727Y1437500*
X1448909Y1437875*
X1448364*
X1206545Y1413875D02*
X1209545D01*
X1207909Y1410875*
X1208727*
X1209273Y1410500*
X1209545Y1410125*
X1209818Y1409000*
Y1408250*
X1209545Y1407125*
X1209000Y1406375*
X1208182Y1406000*
X1207364*
X1206545Y1406375*
X1206273Y1406750*
X1206000Y1407500*
X1215818Y1411250D02*
X1215545Y1410125D01*
X1215000Y1409375*
X1214182Y1409000*
X1213909*
X1213091Y1409375*
X1212545Y1410125*
X1212273Y1411250*
Y1411625*
X1212545Y1412750*
X1213091Y1413500*
X1213909Y1413875*
X1214182*
X1215000Y1413500*
X1215545Y1412750*
X1215818Y1411250*
Y1409375*
X1215545Y1407500*
X1215000Y1406375*
X1214182Y1406000*
X1213636*
X1212818Y1406375*
X1212545Y1407125*
X1299591Y1413875D02*
X1302591D01*
X1300955Y1410875*
X1301773*
X1302318Y1410500*
X1302591Y1410125*
X1302864Y1409000*
Y1408250*
X1302591Y1407125*
X1302045Y1406375*
X1301227Y1406000*
X1300409*
X1299591Y1406375*
X1299318Y1406750*
X1299045Y1407500*
X1338000Y1406000D02*
X1344000Y1412000D01*
X1338000Y1418000*
X1332000Y1412000*
X1338000Y1406000*
Y1412000D02*
Y1418000D01*
X1364636Y1413875D02*
X1366818Y1410125D01*
Y1406000*
X1369000Y1413875D02*
X1366818Y1410125D01*
X1371455Y1413875D02*
Y1406000D01*
Y1413875D02*
X1375000D01*
X1371455Y1410125D02*
X1373636D01*
X1371455Y1406000D02*
X1375000D01*
X1381273Y1412750D02*
X1380727Y1413500D01*
X1379909Y1413875*
X1378818*
X1378000Y1413500*
X1377455Y1412750*
Y1412000*
X1377727Y1411250*
X1378000Y1410875*
X1378545Y1410500*
X1380182Y1409750*
X1380727Y1409375*
X1381000Y1409000*
X1381273Y1408250*
Y1407125*
X1380727Y1406375*
X1379909Y1406000*
X1378818*
X1378000Y1406375*
X1377455Y1407125*
X1417818Y1412750D02*
Y1406000D01*
X1415364Y1409375D02*
X1420273D01*
X1427636Y1415375D02*
X1422727Y1403375D01*
X1430091Y1409375D02*
X1435000D01*
X1439091Y1413875D02*
X1438273Y1413500D01*
X1437727Y1412375*
X1437455Y1410500*
Y1409375*
X1437727Y1407500*
X1438273Y1406375*
X1439091Y1406000*
X1439636*
X1440455Y1406375*
X1441000Y1407500*
X1441273Y1409375*
Y1410500*
X1441000Y1412375*
X1440455Y1413500*
X1439636Y1413875*
X1439091*
X1444000Y1406750D02*
X1443727Y1406375D01*
X1444000Y1406000*
X1444273Y1406375*
X1444000Y1406750*
X1448364Y1413875D02*
X1447545Y1413500D01*
X1447000Y1412375*
X1446727Y1410500*
Y1409375*
X1447000Y1407500*
X1447545Y1406375*
X1448364Y1406000*
X1448909*
X1449727Y1406375*
X1450273Y1407500*
X1450545Y1409375*
Y1410500*
X1450273Y1412375*
X1449727Y1413500*
X1448909Y1413875*
X1448364*
G54D22*
X1267717Y960630D02*
Y956693D01*
Y960630D02*
X1269626Y956693D01*
Y960630D02*
Y956693D01*
X1271535Y959318D02*
X1271262Y959130D01*
X1270989Y958755*
X1270853Y958193*
Y957818*
X1270989Y957255*
X1271262Y956880*
X1271535Y956693*
X1271944*
X1272217Y956880*
X1272489Y957255*
X1272626Y957818*
Y958193*
X1272489Y958755*
X1272217Y959130*
X1271944Y959318*
X1271535*
X1273853D02*
X1274671Y956693D01*
X1275489Y959318D02*
X1274671Y956693D01*
X1279853Y959880D02*
X1280126Y960068D01*
X1280535Y960630*
Y956693*
X1282035Y956880D02*
X1281898Y956693D01*
X1281762Y956880*
X1281898Y957068*
X1282035Y956880*
Y956505*
X1281898Y956130*
X1281762Y955943*
X1286535Y959693D02*
Y959880D01*
X1286671Y960255*
X1286807Y960443*
X1287080Y960630*
X1287626*
X1287898Y960443*
X1288035Y960255*
X1288171Y959880*
Y959505*
X1288035Y959130*
X1287762Y958568*
X1286398Y956693*
X1288307*
X1290353Y960630D02*
X1289944Y960443D01*
X1289671Y959880*
X1289535Y958943*
Y958380*
X1289671Y957443*
X1289944Y956880*
X1290353Y956693*
X1290626*
X1291035Y956880*
X1291307Y957443*
X1291444Y958380*
Y958943*
X1291307Y959880*
X1291035Y960443*
X1290626Y960630*
X1290353*
X1292671Y959880D02*
X1292944Y960068D01*
X1293353Y960630*
Y956693*
X1295262Y960630D02*
X1294853Y960443D01*
X1294717Y960068*
Y959693*
X1294853Y959318*
X1295126Y959130*
X1295671Y958943*
X1296080Y958755*
X1296353Y958380*
X1296489Y958005*
Y957443*
X1296353Y957068*
X1296217Y956880*
X1295807Y956693*
X1295262*
X1294853Y956880*
X1294717Y957068*
X1294580Y957443*
Y958005*
X1294717Y958380*
X1294989Y958755*
X1295398Y958943*
X1295944Y959130*
X1296217Y959318*
X1296353Y959693*
Y960068*
X1296217Y960443*
X1295807Y960630*
X1295262*
G54D36*
X1324539Y963130D02*
X1324426Y963442D01*
X1324198Y963755*
X1323971Y963911*
X1323516*
X1323289Y963755*
X1323062Y963442*
X1322948Y963130*
X1322835Y962661*
Y961880*
X1322948Y961411*
X1323062Y961099*
X1323289Y960786*
X1323516Y960630*
X1323971*
X1324198Y960786*
X1324426Y961099*
X1324539Y961411*
X1326244Y963911D02*
X1326016Y963755D01*
X1325789Y963442*
X1325676Y963130*
X1325562Y962661*
Y961880*
X1325676Y961411*
X1325789Y961099*
X1326016Y960786*
X1326244Y960630*
X1326698*
X1326926Y960786*
X1327153Y961099*
X1327266Y961411*
X1327380Y961880*
Y962661*
X1327266Y963130*
X1327153Y963442*
X1326926Y963755*
X1326698Y963911*
X1326244*
X1328403D02*
Y960630D01*
Y963911D02*
X1329312Y960630D01*
X1330221Y963911D02*
X1329312Y960630D01*
X1330221Y963911D02*
Y960630D01*
X1331244Y963911D02*
Y960630D01*
Y963911D02*
X1332266D01*
X1332607Y963755*
X1332721Y963599*
X1332835Y963286*
Y962817*
X1332721Y962505*
X1332607Y962349*
X1332266Y962192*
X1331244*
X1334766Y963911D02*
X1333857Y960630D01*
X1334766Y963911D02*
X1335676Y960630D01*
X1334198Y961724D02*
X1335335D01*
X1336698Y963911D02*
Y960630D01*
Y963911D02*
X1338289Y960630D01*
Y963911D02*
Y960630D01*
X1339312Y963911D02*
X1340221Y962349D01*
Y960630*
X1341130Y963911D02*
X1340221Y962349D01*
X1342266Y962817D02*
X1342153Y962661D01*
X1342266Y962505*
X1342380Y962661*
X1342266Y962817*
Y960942D02*
X1342153Y960786D01*
X1342266Y960630*
X1342380Y960786*
X1342266Y960942*
X1323630Y944226D02*
Y940945D01*
X1322835Y944226D02*
X1324426D01*
X1325448D02*
Y940945D01*
X1327266Y944226D02*
Y940945D01*
X1326471Y944226D02*
X1328062D01*
X1329085D02*
Y940945D01*
X1330448*
X1331471Y944226D02*
Y940945D01*
Y944226D02*
X1332948D01*
X1331471Y942664D02*
X1332380D01*
X1331471Y940945D02*
X1332948D01*
X1334085Y943132D02*
X1333971Y942976D01*
X1334085Y942820*
X1334198Y942976*
X1334085Y943132*
Y941257D02*
X1333971Y941101D01*
X1334085Y940945*
X1334198Y941101*
X1334085Y941257*
X1324539Y923760D02*
X1324426Y924072D01*
X1324198Y924385*
X1323971Y924541*
X1323516*
X1323289Y924385*
X1323062Y924072*
X1322948Y923760*
X1322835Y923291*
Y922510*
X1322948Y922041*
X1323062Y921729*
X1323289Y921416*
X1323516Y921260*
X1323971*
X1324198Y921416*
X1324426Y921729*
X1324539Y922041*
X1326244Y924541D02*
X1326016Y924385D01*
X1325789Y924072*
X1325676Y923760*
X1325562Y923291*
Y922510*
X1325676Y922041*
X1325789Y921729*
X1326016Y921416*
X1326244Y921260*
X1326698*
X1326926Y921416*
X1327153Y921729*
X1327266Y922041*
X1327380Y922510*
Y923291*
X1327266Y923760*
X1327153Y924072*
X1326926Y924385*
X1326698Y924541*
X1326244*
X1328403D02*
Y921260D01*
Y924541D02*
X1329198D01*
X1329539Y924385*
X1329766Y924072*
X1329880Y923760*
X1329994Y923291*
Y922510*
X1329880Y922041*
X1329766Y921729*
X1329539Y921416*
X1329198Y921260*
X1328403*
X1331016Y924541D02*
Y921260D01*
Y924541D02*
X1332494D01*
X1331016Y922979D02*
X1331926D01*
X1331016Y921260D02*
X1332494D01*
X1333630Y923447D02*
X1333516Y923291D01*
X1333630Y923135*
X1333744Y923291*
X1333630Y923447*
Y921572D02*
X1333516Y921416D01*
X1333630Y921260*
X1333744Y921416*
X1333630Y921572*
X1374016Y924541D02*
Y921260D01*
Y924541D02*
X1374811D01*
X1375152Y924385*
X1375379Y924072*
X1375493Y923760*
X1375607Y923291*
Y922510*
X1375493Y922041*
X1375379Y921729*
X1375152Y921416*
X1374811Y921260*
X1374016*
X1376629Y924541D02*
Y921260D01*
Y924541D02*
X1377652D01*
X1377993Y924385*
X1378107Y924229*
X1378220Y923916*
Y923604*
X1378107Y923291*
X1377993Y923135*
X1377652Y922979*
X1376629*
X1377425D02*
X1378220Y921260D01*
X1380152Y924541D02*
X1379243Y921260D01*
X1380152Y924541D02*
X1381061Y921260D01*
X1379584Y922354D02*
X1380720D01*
X1382084Y924541D02*
X1382652Y921260D01*
X1383220Y924541D02*
X1382652Y921260D01*
X1383220Y924541D02*
X1383788Y921260D01*
X1384357Y924541D02*
X1383788Y921260D01*
X1385379Y924541D02*
Y921260D01*
X1386402Y924541D02*
Y921260D01*
Y924541D02*
X1387993Y921260D01*
Y924541D02*
Y921260D01*
X1390720Y923760D02*
X1390607Y924072D01*
X1390379Y924385*
X1390152Y924541*
X1389698*
X1389470Y924385*
X1389243Y924072*
X1389129Y923760*
X1389016Y923291*
Y922510*
X1389129Y922041*
X1389243Y921729*
X1389470Y921416*
X1389698Y921260*
X1390152*
X1390379Y921416*
X1390607Y921729*
X1390720Y922041*
Y922510*
X1390152D02*
X1390720D01*
X1394357Y924541D02*
Y921260D01*
Y924541D02*
X1395948Y921260D01*
Y924541D02*
Y921260D01*
X1397652Y924541D02*
X1397425Y924385D01*
X1397198Y924072*
X1397084Y923760*
X1396970Y923291*
Y922510*
X1397084Y922041*
X1397198Y921729*
X1397425Y921416*
X1397652Y921260*
X1398107*
X1398334Y921416*
X1398561Y921729*
X1398675Y922041*
X1398788Y922510*
Y923291*
X1398675Y923760*
X1398561Y924072*
X1398334Y924385*
X1398107Y924541*
X1397652*
X1399925Y923447D02*
X1399811Y923291D01*
X1399925Y923135*
X1400038Y923291*
X1399925Y923447*
Y921572D02*
X1399811Y921416D01*
X1399925Y921260*
X1400038Y921416*
X1399925Y921572*
X1492126Y924541D02*
Y921260D01*
Y924541D02*
X1493149D01*
X1493490Y924385*
X1493603Y924229*
X1493717Y923916*
Y923604*
X1493603Y923291*
X1493490Y923135*
X1493149Y922979*
X1492126*
X1492921D02*
X1493717Y921260D01*
X1494740Y924541D02*
Y921260D01*
Y924541D02*
X1496217D01*
X1494740Y922979D02*
X1495649D01*
X1494740Y921260D02*
X1496217D01*
X1497240Y924541D02*
X1498149Y921260D01*
X1499058Y924541D02*
X1498149Y921260D01*
X1500194Y923447D02*
X1500081Y923291D01*
X1500194Y923135*
X1500308Y923291*
X1500194Y923447*
Y921572D02*
X1500081Y921416D01*
X1500194Y921260*
X1500308Y921416*
X1500194Y921572*
X1324426Y904387D02*
X1324198Y904700D01*
X1323857Y904856*
X1323403*
X1323062Y904700*
X1322835Y904387*
Y904075*
X1322948Y903762*
X1323062Y903606*
X1323289Y903450*
X1323971Y903137*
X1324198Y902981*
X1324312Y902825*
X1324426Y902512*
Y902044*
X1324198Y901731*
X1323857Y901575*
X1323403*
X1323062Y901731*
X1322835Y902044*
X1327153Y904075D02*
X1327039Y904387D01*
X1326812Y904700*
X1326585Y904856*
X1326130*
X1325903Y904700*
X1325676Y904387*
X1325562Y904075*
X1325448Y903606*
Y902825*
X1325562Y902356*
X1325676Y902044*
X1325903Y901731*
X1326130Y901575*
X1326585*
X1326812Y901731*
X1327039Y902044*
X1327153Y902356*
X1329085Y904856D02*
X1328176Y901575D01*
X1329085Y904856D02*
X1329994Y901575D01*
X1328516Y902669D02*
X1329653D01*
X1331016Y904856D02*
Y901575D01*
X1332380*
X1333403Y904856D02*
Y901575D01*
Y904856D02*
X1334880D01*
X1333403Y903294D02*
X1334312D01*
X1333403Y901575D02*
X1334880D01*
X1336016Y903762D02*
X1335903Y903606D01*
X1336016Y903450*
X1336130Y903606*
X1336016Y903762*
Y901887D02*
X1335903Y901731D01*
X1336016Y901575*
X1336130Y901731*
X1336016Y901887*
X1458284Y904387D02*
X1458057Y904700D01*
X1457716Y904856*
X1457261*
X1456920Y904700*
X1456693Y904387*
Y904075*
X1456807Y903762*
X1456920Y903606*
X1457147Y903450*
X1457829Y903137*
X1458057Y902981*
X1458170Y902825*
X1458284Y902512*
Y902044*
X1458057Y901731*
X1457716Y901575*
X1457261*
X1456920Y901731*
X1456693Y902044*
X1459307Y904856D02*
Y901575D01*
X1460897Y904856D02*
Y901575D01*
X1459307Y903294D02*
X1460897D01*
X1461920Y904856D02*
Y901575D01*
Y904856D02*
X1463397D01*
X1461920Y903294D02*
X1462829D01*
X1461920Y901575D02*
X1463397D01*
X1464420Y904856D02*
Y901575D01*
Y904856D02*
X1465897D01*
X1464420Y903294D02*
X1465329D01*
X1464420Y901575D02*
X1465897D01*
X1467716Y904856D02*
Y901575D01*
X1466920Y904856D02*
X1468511D01*
X1469647Y903762D02*
X1469534Y903606D01*
X1469647Y903450*
X1469761Y903606*
X1469647Y903762*
Y901887D02*
X1469534Y901731D01*
X1469647Y901575*
X1469761Y901731*
X1469647Y901887*
X1494988Y904856D02*
X1494761Y904700D01*
X1494534Y904387*
X1494420Y904075*
X1494307Y903606*
Y902825*
X1494420Y902356*
X1494534Y902044*
X1494761Y901731*
X1494988Y901575*
X1495443*
X1495670Y901731*
X1495897Y902044*
X1496011Y902356*
X1496125Y902825*
Y903606*
X1496011Y904075*
X1495897Y904387*
X1495670Y904700*
X1495443Y904856*
X1494988*
X1497147D02*
Y901575D01*
Y904856D02*
X1498625D01*
X1497147Y903294D02*
X1498057D01*
X1220472Y967848D02*
Y964567D01*
Y967848D02*
X1221268D01*
X1221609Y967692*
X1221836Y967379*
X1221950Y967067*
X1222063Y966598*
Y965817*
X1221950Y965348*
X1221836Y965036*
X1221609Y964723*
X1221268Y964567*
X1220472*
X1223086Y967848D02*
Y964567D01*
Y967848D02*
X1224109D01*
X1224450Y967692*
X1224563Y967536*
X1224677Y967223*
Y966911*
X1224563Y966598*
X1224450Y966442*
X1224109Y966286*
X1223086*
X1223882D02*
X1224677Y964567D01*
X1226609Y967848D02*
X1225700Y964567D01*
X1226609Y967848D02*
X1227518Y964567D01*
X1226041Y965661D02*
X1227177D01*
X1228541Y967848D02*
X1229109Y964567D01*
X1229677Y967848D02*
X1229109Y964567D01*
X1229677Y967848D02*
X1230245Y964567D01*
X1230813Y967848D02*
X1230245Y964567D01*
X1231836Y967848D02*
Y964567D01*
Y967848D02*
X1233427Y964567D01*
Y967848D02*
Y964567D01*
X1234563Y966754D02*
X1234450Y966598D01*
X1234563Y966442*
X1234677Y966598*
X1234563Y966754*
Y964879D02*
X1234450Y964723D01*
X1234563Y964567*
X1234677Y964723*
X1234563Y964879*
X1267717Y967848D02*
Y964567D01*
Y967848D02*
X1268512D01*
X1268853Y967692*
X1269080Y967379*
X1269194Y967067*
X1269307Y966598*
Y965817*
X1269194Y965348*
X1269080Y965036*
X1268853Y964723*
X1268512Y964567*
X1267717*
X1271239Y967848D02*
X1270330Y964567D01*
X1271239Y967848D02*
X1272148Y964567D01*
X1270671Y965661D02*
X1271807D01*
X1273967Y967848D02*
Y964567D01*
X1273171Y967848D02*
X1274762D01*
X1275785D02*
Y964567D01*
Y967848D02*
X1277262D01*
X1275785Y966286D02*
X1276694D01*
X1275785Y964567D02*
X1277262D01*
X1278285Y967848D02*
Y964567D01*
Y967848D02*
X1279080D01*
X1279421Y967692*
X1279648Y967379*
X1279762Y967067*
X1279876Y966598*
Y965817*
X1279762Y965348*
X1279648Y965036*
X1279421Y964723*
X1279080Y964567*
X1278285*
X1281012Y966754D02*
X1280898Y966598D01*
X1281012Y966442*
X1281126Y966598*
X1281012Y966754*
Y964879D02*
X1280898Y964723D01*
X1281012Y964567*
X1281126Y964723*
X1281012Y964879*
X1222177Y947382D02*
X1222063Y947694D01*
X1221836Y948007*
X1221609Y948163*
X1221154*
X1220927Y948007*
X1220700Y947694*
X1220586Y947382*
X1220472Y946913*
Y946132*
X1220586Y945663*
X1220700Y945351*
X1220927Y945038*
X1221154Y944882*
X1221609*
X1221836Y945038*
X1222063Y945351*
X1222177Y945663*
X1223200Y948163D02*
Y944882D01*
X1224791Y948163D02*
Y944882D01*
X1223200Y946601D02*
X1224791D01*
X1225813Y948163D02*
Y944882D01*
Y948163D02*
X1227291D01*
X1225813Y946601D02*
X1226722D01*
X1225813Y944882D02*
X1227291D01*
X1230018Y947382D02*
X1229904Y947694D01*
X1229677Y948007*
X1229450Y948163*
X1228995*
X1228768Y948007*
X1228541Y947694*
X1228427Y947382*
X1228313Y946913*
Y946132*
X1228427Y945663*
X1228541Y945351*
X1228768Y945038*
X1228995Y944882*
X1229450*
X1229677Y945038*
X1229904Y945351*
X1230018Y945663*
X1231041Y948163D02*
Y944882D01*
X1232632Y948163D02*
X1231041Y945976D01*
X1231609Y946757D02*
X1232632Y944882D01*
X1233654Y948163D02*
Y944882D01*
Y948163D02*
X1235132D01*
X1233654Y946601D02*
X1234563D01*
X1233654Y944882D02*
X1235132D01*
X1236154Y948163D02*
Y944882D01*
Y948163D02*
X1236950D01*
X1237291Y948007*
X1237518Y947694*
X1237632Y947382*
X1237745Y946913*
Y946132*
X1237632Y945663*
X1237518Y945351*
X1237291Y945038*
X1236950Y944882*
X1236154*
X1238882Y947069D02*
X1238768Y946913D01*
X1238882Y946757*
X1238995Y946913*
X1238882Y947069*
Y945194D02*
X1238768Y945038D01*
X1238882Y944882*
X1238995Y945038*
X1238882Y945194*
X1221154Y928478D02*
X1220927Y928322D01*
X1220700Y928009*
X1220586Y927697*
X1220472Y927228*
Y926447*
X1220586Y925978*
X1220700Y925666*
X1220927Y925353*
X1221154Y925197*
X1221609*
X1221836Y925353*
X1222063Y925666*
X1222177Y925978*
X1222291Y926447*
Y927228*
X1222177Y927697*
X1222063Y928009*
X1221836Y928322*
X1221609Y928478*
X1221154*
X1221495Y925822D02*
X1222177Y924884D01*
X1225018Y927697D02*
X1224904Y928009D01*
X1224677Y928322*
X1224450Y928478*
X1223995*
X1223768Y928322*
X1223541Y928009*
X1223427Y927697*
X1223313Y927228*
Y926447*
X1223427Y925978*
X1223541Y925666*
X1223768Y925353*
X1223995Y925197*
X1224450*
X1224677Y925353*
X1224904Y925666*
X1225018Y925978*
X1226154Y927384D02*
X1226041Y927228D01*
X1226154Y927072*
X1226268Y927228*
X1226154Y927384*
Y925509D02*
X1226041Y925353D01*
X1226154Y925197*
X1226268Y925353*
X1226154Y925509*
X1220472Y908793D02*
Y905512D01*
Y908793D02*
X1221495D01*
X1221836Y908637*
X1221950Y908481*
X1222063Y908168*
Y907856*
X1221950Y907543*
X1221836Y907387*
X1221495Y907231*
X1220472*
X1221268D02*
X1222063Y905512D01*
X1223086Y908793D02*
Y905512D01*
Y908793D02*
X1224563D01*
X1223086Y907231D02*
X1223995D01*
X1223086Y905512D02*
X1224563D01*
X1225586Y908793D02*
Y905512D01*
X1226950*
X1227972Y908793D02*
Y905512D01*
Y908793D02*
X1229450D01*
X1227972Y907231D02*
X1228882D01*
X1227972Y905512D02*
X1229450D01*
X1231382Y908793D02*
X1230472Y905512D01*
X1231382Y908793D02*
X1232291Y905512D01*
X1230813Y906606D02*
X1231950D01*
X1234904Y908324D02*
X1234677Y908637D01*
X1234336Y908793*
X1233882*
X1233541Y908637*
X1233313Y908324*
Y908012*
X1233427Y907699*
X1233541Y907543*
X1233768Y907387*
X1234450Y907074*
X1234677Y906918*
X1234791Y906762*
X1234904Y906449*
Y905981*
X1234677Y905668*
X1234336Y905512*
X1233882*
X1233541Y905668*
X1233313Y905981*
X1235927Y908793D02*
Y905512D01*
Y908793D02*
X1237404D01*
X1235927Y907231D02*
X1236836D01*
X1235927Y905512D02*
X1237404D01*
X1238427Y908793D02*
Y905512D01*
Y908793D02*
X1239222D01*
X1239563Y908637*
X1239791Y908324*
X1239904Y908012*
X1240018Y907543*
Y906762*
X1239904Y906293*
X1239791Y905981*
X1239563Y905668*
X1239222Y905512*
X1238427*
X1241154Y907699D02*
X1241041Y907543D01*
X1241154Y907387*
X1241268Y907543*
X1241154Y907699*
Y905824D02*
X1241041Y905668D01*
X1241154Y905512*
X1241268Y905668*
X1241154Y905824*
X1267717Y948163D02*
Y944882D01*
Y948163D02*
X1268512D01*
X1268853Y948007*
X1269080Y947694*
X1269194Y947382*
X1269307Y946913*
Y946132*
X1269194Y945663*
X1269080Y945351*
X1268853Y945038*
X1268512Y944882*
X1267717*
X1271239Y948163D02*
X1270330Y944882D01*
X1271239Y948163D02*
X1272148Y944882D01*
X1270671Y945976D02*
X1271807D01*
X1273967Y948163D02*
Y944882D01*
X1273171Y948163D02*
X1274762D01*
X1275785D02*
Y944882D01*
Y948163D02*
X1277262D01*
X1275785Y946601D02*
X1276694D01*
X1275785Y944882D02*
X1277262D01*
X1278285Y948163D02*
Y944882D01*
Y948163D02*
X1279080D01*
X1279421Y948007*
X1279648Y947694*
X1279762Y947382*
X1279876Y946913*
Y946132*
X1279762Y945663*
X1279648Y945351*
X1279421Y945038*
X1279080Y944882*
X1278285*
X1281012Y947069D02*
X1280898Y946913D01*
X1281012Y946757*
X1281126Y946913*
X1281012Y947069*
Y945194D02*
X1280898Y945038D01*
X1281012Y944882*
X1281126Y945038*
X1281012Y945194*
X1267717Y928478D02*
Y925197D01*
Y928478D02*
X1268512D01*
X1268853Y928322*
X1269080Y928009*
X1269194Y927697*
X1269307Y927228*
Y926447*
X1269194Y925978*
X1269080Y925666*
X1268853Y925353*
X1268512Y925197*
X1267717*
X1271239Y928478D02*
X1270330Y925197D01*
X1271239Y928478D02*
X1272148Y925197D01*
X1270671Y926291D02*
X1271807D01*
X1273967Y928478D02*
Y925197D01*
X1273171Y928478D02*
X1274762D01*
X1275785D02*
Y925197D01*
Y928478D02*
X1277262D01*
X1275785Y926916D02*
X1276694D01*
X1275785Y925197D02*
X1277262D01*
X1278285Y928478D02*
Y925197D01*
Y928478D02*
X1279080D01*
X1279421Y928322*
X1279648Y928009*
X1279762Y927697*
X1279876Y927228*
Y926447*
X1279762Y925978*
X1279648Y925666*
X1279421Y925353*
X1279080Y925197*
X1278285*
X1281012Y927384D02*
X1280898Y927228D01*
X1281012Y927072*
X1281126Y927228*
X1281012Y927384*
Y925509D02*
X1280898Y925353D01*
X1281012Y925197*
X1281126Y925353*
X1281012Y925509*
X1267717Y908793D02*
Y905512D01*
Y908793D02*
X1268512D01*
X1268853Y908637*
X1269080Y908324*
X1269194Y908012*
X1269307Y907543*
Y906762*
X1269194Y906293*
X1269080Y905981*
X1268853Y905668*
X1268512Y905512*
X1267717*
X1271239Y908793D02*
X1270330Y905512D01*
X1271239Y908793D02*
X1272148Y905512D01*
X1270671Y906606D02*
X1271807D01*
X1273967Y908793D02*
Y905512D01*
X1273171Y908793D02*
X1274762D01*
X1275785D02*
Y905512D01*
Y908793D02*
X1277262D01*
X1275785Y907231D02*
X1276694D01*
X1275785Y905512D02*
X1277262D01*
X1278285Y908793D02*
Y905512D01*
Y908793D02*
X1279080D01*
X1279421Y908637*
X1279648Y908324*
X1279762Y908012*
X1279876Y907543*
Y906762*
X1279762Y906293*
X1279648Y905981*
X1279421Y905668*
X1279080Y905512*
X1278285*
X1281012Y907699D02*
X1280898Y907543D01*
X1281012Y907387*
X1281126Y907543*
X1281012Y907699*
Y905824D02*
X1280898Y905668D01*
X1281012Y905512*
X1281126Y905668*
X1281012Y905824*
G74*
X0Y0D02*
M02*
