M48
;FILE_FORMAT=2:4
INCH,LZ
FMAT,2
ICI,OFF
;TYPE=PLATED
T1C.012
T2C.02
T3C.039
T4C.03937
%
M72
G90
G93X0Y0
T1C.012F095S3
X100927Y101421
X10083Y103324
X10272Y1039
X10091Y10471
X10085Y10525
X10267Y105492
X101905Y105765
X100685Y106024
X10185Y10625
X10295Y10639
X10218Y1066
X10185Y10675
X10066Y10675
X10218Y10699
X100621Y107152
X105002Y107076
X10445Y107002
X105222Y106815
X103192Y106207
X1053Y10062
X106898Y100925
X106572Y102738
X10576Y10484
X1075Y10658
X10764Y107196
X10641Y1076
X106973Y107702
X11133Y107403
X11089Y106231
X1129Y104649
X10942Y1039
X11102Y10226
X110735Y10117
T2C.02F197S55
X109671Y101693
X109921Y102126
X110171Y102559
X109016Y106837
X108583Y107087
X10815Y107337
T3C.039F197S55
X10135Y1045
X10095Y1075
X10175Y1075
T4C.03937F197S55
X103971Y102631G85X10315Y102248
X110393Y105626G85X109573Y105243
M30
