M48
;FILE_FORMAT=2:4
INCH,LZ
FMAT,2
ICI,OFF
;TYPE=PLATED
T1C.012
T2C.01969
T3C.02362
T4C.035
%
M72
G90
G93X0Y0
T1C.012F095S3
X003169Y012453
X005157Y012874
X00376Y012874
X00315Y012874
X00315Y013642
X003701Y013772
X004822Y014189
X004818Y014486
X004048Y014662
X004854Y014815
X00315Y015079
X005064Y015363
X003744Y015551
X00315Y015984
X003383Y016831
X00374Y017232
X00315Y017402
X004734Y017872
X005157Y01815
X00315Y01815
X003819Y01815
X005039Y018701
X005039Y019055
X005433Y019134
X003308Y019347
X005039Y01937
X00437Y019567
X00437Y019882
X003228Y021614
X005179Y025472
X004779Y025472
X005098Y026745
X004568Y027276
X005098Y027806
X004568Y028336
X005098Y028867
X004568Y029397
X005098Y029927
X004568Y030458
X005098Y030988
X004568Y031518
X005098Y032048
X004568Y032579
X005098Y033109
X004568Y033639
X005098Y03417
X004568Y0347
X004568Y037882
X005098Y038412
X004568Y038943
X005098Y039473
X005098Y041594
X005197Y047441
X004803Y047638
X003583Y047795
X003189Y047795
X003977Y047795
X005197Y047953
X003977Y048189
X003189Y048189
X003583Y048189
X004764Y048189
X003031Y048661
X003031Y048937
X003031Y049213
X003031Y049488
X003031Y049764
X003386Y049764
X003386Y050039
X003031Y050039
X00295Y051731
X00315Y053976
X003146Y054303
X003649Y054843
X00504Y054864
X004724Y055236
X00399Y055419
X005415Y05679
X004872Y056952
X003189Y057168
X004425Y057368
X004885Y058238
X004435Y058345
X005142Y058461
X004946Y05965
X004567Y060052
X007847Y060118
X005698Y059626
X007855Y059403
X005705Y059053
X007825Y058903
X005646Y05841
X007855Y057843
X00622Y057402
X006788Y057065
X007396Y057065
X005693Y056907
X006181Y05685
X00752Y056496
X006788Y056459
X007864Y056121
X006788Y055868
X00751Y055767
X007864Y055414
X006959Y055078
X00751Y05506
X006788Y054292
X007544Y054291
X006142Y054252
X007323Y053622
X006788Y053465
X007677Y052244
X007205Y052244
X006788Y05185
X007677Y051811
X007205Y051811
X006102Y051732
X006788Y051259
X006788Y050648
X007421Y050648
X006275Y050093
X007213Y050085
X00563Y048189
X006496Y048189
X006063Y047953
X006929Y047953
X00563Y047638
X006496Y047638
X006929Y047441
X006063Y047441
X006159Y041594
X007869Y040212
X006159Y039473
X005628Y038943
X006689Y038943
X007874Y038846
X006159Y038412
X005628Y037882
X006689Y037882
X007792Y036968
X007672Y03636
X007874Y035367
X006689Y0347
X006159Y03417
X005628Y033639
X006159Y033109
X006689Y032579
X005628Y032579
X006159Y032048
X006689Y031518
X005628Y031518
X006159Y030988
X005628Y030458
X006159Y029927
X006689Y029397
X005628Y029397
X007874Y029161
X006159Y028867
X005628Y028336
X006159Y027806
X005628Y027276
X006689Y027276
X006159Y026745
X006159Y025685
X007795Y019724
X00689Y019449
X006496Y019449
X00563Y019449
X006063Y019449
X006693Y019134
X007087Y019134
X005827Y019134
X00626Y019134
X006496Y018819
X006063Y018819
X00689Y018819
X00563Y018819
X006063Y01815
X007421Y01815
X005818Y017736
X006115Y017734
X005818Y017451
X006118Y017449
X007444Y017291
X007532Y016791
X007105Y015909
X005864Y015311
X006544Y014901
X00563Y014547
X006102Y014547
X005866Y014291
X00563Y014035
X006102Y014035
X007424Y013841
X007461Y012874
X006024Y012874
X005945Y012453
X006244Y011631
X007034Y011631
X007736Y008895
X00624Y008875
X006988Y007458
X010276Y009843
X010276Y010197
X009114Y010531
X010276Y010551
X010276Y011339
X008664Y011531
X008094Y011741
X008701Y012087
X008701Y01248
X008071Y012874
X008701Y012874
X00878Y013346
X009094Y013346
X008071Y013622
X00878Y013661
X009094Y013661
X00878Y013976
X009094Y013976
X010286Y01421
X009698Y014228
X00878Y014291
X009094Y014291
X00878Y014606
X009094Y014606
X008071Y015098
X008071Y015945
X008976Y016341
X008071Y017362
X008071Y01815
X009921Y018189
X010103Y018696
X008937Y018701
X009134Y019055
X008701Y019055
X009685Y019252
X009685Y019685
X008228Y019724
X009488Y022207
X008419Y023568
X01Y025629
X008419Y025696
X008425Y02669
X009449Y027743
X010264Y030564
X009749Y030591
X009349Y030748
X008355Y031142
X009572Y031221
X010315Y031575
X008425Y03164
X009055Y031693
X010008Y031768
X010062Y032123
X009055Y032205
X010343Y032392
X01001Y032403
X009349Y032407
X00892Y032518
X008902Y032798
X008774Y033198
X010411Y033386
X00963Y033437
X009135Y033957
X00931Y034178
X008282Y034316
X010119Y034417
X009159Y03462
X008302Y034738
X009094Y034964
X00826Y03502
X010159Y035312
X00859Y035377
X009444Y035601
X00836Y035633
X009972Y036709
X009529Y037162
X010389Y037192
X010394Y038556
X009878Y038757
X009528Y040209
X008659Y040212
X009408Y041594
X010199Y047089
X01Y047323
X008228Y047362
X01Y047717
X008228Y047756
X01Y04811
X008228Y04815
X008228Y048543
X010236Y048622
X009016Y048976
X009016Y049291
X009016Y049606
X009803Y049803
X009016Y049921
X008976Y050315
X008661Y050315
X008051Y050648
X009563Y050648
X010429Y050648
X008661Y050669
X008976Y050669
X009764Y051181
X010204Y051491
X009764Y051535
X00815Y051811
X009528Y051811
X008583Y051811
X009055Y051811
X009055Y052244
X00815Y052244
X008583Y052244
X009528Y052244
X010213Y052709
X008924Y054353
X008141Y054632
X008571Y054707
X008217Y05506
X009567Y055118
X009567Y055551
X008217Y055767
X009567Y056102
X008217Y056474
X009567Y056575
X008026Y057065
X009641Y057065
X009435Y057878
X009603Y058221
X007987Y0583
X010315Y058504
X008898Y058504
X009843Y058504
X00937Y058504
X00811Y05874
X00811Y059213
X008077Y059683
X011496Y059803
X01189Y059803
X012598Y059685
X01189Y059488
X011496Y059488
X01189Y059193
X011496Y059173
X011925Y058913
X011496Y058858
X01122Y058504
X010748Y058504
X012913Y058123
X011848Y057065
X012518Y057065
X010645Y056602
X012766Y056602
X012059Y056602
X011352Y056602
X011352Y055187
X010645Y055187
X012766Y055187
X012059Y055187
X011705Y054834
X010998Y054834
X012412Y054834
X012036Y054318
X011329Y054318
X012743Y054318
X010472Y054291
X010472Y053701
X012036Y052904
X012743Y052904
X011683Y05255
X01239Y05255
X012743Y052197
X012036Y052197
X011677Y052195
X01239Y051843
X011683Y051843
X012756Y051496
X012047Y051496
X011282Y050855
X011966Y050648
X012596Y050648
X010939Y050159
X011024Y048622
X011417Y048622
X01063Y048622
X011811Y048622
X012205Y048622
X010984Y04811
X010984Y047795
X010984Y04748
X011769Y047465
X010984Y047087
X0106Y046762
X012559Y042283
X012559Y04185
X012559Y041417
X012559Y040984
X010469Y040533
X011181Y040209
X011968Y040209
X011179Y038842
X010938Y038617
X012864Y037028
X011262Y036969
X012401Y035995
X01154Y035944
X010708Y033701
X010811Y033321
X011916Y033307
X011614Y033215
X010856Y033041
X010562Y032768
X012089Y031872
X011056Y031484
X012079Y030945
X010638Y029803
X011004Y029107
X011973Y028124
X011361Y02811
X011361Y026575
X011879Y025929
X010503Y025666
X010734Y025354
X010729Y022677
X01153Y022502
X012913Y020709
X012913Y020394
X012913Y020079
X012913Y019764
X012205Y019685
X011504Y018191
X01185Y017995
X011024Y016341
X010484Y016121
X011929Y016024
X012559Y016024
X012512Y015329
X011929Y015157
X012305Y013961
X011929Y013937
X012934Y013491
X012934Y013211
X011929Y012815
X012928Y012635
X011299Y012598
X012424Y012581
X011299Y012165
X012123Y012067
X011299Y011772
X01248Y011646
X011929Y011437
X012559Y010709
X011929Y010709
X010808Y010389
X01126Y010354
X01126Y009899
X010808Y008432
X012983Y010571
X013976Y010709
X014843Y010709
X013376Y011645
X013564Y01226
X01516Y012283
X013185Y012459
X013487Y012574
X014539Y012732
X013256Y012739
X014679Y013007
X013622Y013425
X014331Y013425
X013976Y013425
X014331Y01374
X013622Y01374
X013976Y01376
X014331Y014094
X013622Y014094
X013976Y014094
X014724Y01456
X01498Y014565
X014975Y014846
X014709Y014846
X014133Y014871
X014419Y014886
X014843Y016024
X013917Y016024
X013277Y016221
X015301Y01634
X013194Y016501
X014144Y016641
X013006Y017415
X014114Y017995
X013961Y018508
X013365Y018727
X013072Y018816
X014252Y018996
X012975Y019085
X013673Y019343
X015113Y019352
X014761Y019382
X014039Y025472
X014429Y025489
X015217Y025513
X013642Y025519
X014959Y027981
X013651Y028866
X013991Y030205
X015047Y030277
X014015Y031199
X014712Y038412
X013071Y04185
X013543Y04185
X013071Y042283
X013543Y042283
X014823Y046922
X015216Y046934
X013688Y047134
X012981Y047134
X014521Y047266
X013335Y047488
X013688Y047842
X012981Y047842
X013335Y048195
X013688Y048549
X014484Y048692
X013335Y048902
X013946Y049124
X013819Y049961
X014685Y049961
X014173Y050394
X013206Y050648
X013782Y050827
X014528Y050827
X013206Y051259
X014173Y05126
X013622Y051654
X013206Y05185
X013206Y053504
X013206Y054253
X014534Y054834
X013827Y055079
X01418Y055187
X013421Y055239
X013827Y055541
X013206Y055868
X013206Y056499
X014183Y056909
X013206Y057065
X013733Y057179
X014717Y057201
X014984Y057387
X013746Y057692
X014803Y057756
X014068Y057802
X015373Y058785
X01378Y059173
X014094Y059173
X014409Y059173
X013575Y059613
X015Y059776
X013307Y059843
X014528Y060157
X013622Y060157
X013307Y060157
X014528Y060472
X013307Y060472
X013622Y060472
X016036Y06014
X016447Y059776
X015748Y059776
X015709Y058071
X016063Y058071
X015709Y057717
X016063Y057717
X016231Y057364
X016231Y05702
X016841Y056987
X015709Y056654
X016063Y056654
X015709Y056299
X016063Y056299
X015709Y055945
X016063Y055945
X016765Y055603
X016355Y055581
X01685Y053937
X016275Y051153
X015657Y050118
X01703Y049213
X015511Y042204
X015826Y042204
X015826Y041889
X015511Y041889
X015826Y041574
X015511Y041574
X016505Y021336
X015945Y020197
X016535Y019528
X01685Y016024
X016181Y016024
X01685Y015177
X016375Y015069
X015835Y014862
X016646Y01439
X01685Y013898
X01685Y012815
X01685Y011516
X01685Y010709
X016181Y010709
T2C.01969F095S3
X008622Y020581G85X008622Y020837
X011378Y020581G85X011378Y020837
T3C.02362F197S55
X008937Y021772G85X009094Y021772
X010905Y021772G85X011063Y021772
T4C.035F197S55
X00563Y00815
X008819Y01748
X004567Y018976
X008031Y019173
X010394Y026496
X009449Y026496
X007047Y028031
X007047Y030157
X007323Y033661
X008898Y03622
X007856Y046284
X003762Y046592
X005689Y060205
X014094Y060354
X013998Y054319
X011925Y04185
X011929Y040866
X014252Y039331
X012717Y038701
X01374Y037795
X012362Y034724
X012362Y033543
X012795Y031654
X011811Y02874
X013445Y026614
X016024Y009843
X015709Y057165
M30
