M48
;FILE_FORMAT=2:4
INCH,LZ
FMAT,2
ICI,OFF
;TYPE=PLATED
T1C.012
T2C.01969
T3C.02362
T4C.035
%
M72
G90
G93X0Y0
T1C.012F095S3
X003169Y011272
X00315Y011693
X00376Y011693
X005157Y011693
X00315Y012461
X003701Y012591
X004822Y013008
X004818Y013305
X004048Y013481
X004854Y013634
X00315Y013898
X005064Y014182
X003744Y01437
X00315Y014803
X003383Y01565
X00374Y016051
X00315Y01622
X004734Y016691
X003819Y016969
X005157Y016969
X00315Y016969
X005039Y01752
X005039Y017874
X005433Y017953
X003308Y018166
X005039Y018189
X00437Y018386
X00437Y018701
X003228Y020433
X005179Y025472
X004779Y025472
X005098Y026745
X004568Y027276
X005098Y027806
X004568Y028336
X005098Y028867
X004568Y029397
X005098Y029927
X004568Y030458
X005098Y030988
X004568Y031518
X005098Y032048
X004568Y032579
X005098Y033109
X004568Y033639
X005098Y03417
X004568Y0347
X004568Y037882
X005098Y038412
X004568Y038943
X005098Y039473
X005098Y041594
X005197Y047441
X004803Y047638
X003583Y047795
X003189Y047795
X003977Y047795
X005197Y047953
X003977Y048189
X003189Y048189
X003583Y048189
X004764Y048189
X003031Y048661
X003031Y048937
X003031Y049213
X003031Y049488
X003031Y049764
X003386Y049764
X003386Y050039
X003031Y050039
X00295Y051731
X00315Y053976
X003146Y054303
X003649Y054843
X00504Y054864
X004724Y055236
X00399Y055419
X005415Y05679
X004872Y056952
X003189Y057168
X004425Y057368
X004885Y058238
X004435Y058345
X005142Y058461
X004946Y05965
X004567Y060052
X007847Y060118
X005698Y059626
X007855Y059403
X005705Y059053
X007825Y058903
X005646Y05841
X007855Y057843
X00622Y057402
X006788Y057065
X007396Y057065
X005693Y056907
X006181Y05685
X00752Y056496
X006788Y056459
X007864Y056121
X006788Y055868
X00751Y055767
X007864Y055414
X006959Y055078
X00751Y05506
X006788Y054292
X007544Y054291
X006142Y054252
X007323Y053622
X006788Y053465
X007677Y052244
X007205Y052244
X006788Y05185
X007677Y051811
X007205Y051811
X006102Y051732
X006788Y051259
X006788Y050648
X007421Y050648
X006275Y050093
X007213Y050085
X00563Y048189
X006496Y048189
X006063Y047953
X006929Y047953
X00563Y047638
X006496Y047638
X006929Y047441
X006063Y047441
X006159Y041594
X007869Y040212
X006159Y039473
X005628Y038943
X006689Y038943
X007874Y038846
X006159Y038412
X005628Y037882
X006689Y037882
X007792Y036968
X007672Y03636
X007874Y035367
X006689Y0347
X006159Y03417
X005628Y033639
X006159Y033109
X006689Y032579
X005628Y032579
X006159Y032048
X006689Y031518
X005628Y031518
X006159Y030988
X005628Y030458
X006159Y029927
X005628Y029397
X006689Y029397
X007874Y029161
X006159Y028867
X005628Y028336
X006159Y027806
X006689Y027276
X005628Y027276
X006159Y026745
X006159Y025685
X007879Y019305
X007879Y018994
X007879Y018682
X006496Y018268
X00563Y018268
X00689Y018268
X006063Y018268
X006693Y017953
X005827Y017953
X00626Y017953
X007087Y017953
X00563Y017638
X006496Y017638
X006063Y017638
X00689Y017638
X007421Y016969
X006063Y016969
X005818Y016555
X006115Y016552
X005818Y01627
X006118Y016267
X007444Y01611
X007532Y01561
X007105Y014728
X005864Y01413
X006544Y01372
X006102Y013366
X00563Y013366
X005866Y01311
X006102Y012854
X00563Y012854
X007424Y01266
X006024Y011693
X007461Y011693
X005945Y011272
X007034Y01045
X006244Y01045
X007736Y007714
X00624Y007694
X006988Y006277
X010276Y008661
X010276Y009016
X009114Y00935
X010276Y00937
X010276Y010157
X008664Y01035
X008094Y01056
X008701Y010906
X008701Y011299
X008071Y011693
X008701Y011693
X009094Y012165
X00878Y012165
X008071Y012441
X009094Y01248
X00878Y01248
X009094Y012795
X00878Y012795
X010286Y013028
X009698Y013047
X009094Y01311
X00878Y01311
X009094Y013425
X00878Y013425
X008071Y013917
X008071Y014764
X008976Y01516
X008071Y016181
X008071Y016969
X00819Y018682
X00819Y018994
X009016Y019098
X00819Y019305
X009488Y022207
X008419Y023568
X01Y025629
X008419Y025696
X008425Y02669
X009449Y027743
X010264Y030564
X009749Y030591
X009349Y030748
X008355Y031142
X009572Y031221
X010315Y031575
X008425Y03164
X009055Y031693
X010008Y031768
X010062Y032123
X009055Y032205
X010343Y032392
X01001Y032403
X009349Y032407
X00892Y032518
X008902Y032798
X008774Y033198
X010411Y033386
X00963Y033437
X009135Y033957
X00931Y034178
X008282Y034316
X010119Y034417
X009159Y03462
X008302Y034738
X009094Y034964
X00826Y03502
X010159Y035312
X00859Y035377
X009444Y035601
X00836Y035633
X009972Y036709
X009529Y037162
X010389Y037192
X010394Y038556
X009878Y038757
X009528Y040209
X008659Y040212
X009408Y041594
X010199Y047089
X01Y047323
X008228Y047362
X01Y047717
X008228Y047756
X01Y04811
X008228Y04815
X008228Y048543
X010236Y048622
X009016Y048976
X009016Y049291
X009016Y049606
X009803Y049803
X009016Y049921
X008976Y050315
X008661Y050315
X008051Y050648
X009563Y050648
X010429Y050648
X008661Y050669
X008976Y050669
X009764Y051181
X010204Y051491
X009764Y051535
X00815Y051811
X009528Y051811
X009055Y051811
X008583Y051811
X009055Y052244
X00815Y052244
X008583Y052244
X009528Y052244
X010213Y052709
X008924Y054353
X008141Y054632
X008571Y054707
X008217Y05506
X009567Y055118
X009567Y055551
X008217Y055767
X009567Y056102
X008217Y056474
X009567Y056575
X008026Y057065
X009641Y057065
X009435Y057878
X009603Y058221
X007987Y0583
X00937Y058504
X009843Y058504
X010315Y058504
X008898Y058504
X00811Y05874
X00811Y059213
X008077Y059683
X011496Y059803
X01189Y059803
X012598Y059685
X01189Y059488
X011496Y059488
X01189Y059193
X011496Y059173
X011925Y058913
X011496Y058858
X01122Y058504
X010748Y058504
X012913Y058123
X011848Y057065
X012518Y057065
X010645Y056602
X012766Y056602
X012059Y056602
X011352Y056602
X011352Y055187
X010645Y055187
X012766Y055187
X012059Y055187
X011705Y054834
X010998Y054834
X012412Y054834
X012036Y054318
X011329Y054318
X012743Y054318
X010472Y054291
X010472Y053701
X012036Y052904
X012743Y052904
X011683Y05255
X01239Y05255
X012743Y052197
X012036Y052197
X011677Y052195
X01239Y051843
X011683Y051843
X012756Y051496
X012047Y051496
X011282Y050855
X012596Y050648
X011966Y050648
X010939Y050159
X011811Y048622
X012205Y048622
X011024Y048622
X011417Y048622
X01063Y048622
X010984Y04811
X010984Y047795
X010984Y04748
X011769Y047465
X010984Y047087
X0106Y046762
X012559Y042283
X012559Y04185
X012559Y041417
X012559Y040984
X010469Y040533
X011181Y040209
X011968Y040209
X011179Y038842
X010938Y038617
X012864Y037028
X011262Y036969
X012401Y035995
X01154Y035944
X010708Y033701
X010811Y033321
X011916Y033307
X011614Y033215
X010856Y033041
X010562Y032768
X012089Y031872
X011056Y031484
X012079Y030945
X010638Y029803
X011004Y029107
X011973Y028124
X011361Y02811
X011361Y026575
X011879Y025929
X010503Y025666
X010734Y025354
X010729Y022677
X01153Y022502
X011817Y019711
X012756Y01939
X012673Y018971
X010848Y018919
X012673Y01866
X010679Y018216
X011504Y01701
X01185Y016814
X011024Y01516
X010484Y01494
X011929Y014843
X012559Y014843
X012512Y014148
X011929Y013976
X012305Y01278
X011929Y012756
X012934Y01231
X012934Y01203
X011929Y011634
X012928Y011454
X011299Y011417
X012424Y0114
X011299Y010984
X012123Y010886
X011299Y010591
X01248Y010465
X011929Y010256
X012559Y009528
X011929Y009528
X010808Y009208
X01126Y009173
X01126Y008718
X010808Y007251
X012983Y00939
X013976Y009528
X014843Y009528
X013376Y010464
X013564Y011079
X01516Y011102
X013185Y011278
X013487Y011393
X014539Y011551
X013256Y011558
X014679Y011826
X013976Y012244
X013622Y012244
X014331Y012244
X013622Y012559
X014331Y012559
X013976Y012579
X013622Y012913
X013976Y012913
X014331Y012913
X014724Y013379
X01498Y013384
X014709Y013664
X014975Y013664
X014133Y01369
X014419Y013704
X013917Y014843
X014843Y014843
X013277Y01504
X015301Y015159
X013194Y01532
X014144Y01546
X013006Y016234
X014114Y016814
X013961Y017327
X013365Y017546
X013072Y017635
X014252Y017815
X012975Y017904
X013673Y018162
X015113Y018171
X014761Y018201
X012984Y01866
X012984Y018971
X014039Y025472
X014429Y025489
X015217Y025513
X013642Y025519
X014959Y027981
X013651Y028866
X013991Y030205
X015047Y030277
X014015Y031199
X014712Y038412
X013543Y04185
X013071Y04185
X013071Y042283
X013543Y042283
X014823Y046922
X015216Y046934
X012981Y047134
X013688Y047134
X014521Y047266
X013335Y047488
X013688Y047842
X012981Y047842
X013335Y048195
X013688Y048549
X014484Y048692
X013335Y048902
X013946Y049124
X013819Y049961
X014685Y049961
X014173Y050394
X013206Y050648
X013782Y050827
X014528Y050827
X013206Y051259
X014173Y05126
X013622Y051654
X013206Y05185
X013206Y053504
X013206Y054253
X014534Y054834
X013827Y055079
X01418Y055187
X013421Y055239
X013827Y055541
X013206Y055868
X013206Y056499
X014183Y056909
X013206Y057065
X013733Y057179
X014717Y057201
X014984Y057387
X013746Y057692
X014803Y057756
X014068Y057802
X015373Y058785
X01378Y059173
X014094Y059173
X014409Y059173
X013575Y059613
X015Y059776
X013307Y059843
X014528Y060157
X013622Y060157
X013307Y060157
X014528Y060472
X013307Y060472
X013622Y060472
X016036Y06014
X016447Y059776
X015748Y059776
X015709Y058071
X016063Y058071
X015709Y057717
X016063Y057717
X016231Y057364
X016231Y05702
X016841Y056987
X016063Y056654
X015709Y056654
X015709Y056299
X016063Y056299
X016063Y055945
X015709Y055945
X016765Y055603
X016355Y055581
X01685Y053937
X016275Y051153
X015657Y050118
X01703Y049213
X015826Y042204
X015511Y042204
X015826Y041889
X015511Y041889
X015511Y041574
X015826Y041574
X016181Y014843
X01685Y014843
X01685Y013996
X016375Y013888
X015835Y013681
X016646Y013209
X01685Y012717
X01685Y011634
X01685Y010335
X01685Y009528
X016181Y009528
T2C.01969F095S3
X008622Y020581G85X008622Y020837
X011378Y020581G85X011378Y020837
T3C.02362F197S55
X008937Y021772G85X009094Y021772
X010905Y021772G85X011063Y021772
T4C.035F197S55
X00563Y006969
X008819Y016299
X004567Y017795
X008031Y017992
X010394Y026496
X009449Y026496
X007047Y028031
X007047Y030157
X007323Y033661
X008898Y03622
X007856Y046284
X003762Y046592
X005689Y060205
X014094Y060354
X013998Y054319
X011925Y04185
X011929Y040866
X014252Y039331
X012717Y038701
X01374Y037795
X012362Y034724
X012362Y033543
X012795Y031654
X011811Y02874
X013445Y026614
X016024Y008661
X015709Y057165
M30
