M48
;FILE_FORMAT=2:4
INCH,LZ
FMAT,2
ICI,OFF
;TYPE=PLATED
T1C.008
T2C.012
%
M72
G90
G93X0Y0
T1C.008F0S0
X01042Y01456
X010284Y01477
T2C.012F095S3
X010433Y002356
X010788Y002356
X010791Y002711
X009279Y002795
X010315Y003176
X009567Y003176
X008819Y003176
X01092Y00376
X009942Y004168
X01063Y00472
X010276Y00472
X009173Y004878
X010885Y004913
X009776Y004981
X01063Y005075
X010276Y005075
X009173Y005233
X010331Y005566
X009173Y005587
X010598Y005752
X009763Y005766
X008474Y005965
X009331Y005972
X00985Y00626
X00985Y006614
X00855Y00735
X00894Y007372
X00965Y0074
X010946Y007884
X008465Y009016
X010831Y014261
X01315Y015879
X012108Y014494
X011799Y014494
X011802Y014125
X012115Y014124
X011369Y013828
X013349Y012305
X012719Y012305
X012109Y012305
X01311Y011933
X012109Y011694
X012109Y011103
X012109Y009448
X012109Y0087
X011269Y007431
X012109Y007084
X012109Y006454
X011134Y006178
X012797Y005887
X012109Y005887
X011582Y005773
X011569Y005261
X011247Y005151
X012441Y00483
X012067Y00483
X012826Y00483
X01154Y003755
X013428Y003735
X01122Y00373
X011799Y003504
X013428Y003381
X01317Y00276
X011799Y002756
X01122Y002677
X011891Y002356
X011143Y002356
X011497Y002356
X013819Y003384
X013822Y003735
X013822Y00409
X013465Y004121
X014767Y004484
X015083Y004484
X014452Y004484
X014137Y004484
X01588Y004961
X015338Y005123
X014886Y005887
X015674Y005887
X013467Y005887
X015657Y006496
X013924Y01
X014619Y011066
X014252Y011745
X014886Y012305
X015752Y012305
X015123Y013492
X015537Y013953
X013937Y015879
X014724Y015879
X015906Y016152
X01748Y016299
X018268Y015865
X018268Y015608
X018268Y015354
X018268Y015104
X018166Y012983
X017067Y012713
X017264Y012305
X017894Y012305
X017598Y011071
X016102Y011071
X016659Y009685
X017319Y009676
X01696Y00859
X016041Y007205
X017992Y006917
X017362Y006853
X017289Y005887
X017919Y005887
X01746Y00511
X017328Y004653
X017205Y004213
X01749Y00405
X017205Y00374
X01746Y00355
X017468Y002835
X019961Y002682
X02018Y0029
X020748Y002901
X019252Y002901
X01961Y0039
X02002Y004385
X020261Y00454
X019669Y004543
X02088Y004607
X02089Y005584
X019215Y005616
X018527Y005887
X020443Y006001
X019622Y006046
X019134Y006102
X0199Y006163
X018527Y006493
X018527Y007084
X020275Y008089
X01986Y008618
X018527Y00866
X019173Y008701
X018527Y009488
X018527Y011103
X019456Y011576
X018527Y011694
X018527Y012305
X01908Y01285
X019164Y014749
X01876Y01475
X02022Y01475
X019547Y014751
X019898Y014752
X021553Y016361
X022017Y015634
X021662Y015634
X022017Y01528
X021662Y01528
X021198Y015175
X022017Y014925
X021662Y014925
X021929Y01458
X021499Y011714
X022365Y011221
X022165Y008976
X022126Y008649
X021666Y00811
X021325Y007534
X022126Y005785
M30
