M48
;FILE_FORMAT=2:4
INCH,LZ
FMAT,2
ICI,OFF
;TYPE=PLATED
T1C.012
T2C.0315
T3C.035
T4C.03937
%
M72
G90
G93X0Y0
T1C.012F095S3
X011248Y010819
X011049Y011187
X010012Y013051
X009234Y014117
X009786Y016023
X01371Y01945
X01558Y0191
X01467Y0191
X015039Y01815
X015039Y017874
X014449Y017638
X014764Y017638
X011307Y010452
X019055Y016917
X0179Y018304
X017345Y019449
T2C.0315F197S55
X022992Y011969
X022992Y012756
X022992Y013543
X022992Y014331
X022992Y015118
X02378Y014724
X02378Y013937
X02378Y01315
X02378Y012362
X02378Y011575
T3C.035F197S55
X015906Y016287
X014906Y016287
X013906Y016287
X016906Y016287
X017906Y016287
T4C.03937F197S55
X008748Y01126
X008748Y015354
M30
