M48
;FILE_FORMAT=2:4
INCH,LZ
FMAT,2
ICI,OFF
;TYPE=PLATED
T1C.012
T2C.035
T3C.04
T4C.05
%
M72
G90
G93X0Y0
T1C.012F095S3
X024668Y0439
X0257Y0419
X026855Y04315
X032632Y0434
X033355Y04415
X0339Y043
X0359Y043
X039132Y0434
X03877Y04495
X03877Y04599
X03837Y04581
X036445Y04515
X033355Y04515
X03312Y0462
X032632Y0444
X032632Y0454
X027668Y0459
X027Y0457
X024668Y0459
X0328Y04845
X033568Y050338
X03362Y0489
X034168Y0469
X0361Y0477
X03867Y04825
X040095Y0477
X040832Y0527
X03565Y054105
X03515Y054105
X033632Y0519
X03303Y05246
X0329Y0539
X028205Y0539
X032168Y0549
X032168Y0569
X0332Y05649
X03565Y056105
X0369Y0555
X0369Y0576
X024745Y064006
X024743Y060423
X023523Y06216
T2C.035F197S55
X0352Y0518
X0352Y0508
X0352Y0498
X0382Y0498
X0382Y0508
X0382Y0518
X0382Y0528
X0352Y0528
T3C.04F139S55
X0264Y0494
X0264Y0504
T4C.05F107S55
X0264Y0474
X0264Y0519
M30
