M48
;FILE_FORMAT=2:4
INCH,LZ
FMAT,2
ICI,OFF
;TYPE=PLATED
T1C.011
T2C.035
T4C.07087
;TYPE=NON_PLATED
T3C.039
%
M72
G90
G93X0Y0
T1C.011F095S3
X025516Y042624
X025803Y04461
X02598Y042169
X02602Y044199
X026148Y043772
X026411Y04448
X027728Y042176
X028901Y04456
X02893Y043856
X029445Y042169
X03026Y043905
X031463Y044017
X032713Y044067
X033197Y044132
X03356Y044017
X035794Y044341
X036619Y044261
X037213Y044017
X037237Y042172
X037711Y042704
X038228Y042928
X038566Y042827
X038832Y044599
X038998Y042803
X03905Y043376
X039419Y042831
X039744Y043024
X039926Y044393
X040165Y042174
X040317Y044274
X039314Y044696
X039078Y045502
X038704Y044976
X038681Y046617
X038051Y045903
X037506Y045334
X035853Y044837
X035519Y045052
X035363Y046167
X034961Y045773
X034866Y04613
X034758Y045021
X034034Y045688
X033997Y04501
X033589Y046968
X033453Y046638
X033334Y045781
X032273Y045981
X031743Y045948
X031385Y045001
X031313Y046017
X031063Y045767
X030217Y046444
X03021Y045794
X029813Y045417
X029213Y045067
X028463Y047167
X028028Y045943
X027513Y046017
X027413Y045617
X027358Y044935
X026118Y047093
X027831Y048687
X027916Y049517
X028343Y049455
X028648Y048217
X028746Y048911
X028876Y047428
X030132Y049116
X03018Y048326
X031129Y048589
X031563Y047367
X031989Y047535
X032472Y047368
X032573Y049311
X03291Y047781
X033272Y0479
X034076Y047815
X034158Y048192
X035879Y04962
X03592Y047361
X036201Y049496
X036236Y047722
X036794Y048839
X037529Y048781
X038087Y047517
X038094Y048856
X037522Y049959
X037513Y052117
X037078Y050019
X036768Y049778
X036236Y049963
X036141Y051765
X035839Y04996
X035747Y0514
X035712Y051816
X033645Y051826
X033186Y050889
X032987Y051826
X031861Y050503
X030258Y051157
X030244Y051903
X030213Y050567
X030191Y050119
X030173Y05158
X029743Y051084
X02974Y050282
X02749Y049939
X027163Y052467
X02844Y053481
X02974Y052672
X02974Y053395
X030238Y053865
X030463Y053467
X030714Y053025
X031363Y053167
X032381Y053856
X032743Y054518
X033844Y054258
X034013Y054587
X034058Y053808
X034157Y052597
X03426Y053345
X035017Y053868
X035663Y052485
X035676Y053865
X035713Y053267
X035783Y0529
X036783Y052193
X036963Y054667
X036995Y054276
X037163Y053767
X037188Y052227
X037705Y053699
X038039Y053921
X038811Y057107
X038736Y055993
X038382Y055479
X037752Y055638
X036748Y057132
X036498Y055257
X036387Y055924
X036339Y056264
X036298Y055538
X036217Y054967
X035963Y055767
X035742Y056818
X035418Y056514
X034208Y056674
X034095Y056204
X033717Y056502
X032484Y054952
X031614Y055425
X031131Y05545
X027989Y055439
X027201Y057898
X027654Y057821
X028638Y057821
X029418Y058171
X030263Y057967
X030606Y057701
X031808Y058435
X032082Y059277
X033795Y058209
X034189Y057782
X035291Y059081
X035665Y059514
X035823Y05914
X036059Y057683
X036335Y057211
X036913Y059017
X037413Y058067
X038104Y058538
X038113Y058017
X038403Y058207
X038815Y062024
X038113Y061267
X037516Y061325
X037358Y062113
X036913Y059767
X036213Y061617
X036089Y061277
X035863Y060176
X035271Y060203
X035028Y059767
X034819Y061798
X034721Y062152
X03433Y059933
X033931Y061898
X033762Y061587
X031713Y061567
X029163Y060717
X026433Y05967
X030173Y062893
X032201Y064464
X032358Y062211
X032713Y062349
X034406Y064337
X034415Y064308
X037417Y063451
X039327Y064337
X039543Y063687
X040319Y064827
X040311Y066345
X039825Y066907
X039228Y064731
X039224Y065731
X039205Y066591
X039185Y066073
X038272Y066715
X03802Y065174
X03713Y064921
X033992Y066227
X033396Y065777
X032389Y066833
X031805Y066396
X030549Y066911
X030343Y067186
X031531Y068805
X031749Y067288
X032229Y067219
X033382Y067683
X036013Y067367
X036059Y068663
X036827Y069281
X037387Y069063
X038832Y067398
X039051Y067664
X039319Y068721
X040334Y067738
X040334Y068206
X039527Y071976
X038323Y070006
X038096Y070653
X03728Y070597
X03728Y070872
X037004Y070872
X037004Y070597
X036713Y069967
X035363Y071917
X034701Y070636
X032765Y071146
X032201Y072146
X03165Y070678
X030429Y071483
X030374Y070534
X030154Y069868
X029858Y071483
X027299Y07162
X026768Y074088
X026778Y073032
X027299Y073943
X028013Y074067
X028363Y073767
X028699Y072281
X029768Y072532
X029917Y07353
X031261Y07289
X031587Y072793
X033247Y07433
X034366Y072169
X03474Y073943
X034984Y074337
X035113Y073367
X035993Y073761
X035993Y073421
X03657Y074232
X037004Y073116
X037004Y072861
X03728Y072861
X03728Y073116
X039361Y073912
X039625Y074604
X040184Y075365
X039793Y077035
X038063Y075067
X037897Y077108
X036118Y075715
X036118Y07542
X032201Y074803
X030173Y077036
X02913Y075589
X028343Y075589
X027555Y075589
X027344Y077036
X026768Y075589
X028758Y07845
X032614Y078333
X032868Y079596
X032988Y078865
X032988Y077931
X034363Y077467
X035013Y079417
X035963Y079417
X036281Y077192
X037151Y078897
X037218Y077503
X037613Y078267
X039053Y078609
X038658Y079864
X037918Y080359
X037043Y07977
X036267Y081368
X036118Y081857
X034366Y079827
X034006Y081377
X032201Y079828
X031587Y081278
X030173Y079864
X029813Y081367
X028736Y081038
X028029Y080977
X027831Y081798
X027416Y082077
X027344Y079864
X028067Y083325
X028697Y083325
X031613Y083654
X032201Y082651
X033435Y082253
X034347Y082209
X034599Y084435
X035449Y083512
X037244Y084107
X038658Y082692
X038658Y085521
X037244Y086935
X035829Y085521
X034228Y086463
X033338Y086956
X032937Y086974
X032738Y086459
X030173Y085521
X028758Y086935
X027344Y085521
X027395Y088077
X030173Y088349
X03214Y087465
X032581Y088614
X032981Y089026
X033315Y088766
X033794Y087773
X035829Y088349
X038658Y088349
X037244Y089763
X035829Y091178
X034415Y089763
X033001Y091178
X031587Y089763
X030173Y091178
X028646Y089778
X030173Y094006
X031587Y092592
X03226Y093742
X032988Y093731
X034415Y092592
X035829Y094006
X037244Y09542
X034248Y097394
X032988Y097506
X032988Y097211
X031728Y09727
X030695Y095938
X028758Y09542
T2C.035F197S55
X036738Y042459
X036738Y043709
X039602Y045203
X033913Y055223
X029209Y049435
X025665Y059368
X025665Y057368
X025665Y058368
X034583Y059298
X035232Y057388
X034189Y069829
X029878Y084002
X030311Y082998
X035232Y078589
X036244Y098904
X035244Y098904
X031738Y086459
X030732Y098904
X029732Y098904
T3C.039F197S55
X039819Y064077
X040219Y067077
X040219Y069471
X039819Y067471
X039419Y069471
X039419Y067077
T4C.07087F081S55
X029209Y046266
X036768Y046266
X036768Y097132
X029209Y097132
M30
