M48
;FILE_FORMAT=2:4
INCH,LZ
FMAT,2
ICI,OFF
;TYPE=PLATED
T1C.012
T2C.01969
T3C.02362
%
M72
G90
G93X0Y0
T1C.012F095S3
X01507Y012388
X015309Y01345
X01607Y013888
X016378Y012089
X01723Y013328
X01723Y014348
X017618Y012559
X01842Y012384
X02112Y015348
X021849Y017863
X020335Y016496
X018251Y016457
X017393Y015548
X016969Y016378
X016339Y017625
X016339Y016378
X015315Y016572
X015309Y015578
X014094Y017909
X013579Y016303
X012518Y017363
X012084Y015839
X011691Y015848
X011457Y016303
X011457Y018424
X012518Y019485
X014094Y020039
X014764Y019043
X01607Y019048
X01744Y019728
X017894Y018989
X018251Y017992
X018701Y018622
X020541Y018748
X020881Y020086
X021937Y020158
X020905Y02108
X018969Y020827
X018629Y021409
X017946Y021365
X017467Y022815
X017244Y021614
X017183Y022137
X017087Y022462
X017039Y021884
X01687Y022282
X01666Y021248
X016502Y021487
X015945Y021575
X015945Y022087
X015791Y02262
X015315Y021522
X01507Y022268
X013579Y022667
X012518Y021606
X011457Y020545
X011457Y022667
X011457Y024788
X012518Y023727
X013579Y024788
X014213Y023543
X014764Y025249
X01515Y024902
X015172Y024197
X015214Y024598
X01548Y025258
X015664Y023056
X016049Y024502
X01612Y023838
X01652Y023318
X016568Y024291
X017009Y024299
X01705Y025198
X017268Y024421
X017301Y023268
X017598Y023582
X017701Y023203
X01813Y023828
X0183Y024941
X018504Y023096
X019016Y024616
X019016Y023465
X019473Y024255
X020155Y024024
X022034Y026019
X020541Y027233
X019831Y025876
X01843Y025826
X017283Y027074
X016862Y026591
X016417Y027045
X016305Y025482
X015787Y026102
X01525Y025515
X014681Y02685
X014215Y02602
X012518Y025849
X011457Y026909
X011457Y029031
X012518Y02797
X012518Y030091
X013579Y029031
X01447Y028464
X014764Y028728
X014764Y030091
X015551Y030091
X016417Y030091
X016768Y028638
X017283Y028438
X017359Y030415
X018071Y028438
X018071Y028728
X018071Y030091
X018858Y030091
X01937Y028583
X020551Y030214
X020551Y029685
X021602Y028294
X022716Y031771
X022716Y032086
X022716Y031456
X022401Y031771
X022401Y031456
X022401Y032086
X019643Y031416
X019643Y031732
X019643Y032047
X019327Y031416
X019327Y031732
X019327Y032047
X018815Y031062
X018815Y031732
X016298Y031476
T2C.01969F095S3
X015512Y010463G85X015512Y010719
X018268Y010463G85X018268Y010719
T3C.02362F197S55
X015827Y011654G85X015984Y011654
X017795Y011654G85X017953Y011654
M30
