M48
;FILE_FORMAT=2:4
INCH,LZ
FMAT,2
ICI,OFF
;TYPE=PLATED
T1C.012
T2C.035
%
M72
G90
G93X0Y0
T1C.012F095S3
X010024Y008165
X009075Y012493
X009055Y012913
X009665Y012913
X011063Y012913
X009055Y013681
X009606Y013812
X010727Y014229
X010723Y014525
X009953Y014702
X01076Y014855
X009055Y015118
X01097Y015403
X00965Y01559
X009055Y016024
X009289Y01687
X009646Y017271
X009055Y017441
X01064Y017911
X009724Y018189
X011063Y018189
X009055Y018189
X011248Y01882
X010217Y019016
X009213Y019387
X011248Y019527
X010886Y019879
X010425Y020363
X008915Y02128
X013784Y020525
X013784Y020214
X013784Y019903
X012663Y019527
X011955Y019527
X013016Y019174
X012309Y019174
X011602Y019174
X012663Y01882
X011955Y01882
X013327Y018189
X011969Y018189
X011724Y017776
X012021Y017773
X011724Y017491
X012023Y017488
X01335Y01733
X013438Y016831
X013011Y015948
X01177Y01535
X01245Y01494
X012008Y014587
X011535Y014587
X011772Y014331
X011535Y014075
X012008Y014075
X01333Y01388
X011929Y012913
X013366Y012913
X01185Y012493
X01294Y01167
X01215Y01167
X013642Y008934
X012146Y008915
X012894Y007497
X01502Y01057
X01457Y01157
X014Y01178
X013976Y012913
X015Y013386
X014685Y013386
X013976Y013661
X015Y013701
X014685Y013701
X015Y014016
X014685Y014016
X016192Y014249
X015603Y014268
X015Y014331
X014685Y014331
X015Y014646
X014685Y014646
X013976Y015138
X013976Y015984
X01639Y01616
X014882Y016381
X014567Y017362
X013976Y017402
X013976Y018189
X015669Y01937
X014096Y019903
X014096Y020214
X014921Y020319
X014096Y020525
X017722Y020932
X018661Y02061
X01889Y020192
X018578Y020192
X016753Y020139
X018578Y019881
X01889Y019881
X016585Y019436
X018881Y019124
X01741Y01823
X017756Y018034
X018912Y017454
X016929Y016381
X017835Y016063
X018465Y016063
X018418Y015369
X017835Y015197
X01821Y014001
X017835Y013976
X01884Y01353
X01884Y01325
X017835Y012854
X018834Y012675
X01833Y01262
X018029Y012106
X018386Y011686
X017835Y011476
X018465Y010748
X017835Y010748
X018889Y01061
X016714Y010428
X016714Y008472
X019882Y010748
X020748Y010748
X019281Y011685
X01947Y012299
X021066Y012323
X019091Y012499
X019392Y012613
X020445Y012772
X019161Y012779
X020585Y013046
X020236Y013465
X019528Y013465
X019882Y013465
X020236Y01378
X019528Y01378
X019882Y013799
X019882Y014134
X020236Y014134
X019528Y014134
X02063Y014599
X020886Y014604
X020614Y014885
X020881Y014885
X020039Y01491
X020325Y014925
X020748Y016063
X019823Y016063
X019182Y01626
X021206Y01638
X0191Y01654
X02005Y01668
X02002Y018034
X01949Y01819
X019867Y018548
X0193Y01879
X018978Y018855
X01962Y018914
X020157Y019035
X020536Y01953
X019321Y019639
X02036Y019791
X02093Y01986
X022756Y016063
X022087Y016063
X022756Y015217
X02228Y015108
X02174Y014902
X022552Y014429
X022756Y013937
X022756Y012854
X022756Y011555
X022087Y010748
X022756Y010748
X021909Y010079
T2C.035F197S55
X016406Y012343
X015406Y012343
M30
