  0
SECTION
  2
HEADER
  9
$ACADVER
  1
AC1015
  9
$ACADMAINTVER
 70
     6
  9
$DWGCODEPAGE
  3
ANSI_1252
  9
$INSBASE
 10
0.0
 20
0.0
 30
0.0
  9
$EXTMIN
 10
0.0
 20
0.0
 30
0.0
  9
$EXTMAX
 10
297.0
 20
210.0
 30
0.0
  9
$LIMMIN
 10
0.0
 20
0.0
  9
$LIMMAX
 10
297.0
 20
210.0
  9
$ORTHOMODE
 70
     0
  9
$REGENMODE
 70
     1
  9
$FILLMODE
 70
     1
  9
$QTEXTMODE
 70
     0
  9
$MIRRTEXT
 70
     1
  9
$LTSCALE
 40
1.0
  9
$ATTMODE
 70
     1
  9
$TEXTSIZE
 40
3.5
  9
$TRACEWID
 40
1.0
  9
$TEXTSTYLE
  7
Standard
  9
$CLAYER
  8
0
  9
$CELTYPE
  6
ByLayer
  9
$CECOLOR
 62
   256
  9
$CELTSCALE
 40
1.0
  9
$DISPSILH
 70
     0
  9
$DIMSCALE
 40
1.0
  9
$DIMASZ
 40
3.556
  9
$DIMEXO
 40
1.0
  9
$DIMDLI
 40
3.75
  9
$DIMRND
 40
0.0
  9
$DIMDLE
 40
0.0
  9
$DIMEXE
 40
1.0
  9
$DIMTP
 40
0.0
  9
$DIMTM
 40
0.0
  9
$DIMTXT
 40
3.5
  9
$DIMCEN
 40
2.5
  9
$DIMTSZ
 40
0.0
  9
$DIMTOL
 70
     0
  9
$DIMLIM
 70
     0
  9
$DIMTIH
 70
     1
  9
$DIMTOH
 70
     1
  9
$DIMSE1
 70
     0
  9
$DIMSE2
 70
     0
  9
$DIMTAD
 70
     1
  9
$DIMZIN
 70
     1
  9
$DIMBLK
  1

  9
$DIMASO
 70
     1
  9
$DIMSHO
 70
     1
  9
$DIMPOST
  1

  9
$DIMAPOST
  1

  9
$DIMALT
 70
     0
  9
$DIMALTD
 70
     3
  9
$DIMALTF
 40
0.0393700787
  9
$DIMLFAC
 40
1.0
  9
$DIMTOFL
 70
     1
  9
$DIMTVP
 40
0.0
  9
$DIMTIX
 70
     0
  9
$DIMSOXD
 70
     0
  9
$DIMSAH
 70
     0
  9
$DIMBLK1
  1

  9
$DIMBLK2
  1

  9
$DIMSTYLE
  2
ISO-25
  9
$DIMCLRD
 70
     0
  9
$DIMCLRE
 70
     0
  9
$DIMCLRT
 70
     0
  9
$DIMTFAC
 40
1.0
  9
$DIMGAP
 40
1.524
  9
$DIMJUST
 70
     0
  9
$DIMSD1
 70
     0
  9
$DIMSD2
 70
     0
  9
$DIMTOLJ
 70
     0
  9
$DIMTZIN
 70
     1
  9
$DIMALTZ
 70
     0
  9
$DIMALTTZ
 70
     0
  9
$DIMUPT
 70
     0
  9
$DIMDEC
 70
     2
  9
$DIMTDEC
 70
     2
  9
$DIMALTU
 70
     2
  9
$DIMALTTD
 70
     3
  9
$DIMTXSTY
  7
Standard
  9
$DIMAUNIT
 70
     0
  9
$DIMADEC
 70
     2
  9
$DIMALTRND
 40
0.0
  9
$DIMAZIN
 70
     0
  9
$DIMDSEP
 70
    44
  9
$DIMATFIT
 70
     3
  9
$DIMFRAC
 70
     0
  9
$DIMLDRBLK
  1

  9
$DIMLUNIT
 70
     2
  9
$DIMLWD
 70
    -2
  9
$DIMLWE
 70
    -2
  9
$DIMTMOVE
 70
     0
  9
$LUNITS
 70
     2
  9
$LUPREC
 70
     2
  9
$SKETCHINC
 40
1.0
  9
$FILLETRAD
 40
0.0
  9
$AUNITS
 70
     0
  9
$AUPREC
 70
     2
  9
$MENU
  1
.
  9
$ELEVATION
 40
0.0
  9
$PELEVATION
 40
0.0
  9
$THICKNESS
 40
0.0
  9
$LIMCHECK
 70
     0
  9
$CHAMFERA
 40
0.0
  9
$CHAMFERB
 40
0.0
  9
$CHAMFERC
 40
0.0
  9
$CHAMFERD
 40
0.0
  9
$SKPOLY
 70
     0
  9
$TDCREATE
 40
2460795.567832327
  9
$TDUCREATE
 40
2460795.734498993
  9
$TDUPDATE
 40
2460795.567832813
  9
$TDUUPDATE
 40
2460795.734499479
  9
$TDINDWG
 40
0.0000000116
  9
$TDUSRTIMER
 40
0.0000000116
  9
$USRTIMER
 70
     1
  9
$ANGBASE
 50
0.0
  9
$ANGDIR
 70
     0
  9
$PDMODE
 70
     0
  9
$PDSIZE
 40
-1.0
  9
$PLINEWID
 40
0.0
  9
$SPLFRAME
 70
     0
  9
$SPLINETYPE
 70
     6
  9
$SPLINESEGS
 70
     8
  9
$HANDSEED
  5
2B0
  9
$SURFTAB1
 70
     6
  9
$SURFTAB2
 70
     6
  9
$SURFTYPE
 70
     6
  9
$SURFU
 70
     6
  9
$SURFV
 70
     6
  9
$UCSBASE
  2

  9
$UCSNAME
  2

  9
$UCSORG
 10
0.0
 20
0.0
 30
0.0
  9
$UCSXDIR
 10
1.0
 20
0.0
 30
0.0
  9
$UCSYDIR
 10
0.0
 20
1.0
 30
0.0
  9
$UCSORTHOREF
  2

  9
$UCSORTHOVIEW
 70
     0
  9
$UCSORGTOP
 10
0.0
 20
0.0
 30
0.0
  9
$UCSORGBOTTOM
 10
0.0
 20
0.0
 30
0.0
  9
$UCSORGLEFT
 10
0.0
 20
0.0
 30
0.0
  9
$UCSORGRIGHT
 10
0.0
 20
0.0
 30
0.0
  9
$UCSORGFRONT
 10
0.0
 20
0.0
 30
0.0
  9
$UCSORGBACK
 10
0.0
 20
0.0
 30
0.0
  9
$PUCSBASE
  2

  9
$PUCSNAME
  2

  9
$PUCSORG
 10
0.0
 20
0.0
 30
0.0
  9
$PUCSXDIR
 10
1.0
 20
0.0
 30
0.0
  9
$PUCSYDIR
 10
0.0
 20
1.0
 30
0.0
  9
$PUCSORTHOREF
  2

  9
$PUCSORTHOVIEW
 70
     0
  9
$PUCSORGTOP
 10
0.0
 20
0.0
 30
0.0
  9
$PUCSORGBOTTOM
 10
0.0
 20
0.0
 30
0.0
  9
$PUCSORGLEFT
 10
0.0
 20
0.0
 30
0.0
  9
$PUCSORGRIGHT
 10
0.0
 20
0.0
 30
0.0
  9
$PUCSORGFRONT
 10
0.0
 20
0.0
 30
0.0
  9
$PUCSORGBACK
 10
0.0
 20
0.0
 30
0.0
  9
$USERI1
 70
     0
  9
$USERI2
 70
     0
  9
$USERI3
 70
     0
  9
$USERI4
 70
     0
  9
$USERI5
 70
     0
  9
$USERR1
 40
0.0
  9
$USERR2
 40
0.0
  9
$USERR3
 40
0.0
  9
$USERR4
 40
0.0
  9
$USERR5
 40
0.0
  9
$WORLDVIEW
 70
     1
  9
$SHADEDGE
 70
     3
  9
$SHADEDIF
 70
    70
  9
$TILEMODE
 70
     1
  9
$MAXACTVP
 70
    64
  9
$PINSBASE
 10
0.0
 20
0.0
 30
0.0
  9
$PLIMCHECK
 70
     0
  9
$PEXTMIN
 10
1.0000000000E+20
 20
1.0000000000E+20
 30
1.0000000000E+20
  9
$PEXTMAX
 10
-1.0000000000E+20
 20
-1.0000000000E+20
 30
-1.0000000000E+20
  9
$PLIMMIN
 10
0.0
 20
0.0
  9
$PLIMMAX
 10
420.0
 20
297.0
  9
$UNITMODE
 70
     0
  9
$VISRETAIN
 70
     1
  9
$PLINEGEN
 70
     0
  9
$PSLTSCALE
 70
     1
  9
$TREEDEPTH
 70
  3020
  9
$CMLSTYLE
  2
Standard
  9
$CMLJUST
 70
     0
  9
$CMLSCALE
 40
20.0
  9
$PROXYGRAPHICS
 70
     1
  9
$MEASUREMENT
 70
     1
  9
$CELWEIGHT
370
    -1
  9
$ENDCAPS
280
     0
  9
$JOINSTYLE
280
     0
  9
$LWDISPLAY
290
     1
  9
$INSUNITS
 70
     4
  9
$HYPERLINKBASE
  1

  9
$STYLESHEET
  1

  9
$XEDIT
290
     1
  9
$CEPSNTYPE
380
     0
  9
$PSTYLEMODE
290
     1
  9
$FINGERPRINTGUID
  2
{6f16d635-cf76-45f5-9a76-d7c4ff8c08a5}
  9
$VERSIONGUID
  2
{FAEB1C32-E019-11D5-929B-00C0DF256EC4}
  9
$EXTNAMES
290
     1
  9
$PSVPSCALE
 40
0.0
  9
$OLESTARTUP
290
     0
  0
ENDSEC
  0
SECTION
  2
CLASSES
  0
CLASS
  1
ACDBDICTIONARYWDFLT
  2
AcDbDictionaryWithDefault
  3
ObjectDBX Classes
 90
        0
280
     0
281
     0
  0
CLASS
  1
VISUALSTYLE
  2
AcDbVisualStyle
  3
ObjectDBX Classes
 90
     4095
280
     0
281
     0
  0
CLASS
  1
MATERIAL
  2
AcDbMaterial
  3
ObjectDBX Classes
 90
     1153
280
     0
281
     0
  0
CLASS
  1
SCALE
  2
AcDbScale
  3
ObjectDBX Classes
 90
     1153
280
     0
281
     0
  0
CLASS
  1
TABLESTYLE
  2
AcDbTableStyle
  3
ObjectDBX Classes
 90
     4095
280
     0
281
     0
  0
CLASS
  1
MLEADERSTYLE
  2
AcDbMLeaderStyle
  3
ACDB_MLEADERSTYLE_CLASS
 90
     4095
280
     0
281
     0
  0
CLASS
  1
SUN
  2
AcDbSun
  3
SCENEOE
 90
     1153
280
     0
281
     0
  0
CLASS
  1
ACDBPLACEHOLDER
  2
AcDbPlaceHolder
  3
ObjectDBX Classes
 90
        0
280
     0
281
     0
  0
CLASS
  1
LAYOUT
  2
AcDbLayout
  3
ObjectDBX Classes
 90
        0
280
     0
281
     0
  0
ENDSEC
  0
SECTION
  2
TABLES
  0
TABLE
  2
VPORT
  5
8
330
0
100
AcDbSymbolTable
 70
     1
  0
VPORT
  5
29
330
8
100
AcDbSymbolTableRecord
100
AcDbViewportTableRecord
  2
*Active
 70
     0
 10
0.0
 20
0.0
 11
1.0
 21
1.0
 12
148.5
 22
105.0
 13
0.0
 23
0.0
 14
10.0
 24
10.0
 15
10.0
 25
10.0
 16
0.0
 26
0.0
 36
1.0
 17
0.0
 27
0.0
 37
0.0
 40
210.0
 41
1.4142857143
 42
50.0
 43
0.0
 44
0.0
 50
0.0
 51
0.0
 71
     0
 72
  2000
 73
     1
 74
     3
 75
     0
 76
     0
 77
     0
 78
     0
281
     0
 65
     1
110
0.0
120
0.0
130
0.0
111
1.0
121
0.0
131
0.0
112
0.0
122
1.0
132
0.0
 79
     0
146
0.0
  0
ENDTAB
  0
TABLE
  2
LTYPE
  5
5
330
0
100
AcDbSymbolTable
 70
     6
  0
LTYPE
  5
14
330
5
100
AcDbSymbolTableRecord
100
AcDbLinetypeTableRecord
  2
ByBlock
 70
     0
  3

 72
    65
 73
     0
 40
0.0
  0
LTYPE
  5
15
330
5
100
AcDbSymbolTableRecord
100
AcDbLinetypeTableRecord
  2
ByLayer
 70
     0
  3

 72
    65
 73
     0
 40
0.0
  0
LTYPE
  5
16
330
5
100
AcDbSymbolTableRecord
100
AcDbLinetypeTableRecord
  2
Continuous
 70
     0
  3
Solid line
 72
    65
 73
     0
 40
0.0
  0
LTYPE
  5
5E
330
5
100
AcDbSymbolTableRecord
100
AcDbLinetypeTableRecord
  2
HIDDEN
 70
     0
  3
Hidden __ __ __ __ __ __ __ __ __ __ __ __ __ __
 72
    65
 73
     2
 40
1.905
 49
1.27
 74
     0
 49
-0.635
 74
     0
  0
LTYPE
  5
5F
330
5
100
AcDbSymbolTableRecord
100
AcDbLinetypeTableRecord
  2
PHANTOM
 70
     0
  3
Phantom ______  __  __  ______  __  __  ______
 72
    65
 73
     6
 40
12.7
 49
6.35
 74
     0
 49
-1.27
 74
     0
 49
1.27
 74
     0
 49
-1.27
 74
     0
 49
1.27
 74
     0
 49
-1.27
 74
     0
  0
LTYPE
  5
60
330
5
100
AcDbSymbolTableRecord
100
AcDbLinetypeTableRecord
  2
CENTER
 70
     0
  3
Center ____ _ ____ _ ____ _ ____ _ ____ _ ____
 72
    65
 73
     4
 40
10.16
 49
6.35
 74
     0
 49
-1.27
 74
     0
 49
1.27
 74
     0
 49
-1.27
 74
     0
  0
LTYPE
  5
61
330
5
100
AcDbSymbolTableRecord
100
AcDbLinetypeTableRecord
  2
CENTERX2
 70
     0
  3
Center (2x) ________  __  ________  __  _____
 72
    65
 73
     4
 40
20.32
 49
12.7
 74
     0
 49
-2.54
 74
     0
 49
2.54
 74
     0
 49
-2.54
 74
     0
  0
LTYPE
  5
62
330
5
100
AcDbSymbolTableRecord
100
AcDbLinetypeTableRecord
  2
DOT2
 70
     0
  3
Dot (.5x) ........................................
 72
    65
 73
     2
 40
0.635
 49
0.0
 74
     0
 49
-0.635
 74
     0
  0
ENDTAB
  0
TABLE
  2
LAYER
  5
2
330
0
100
AcDbSymbolTable
 70
     3
  0
LAYER
  5
10
330
2
100
AcDbSymbolTableRecord
100
AcDbLayerTableRecord
  2
0
 70
     0
 62
     7
  6
Continuous
370
    -3
390
F
  0
LAYER
  5
63
330
2
100
AcDbSymbolTableRecord
100
AcDbLayerTableRecord
  2
SLD-0
 70
     0
 62
   179
  6
Continuous
370
    -3
390
F
  0
LAYER
  5
64
330
2
100
AcDbSymbolTableRecord
100
AcDbLayerTableRecord
  2
FORMAT
 70
     0
 62
   179
  6
Continuous
370
    -3
390
F
  0
ENDTAB
  0
TABLE
  2
STYLE
  5
3
330
0
100
AcDbSymbolTable
 70
     3
  0
STYLE
  5
11
330
3
100
AcDbSymbolTableRecord
100
AcDbTextStyleTableRecord
  2
Standard
 70
     0
 40
0.0
 41
1.0
 50
0.0
 71
     0
 42
3.5
  3
txt
  4

  0
STYLE
  5
28A
330
3
100
AcDbSymbolTableRecord
100
AcDbTextStyleTableRecord
  2
SLDTEXTSTYLE0
 70
     0
 40
0.0
 41
0.75
 50
0.0
 71
     0
 42
3.5
  3
TXT
  4

  0
STYLE
  5
29D
330
3
100
AcDbSymbolTableRecord
100
AcDbTextStyleTableRecord
  2
SLDTEXTSTYLE1
 70
     0
 40
0.0
 41
0.96
 50
0.0
 71
     0
 42
3.5
  3
TXT
  4

  0
ENDTAB
  0
TABLE
  2
VIEW
  5
6
330
0
100
AcDbSymbolTable
 70
     0
  0
ENDTAB
  0
TABLE
  2
UCS
  5
7
330
0
100
AcDbSymbolTable
 70
     0
  0
ENDTAB
  0
TABLE
  2
APPID
  5
9
330
0
100
AcDbSymbolTable
 70
     1
  0
APPID
  5
12
330
9
100
AcDbSymbolTableRecord
100
AcDbRegAppTableRecord
  2
ACAD
 70
     0
  0
ENDTAB
  0
TABLE
  2
DIMSTYLE
  5
A
330
0
100
AcDbSymbolTable
 70
     2
100
AcDbDimStyleTable
  0
DIMSTYLE
105
27
330
A
100
AcDbSymbolTableRecord
100
AcDbDimStyleTableRecord
  2
ISO-25
 70
     0
 41
2.5
 42
0.625
 43
3.75
 44
1.25
 73
     0
 74
     0
 77
     1
 78
     8
140
2.5
141
2.5
143
0.0393700787
147
0.625
171
     3
172
     1
178
     0
271
     2
272
     2
274
     3
278
    44
283
     0
284
     8
340
11
  0
DIMSTYLE
105
28B
102
{ACAD_REACTORS
330
289
330
29F
102
}
330
A
100
AcDbSymbolTableRecord
100
AcDbDimStyleTableRecord
  2
SLDDIMSTYLE0
 70
     0
 41
3.556
 44
0.0
 45
0.000000001
 73
     0
 74
     0
 77
     1
 78
     4
 79
     1
140
3.5
147
0.875
173
     1
178
     0
271
     2
272
     2
276
     2
284
    12
340
28A
341
28C
343
28C
344
28C
  0
ENDTAB
  0
TABLE
  2
BLOCK_RECORD
  5
1
330
0
100
AcDbSymbolTable
 70
     4
  0
BLOCK_RECORD
  5
1F
330
1
100
AcDbSymbolTableRecord
100
AcDbBlockTableRecord
  2
*Model_Space
340
22
  0
BLOCK_RECORD
  5
1B
330
1
100
AcDbSymbolTableRecord
100
AcDbBlockTableRecord
  2
*Paper_Space
340
1E
  0
BLOCK_RECORD
  5
23
330
1
100
AcDbSymbolTableRecord
100
AcDbBlockTableRecord
  2
*Paper_Space0
340
26
  0
BLOCK_RECORD
  5
28C
330
1
100
AcDbSymbolTableRecord
100
AcDbBlockTableRecord
  2
_None
340
0
  0
BLOCK_RECORD
  5
28F
330
1
100
AcDbSymbolTableRecord
100
AcDbBlockTableRecord
  2
_D
340
0
  0
BLOCK_RECORD
  5
2A0
330
1
100
AcDbSymbolTableRecord
100
AcDbBlockTableRecord
  2
_D_1
340
0
  0
ENDTAB
  0
ENDSEC
  0
SECTION
  2
BLOCKS
  0
BLOCK
  5
20
330
1F
100
AcDbEntity
  8
0
100
AcDbBlockBegin
  2
*Model_Space
 70
     0
 10
0.0
 20
0.0
 30
0.0
  3
*Model_Space
  1

  0
ENDBLK
  5
21
330
1F
100
AcDbEntity
  8
0
100
AcDbBlockEnd
  0
BLOCK
  5
1C
330
1B
100
AcDbEntity
 67
     1
  8
0
100
AcDbBlockBegin
  2
*Paper_Space
 70
     0
 10
0.0
 20
0.0
 30
0.0
  3
*Paper_Space
  1

  0
ENDBLK
  5
1D
330
1B
100
AcDbEntity
 67
     1
  8
0
100
AcDbBlockEnd
  0
BLOCK
  5
24
330
23
100
AcDbEntity
  8
0
100
AcDbBlockBegin
  2
*Paper_Space0
 70
     0
 10
0.0
 20
0.0
 30
0.0
  3
*Paper_Space0
  1

  0
ENDBLK
  5
25
330
23
100
AcDbEntity
  8
0
100
AcDbBlockEnd
  0
BLOCK
  5
28D
330
28C
100
AcDbEntity
  8
0
100
AcDbBlockBegin
  2
_None
 70
     0
 10
0.0
 20
0.0
 30
0.0
  3
_None
  1

  0
ENDBLK
  5
28E
330
28C
100
AcDbEntity
  8
0
100
AcDbBlockEnd
  0
BLOCK
  5
290
330
28F
100
AcDbEntity
  8
0
100
AcDbBlockBegin
  2
_D
 70
     0
 10
0.0
 20
0.0
 30
0.0
  3
_D
  1

  0
LINE
  5
292
330
28F
100
AcDbEntity
  8
SLD-0
 62
     7
100
AcDbLine
 10
191.2325748664
 20
52.6177864078
 30
0.0
 11
191.8252427184
 21
56.1737864078
 31
0.0
  0
LINE
  5
293
330
28F
100
AcDbEntity
  8
SLD-0
 62
     7
100
AcDbLine
 10
191.8252427184
 20
56.1737864078
 30
0.0
 11
192.4179105704
 21
52.6177864078
 31
0.0
  0
LINE
  5
294
330
28F
100
AcDbEntity
  8
SLD-0
 62
     7
100
AcDbLine
 10
191.2325748664
 20
52.6177864078
 30
0.0
 11
192.4179105704
 21
52.6177864078
 31
0.0
  0
LINE
  5
295
330
28F
100
AcDbEntity
  8
SLD-0
 62
     7
100
AcDbLine
 10
191.8252427184
 20
56.1737864078
 30
0.0
 11
191.8252427184
 21
52.6177864078
 31
0.0
  0
LINE
  5
296
330
28F
100
AcDbEntity
  8
SLD-0
 62
     7
100
AcDbLine
 10
192.4179105704
 20
34.7297864078
 30
0.0
 11
191.8252427184
 21
31.1737864078
 31
0.0
  0
LINE
  5
297
330
28F
100
AcDbEntity
  8
SLD-0
 62
     7
100
AcDbLine
 10
191.8252427184
 20
31.1737864078
 30
0.0
 11
191.2325748664
 21
34.7297864078
 31
0.0
  0
LINE
  5
298
330
28F
100
AcDbEntity
  8
SLD-0
 62
     7
100
AcDbLine
 10
192.4179105704
 20
34.7297864078
 30
0.0
 11
191.2325748664
 21
34.7297864078
 31
0.0
  0
LINE
  5
299
330
28F
100
AcDbEntity
  8
SLD-0
 62
     7
100
AcDbLine
 10
191.8252427184
 20
31.1737864078
 30
0.0
 11
191.8252427184
 21
34.7297864078
 31
0.0
  0
LINE
  5
29A
330
28F
100
AcDbEntity
  8
SLD-0
 62
     7
100
AcDbLine
 10
207.4621359223
 20
56.1737864078
 30
0.0
 11
190.8252427184
 21
56.1737864078
 31
0.0
  0
LINE
  5
29B
330
28F
100
AcDbEntity
  8
SLD-0
 62
     7
100
AcDbLine
 10
207.4621359223
 20
31.1737864078
 30
0.0
 11
190.8252427184
 21
31.1737864078
 31
0.0
  0
LINE
  5
29C
330
28F
100
AcDbEntity
  8
SLD-0
 62
     7
100
AcDbLine
 10
191.8252427184
 20
56.1737864078
 30
0.0
 11
191.8252427184
 21
31.1737864078
 31
0.0
  0
MTEXT
  5
29E
330
28F
100
AcDbEntity
  8
SLD-0
 62
     7
100
AcDbMText
 10
187.5758694341
 20
39.0874305303
 30
0.0
 40
3.5
 41
0.0
 71
     1
 72
     1
  1
25.00
  7
SLDTEXTSTYLE1
 11
-7.044195017643634E-15
 21
1.0
 31
0.0
 73
     1
 44
1.0
  0
ENDBLK
  5
291
330
28F
100
AcDbEntity
  8
0
100
AcDbBlockEnd
  0
BLOCK
  5
2A1
330
2A0
100
AcDbEntity
  8
0
100
AcDbBlockBegin
  2
_D_1
 70
     0
 10
0.0
 20
0.0
 30
0.0
  3
_D_1
  1

  0
LINE
  5
2A3
330
2A0
100
AcDbEntity
  8
SLD-0
 62
     7
100
AcDbLine
 10
212.0181359223
 20
70.2670408859
 30
0.0
 11
208.4621359223
 21
70.8597087379
 31
0.0
  0
LINE
  5
2A4
330
2A0
100
AcDbEntity
  8
SLD-0
 62
     7
100
AcDbLine
 10
208.4621359223
 20
70.8597087379
 30
0.0
 11
212.0181359223
 21
71.4523765899
 31
0.0
  0
LINE
  5
2A5
330
2A0
100
AcDbEntity
  8
SLD-0
 62
     7
100
AcDbLine
 10
212.0181359223
 20
70.2670408859
 30
0.0
 11
212.0181359223
 21
71.4523765899
 31
0.0
  0
LINE
  5
2A6
330
2A0
100
AcDbEntity
  8
SLD-0
 62
     7
100
AcDbLine
 10
208.4621359223
 20
70.8597087379
 30
0.0
 11
212.0181359223
 21
70.8597087379
 31
0.0
  0
LINE
  5
2A7
330
2A0
100
AcDbEntity
  8
SLD-0
 62
     7
100
AcDbLine
 10
229.9061359223
 20
71.4523765899
 30
0.0
 11
233.4621359223
 21
70.8597087379
 31
0.0
  0
LINE
  5
2A8
330
2A0
100
AcDbEntity
  8
SLD-0
 62
     7
100
AcDbLine
 10
233.4621359223
 20
70.8597087379
 30
0.0
 11
229.9061359223
 21
70.2670408859
 31
0.0
  0
LINE
  5
2A9
330
2A0
100
AcDbEntity
  8
SLD-0
 62
     7
100
AcDbLine
 10
229.9061359223
 20
71.4523765899
 30
0.0
 11
229.9061359223
 21
70.2670408859
 31
0.0
  0
LINE
  5
2AA
330
2A0
100
AcDbEntity
  8
SLD-0
 62
     7
100
AcDbLine
 10
233.4621359223
 20
70.8597087379
 30
0.0
 11
229.9061359223
 21
70.8597087379
 31
0.0
  0
LINE
  5
2AB
330
2A0
100
AcDbEntity
  8
SLD-0
 62
     7
100
AcDbLine
 10
208.4621359223
 20
57.1737864078
 30
0.0
 11
208.4621359223
 21
71.8597087379
 31
0.0
  0
LINE
  5
2AC
330
2A0
100
AcDbEntity
  8
SLD-0
 62
     7
100
AcDbLine
 10
233.4621359223
 20
57.1737864078
 30
0.0
 11
233.4621359223
 21
71.8597087379
 31
0.0
  0
LINE
  5
2AD
330
2A0
100
AcDbEntity
  8
SLD-0
 62
     7
100
AcDbLine
 10
208.4621359223
 20
70.8597087379
 30
0.0
 11
233.4621359223
 21
70.8597087379
 31
0.0
  0
MTEXT
  5
2AE
330
2A0
100
AcDbEntity
  8
SLD-0
 62
     7
100
AcDbMText
 10
214.7896120938
 20
75.1090820222
 30
0.0
 40
3.5
 41
0.0
 71
     1
 72
     1
  1
25.00
  7
SLDTEXTSTYLE1
 73
     1
 44
1.0
  0
ENDBLK
  5
2A2
330
2A0
100
AcDbEntity
  8
0
100
AcDbBlockEnd
  0
ENDSEC
  0
SECTION
  2
ENTITIES
  0
LINE
  5
65
330
1F
100
AcDbEntity
  8
SLD-0
  6
Continuous
 62
     7
370
    18
100
AcDbLine
 10
208.4621359223
 20
56.1737864078
 30
0.0
 11
233.4621359223
 21
56.1737864078
 31
0.0
  0
LINE
  5
66
330
1F
100
AcDbEntity
  8
SLD-0
  6
Continuous
 62
     7
370
    18
100
AcDbLine
 10
208.4621359223
 20
56.1737864078
 30
0.0
 11
208.4621359223
 21
31.1737864078
 31
0.0
  0
LINE
  5
67
330
1F
100
AcDbEntity
  8
SLD-0
  6
Continuous
 62
     7
370
    18
100
AcDbLine
 10
208.4621359223
 20
31.1737864078
 30
0.0
 11
233.4621359223
 21
31.1737864078
 31
0.0
  0
LINE
  5
68
330
1F
100
AcDbEntity
  8
SLD-0
  6
Continuous
 62
     7
370
    18
100
AcDbLine
 10
233.4621359223
 20
56.1737864078
 30
0.0
 11
233.4621359223
 21
31.1737864078
 31
0.0
  0
LINE
  5
69
330
1F
100
AcDbEntity
  8
SLD-0
  6
Continuous
 62
     7
370
    25
100
AcDbLine
 10
115.0641445853
 20
109.6791262456
 30
0.0
 11
116.3141445853
 21
109.6791262456
 31
0.0
  0
LINE
  5
6A
330
1F
100
AcDbEntity
  8
SLD-0
  6
Continuous
 62
     7
370
    25
100
AcDbLine
 10
115.0641445853
 20
109.6791262456
 30
0.0
 11
113.8141445853
 21
109.6791262456
 31
0.0
  0
LINE
  5
6B
330
1F
100
AcDbEntity
  8
SLD-0
  6
Continuous
 62
     7
370
    25
100
AcDbLine
 10
113.5935296309
 20
121.6959058332
 30
0.0
 11
113.6642357067
 21
121.6950990831
 31
0.0
  0
LINE
  5
6C
330
1F
100
AcDbEntity
  8
SLD-0
  6
Continuous
 62
     7
370
    25
100
AcDbLine
 10
116.5347595397
 20
121.6623466579
 30
0.0
 11
116.464053464
 21
121.663153408
 31
0.0
  0
LINE
  5
6D
330
1F
100
AcDbEntity
  8
SLD-0
  6
Continuous
 62
     7
370
    25
100
AcDbLine
 10
116.5640469553
 20
121.6620124911
 30
0.0
 11
116.5347595397
 21
121.6623466579
 31
0.0
  0
LINE
  5
6E
330
1F
100
AcDbEntity
  8
SLD-0
  6
Continuous
 62
     7
370
    25
100
AcDbLine
 10
113.5642422154
 20
121.6962400001
 30
0.0
 11
113.5935296309
 21
121.6959058332
 31
0.0
  0
LINE
  5
6F
330
1F
100
AcDbEntity
  8
SLD-0
  6
Continuous
 62
     7
370
    25
100
AcDbLine
 10
111.9141445853
 20
124.8291262456
 30
0.0
 11
118.2141445853
 21
124.8291262456
 31
0.0
  0
LINE
  5
70
330
1F
100
AcDbEntity
  8
SLD-0
  6
Continuous
 62
     7
370
    25
100
AcDbLine
 10
111.9141445853
 20
124.8291262456
 30
0.0
 11
111.9141445853
 21
124.8791262456
 31
0.0
  0
LINE
  5
71
330
1F
100
AcDbEntity
  8
SLD-0
  6
Continuous
 62
     7
370
    25
100
AcDbLine
 10
118.2141445853
 20
124.8791262456
 30
0.0
 11
111.9141445853
 21
124.8791262456
 31
0.0
  0
LINE
  5
72
330
1F
100
AcDbEntity
  8
SLD-0
  6
Continuous
 62
     7
370
    25
100
AcDbLine
 10
118.2141445853
 20
124.8791262456
 30
0.0
 11
118.2141445853
 21
124.8291262456
 31
0.0
  0
LINE
  5
73
330
1F
100
AcDbEntity
  8
SLD-0
  6
Continuous
 62
     7
370
    25
100
AcDbLine
 10
118.2141445853
 20
118.5291262456
 30
0.0
 11
111.9141445853
 21
118.5291262456
 31
0.0
  0
LINE
  5
74
330
1F
100
AcDbEntity
  8
SLD-0
  6
Continuous
 62
     7
370
    25
100
AcDbLine
 10
111.9141445853
 20
118.5291262456
 30
0.0
 11
111.9141445853
 21
124.8291262456
 31
0.0
  0
LINE
  5
75
330
1F
100
AcDbEntity
  8
SLD-0
  6
Continuous
 62
     7
370
    25
100
AcDbLine
 10
118.2141445853
 20
124.8291262456
 30
0.0
 11
118.2141445853
 21
118.5291262456
 31
0.0
  0
LINE
  5
76
330
1F
100
AcDbEntity
  8
SLD-0
  6
Continuous
 62
     7
370
    25
100
AcDbLine
 10
111.9141445853
 20
118.4791262456
 30
0.0
 11
118.2141445853
 21
118.4791262456
 31
0.0
  0
LINE
  5
77
330
1F
100
AcDbEntity
  8
SLD-0
  6
Continuous
 62
     7
370
    25
100
AcDbLine
 10
111.9141445853
 20
118.4791262456
 30
0.0
 11
111.9141445853
 21
118.5291262456
 31
0.0
  0
LINE
  5
78
330
1F
100
AcDbEntity
  8
SLD-0
  6
Continuous
 62
     7
370
    25
100
AcDbLine
 10
118.2141445853
 20
118.5291262456
 30
0.0
 11
118.2141445853
 21
118.4791262456
 31
0.0
  0
LINE
  5
79
330
1F
100
AcDbEntity
  8
SLD-0
  6
Continuous
 62
     7
370
    25
100
AcDbLine
 10
116.3141445853
 20
124.9791262456
 30
0.0
 11
116.3141445853
 21
124.8791262456
 31
0.0
  0
LINE
  5
7A
330
1F
100
AcDbEntity
  8
SLD-0
  6
Continuous
 62
     7
370
    25
100
AcDbLine
 10
116.3141445853
 20
124.9791262456
 30
0.0
 11
113.8141445853
 21
124.9791262456
 31
0.0
  0
LINE
  5
7B
330
1F
100
AcDbEntity
  8
SLD-0
  6
Continuous
 62
     7
370
    25
100
AcDbLine
 10
113.8141445853
 20
124.8791262456
 30
0.0
 11
113.8141445853
 21
124.9791262456
 31
0.0
  0
LINE
  5
7C
330
1F
100
AcDbEntity
  8
SLD-0
  6
Continuous
 62
     7
370
    25
100
AcDbLine
 10
113.8141445853
 20
118.3791262456
 30
0.0
 11
113.8141445853
 21
118.4791262456
 31
0.0
  0
LINE
  5
7D
330
1F
100
AcDbEntity
  8
SLD-0
  6
Continuous
 62
     7
370
    25
100
AcDbLine
 10
116.3141445853
 20
118.3791262456
 30
0.0
 11
113.8141445853
 21
118.3791262456
 31
0.0
  0
LINE
  5
7E
330
1F
100
AcDbEntity
  8
SLD-0
  6
Continuous
 62
     7
370
    25
100
AcDbLine
 10
116.3141445853
 20
118.4791262456
 30
0.0
 11
116.3141445853
 21
118.3791262456
 31
0.0
  0
LINE
  5
7F
330
1F
100
AcDbEntity
  8
SLD-0
  6
Continuous
 62
     7
370
    25
100
AcDbLine
 10
113.8141445853
 20
118.4614935475
 30
0.0
 11
113.7641445853
 21
118.4614935475
 31
0.0
  0
LINE
  5
80
330
1F
100
AcDbEntity
  8
SLD-0
  6
Continuous
 62
     7
370
    25
100
AcDbLine
 10
116.3641445853
 20
118.4614935475
 30
0.0
 11
116.3141445853
 21
118.4614935475
 31
0.0
  0
LINE
  5
81
330
1F
100
AcDbEntity
  8
SLD-0
  6
Continuous
 62
     7
370
    25
100
AcDbLine
 10
117.2141445853
 20
118.3733300571
 30
0.0
 11
112.9141445853
 21
118.3733300571
 31
0.0
  0
LINE
  5
82
330
1F
100
AcDbEntity
  8
SLD-0
  6
Continuous
 62
     7
370
    25
100
AcDbLine
 10
112.9141445853
 20
118.3733300571
 30
0.0
 11
112.3141445853
 21
118.4791262456
 31
0.0
  0
LINE
  5
83
330
1F
100
AcDbEntity
  8
SLD-0
  6
Continuous
 62
     7
370
    25
100
AcDbLine
 10
117.8141445853
 20
118.4791262456
 30
0.0
 11
117.2141445853
 21
118.3733300571
 31
0.0
  0
LINE
  5
84
330
1F
100
AcDbEntity
  8
SLD-0
  6
Continuous
 62
     7
370
    25
100
AcDbLine
 10
113.7641445853
 20
118.4791262456
 30
0.0
 11
113.7641445853
 21
118.4614935475
 31
0.0
  0
LINE
  5
85
330
1F
100
AcDbEntity
  8
SLD-0
  6
Continuous
 62
     7
370
    25
100
AcDbLine
 10
116.3641445853
 20
118.4614935475
 30
0.0
 11
116.3641445853
 21
118.4791262456
 31
0.0
  0
LINE
  5
86
330
1F
100
AcDbEntity
  8
SLD-0
  6
Continuous
 62
     7
370
    25
100
AcDbLine
 10
116.3641445853
 20
124.8967589436
 30
0.0
 11
116.3141445853
 21
124.8967589436
 31
0.0
  0
LINE
  5
87
330
1F
100
AcDbEntity
  8
SLD-0
  6
Continuous
 62
     7
370
    25
100
AcDbLine
 10
113.8141445853
 20
124.8967589436
 30
0.0
 11
113.7641445853
 21
124.8967589436
 31
0.0
  0
LINE
  5
88
330
1F
100
AcDbEntity
  8
SLD-0
  6
Continuous
 62
     7
370
    25
100
AcDbLine
 10
117.2141445853
 20
124.984922434
 30
0.0
 11
112.9141445853
 21
124.984922434
 31
0.0
  0
LINE
  5
89
330
1F
100
AcDbEntity
  8
SLD-0
  6
Continuous
 62
     7
370
    25
100
AcDbLine
 10
112.3141445853
 20
124.8791262456
 30
0.0
 11
112.9141445853
 21
124.984922434
 31
0.0
  0
LINE
  5
8A
330
1F
100
AcDbEntity
  8
SLD-0
  6
Continuous
 62
     7
370
    25
100
AcDbLine
 10
117.2141445853
 20
124.984922434
 30
0.0
 11
117.8141445853
 21
124.8791262456
 31
0.0
  0
LINE
  5
8B
330
1F
100
AcDbEntity
  8
SLD-0
  6
Continuous
 62
     7
370
    25
100
AcDbLine
 10
116.3641445853
 20
124.8791262456
 30
0.0
 11
116.3641445853
 21
124.8967589436
 31
0.0
  0
LINE
  5
8C
330
1F
100
AcDbEntity
  8
SLD-0
  6
Continuous
 62
     7
370
    25
100
AcDbLine
 10
113.7641445853
 20
124.8967589436
 30
0.0
 11
113.7641445853
 21
124.8791262456
 31
0.0
  0
LINE
  5
8D
330
1F
100
AcDbEntity
  8
SLD-0
  6
Continuous
 62
     7
370
    25
100
AcDbLine
 10
111.4391445853
 20
124.3041262456
 30
0.0
 11
111.4391445853
 21
123.5541262456
 31
0.0
  0
LINE
  5
8E
330
1F
100
AcDbEntity
  8
SLD-0
  6
Continuous
 62
     7
370
    25
100
AcDbLine
 10
111.4391445853
 20
124.3041262456
 30
0.0
 11
111.7391445853
 21
124.3041262456
 31
0.0
  0
LINE
  5
8F
330
1F
100
AcDbEntity
  8
SLD-0
  6
Continuous
 62
     7
370
    25
100
AcDbLine
 10
111.7391445853
 20
123.5541262456
 30
0.0
 11
111.7391445853
 21
124.3041262456
 31
0.0
  0
LINE
  5
90
330
1F
100
AcDbEntity
  8
SLD-0
  6
Continuous
 62
     7
370
    25
100
AcDbLine
 10
111.7391445853
 20
123.5541262456
 30
0.0
 11
111.4391445853
 21
123.5541262456
 31
0.0
  0
LINE
  5
91
330
1F
100
AcDbEntity
  8
SLD-0
  6
Continuous
 62
     7
370
    25
100
AcDbLine
 10
118.3891445853
 20
119.8041262456
 30
0.0
 11
118.3891445853
 21
119.0541262456
 31
0.0
  0
LINE
  5
92
330
1F
100
AcDbEntity
  8
SLD-0
  6
Continuous
 62
     7
370
    25
100
AcDbLine
 10
118.2141445853
 20
119.0541262456
 30
0.0
 11
118.3891445853
 21
119.0541262456
 31
0.0
  0
LINE
  5
93
330
1F
100
AcDbEntity
  8
SLD-0
  6
Continuous
 62
     7
370
    25
100
AcDbLine
 10
118.2141445853
 20
119.8041262456
 30
0.0
 11
118.3891445853
 21
119.8041262456
 31
0.0
  0
LINE
  5
94
330
1F
100
AcDbEntity
  8
SLD-0
  6
Continuous
 62
     7
370
    25
100
AcDbLine
 10
118.3891445853
 20
124.3041262456
 30
0.0
 11
118.3891445853
 21
123.5541262456
 31
0.0
  0
LINE
  5
95
330
1F
100
AcDbEntity
  8
SLD-0
  6
Continuous
 62
     7
370
    25
100
AcDbLine
 10
118.3891445853
 20
124.3041262456
 30
0.0
 11
118.6891445853
 21
124.3041262456
 31
0.0
  0
LINE
  5
96
330
1F
100
AcDbEntity
  8
SLD-0
  6
Continuous
 62
     7
370
    25
100
AcDbLine
 10
118.6891445853
 20
123.5541262456
 30
0.0
 11
118.6891445853
 21
124.3041262456
 31
0.0
  0
LINE
  5
97
330
1F
100
AcDbEntity
  8
SLD-0
  6
Continuous
 62
     7
370
    25
100
AcDbLine
 10
118.6891445853
 20
123.5541262456
 30
0.0
 11
118.3891445853
 21
123.5541262456
 31
0.0
  0
LINE
  5
98
330
1F
100
AcDbEntity
  8
SLD-0
  6
Continuous
 62
     7
370
    25
100
AcDbLine
 10
118.6891445853
 20
119.0541262456
 30
0.0
 11
118.6891445853
 21
119.8041262456
 31
0.0
  0
LINE
  5
99
330
1F
100
AcDbEntity
  8
SLD-0
  6
Continuous
 62
     7
370
    25
100
AcDbLine
 10
118.6891445853
 20
119.0541262456
 30
0.0
 11
118.3891445853
 21
119.0541262456
 31
0.0
  0
LINE
  5
9A
330
1F
100
AcDbEntity
  8
SLD-0
  6
Continuous
 62
     7
370
    25
100
AcDbLine
 10
118.3891445853
 20
119.8041262456
 30
0.0
 11
118.6891445853
 21
119.8041262456
 31
0.0
  0
LINE
  5
9B
330
1F
100
AcDbEntity
  8
SLD-0
  6
Continuous
 62
     7
370
    25
100
AcDbLine
 10
111.7391445853
 20
119.0541262456
 30
0.0
 11
111.9141445853
 21
119.0541262456
 31
0.0
  0
LINE
  5
9C
330
1F
100
AcDbEntity
  8
SLD-0
  6
Continuous
 62
     7
370
    25
100
AcDbLine
 10
111.7391445853
 20
119.0541262456
 30
0.0
 11
111.7391445853
 21
119.8041262456
 31
0.0
  0
LINE
  5
9D
330
1F
100
AcDbEntity
  8
SLD-0
  6
Continuous
 62
     7
370
    25
100
AcDbLine
 10
111.7391445853
 20
119.8041262456
 30
0.0
 11
111.9141445853
 21
119.8041262456
 31
0.0
  0
LINE
  5
9E
330
1F
100
AcDbEntity
  8
SLD-0
  6
Continuous
 62
     7
370
    25
100
AcDbLine
 10
111.7391445853
 20
123.5541262456
 30
0.0
 11
111.9141445853
 21
123.5541262456
 31
0.0
  0
LINE
  5
9F
330
1F
100
AcDbEntity
  8
SLD-0
  6
Continuous
 62
     7
370
    25
100
AcDbLine
 10
111.7391445853
 20
124.3041262456
 30
0.0
 11
111.9141445853
 21
124.3041262456
 31
0.0
  0
LINE
  5
A0
330
1F
100
AcDbEntity
  8
SLD-0
  6
Continuous
 62
     7
370
    25
100
AcDbLine
 10
118.2141445853
 20
124.3041262456
 30
0.0
 11
118.3891445853
 21
124.3041262456
 31
0.0
  0
LINE
  5
A1
330
1F
100
AcDbEntity
  8
SLD-0
  6
Continuous
 62
     7
370
    25
100
AcDbLine
 10
118.2141445853
 20
123.5541262456
 30
0.0
 11
118.3891445853
 21
123.5541262456
 31
0.0
  0
LINE
  5
A2
330
1F
100
AcDbEntity
  8
SLD-0
  6
Continuous
 62
     7
370
    25
100
AcDbLine
 10
111.4391445853
 20
119.8041262456
 30
0.0
 11
111.4391445853
 21
119.0541262456
 31
0.0
  0
LINE
  5
A3
330
1F
100
AcDbEntity
  8
SLD-0
  6
Continuous
 62
     7
370
    25
100
AcDbLine
 10
111.7391445853
 20
119.0541262456
 30
0.0
 11
111.4391445853
 21
119.0541262456
 31
0.0
  0
LINE
  5
A4
330
1F
100
AcDbEntity
  8
SLD-0
  6
Continuous
 62
     7
370
    25
100
AcDbLine
 10
111.4391445853
 20
119.8041262456
 30
0.0
 11
111.7391445853
 21
119.8041262456
 31
0.0
  0
LINE
  5
A5
330
1F
100
AcDbEntity
  8
SLD-0
  6
Continuous
 62
     7
370
    25
100
AcDbLine
 10
110.8641445853
 20
124.3041262456
 30
0.0
 11
110.8641445853
 21
123.5541262456
 31
0.0
  0
LINE
  5
A6
330
1F
100
AcDbEntity
  8
SLD-0
  6
Continuous
 62
     7
370
    25
100
AcDbLine
 10
110.8641445853
 20
123.5541262456
 30
0.0
 11
111.4391445853
 21
123.5541262456
 31
0.0
  0
LINE
  5
A7
330
1F
100
AcDbEntity
  8
SLD-0
  6
Continuous
 62
     7
370
    25
100
AcDbLine
 10
110.8641445853
 20
124.3041262456
 30
0.0
 11
111.4391445853
 21
124.3041262456
 31
0.0
  0
LINE
  5
A8
330
1F
100
AcDbEntity
  8
SLD-0
  6
Continuous
 62
     7
370
    25
100
AcDbLine
 10
110.8641445853
 20
119.0541262456
 30
0.0
 11
110.8641445853
 21
119.8041262456
 31
0.0
  0
LINE
  5
A9
330
1F
100
AcDbEntity
  8
SLD-0
  6
Continuous
 62
     7
370
    25
100
AcDbLine
 10
110.8641445853
 20
119.0541262456
 30
0.0
 11
111.4391445853
 21
119.0541262456
 31
0.0
  0
LINE
  5
AA
330
1F
100
AcDbEntity
  8
SLD-0
  6
Continuous
 62
     7
370
    25
100
AcDbLine
 10
110.8641445853
 20
119.8041262456
 30
0.0
 11
111.4391445853
 21
119.8041262456
 31
0.0
  0
LINE
  5
AB
330
1F
100
AcDbEntity
  8
SLD-0
  6
Continuous
 62
     7
370
    25
100
AcDbLine
 10
119.2641445853
 20
119.0541262456
 30
0.0
 11
119.2641445853
 21
119.8041262456
 31
0.0
  0
LINE
  5
AC
330
1F
100
AcDbEntity
  8
SLD-0
  6
Continuous
 62
     7
370
    25
100
AcDbLine
 10
118.6891445853
 20
119.0541262456
 30
0.0
 11
119.2641445853
 21
119.0541262456
 31
0.0
  0
LINE
  5
AD
330
1F
100
AcDbEntity
  8
SLD-0
  6
Continuous
 62
     7
370
    25
100
AcDbLine
 10
118.6891445853
 20
119.8041262456
 30
0.0
 11
119.2641445853
 21
119.8041262456
 31
0.0
  0
LINE
  5
AE
330
1F
100
AcDbEntity
  8
SLD-0
  6
Continuous
 62
     7
370
    25
100
AcDbLine
 10
119.2641445853
 20
124.3041262456
 30
0.0
 11
119.2641445853
 21
123.5541262456
 31
0.0
  0
LINE
  5
AF
330
1F
100
AcDbEntity
  8
SLD-0
  6
Continuous
 62
     7
370
    25
100
AcDbLine
 10
118.6891445853
 20
124.3041262456
 30
0.0
 11
119.2641445853
 21
124.3041262456
 31
0.0
  0
LINE
  5
B0
330
1F
100
AcDbEntity
  8
SLD-0
  6
Continuous
 62
     7
370
    25
100
AcDbLine
 10
118.6891445853
 20
123.5541262456
 30
0.0
 11
119.2641445853
 21
123.5541262456
 31
0.0
  0
LINE
  5
B1
330
1F
100
AcDbEntity
  8
SLD-0
  6
Continuous
 62
     7
370
    25
100
AcDbLine
 10
113.5935296309
 20
97.6959058332
 30
0.0
 11
113.6642357067
 21
97.6950990831
 31
0.0
  0
LINE
  5
B2
330
1F
100
AcDbEntity
  8
SLD-0
  6
Continuous
 62
     7
370
    25
100
AcDbLine
 10
116.5347595397
 20
97.6623466579
 30
0.0
 11
116.4640534639
 21
97.6631534081
 31
0.0
  0
LINE
  5
B3
330
1F
100
AcDbEntity
  8
SLD-0
  6
Continuous
 62
     7
370
    25
100
AcDbLine
 10
116.5640469553
 20
97.6620124911
 30
0.0
 11
116.5347595397
 21
97.6623466579
 31
0.0
  0
LINE
  5
B4
330
1F
100
AcDbEntity
  8
SLD-0
  6
Continuous
 62
     7
370
    25
100
AcDbLine
 10
113.5642422153
 20
97.6962400001
 30
0.0
 11
113.5935296309
 21
97.6959058332
 31
0.0
  0
LINE
  5
B5
330
1F
100
AcDbEntity
  8
SLD-0
  6
Continuous
 62
     7
370
    25
100
AcDbLine
 10
111.9141445853
 20
100.8291262456
 30
0.0
 11
118.2141445853
 21
100.8291262456
 31
0.0
  0
LINE
  5
B6
330
1F
100
AcDbEntity
  8
SLD-0
  6
Continuous
 62
     7
370
    25
100
AcDbLine
 10
118.2141445853
 20
100.8291262456
 30
0.0
 11
118.2141445853
 21
94.5291262456
 31
0.0
  0
LINE
  5
B7
330
1F
100
AcDbEntity
  8
SLD-0
  6
Continuous
 62
     7
370
    25
100
AcDbLine
 10
118.2141445853
 20
94.5291262456
 30
0.0
 11
111.9141445853
 21
94.5291262456
 31
0.0
  0
LINE
  5
B8
330
1F
100
AcDbEntity
  8
SLD-0
  6
Continuous
 62
     7
370
    25
100
AcDbLine
 10
111.9141445853
 20
94.5291262456
 30
0.0
 11
111.9141445853
 21
100.8291262456
 31
0.0
  0
LINE
  5
B9
330
1F
100
AcDbEntity
  8
SLD-0
  6
Continuous
 62
     7
370
    25
100
AcDbLine
 10
118.2141445853
 20
94.5291262456
 30
0.0
 11
118.2141445853
 21
94.4791262456
 31
0.0
  0
LINE
  5
BA
330
1F
100
AcDbEntity
  8
SLD-0
  6
Continuous
 62
     7
370
    25
100
AcDbLine
 10
111.9141445853
 20
94.4791262456
 30
0.0
 11
118.2141445853
 21
94.4791262456
 31
0.0
  0
LINE
  5
BB
330
1F
100
AcDbEntity
  8
SLD-0
  6
Continuous
 62
     7
370
    25
100
AcDbLine
 10
111.9141445853
 20
94.4791262456
 30
0.0
 11
111.9141445853
 21
94.5291262456
 31
0.0
  0
LINE
  5
BC
330
1F
100
AcDbEntity
  8
SLD-0
  6
Continuous
 62
     7
370
    25
100
AcDbLine
 10
118.2141445853
 20
100.8791262456
 30
0.0
 11
111.9141445853
 21
100.8791262456
 31
0.0
  0
LINE
  5
BD
330
1F
100
AcDbEntity
  8
SLD-0
  6
Continuous
 62
     7
370
    25
100
AcDbLine
 10
118.2141445853
 20
100.8791262456
 30
0.0
 11
118.2141445853
 21
100.8291262456
 31
0.0
  0
LINE
  5
BE
330
1F
100
AcDbEntity
  8
SLD-0
  6
Continuous
 62
     7
370
    25
100
AcDbLine
 10
111.9141445853
 20
100.8291262456
 30
0.0
 11
111.9141445853
 21
100.8791262456
 31
0.0
  0
LINE
  5
BF
330
1F
100
AcDbEntity
  8
SLD-0
  6
Continuous
 62
     7
370
    25
100
AcDbLine
 10
113.8141445853
 20
94.3791262456
 30
0.0
 11
113.8141445853
 21
94.4791262456
 31
0.0
  0
LINE
  5
C0
330
1F
100
AcDbEntity
  8
SLD-0
  6
Continuous
 62
     7
370
    25
100
AcDbLine
 10
116.3141445853
 20
94.4791262456
 30
0.0
 11
116.3141445853
 21
94.3791262456
 31
0.0
  0
LINE
  5
C1
330
1F
100
AcDbEntity
  8
SLD-0
  6
Continuous
 62
     7
370
    25
100
AcDbLine
 10
113.8141445853
 20
94.3791262456
 30
0.0
 11
116.3141445853
 21
94.3791262456
 31
0.0
  0
LINE
  5
C2
330
1F
100
AcDbEntity
  8
SLD-0
  6
Continuous
 62
     7
370
    25
100
AcDbLine
 10
113.8141445853
 20
100.9791262456
 30
0.0
 11
116.3141445853
 21
100.9791262456
 31
0.0
  0
LINE
  5
C3
330
1F
100
AcDbEntity
  8
SLD-0
  6
Continuous
 62
     7
370
    25
100
AcDbLine
 10
113.8141445853
 20
100.8791262456
 30
0.0
 11
113.8141445853
 21
100.9791262456
 31
0.0
  0
LINE
  5
C4
330
1F
100
AcDbEntity
  8
SLD-0
  6
Continuous
 62
     7
370
    25
100
AcDbLine
 10
116.3141445853
 20
100.9791262456
 30
0.0
 11
116.3141445853
 21
100.8791262456
 31
0.0
  0
LINE
  5
C5
330
1F
100
AcDbEntity
  8
SLD-0
  6
Continuous
 62
     7
370
    25
100
AcDbLine
 10
113.7641445853
 20
94.4614935475
 30
0.0
 11
113.8141445853
 21
94.4614935475
 31
0.0
  0
LINE
  5
C6
330
1F
100
AcDbEntity
  8
SLD-0
  6
Continuous
 62
     7
370
    25
100
AcDbLine
 10
116.3141445853
 20
94.4614935475
 30
0.0
 11
116.3641445853
 21
94.4614935475
 31
0.0
  0
LINE
  5
C7
330
1F
100
AcDbEntity
  8
SLD-0
  6
Continuous
 62
     7
370
    25
100
AcDbLine
 10
112.9141445853
 20
94.3733300571
 30
0.0
 11
117.2141445853
 21
94.3733300571
 31
0.0
  0
LINE
  5
C8
330
1F
100
AcDbEntity
  8
SLD-0
  6
Continuous
 62
     7
370
    25
100
AcDbLine
 10
117.8141445853
 20
94.4791262456
 30
0.0
 11
117.2141445853
 21
94.3733300571
 31
0.0
  0
LINE
  5
C9
330
1F
100
AcDbEntity
  8
SLD-0
  6
Continuous
 62
     7
370
    25
100
AcDbLine
 10
112.9141445853
 20
94.3733300571
 30
0.0
 11
112.3141445853
 21
94.4791262456
 31
0.0
  0
LINE
  5
CA
330
1F
100
AcDbEntity
  8
SLD-0
  6
Continuous
 62
     7
370
    25
100
AcDbLine
 10
113.7641445853
 20
94.4791262456
 30
0.0
 11
113.7641445853
 21
94.4614935475
 31
0.0
  0
LINE
  5
CB
330
1F
100
AcDbEntity
  8
SLD-0
  6
Continuous
 62
     7
370
    25
100
AcDbLine
 10
116.3641445853
 20
94.4614935475
 30
0.0
 11
116.3641445853
 21
94.4791262456
 31
0.0
  0
LINE
  5
CC
330
1F
100
AcDbEntity
  8
SLD-0
  6
Continuous
 62
     7
370
    25
100
AcDbLine
 10
116.3141445853
 20
100.8967589436
 30
0.0
 11
116.3641445853
 21
100.8967589436
 31
0.0
  0
LINE
  5
CD
330
1F
100
AcDbEntity
  8
SLD-0
  6
Continuous
 62
     7
370
    25
100
AcDbLine
 10
113.7641445853
 20
100.8967589436
 30
0.0
 11
113.8141445853
 21
100.8967589436
 31
0.0
  0
LINE
  5
CE
330
1F
100
AcDbEntity
  8
SLD-0
  6
Continuous
 62
     7
370
    25
100
AcDbLine
 10
112.9141445853
 20
100.984922434
 30
0.0
 11
117.2141445853
 21
100.984922434
 31
0.0
  0
LINE
  5
CF
330
1F
100
AcDbEntity
  8
SLD-0
  6
Continuous
 62
     7
370
    25
100
AcDbLine
 10
112.3141445853
 20
100.8791262456
 30
0.0
 11
112.9141445853
 21
100.984922434
 31
0.0
  0
LINE
  5
D0
330
1F
100
AcDbEntity
  8
SLD-0
  6
Continuous
 62
     7
370
    25
100
AcDbLine
 10
117.2141445853
 20
100.984922434
 30
0.0
 11
117.8141445853
 21
100.8791262456
 31
0.0
  0
LINE
  5
D1
330
1F
100
AcDbEntity
  8
SLD-0
  6
Continuous
 62
     7
370
    25
100
AcDbLine
 10
116.3641445853
 20
100.8791262456
 30
0.0
 11
116.3641445853
 21
100.8967589436
 31
0.0
  0
LINE
  5
D2
330
1F
100
AcDbEntity
  8
SLD-0
  6
Continuous
 62
     7
370
    25
100
AcDbLine
 10
113.7641445853
 20
100.8967589436
 30
0.0
 11
113.7641445853
 21
100.8791262456
 31
0.0
  0
LINE
  5
D3
330
1F
100
AcDbEntity
  8
SLD-0
  6
Continuous
 62
     7
370
    25
100
AcDbLine
 10
118.3891445853
 20
95.8041262456
 30
0.0
 11
118.2141445853
 21
95.8041262456
 31
0.0
  0
LINE
  5
D4
330
1F
100
AcDbEntity
  8
SLD-0
  6
Continuous
 62
     7
370
    25
100
AcDbLine
 10
118.3891445853
 20
95.8041262456
 30
0.0
 11
118.3891445853
 21
95.0541262456
 31
0.0
  0
LINE
  5
D5
330
1F
100
AcDbEntity
  8
SLD-0
  6
Continuous
 62
     7
370
    25
100
AcDbLine
 10
118.3891445853
 20
95.0541262456
 30
0.0
 11
118.2141445853
 21
95.0541262456
 31
0.0
  0
LINE
  5
D6
330
1F
100
AcDbEntity
  8
SLD-0
  6
Continuous
 62
     7
370
    25
100
AcDbLine
 10
111.7391445853
 20
95.0541262456
 30
0.0
 11
111.7391445853
 21
95.8041262456
 31
0.0
  0
LINE
  5
D7
330
1F
100
AcDbEntity
  8
SLD-0
  6
Continuous
 62
     7
370
    25
100
AcDbLine
 10
111.7391445853
 20
95.0541262456
 30
0.0
 11
111.4391445853
 21
95.0541262456
 31
0.0
  0
LINE
  5
D8
330
1F
100
AcDbEntity
  8
SLD-0
  6
Continuous
 62
     7
370
    25
100
AcDbLine
 10
111.4391445853
 20
95.8041262456
 30
0.0
 11
111.4391445853
 21
95.0541262456
 31
0.0
  0
LINE
  5
D9
330
1F
100
AcDbEntity
  8
SLD-0
  6
Continuous
 62
     7
370
    25
100
AcDbLine
 10
111.4391445853
 20
95.8041262456
 30
0.0
 11
111.7391445853
 21
95.8041262456
 31
0.0
  0
LINE
  5
DA
330
1F
100
AcDbEntity
  8
SLD-0
  6
Continuous
 62
     7
370
    25
100
AcDbLine
 10
111.9141445853
 20
99.5541262456
 30
0.0
 11
111.7391445853
 21
99.5541262456
 31
0.0
  0
LINE
  5
DB
330
1F
100
AcDbEntity
  8
SLD-0
  6
Continuous
 62
     7
370
    25
100
AcDbLine
 10
111.7391445853
 20
99.5541262456
 30
0.0
 11
111.7391445853
 21
100.3041262456
 31
0.0
  0
LINE
  5
DC
330
1F
100
AcDbEntity
  8
SLD-0
  6
Continuous
 62
     7
370
    25
100
AcDbLine
 10
111.9141445853
 20
100.3041262456
 30
0.0
 11
111.7391445853
 21
100.3041262456
 31
0.0
  0
LINE
  5
DD
330
1F
100
AcDbEntity
  8
SLD-0
  6
Continuous
 62
     7
370
    25
100
AcDbLine
 10
118.6891445853
 20
99.5541262456
 30
0.0
 11
118.6891445853
 21
100.3041262456
 31
0.0
  0
LINE
  5
DE
330
1F
100
AcDbEntity
  8
SLD-0
  6
Continuous
 62
     7
370
    25
100
AcDbLine
 10
118.3891445853
 20
100.3041262456
 30
0.0
 11
118.3891445853
 21
99.5541262456
 31
0.0
  0
LINE
  5
DF
330
1F
100
AcDbEntity
  8
SLD-0
  6
Continuous
 62
     7
370
    25
100
AcDbLine
 10
118.3891445853
 20
100.3041262456
 30
0.0
 11
118.6891445853
 21
100.3041262456
 31
0.0
  0
LINE
  5
E0
330
1F
100
AcDbEntity
  8
SLD-0
  6
Continuous
 62
     7
370
    25
100
AcDbLine
 10
118.6891445853
 20
99.5541262456
 30
0.0
 11
118.3891445853
 21
99.5541262456
 31
0.0
  0
LINE
  5
E1
330
1F
100
AcDbEntity
  8
SLD-0
  6
Continuous
 62
     7
370
    25
100
AcDbLine
 10
111.4391445853
 20
100.3041262456
 30
0.0
 11
111.4391445853
 21
99.5541262456
 31
0.0
  0
LINE
  5
E2
330
1F
100
AcDbEntity
  8
SLD-0
  6
Continuous
 62
     7
370
    25
100
AcDbLine
 10
111.7391445853
 20
99.5541262456
 30
0.0
 11
111.4391445853
 21
99.5541262456
 31
0.0
  0
LINE
  5
E3
330
1F
100
AcDbEntity
  8
SLD-0
  6
Continuous
 62
     7
370
    25
100
AcDbLine
 10
111.4391445853
 20
100.3041262456
 30
0.0
 11
111.7391445853
 21
100.3041262456
 31
0.0
  0
LINE
  5
E4
330
1F
100
AcDbEntity
  8
SLD-0
  6
Continuous
 62
     7
370
    25
100
AcDbLine
 10
118.6891445853
 20
95.0541262456
 30
0.0
 11
118.6891445853
 21
95.8041262456
 31
0.0
  0
LINE
  5
E5
330
1F
100
AcDbEntity
  8
SLD-0
  6
Continuous
 62
     7
370
    25
100
AcDbLine
 10
118.3891445853
 20
95.8041262456
 30
0.0
 11
118.6891445853
 21
95.8041262456
 31
0.0
  0
LINE
  5
E6
330
1F
100
AcDbEntity
  8
SLD-0
  6
Continuous
 62
     7
370
    25
100
AcDbLine
 10
118.6891445853
 20
95.0541262456
 30
0.0
 11
118.3891445853
 21
95.0541262456
 31
0.0
  0
LINE
  5
E7
330
1F
100
AcDbEntity
  8
SLD-0
  6
Continuous
 62
     7
370
    25
100
AcDbLine
 10
118.3891445853
 20
100.3041262456
 30
0.0
 11
118.2141445853
 21
100.3041262456
 31
0.0
  0
LINE
  5
E8
330
1F
100
AcDbEntity
  8
SLD-0
  6
Continuous
 62
     7
370
    25
100
AcDbLine
 10
118.3891445853
 20
99.5541262456
 30
0.0
 11
118.2141445853
 21
99.5541262456
 31
0.0
  0
LINE
  5
E9
330
1F
100
AcDbEntity
  8
SLD-0
  6
Continuous
 62
     7
370
    25
100
AcDbLine
 10
111.9141445853
 20
95.0541262456
 30
0.0
 11
111.7391445853
 21
95.0541262456
 31
0.0
  0
LINE
  5
EA
330
1F
100
AcDbEntity
  8
SLD-0
  6
Continuous
 62
     7
370
    25
100
AcDbLine
 10
111.9141445853
 20
95.8041262456
 30
0.0
 11
111.7391445853
 21
95.8041262456
 31
0.0
  0
LINE
  5
EB
330
1F
100
AcDbEntity
  8
SLD-0
  6
Continuous
 62
     7
370
    25
100
AcDbLine
 10
110.8641445853
 20
95.0541262456
 30
0.0
 11
110.8641445853
 21
95.8041262456
 31
0.0
  0
LINE
  5
EC
330
1F
100
AcDbEntity
  8
SLD-0
  6
Continuous
 62
     7
370
    25
100
AcDbLine
 10
111.4391445853
 20
95.0541262456
 30
0.0
 11
110.8641445853
 21
95.0541262456
 31
0.0
  0
LINE
  5
ED
330
1F
100
AcDbEntity
  8
SLD-0
  6
Continuous
 62
     7
370
    25
100
AcDbLine
 10
111.4391445853
 20
95.8041262456
 30
0.0
 11
110.8641445853
 21
95.8041262456
 31
0.0
  0
LINE
  5
EE
330
1F
100
AcDbEntity
  8
SLD-0
  6
Continuous
 62
     7
370
    25
100
AcDbLine
 10
119.2641445853
 20
100.3041262456
 30
0.0
 11
119.2641445853
 21
99.5541262456
 31
0.0
  0
LINE
  5
EF
330
1F
100
AcDbEntity
  8
SLD-0
  6
Continuous
 62
     7
370
    25
100
AcDbLine
 10
119.2641445853
 20
100.3041262456
 30
0.0
 11
118.6891445853
 21
100.3041262456
 31
0.0
  0
LINE
  5
F0
330
1F
100
AcDbEntity
  8
SLD-0
  6
Continuous
 62
     7
370
    25
100
AcDbLine
 10
119.2641445853
 20
99.5541262456
 30
0.0
 11
118.6891445853
 21
99.5541262456
 31
0.0
  0
LINE
  5
F1
330
1F
100
AcDbEntity
  8
SLD-0
  6
Continuous
 62
     7
370
    25
100
AcDbLine
 10
119.2641445853
 20
95.0541262456
 30
0.0
 11
119.2641445853
 21
95.8041262456
 31
0.0
  0
LINE
  5
F2
330
1F
100
AcDbEntity
  8
SLD-0
  6
Continuous
 62
     7
370
    25
100
AcDbLine
 10
119.2641445853
 20
95.8041262456
 30
0.0
 11
118.6891445853
 21
95.8041262456
 31
0.0
  0
LINE
  5
F3
330
1F
100
AcDbEntity
  8
SLD-0
  6
Continuous
 62
     7
370
    25
100
AcDbLine
 10
119.2641445853
 20
95.0541262456
 30
0.0
 11
118.6891445853
 21
95.0541262456
 31
0.0
  0
LINE
  5
F4
330
1F
100
AcDbEntity
  8
SLD-0
  6
Continuous
 62
     7
370
    25
100
AcDbLine
 10
110.8641445853
 20
100.3041262456
 30
0.0
 11
110.8641445853
 21
99.5541262456
 31
0.0
  0
LINE
  5
F5
330
1F
100
AcDbEntity
  8
SLD-0
  6
Continuous
 62
     7
370
    25
100
AcDbLine
 10
111.4391445853
 20
99.5541262456
 30
0.0
 11
110.8641445853
 21
99.5541262456
 31
0.0
  0
LINE
  5
F6
330
1F
100
AcDbEntity
  8
SLD-0
  6
Continuous
 62
     7
370
    25
100
AcDbLine
 10
111.4391445853
 20
100.3041262456
 30
0.0
 11
110.8641445853
 21
100.3041262456
 31
0.0
  0
LINE
  5
F7
330
1F
100
AcDbEntity
  8
SLD-0
  6
Continuous
 62
     7
370
    25
100
AcDbLine
 10
132.9391243082
 20
112.1791262456
 30
0.0
 11
131.0641445853
 21
112.1791262456
 31
0.0
  0
LINE
  5
F8
330
1F
100
AcDbEntity
  8
SLD-0
  6
Continuous
 62
     7
370
    25
100
AcDbLine
 10
132.9391251858
 20
107.1791262456
 30
0.0
 11
131.0641445853
 21
107.1791262456
 31
0.0
  0
LINE
  5
F9
330
1F
100
AcDbEntity
  8
SLD-0
  6
HIDDEN
 62
     7
370
    18
100
AcDbLine
 10
116.9210326303
 20
110.0855262456
 30
0.0
 11
116.9210326303
 21
111.6603262456
 31
0.0
  0
LINE
  5
FA
330
1F
100
AcDbEntity
  8
SLD-0
  6
HIDDEN
 62
     7
370
    18
100
AcDbLine
 10
116.9210326303
 20
110.0855262456
 30
0.0
 11
116.8421445853
 21
110.0855262456
 31
0.0
  0
LINE
  5
FB
330
1F
100
AcDbEntity
  8
SLD-0
  6
HIDDEN
 62
     7
370
    18
100
AcDbLine
 10
116.8421445853
 20
111.6603262456
 30
0.0
 11
116.8421445853
 21
110.0855262456
 31
0.0
  0
LINE
  5
FC
330
1F
100
AcDbEntity
  8
SLD-0
  6
HIDDEN
 62
     7
370
    18
100
AcDbLine
 10
116.8421445853
 20
111.6603262456
 30
0.0
 11
116.9210326303
 21
111.6603262456
 31
0.0
  0
LINE
  5
FD
330
1F
100
AcDbEntity
  8
SLD-0
  6
HIDDEN
 62
     7
370
    18
100
AcDbLine
 10
113.2072565404
 20
109.2727262456
 30
0.0
 11
113.2072565404
 21
107.6979262456
 31
0.0
  0
LINE
  5
FE
330
1F
100
AcDbEntity
  8
SLD-0
  6
HIDDEN
 62
     7
370
    18
100
AcDbLine
 10
113.2072565404
 20
109.2727262456
 30
0.0
 11
113.2861445853
 21
109.2727262456
 31
0.0
  0
LINE
  5
FF
330
1F
100
AcDbEntity
  8
SLD-0
  6
HIDDEN
 62
     7
370
    18
100
AcDbLine
 10
113.2861445853
 20
107.6979262456
 30
0.0
 11
113.2861445853
 21
109.2727262456
 31
0.0
  0
LINE
  5
100
330
1F
100
AcDbEntity
  8
SLD-0
  6
HIDDEN
 62
     7
370
    18
100
AcDbLine
 10
113.2861445853
 20
107.6979262456
 30
0.0
 11
113.2072565404
 21
107.6979262456
 31
0.0
  0
LINE
  5
101
330
1F
100
AcDbEntity
  8
SLD-0
  6
HIDDEN
 62
     7
370
    18
100
AcDbLine
 10
116.8421445853
 20
109.2727262456
 30
0.0
 11
116.8421445853
 21
107.6979262456
 31
0.0
  0
LINE
  5
102
330
1F
100
AcDbEntity
  8
SLD-0
  6
HIDDEN
 62
     7
370
    18
100
AcDbLine
 10
116.9210326303
 20
107.6979262456
 30
0.0
 11
116.9210326303
 21
109.2727262456
 31
0.0
  0
LINE
  5
103
330
1F
100
AcDbEntity
  8
SLD-0
  6
HIDDEN
 62
     7
370
    18
100
AcDbLine
 10
116.9210326303
 20
107.6979262456
 30
0.0
 11
116.8421445853
 21
107.6979262456
 31
0.0
  0
LINE
  5
104
330
1F
100
AcDbEntity
  8
SLD-0
  6
HIDDEN
 62
     7
370
    18
100
AcDbLine
 10
116.8421445853
 20
109.2727262456
 30
0.0
 11
116.9210326303
 21
109.2727262456
 31
0.0
  0
LINE
  5
105
330
1F
100
AcDbEntity
  8
SLD-0
  6
HIDDEN
 62
     7
370
    18
100
AcDbLine
 10
113.2072565404
 20
111.6603262456
 30
0.0
 11
113.2861445853
 21
111.6603262456
 31
0.0
  0
LINE
  5
106
330
1F
100
AcDbEntity
  8
SLD-0
  6
HIDDEN
 62
     7
370
    18
100
AcDbLine
 10
113.2861445853
 20
110.0855262456
 30
0.0
 11
113.2861445853
 21
111.6603262456
 31
0.0
  0
LINE
  5
107
330
1F
100
AcDbEntity
  8
SLD-0
  6
HIDDEN
 62
     7
370
    18
100
AcDbLine
 10
113.2072565404
 20
111.6603262456
 30
0.0
 11
113.2072565404
 21
110.0855262456
 31
0.0
  0
LINE
  5
108
330
1F
100
AcDbEntity
  8
SLD-0
  6
HIDDEN
 62
     7
370
    18
100
AcDbLine
 10
113.2861445853
 20
110.0855262456
 30
0.0
 11
113.2072565404
 21
110.0855262456
 31
0.0
  0
LINE
  5
109
330
1F
100
AcDbEntity
  8
SLD-0
  6
HIDDEN
 62
     7
370
    18
100
AcDbLine
 10
113.2861445853
 20
107.6979262456
 30
0.0
 11
116.8421445853
 21
107.6979262456
 31
0.0
  0
LINE
  5
10A
330
1F
100
AcDbEntity
  8
SLD-0
  6
HIDDEN
 62
     7
370
    18
100
AcDbLine
 10
113.2861445853
 20
110.0855262456
 30
0.0
 11
113.2861445853
 21
109.2727262456
 31
0.0
  0
LINE
  5
10B
330
1F
100
AcDbEntity
  8
SLD-0
  6
HIDDEN
 62
     7
370
    18
100
AcDbLine
 10
113.2861445853
 20
111.6603262456
 30
0.0
 11
116.8421445853
 21
111.6603262456
 31
0.0
  0
LINE
  5
10C
330
1F
100
AcDbEntity
  8
SLD-0
  6
HIDDEN
 62
     7
370
    18
100
AcDbLine
 10
116.8421445853
 20
109.2727262456
 30
0.0
 11
116.8421445853
 21
110.0855262456
 31
0.0
  0
LINE
  5
10D
330
1F
100
AcDbEntity
  8
SLD-0
  6
HIDDEN
 62
     7
370
    18
100
AcDbLine
 10
113.2072565404
 20
109.2727262456
 30
0.0
 11
110.9010122821
 21
109.2727262456
 31
0.0
  0
LINE
  5
10E
330
1F
100
AcDbEntity
  8
SLD-0
  6
HIDDEN
 62
     7
370
    18
100
AcDbLine
 10
113.2072565404
 20
107.6979262456
 30
0.0
 11
110.9010122821
 21
107.6979262456
 31
0.0
  0
LINE
  5
10F
330
1F
100
AcDbEntity
  8
SLD-0
  6
HIDDEN
 62
     7
370
    18
100
AcDbLine
 10
116.9210326303
 20
110.0855262456
 30
0.0
 11
119.2272768886
 21
110.0855262456
 31
0.0
  0
LINE
  5
110
330
1F
100
AcDbEntity
  8
SLD-0
  6
HIDDEN
 62
     7
370
    18
100
AcDbLine
 10
116.9210326303
 20
111.6603262456
 30
0.0
 11
119.2272768886
 21
111.6603262456
 31
0.0
  0
LINE
  5
111
330
1F
100
AcDbEntity
  8
SLD-0
  6
HIDDEN
 62
     7
370
    18
100
AcDbLine
 10
119.2272768885
 20
107.6979262456
 30
0.0
 11
116.9210326303
 21
107.6979262456
 31
0.0
  0
LINE
  5
112
330
1F
100
AcDbEntity
  8
SLD-0
  6
HIDDEN
 62
     7
370
    18
100
AcDbLine
 10
116.9210326303
 20
109.2727262456
 30
0.0
 11
119.2272768885
 21
109.2727262456
 31
0.0
  0
LINE
  5
113
330
1F
100
AcDbEntity
  8
SLD-0
  6
HIDDEN
 62
     7
370
    18
100
AcDbLine
 10
110.9010122821
 20
111.6603262456
 30
0.0
 11
113.2072565404
 21
111.6603262456
 31
0.0
  0
LINE
  5
114
330
1F
100
AcDbEntity
  8
SLD-0
  6
HIDDEN
 62
     7
370
    18
100
AcDbLine
 10
113.2072565404
 20
110.0855262456
 30
0.0
 11
110.9010122821
 21
110.0855262456
 31
0.0
  0
LINE
  5
115
330
1F
100
AcDbEntity
  8
SLD-0
  6
HIDDEN
 62
     7
370
    18
100
AcDbLine
 10
116.8815886078
 20
109.2727262456
 30
0.0
 11
116.8815886078
 21
107.6979262456
 31
0.0
  0
LINE
  5
116
330
1F
100
AcDbEntity
  8
SLD-0
  6
HIDDEN
 62
     7
370
    18
100
AcDbLine
 10
113.2467005629
 20
110.0855262456
 30
0.0
 11
113.2467005629
 21
111.6603262456
 31
0.0
  0
LINE
  5
117
330
1F
100
AcDbEntity
  8
SLD-0
  6
HIDDEN
 62
     7
370
    18
100
AcDbLine
 10
113.2467005629
 20
107.6979262456
 30
0.0
 11
113.2467005629
 21
109.2727262456
 31
0.0
  0
LINE
  5
118
330
1F
100
AcDbEntity
  8
SLD-0
  6
HIDDEN
 62
     7
370
    18
100
AcDbLine
 10
116.8815886078
 20
111.6603262456
 30
0.0
 11
116.8815886078
 21
110.0855262456
 31
0.0
  0
LINE
  5
119
330
1F
100
AcDbEntity
  8
SLD-0
  6
HIDDEN
 62
     7
370
    18
100
AcDbLine
 10
118.8556685081
 20
108.4853262456
 30
0.0
 11
118.6916061816
 21
108.4853262456
 31
0.0
  0
LINE
  5
11A
330
1F
100
AcDbEntity
  8
SLD-0
  6
HIDDEN
 62
     7
370
    18
100
AcDbLine
 10
119.5718152997
 20
108.4853262456
 30
0.0
 11
119.780149305
 21
108.4853262456
 31
0.0
  0
LINE
  5
11B
330
1F
100
AcDbEntity
  8
SLD-0
  6
HIDDEN
 62
     7
370
    18
100
AcDbLine
 10
110.5564738709
 20
110.8729262456
 30
0.0
 11
110.3481398656
 21
110.8729262456
 31
0.0
  0
LINE
  5
11C
330
1F
100
AcDbEntity
  8
SLD-0
  6
HIDDEN
 62
     7
370
    18
100
AcDbLine
 10
111.2726206625
 20
110.8729262456
 30
0.0
 11
111.436682989
 21
110.8729262456
 31
0.0
  0
LINE
  5
11D
330
1F
100
AcDbEntity
  8
SLD-0
  6
HIDDEN
 62
     7
370
    18
100
AcDbLine
 10
119.5718152998
 20
110.8729262456
 30
0.0
 11
119.7801493049
 21
110.8729262456
 31
0.0
  0
LINE
  5
11E
330
1F
100
AcDbEntity
  8
SLD-0
  6
HIDDEN
 62
     7
370
    18
100
AcDbLine
 10
118.8556685081
 20
110.8729262456
 30
0.0
 11
118.6916061816
 21
110.8729262456
 31
0.0
  0
LINE
  5
11F
330
1F
100
AcDbEntity
  8
SLD-0
  6
HIDDEN
 62
     7
370
    18
100
AcDbLine
 10
111.2726206626
 20
108.4853262455
 30
0.0
 11
111.436682989
 21
108.4853262455
 31
0.0
  0
LINE
  5
120
330
1F
100
AcDbEntity
  8
SLD-0
  6
HIDDEN
 62
     7
370
    18
100
AcDbLine
 10
110.5564738709
 20
108.4853262455
 30
0.0
 11
110.3481398656
 21
108.4853262455
 31
0.0
  0
LINE
  5
121
330
1F
100
AcDbEntity
  8
SLD-0
  6
HIDDEN
 62
     7
370
    18
100
AcDbLine
 10
118.720058722
 20
110.8729262456
 30
0.0
 11
118.6521621591
 21
110.8729262456
 31
0.0
  0
LINE
  5
122
330
1F
100
AcDbEntity
  8
SLD-0
  6
HIDDEN
 62
     7
370
    18
100
AcDbLine
 10
119.6544870557
 20
110.8729262456
 30
0.0
 11
119.7407052825
 21
110.8729262456
 31
0.0
  0
LINE
  5
123
330
1F
100
AcDbEntity
  8
SLD-0
  6
HIDDEN
 62
     7
370
    18
100
AcDbLine
 10
110.4738021149
 20
108.4853262455
 30
0.0
 11
110.3875838881
 21
108.4853262455
 31
0.0
  0
LINE
  5
124
330
1F
100
AcDbEntity
  8
SLD-0
  6
HIDDEN
 62
     7
370
    18
100
AcDbLine
 10
111.4082304487
 20
108.4853262455
 30
0.0
 11
111.4761270115
 21
108.4853262455
 31
0.0
  0
LINE
  5
125
330
1F
100
AcDbEntity
  8
SLD-0
  6
HIDDEN
 62
     7
370
    18
100
AcDbLine
 10
119.6544870557
 20
108.4853262456
 30
0.0
 11
119.7407052825
 21
108.4853262456
 31
0.0
  0
LINE
  5
126
330
1F
100
AcDbEntity
  8
SLD-0
  6
HIDDEN
 62
     7
370
    18
100
AcDbLine
 10
118.720058722
 20
108.4853262456
 30
0.0
 11
118.6521621591
 21
108.4853262456
 31
0.0
  0
LINE
  5
127
330
1F
100
AcDbEntity
  8
SLD-0
  6
HIDDEN
 62
     7
370
    18
100
AcDbLine
 10
111.4082304487
 20
110.8729262456
 30
0.0
 11
111.4761270115
 21
110.8729262456
 31
0.0
  0
LINE
  5
128
330
1F
100
AcDbEntity
  8
SLD-0
  6
HIDDEN
 62
     7
370
    18
100
AcDbLine
 10
110.4738021149
 20
110.8729262456
 30
0.0
 11
110.3875838881
 21
110.8729262456
 31
0.0
  0
LINE
  5
129
330
1F
100
AcDbEntity
  8
SLD-0
  6
HIDDEN
 62
     7
370
    18
100
AcDbLine
 10
116.8141445853
 20
123.2791262456
 30
0.0
 11
116.8141445853
 21
122.9791262456
 31
0.0
  0
LINE
  5
12A
330
1F
100
AcDbEntity
  8
SLD-0
  6
HIDDEN
 62
     7
370
    18
100
AcDbLine
 10
113.3141445853
 20
122.9791262456
 30
0.0
 11
116.8141445853
 21
122.9791262456
 31
0.0
  0
LINE
  5
12B
330
1F
100
AcDbEntity
  8
SLD-0
  6
HIDDEN
 62
     7
370
    18
100
AcDbLine
 10
113.3141445853
 20
122.9791262456
 30
0.0
 11
113.3141445853
 21
123.2791262456
 31
0.0
  0
LINE
  5
12C
330
1F
100
AcDbEntity
  8
SLD-0
  6
HIDDEN
 62
     7
370
    18
100
AcDbLine
 10
116.8141445853
 20
123.2791262456
 30
0.0
 11
113.3141445853
 21
123.2791262456
 31
0.0
  0
LINE
  5
12D
330
1F
100
AcDbEntity
  8
SLD-0
  6
HIDDEN
 62
     7
370
    18
100
AcDbLine
 10
116.8141445853
 20
126.4791262456
 30
0.0
 11
113.3141445853
 21
126.4791262456
 31
0.0
  0
LINE
  5
12E
330
1F
100
AcDbEntity
  8
SLD-0
  6
HIDDEN
 62
     7
370
    18
100
AcDbLine
 10
113.3141445853
 20
126.4791262456
 30
0.0
 11
113.3141445853
 21
123.2791262456
 31
0.0
  0
LINE
  5
12F
330
1F
100
AcDbEntity
  8
SLD-0
  6
HIDDEN
 62
     7
370
    18
100
AcDbLine
 10
116.8141445853
 20
123.2791262456
 30
0.0
 11
116.8141445853
 21
126.4791262456
 31
0.0
  0
LINE
  5
130
330
1F
100
AcDbEntity
  8
SLD-0
  6
HIDDEN
 62
     7
370
    18
100
AcDbLine
 10
116.8141445853
 20
123.1291262456
 30
0.0
 11
113.3141445853
 21
123.1291262456
 31
0.0
  0
LINE
  5
131
330
1F
100
AcDbEntity
  8
SLD-0
  6
HIDDEN
 62
     7
370
    18
100
AcDbLine
 10
115.5641445853
 20
121.2327481743
 30
0.0
 11
115.5641445853
 21
121.3766046431
 31
0.0
  0
LINE
  5
132
330
1F
100
AcDbEntity
  8
SLD-0
  6
HIDDEN
 62
     7
370
    18
100
AcDbLine
 10
115.9441445853
 20
121.2509820011
 30
0.0
 11
115.9441445853
 21
121.3906306637
 31
0.0
  0
LINE
  5
133
330
1F
100
AcDbEntity
  8
SLD-0
  6
HIDDEN
 62
     7
370
    18
100
AcDbLine
 10
116.4341445853
 20
121.2509820011
 30
0.0
 11
115.9441445853
 21
121.2509820011
 31
0.0
  0
LINE
  5
134
330
1F
100
AcDbEntity
  8
SLD-0
  6
HIDDEN
 62
     7
370
    18
100
AcDbLine
 10
116.8141445853
 20
121.2327481743
 30
0.0
 11
116.7421037653
 21
121.2061262097
 31
0.0
  0
LINE
  5
135
330
1F
100
AcDbEntity
  8
SLD-0
  6
HIDDEN
 62
     7
370
    18
100
AcDbLine
 10
115.9441445853
 20
121.3906306637
 30
0.0
 11
116.4341445853
 21
121.3906306637
 31
0.0
  0
LINE
  5
136
330
1F
100
AcDbEntity
  8
SLD-0
  6
HIDDEN
 62
     7
370
    18
100
AcDbLine
 10
116.4341445853
 20
121.3906306637
 30
0.0
 11
116.4341445853
 21
121.2509820011
 31
0.0
  0
LINE
  5
137
330
1F
100
AcDbEntity
  8
SLD-0
  6
HIDDEN
 62
     7
370
    18
100
AcDbLine
 10
114.1841445853
 20
121.2509820012
 30
0.0
 11
113.6941445853
 21
121.2509820012
 31
0.0
  0
LINE
  5
138
330
1F
100
AcDbEntity
  8
SLD-0
  6
HIDDEN
 62
     7
370
    18
100
AcDbLine
 10
114.5641445853
 20
121.2327481743
 30
0.0
 11
114.4921037653
 21
121.2061262098
 31
0.0
  0
LINE
  5
139
330
1F
100
AcDbEntity
  8
SLD-0
  6
HIDDEN
 62
     7
370
    18
100
AcDbLine
 10
113.6941445853
 20
121.2509820012
 30
0.0
 11
113.6941445853
 21
121.3906306637
 31
0.0
  0
LINE
  5
13A
330
1F
100
AcDbEntity
  8
SLD-0
  6
HIDDEN
 62
     7
370
    18
100
AcDbLine
 10
113.6941445853
 20
121.3906306637
 30
0.0
 11
114.1841445853
 21
121.3906306637
 31
0.0
  0
LINE
  5
13B
330
1F
100
AcDbEntity
  8
SLD-0
  6
HIDDEN
 62
     7
370
    18
100
AcDbLine
 10
114.1841445853
 20
121.3906306637
 30
0.0
 11
114.1841445853
 21
121.2509820012
 31
0.0
  0
LINE
  5
13C
330
1F
100
AcDbEntity
  8
SLD-0
  6
HIDDEN
 62
     7
370
    18
100
AcDbLine
 10
113.3141445853
 20
121.2327481743
 30
0.0
 11
113.3141445853
 21
121.3766046431
 31
0.0
  0
LINE
  5
13D
330
1F
100
AcDbEntity
  8
SLD-0
  6
HIDDEN
 62
     7
370
    18
100
AcDbLine
 10
114.4919042959
 20
121.3561262056
 30
0.0
 11
114.5641445853
 21
121.376604643
 31
0.0
  0
LINE
  5
13E
330
1F
100
AcDbEntity
  8
SLD-0
  6
HIDDEN
 62
     7
370
    18
100
AcDbLine
 10
114.5641445853
 20
121.376604643
 30
0.0
 11
114.5641445853
 21
121.2327481743
 31
0.0
  0
LINE
  5
13F
330
1F
100
AcDbEntity
  8
SLD-0
  6
HIDDEN
 62
     7
370
    18
100
AcDbLine
 10
116.7419042958
 20
121.3561262056
 30
0.0
 11
116.8141445853
 21
121.376604643
 31
0.0
  0
LINE
  5
140
330
1F
100
AcDbEntity
  8
SLD-0
  6
HIDDEN
 62
     7
370
    18
100
AcDbLine
 10
116.8141445853
 20
121.376604643
 30
0.0
 11
116.8141445853
 21
121.2327481743
 31
0.0
  0
LINE
  5
141
330
1F
100
AcDbEntity
  8
SLD-0
  6
HIDDEN
 62
     7
370
    18
100
AcDbLine
 10
115.5641445853
 20
121.3766046431
 30
0.0
 11
115.5641445853
 21
121.3906306637
 31
0.0
  0
LINE
  5
142
330
1F
100
AcDbEntity
  8
SLD-0
  6
HIDDEN
 62
     7
370
    18
100
AcDbLine
 10
116.8141445853
 20
121.3906306637
 30
0.0
 11
116.8141445853
 21
121.376604643
 31
0.0
  0
LINE
  5
143
330
1F
100
AcDbEntity
  8
SLD-0
  6
HIDDEN
 62
     7
370
    18
100
AcDbLine
 10
114.5641445853
 20
121.3906306637
 30
0.0
 11
114.5641445853
 21
121.376604643
 31
0.0
  0
LINE
  5
144
330
1F
100
AcDbEntity
  8
SLD-0
  6
HIDDEN
 62
     7
370
    18
100
AcDbLine
 10
113.3141445853
 20
121.3766046431
 30
0.0
 11
113.3141445853
 21
121.3906306637
 31
0.0
  0
LINE
  5
145
330
1F
100
AcDbEntity
  8
SLD-0
  6
HIDDEN
 62
     7
370
    18
100
AcDbLine
 10
114.5641445853
 20
121.7265679716
 30
0.0
 11
114.5843980985
 21
121.7779900681
 31
0.0
  0
LINE
  5
146
330
1F
100
AcDbEntity
  8
SLD-0
  6
HIDDEN
 62
     7
370
    18
100
AcDbLine
 10
114.5843980985
 20
121.7779900681
 30
0.0
 11
114.6435178189
 21
121.8252462522
 31
0.0
  0
LINE
  5
147
330
1F
100
AcDbEntity
  8
SLD-0
  6
HIDDEN
 62
     7
370
    18
100
AcDbLine
 10
114.6435178189
 20
121.8252462522
 30
0.0
 11
114.7367142184
 21
121.8645081088
 31
0.0
  0
LINE
  5
148
330
1F
100
AcDbEntity
  8
SLD-0
  6
HIDDEN
 62
     7
370
    18
100
AcDbLine
 10
114.7367142184
 20
121.8645081088
 30
0.0
 11
114.8564370788
 21
121.8925948759
 31
0.0
  0
LINE
  5
149
330
1F
100
AcDbEntity
  8
SLD-0
  6
HIDDEN
 62
     7
370
    18
100
AcDbLine
 10
114.8564370788
 20
121.8925948759
 30
0.0
 11
114.9929871662
 21
121.9072311306
 31
0.0
  0
LINE
  5
14A
330
1F
100
AcDbEntity
  8
SLD-0
  6
HIDDEN
 62
     7
370
    18
100
AcDbLine
 10
114.9929871662
 20
121.9072311306
 30
0.0
 11
115.1353020045
 21
121.9072311306
 31
0.0
  0
LINE
  5
14B
330
1F
100
AcDbEntity
  8
SLD-0
  6
HIDDEN
 62
     7
370
    18
100
AcDbLine
 10
115.1353020045
 20
121.9072311306
 30
0.0
 11
115.2718520918
 21
121.8925948759
 31
0.0
  0
LINE
  5
14C
330
1F
100
AcDbEntity
  8
SLD-0
  6
HIDDEN
 62
     7
370
    18
100
AcDbLine
 10
115.2718520918
 20
121.8925948759
 30
0.0
 11
115.3915749523
 21
121.8645081088
 31
0.0
  0
LINE
  5
14D
330
1F
100
AcDbEntity
  8
SLD-0
  6
HIDDEN
 62
     7
370
    18
100
AcDbLine
 10
115.3915749523
 20
121.8645081088
 30
0.0
 11
115.4847713517
 21
121.8252462522
 31
0.0
  0
LINE
  5
14E
330
1F
100
AcDbEntity
  8
SLD-0
  6
HIDDEN
 62
     7
370
    18
100
AcDbLine
 10
115.4847713517
 20
121.8252462522
 30
0.0
 11
115.5438910721
 21
121.7779900681
 31
0.0
  0
LINE
  5
14F
330
1F
100
AcDbEntity
  8
SLD-0
  6
HIDDEN
 62
     7
370
    18
100
AcDbLine
 10
115.5438910721
 20
121.7779900681
 30
0.0
 11
115.5641445853
 21
121.7265679716
 31
0.0
  0
LINE
  5
150
330
1F
100
AcDbEntity
  8
SLD-0
  6
HIDDEN
 62
     7
370
    18
100
AcDbLine
 10
113.3141445853
 20
122.0136307037
 30
0.0
 11
116.8141445853
 21
122.0136307037
 31
0.0
  0
LINE
  5
151
330
1F
100
AcDbEntity
  8
SLD-0
  6
HIDDEN
 62
     7
370
    18
100
AcDbLine
 10
115.5641445853
 20
121.3906306637
 30
0.0
 11
115.5641445853
 21
121.7265679716
 31
0.0
  0
LINE
  5
152
330
1F
100
AcDbEntity
  8
SLD-0
  6
HIDDEN
 62
     7
370
    18
100
AcDbLine
 10
114.5641445853
 20
121.7265679716
 30
0.0
 11
114.5641445853
 21
121.3906306637
 31
0.0
  0
LINE
  5
153
330
1F
100
AcDbEntity
  8
SLD-0
  6
HIDDEN
 62
     7
370
    18
100
AcDbLine
 10
113.3141445853
 20
121.3906306637
 30
0.0
 11
113.3141445853
 21
122.0136307037
 31
0.0
  0
LINE
  5
154
330
1F
100
AcDbEntity
  8
SLD-0
  6
HIDDEN
 62
     7
370
    18
100
AcDbLine
 10
116.8141445853
 20
122.0136307037
 30
0.0
 11
116.8141445853
 21
121.3906306637
 31
0.0
  0
LINE
  5
155
330
1F
100
AcDbEntity
  8
SLD-0
  6
HIDDEN
 62
     7
370
    18
100
AcDbLine
 10
115.5641445853
 20
121.586919309
 30
0.0
 11
115.5438910721
 21
121.6383414056
 31
0.0
  0
LINE
  5
156
330
1F
100
AcDbEntity
  8
SLD-0
  6
HIDDEN
 62
     7
370
    18
100
AcDbLine
 10
115.5438910721
 20
121.6383414056
 30
0.0
 11
115.4847713517
 21
121.6855975896
 31
0.0
  0
LINE
  5
157
330
1F
100
AcDbEntity
  8
SLD-0
  6
HIDDEN
 62
     7
370
    18
100
AcDbLine
 10
115.4847713517
 20
121.6855975896
 30
0.0
 11
115.3915749523
 21
121.7248594463
 31
0.0
  0
LINE
  5
158
330
1F
100
AcDbEntity
  8
SLD-0
  6
HIDDEN
 62
     7
370
    18
100
AcDbLine
 10
115.3915749523
 20
121.7248594463
 30
0.0
 11
115.2718520918
 21
121.7529462133
 31
0.0
  0
LINE
  5
159
330
1F
100
AcDbEntity
  8
SLD-0
  6
HIDDEN
 62
     7
370
    18
100
AcDbLine
 10
115.2718520918
 20
121.7529462133
 30
0.0
 11
115.1353020045
 21
121.767582468
 31
0.0
  0
LINE
  5
15A
330
1F
100
AcDbEntity
  8
SLD-0
  6
HIDDEN
 62
     7
370
    18
100
AcDbLine
 10
115.1353020045
 20
121.767582468
 30
0.0
 11
114.9929871662
 21
121.767582468
 31
0.0
  0
LINE
  5
15B
330
1F
100
AcDbEntity
  8
SLD-0
  6
HIDDEN
 62
     7
370
    18
100
AcDbLine
 10
114.9929871662
 20
121.767582468
 30
0.0
 11
114.8564370788
 21
121.7529462133
 31
0.0
  0
LINE
  5
15C
330
1F
100
AcDbEntity
  8
SLD-0
  6
HIDDEN
 62
     7
370
    18
100
AcDbLine
 10
114.8564370788
 20
121.7529462133
 30
0.0
 11
114.7367142184
 21
121.7248594463
 31
0.0
  0
LINE
  5
15D
330
1F
100
AcDbEntity
  8
SLD-0
  6
HIDDEN
 62
     7
370
    18
100
AcDbLine
 10
114.7367142184
 20
121.7248594463
 30
0.0
 11
114.6435178189
 21
121.6855975896
 31
0.0
  0
LINE
  5
15E
330
1F
100
AcDbEntity
  8
SLD-0
  6
HIDDEN
 62
     7
370
    18
100
AcDbLine
 10
114.6435178189
 20
121.6855975896
 30
0.0
 11
114.5843980985
 21
121.6383414056
 31
0.0
  0
LINE
  5
15F
330
1F
100
AcDbEntity
  8
SLD-0
  6
HIDDEN
 62
     7
370
    18
100
AcDbLine
 10
114.5843980985
 20
121.6383414056
 30
0.0
 11
114.5641445853
 21
121.586919309
 31
0.0
  0
LINE
  5
160
330
1F
100
AcDbEntity
  8
SLD-0
  6
HIDDEN
 62
     7
370
    18
100
AcDbLine
 10
116.8141445853
 20
121.8739820412
 30
0.0
 11
113.3141445853
 21
121.8739820412
 31
0.0
  0
LINE
  5
161
330
1F
100
AcDbEntity
  8
SLD-0
  6
HIDDEN
 62
     7
370
    18
100
AcDbLine
 10
113.3141445853
 20
122.0136307037
 30
0.0
 11
113.3141445853
 21
122.9791262456
 31
0.0
  0
LINE
  5
162
330
1F
100
AcDbEntity
  8
SLD-0
  6
HIDDEN
 62
     7
370
    18
100
AcDbLine
 10
116.8141445853
 20
122.9791262456
 30
0.0
 11
116.8141445853
 21
122.0136307037
 31
0.0
  0
LINE
  5
163
330
1F
100
AcDbEntity
  8
SLD-0
  6
HIDDEN
 62
     7
370
    18
100
AcDbLine
 10
100.9141445853
 20
125.3291262456
 30
0.0
 11
100.2141445853
 21
125.3291262456
 31
0.0
  0
LINE
  5
164
330
1F
100
AcDbEntity
  8
SLD-0
  6
HIDDEN
 62
     7
370
    18
100
AcDbLine
 10
100.2141445853
 20
125.9291262456
 30
0.0
 11
100.2141445853
 21
125.3291262456
 31
0.0
  0
LINE
  5
165
330
1F
100
AcDbEntity
  8
SLD-0
  6
HIDDEN
 62
     7
370
    18
100
AcDbLine
 10
100.9141445853
 20
125.9291262456
 30
0.0
 11
100.2141445853
 21
125.9291262456
 31
0.0
  0
LINE
  5
166
330
1F
100
AcDbEntity
  8
SLD-0
  6
HIDDEN
 62
     7
370
    18
100
AcDbLine
 10
100.9141445853
 20
125.9291262456
 30
0.0
 11
100.9141445853
 21
125.3291262456
 31
0.0
  0
LINE
  5
167
330
1F
100
AcDbEntity
  8
SLD-0
  6
HIDDEN
 62
     7
370
    18
100
AcDbLine
 10
100.9141445853
 20
120.3291262456
 30
0.0
 11
100.2141445853
 21
120.3291262456
 31
0.0
  0
LINE
  5
168
330
1F
100
AcDbEntity
  8
SLD-0
  6
HIDDEN
 62
     7
370
    18
100
AcDbLine
 10
100.9141445853
 20
120.0291262456
 30
0.0
 11
100.2141445853
 21
120.0291262456
 31
0.0
  0
LINE
  5
169
330
1F
100
AcDbEntity
  8
SLD-0
  6
HIDDEN
 62
     7
370
    18
100
AcDbLine
 10
100.9141445853
 20
120.3291262456
 30
0.0
 11
100.9141445853
 21
120.0291262456
 31
0.0
  0
LINE
  5
16A
330
1F
100
AcDbEntity
  8
SLD-0
  6
HIDDEN
 62
     7
370
    18
100
AcDbLine
 10
100.2141445853
 20
120.0291262456
 30
0.0
 11
100.2141445853
 21
120.3291262456
 31
0.0
  0
LINE
  5
16B
330
1F
100
AcDbEntity
  8
SLD-0
  6
HIDDEN
 62
     7
370
    18
100
AcDbLine
 10
100.9141445853
 20
125.0291262456
 30
0.0
 11
100.2141445853
 21
125.0291262456
 31
0.0
  0
LINE
  5
16C
330
1F
100
AcDbEntity
  8
SLD-0
  6
HIDDEN
 62
     7
370
    18
100
AcDbLine
 10
100.2141445853
 20
125.0291262456
 30
0.0
 11
100.2141445853
 21
125.3291262456
 31
0.0
  0
LINE
  5
16D
330
1F
100
AcDbEntity
  8
SLD-0
  6
HIDDEN
 62
     7
370
    18
100
AcDbLine
 10
100.9141445853
 20
125.3291262456
 30
0.0
 11
100.9141445853
 21
125.0291262456
 31
0.0
  0
LINE
  5
16E
330
1F
100
AcDbEntity
  8
SLD-0
  6
HIDDEN
 62
     7
370
    18
100
AcDbLine
 10
103.9141445853
 20
120.0291262456
 30
0.0
 11
103.2141445853
 21
120.0291262456
 31
0.0
  0
LINE
  5
16F
330
1F
100
AcDbEntity
  8
SLD-0
  6
HIDDEN
 62
     7
370
    18
100
AcDbLine
 10
103.9141445853
 20
120.0291262456
 30
0.0
 11
103.9141445853
 21
119.4291262456
 31
0.0
  0
LINE
  5
170
330
1F
100
AcDbEntity
  8
SLD-0
  6
HIDDEN
 62
     7
370
    18
100
AcDbLine
 10
103.2141445853
 20
120.0291262456
 30
0.0
 11
103.2141445853
 21
119.4291262456
 31
0.0
  0
LINE
  5
171
330
1F
100
AcDbEntity
  8
SLD-0
  6
HIDDEN
 62
     7
370
    18
100
AcDbLine
 10
103.2141445853
 20
119.4291262456
 30
0.0
 11
103.9141445853
 21
119.4291262456
 31
0.0
  0
LINE
  5
172
330
1F
100
AcDbEntity
  8
SLD-0
  6
HIDDEN
 62
     7
370
    18
100
AcDbLine
 10
100.9141445853
 20
119.4291262456
 30
0.0
 11
100.2141445853
 21
119.4291262456
 31
0.0
  0
LINE
  5
173
330
1F
100
AcDbEntity
  8
SLD-0
  6
HIDDEN
 62
     7
370
    18
100
AcDbLine
 10
100.9141445853
 20
120.0291262456
 30
0.0
 11
100.9141445853
 21
119.4291262456
 31
0.0
  0
LINE
  5
174
330
1F
100
AcDbEntity
  8
SLD-0
  6
HIDDEN
 62
     7
370
    18
100
AcDbLine
 10
100.2141445853
 20
120.0291262456
 30
0.0
 11
100.2141445853
 21
119.4291262456
 31
0.0
  0
LINE
  5
175
330
1F
100
AcDbEntity
  8
SLD-0
  6
HIDDEN
 62
     7
370
    18
100
AcDbLine
 10
99.8141445853
 20
120.4291262456
 30
0.0
 11
99.8141445853
 21
124.9291262456
 31
0.0
  0
LINE
  5
176
330
1F
100
AcDbEntity
  8
SLD-0
  6
HIDDEN
 62
     7
370
    18
100
AcDbLine
 10
99.8141445853
 20
124.9291262456
 30
0.0
 11
104.3141445853
 21
124.9291262456
 31
0.0
  0
LINE
  5
177
330
1F
100
AcDbEntity
  8
SLD-0
  6
HIDDEN
 62
     7
370
    18
100
AcDbLine
 10
104.3141445853
 20
120.4291262456
 30
0.0
 11
99.8141445853
 21
120.4291262456
 31
0.0
  0
LINE
  5
178
330
1F
100
AcDbEntity
  8
SLD-0
  6
HIDDEN
 62
     7
370
    18
100
AcDbLine
 10
104.3141445853
 20
124.9291262456
 30
0.0
 11
104.3141445853
 21
120.4291262456
 31
0.0
  0
LINE
  5
179
330
1F
100
AcDbEntity
  8
SLD-0
  6
HIDDEN
 62
     7
370
    18
100
AcDbLine
 10
103.9141445853
 20
125.3291262456
 30
0.0
 11
103.2141445853
 21
125.3291262456
 31
0.0
  0
LINE
  5
17A
330
1F
100
AcDbEntity
  8
SLD-0
  6
HIDDEN
 62
     7
370
    18
100
AcDbLine
 10
103.2141445853
 20
125.9291262456
 30
0.0
 11
103.9141445853
 21
125.9291262456
 31
0.0
  0
LINE
  5
17B
330
1F
100
AcDbEntity
  8
SLD-0
  6
HIDDEN
 62
     7
370
    18
100
AcDbLine
 10
103.2141445853
 20
125.9291262456
 30
0.0
 11
103.2141445853
 21
125.3291262456
 31
0.0
  0
LINE
  5
17C
330
1F
100
AcDbEntity
  8
SLD-0
  6
HIDDEN
 62
     7
370
    18
100
AcDbLine
 10
103.9141445853
 20
125.9291262456
 30
0.0
 11
103.9141445853
 21
125.3291262456
 31
0.0
  0
LINE
  5
17D
330
1F
100
AcDbEntity
  8
SLD-0
  6
HIDDEN
 62
     7
370
    18
100
AcDbLine
 10
103.9141445853
 20
120.3291262456
 30
0.0
 11
103.2141445853
 21
120.3291262456
 31
0.0
  0
LINE
  5
17E
330
1F
100
AcDbEntity
  8
SLD-0
  6
HIDDEN
 62
     7
370
    18
100
AcDbLine
 10
103.9141445853
 20
120.3291262456
 30
0.0
 11
103.9141445853
 21
120.0291262456
 31
0.0
  0
LINE
  5
17F
330
1F
100
AcDbEntity
  8
SLD-0
  6
HIDDEN
 62
     7
370
    18
100
AcDbLine
 10
103.2141445853
 20
120.0291262456
 30
0.0
 11
103.2141445853
 21
120.3291262456
 31
0.0
  0
LINE
  5
180
330
1F
100
AcDbEntity
  8
SLD-0
  6
HIDDEN
 62
     7
370
    18
100
AcDbLine
 10
103.9141445853
 20
125.0291262456
 30
0.0
 11
103.2141445853
 21
125.0291262456
 31
0.0
  0
LINE
  5
181
330
1F
100
AcDbEntity
  8
SLD-0
  6
HIDDEN
 62
     7
370
    18
100
AcDbLine
 10
103.2141445853
 20
125.0291262456
 30
0.0
 11
103.2141445853
 21
125.3291262456
 31
0.0
  0
LINE
  5
182
330
1F
100
AcDbEntity
  8
SLD-0
  6
HIDDEN
 62
     7
370
    18
100
AcDbLine
 10
103.9141445853
 20
125.3291262456
 30
0.0
 11
103.9141445853
 21
125.0291262456
 31
0.0
  0
LINE
  5
183
330
1F
100
AcDbEntity
  8
SLD-0
  6
HIDDEN
 62
     7
370
    18
100
AcDbLine
 10
103.2141445853
 20
125.0291262456
 30
0.0
 11
103.2141445853
 21
124.9291262456
 31
0.0
  0
LINE
  5
184
330
1F
100
AcDbEntity
  8
SLD-0
  6
HIDDEN
 62
     7
370
    18
100
AcDbLine
 10
103.9141445853
 20
125.0291262456
 30
0.0
 11
103.9141445853
 21
124.9291262456
 31
0.0
  0
LINE
  5
185
330
1F
100
AcDbEntity
  8
SLD-0
  6
HIDDEN
 62
     7
370
    18
100
AcDbLine
 10
100.2141445853
 20
125.0291262456
 30
0.0
 11
100.2141445853
 21
124.9291262456
 31
0.0
  0
LINE
  5
186
330
1F
100
AcDbEntity
  8
SLD-0
  6
HIDDEN
 62
     7
370
    18
100
AcDbLine
 10
100.9141445853
 20
125.0291262456
 30
0.0
 11
100.9141445853
 21
124.9291262456
 31
0.0
  0
LINE
  5
187
330
1F
100
AcDbEntity
  8
SLD-0
  6
HIDDEN
 62
     7
370
    18
100
AcDbLine
 10
100.9141445853
 20
120.4291262456
 30
0.0
 11
100.9141445853
 21
120.3291262456
 31
0.0
  0
LINE
  5
188
330
1F
100
AcDbEntity
  8
SLD-0
  6
HIDDEN
 62
     7
370
    18
100
AcDbLine
 10
100.2141445853
 20
120.4291262456
 30
0.0
 11
100.2141445853
 21
120.3291262456
 31
0.0
  0
LINE
  5
189
330
1F
100
AcDbEntity
  8
SLD-0
  6
HIDDEN
 62
     7
370
    18
100
AcDbLine
 10
103.9141445853
 20
120.4291262456
 30
0.0
 11
103.9141445853
 21
120.3291262456
 31
0.0
  0
LINE
  5
18A
330
1F
100
AcDbEntity
  8
SLD-0
  6
HIDDEN
 62
     7
370
    18
100
AcDbLine
 10
103.2141445853
 20
120.4291262456
 30
0.0
 11
103.2141445853
 21
120.3291262456
 31
0.0
  0
LINE
  5
18B
330
1F
100
AcDbEntity
  8
SLD-0
  6
HIDDEN
 62
     7
370
    18
100
AcDbLine
 10
103.6641445853
 20
124.5791262456
 30
0.0
 11
103.6641445853
 21
124.7791262456
 31
0.0
  0
LINE
  5
18C
330
1F
100
AcDbEntity
  8
SLD-0
  6
HIDDEN
 62
     7
370
    18
100
AcDbLine
 10
103.6641445853
 20
123.9791262456
 30
0.0
 11
103.6641445853
 21
123.7791262456
 31
0.0
  0
LINE
  5
18D
330
1F
100
AcDbEntity
  8
SLD-0
  6
HIDDEN
 62
     7
370
    18
100
AcDbLine
 10
103.6641445853
 20
120.7791262456
 30
0.0
 11
103.6641445853
 21
120.5791262456
 31
0.0
  0
LINE
  5
18E
330
1F
100
AcDbEntity
  8
SLD-0
  6
HIDDEN
 62
     7
370
    18
100
AcDbLine
 10
103.6641445853
 20
121.3791262456
 30
0.0
 11
103.6641445853
 21
121.5791262456
 31
0.0
  0
LINE
  5
18F
330
1F
100
AcDbEntity
  8
SLD-0
  6
HIDDEN
 62
     7
370
    18
100
AcDbLine
 10
100.4641445853
 20
121.3791262456
 30
0.0
 11
100.4641445853
 21
121.5791262456
 31
0.0
  0
LINE
  5
190
330
1F
100
AcDbEntity
  8
SLD-0
  6
HIDDEN
 62
     7
370
    18
100
AcDbLine
 10
100.4641445853
 20
120.7791262456
 30
0.0
 11
100.4641445853
 21
120.5791262456
 31
0.0
  0
LINE
  5
191
330
1F
100
AcDbEntity
  8
SLD-0
  6
HIDDEN
 62
     7
370
    18
100
AcDbLine
 10
100.4641445853
 20
124.5791262456
 30
0.0
 11
100.4641445853
 21
124.7791262456
 31
0.0
  0
LINE
  5
192
330
1F
100
AcDbEntity
  8
SLD-0
  6
HIDDEN
 62
     7
370
    18
100
AcDbLine
 10
100.4641445853
 20
123.9791262456
 30
0.0
 11
100.4641445853
 21
123.7791262456
 31
0.0
  0
LINE
  5
193
330
1F
100
AcDbEntity
  8
SLD-0
  6
HIDDEN
 62
     7
370
    18
100
AcDbLine
 10
102.0641445853
 20
121.7291262456
 30
0.0
 11
102.0641445853
 21
121.5291262456
 31
0.0
  0
LINE
  5
194
330
1F
100
AcDbEntity
  8
SLD-0
  6
HIDDEN
 62
     7
370
    18
100
AcDbLine
 10
102.0641445853
 20
123.6291262456
 30
0.0
 11
102.0641445853
 21
123.8291262456
 31
0.0
  0
LINE
  5
195
330
1F
100
AcDbEntity
  8
SLD-0
  6
HIDDEN
 62
     7
370
    18
100
AcDbLine
 10
111.9141445853
 20
118.5791262456
 30
0.0
 11
118.2141445853
 21
118.5791262456
 31
0.0
  0
LINE
  5
196
330
1F
100
AcDbEntity
  8
SLD-0
  6
HIDDEN
 62
     7
370
    18
100
AcDbLine
 10
118.1891445853
 20
118.6291262456
 30
0.0
 11
111.9391445853
 21
118.6291262456
 31
0.0
  0
LINE
  5
197
330
1F
100
AcDbEntity
  8
SLD-0
  6
HIDDEN
 62
     7
370
    18
100
AcDbLine
 10
118.2141445853
 20
124.7791262456
 30
0.0
 11
111.9141445853
 21
124.7791262456
 31
0.0
  0
LINE
  5
198
330
1F
100
AcDbEntity
  8
SLD-0
  6
HIDDEN
 62
     7
370
    18
100
AcDbLine
 10
111.9391445853
 20
124.7291262456
 30
0.0
 11
118.1891445853
 21
124.7291262456
 31
0.0
  0
LINE
  5
199
330
1F
100
AcDbEntity
  8
SLD-0
  6
HIDDEN
 62
     7
370
    18
100
AcDbLine
 10
111.9391445853
 20
118.6291262456
 30
0.0
 11
111.9391445853
 21
124.7291262456
 31
0.0
  0
LINE
  5
19A
330
1F
100
AcDbEntity
  8
SLD-0
  6
HIDDEN
 62
     7
370
    18
100
AcDbLine
 10
118.1891445853
 20
124.7291262456
 30
0.0
 11
118.1891445853
 21
118.6291262456
 31
0.0
  0
LINE
  5
19B
330
1F
100
AcDbEntity
  8
SLD-0
  6
HIDDEN
 62
     7
370
    18
100
AcDbLine
 10
116.3141445853
 20
124.8791262456
 30
0.0
 11
116.3141445853
 21
124.7291262456
 31
0.0
  0
LINE
  5
19C
330
1F
100
AcDbEntity
  8
SLD-0
  6
HIDDEN
 62
     7
370
    18
100
AcDbLine
 10
113.8141445853
 20
124.7291262456
 30
0.0
 11
113.8141445853
 21
124.8791262456
 31
0.0
  0
LINE
  5
19D
330
1F
100
AcDbEntity
  8
SLD-0
  6
HIDDEN
 62
     7
370
    18
100
AcDbLine
 10
113.8141445853
 20
118.4791262456
 30
0.0
 11
113.8141445853
 21
118.6291262456
 31
0.0
  0
LINE
  5
19E
330
1F
100
AcDbEntity
  8
SLD-0
  6
HIDDEN
 62
     7
370
    18
100
AcDbLine
 10
116.3141445853
 20
118.6291262456
 30
0.0
 11
116.3141445853
 21
118.4791262456
 31
0.0
  0
LINE
  5
19F
330
1F
100
AcDbEntity
  8
SLD-0
  6
HIDDEN
 62
     7
370
    18
100
AcDbLine
 10
116.3641445853
 20
118.4791262456
 30
0.0
 11
116.3641445853
 21
118.5791262456
 31
0.0
  0
LINE
  5
1A0
330
1F
100
AcDbEntity
  8
SLD-0
  6
HIDDEN
 62
     7
370
    18
100
AcDbLine
 10
113.7641445853
 20
118.4791262456
 30
0.0
 11
113.7641445853
 21
118.5791262456
 31
0.0
  0
LINE
  5
1A1
330
1F
100
AcDbEntity
  8
SLD-0
  6
HIDDEN
 62
     7
370
    18
100
AcDbLine
 10
116.3641445853
 20
124.8791262456
 30
0.0
 11
116.3641445853
 21
124.7791262456
 31
0.0
  0
LINE
  5
1A2
330
1F
100
AcDbEntity
  8
SLD-0
  6
HIDDEN
 62
     7
370
    18
100
AcDbLine
 10
113.7641445853
 20
124.8791262456
 30
0.0
 11
113.7641445853
 21
124.7791262456
 31
0.0
  0
LINE
  5
1A3
330
1F
100
AcDbEntity
  8
SLD-0
  6
HIDDEN
 62
     7
370
    18
100
AcDbLine
 10
116.3141445853
 20
118.4614935475
 30
0.0
 11
113.8141445853
 21
118.4614935475
 31
0.0
  0
LINE
  5
1A4
330
1F
100
AcDbEntity
  8
SLD-0
  6
HIDDEN
 62
     7
370
    18
100
AcDbLine
 10
116.3141445853
 20
124.8967589436
 30
0.0
 11
113.8141445853
 21
124.8967589436
 31
0.0
  0
LINE
  5
1A5
330
1F
100
AcDbEntity
  8
SLD-0
  6
HIDDEN
 62
     7
370
    18
100
AcDbLine
 10
112.3171346812
 20
118.5791262456
 30
0.0
 11
112.9141445853
 21
118.4738572917
 31
0.0
  0
LINE
  5
1A6
330
1F
100
AcDbEntity
  8
SLD-0
  6
HIDDEN
 62
     7
370
    18
100
AcDbLine
 10
117.2141445853
 20
118.4738572917
 30
0.0
 11
117.8111544895
 21
118.5791262456
 31
0.0
  0
LINE
  5
1A7
330
1F
100
AcDbEntity
  8
SLD-0
  6
HIDDEN
 62
     7
370
    18
100
AcDbLine
 10
112.9141445853
 20
124.8843951994
 30
0.0
 11
112.3171346812
 21
124.7791262456
 31
0.0
  0
LINE
  5
1A8
330
1F
100
AcDbEntity
  8
SLD-0
  6
HIDDEN
 62
     7
370
    18
100
AcDbLine
 10
117.8111544895
 20
124.7791262456
 30
0.0
 11
117.2141445853
 21
124.8843951994
 31
0.0
  0
LINE
  5
1A9
330
1F
100
AcDbEntity
  8
SLD-0
  6
HIDDEN
 62
     7
370
    18
100
AcDbLine
 10
113.8141445853
 20
118.5620207821
 30
0.0
 11
113.7641445853
 21
118.5620207821
 31
0.0
  0
LINE
  5
1AA
330
1F
100
AcDbEntity
  8
SLD-0
  6
HIDDEN
 62
     7
370
    18
100
AcDbLine
 10
113.8141445853
 20
124.796231709
 30
0.0
 11
113.7641445853
 21
124.796231709
 31
0.0
  0
LINE
  5
1AB
330
1F
100
AcDbEntity
  8
SLD-0
  6
HIDDEN
 62
     7
370
    18
100
AcDbLine
 10
116.3641445853
 20
118.5620207821
 30
0.0
 11
116.3141445853
 21
118.5620207821
 31
0.0
  0
LINE
  5
1AC
330
1F
100
AcDbEntity
  8
SLD-0
  6
HIDDEN
 62
     7
370
    18
100
AcDbLine
 10
116.3141445853
 20
124.796231709
 30
0.0
 11
113.8141445853
 21
124.796231709
 31
0.0
  0
LINE
  5
1AD
330
1F
100
AcDbEntity
  8
SLD-0
  6
HIDDEN
 62
     7
370
    18
100
AcDbLine
 10
116.3641445853
 20
124.796231709
 30
0.0
 11
116.3141445853
 21
124.796231709
 31
0.0
  0
LINE
  5
1AE
330
1F
100
AcDbEntity
  8
SLD-0
  6
HIDDEN
 62
     7
370
    18
100
AcDbLine
 10
116.3141445853
 20
118.5620207821
 30
0.0
 11
113.8141445853
 21
118.5620207821
 31
0.0
  0
LINE
  5
1AF
330
1F
100
AcDbEntity
  8
SLD-0
  6
HIDDEN
 62
     7
370
    18
100
AcDbLine
 10
118.1891445853
 20
119.0541262456
 30
0.0
 11
118.2141445853
 21
119.0541262456
 31
0.0
  0
LINE
  5
1B0
330
1F
100
AcDbEntity
  8
SLD-0
  6
HIDDEN
 62
     7
370
    18
100
AcDbLine
 10
118.1891445853
 20
119.8041262456
 30
0.0
 11
118.2141445853
 21
119.8041262456
 31
0.0
  0
LINE
  5
1B1
330
1F
100
AcDbEntity
  8
SLD-0
  6
HIDDEN
 62
     7
370
    18
100
AcDbLine
 10
111.9141445853
 20
119.0541262456
 30
0.0
 11
111.9391445853
 21
119.0541262456
 31
0.0
  0
LINE
  5
1B2
330
1F
100
AcDbEntity
  8
SLD-0
  6
HIDDEN
 62
     7
370
    18
100
AcDbLine
 10
111.9141445853
 20
119.8041262456
 30
0.0
 11
111.9391445853
 21
119.8041262456
 31
0.0
  0
LINE
  5
1B3
330
1F
100
AcDbEntity
  8
SLD-0
  6
HIDDEN
 62
     7
370
    18
100
AcDbLine
 10
111.9141445853
 20
123.5541262456
 30
0.0
 11
111.9391445853
 21
123.5541262456
 31
0.0
  0
LINE
  5
1B4
330
1F
100
AcDbEntity
  8
SLD-0
  6
HIDDEN
 62
     7
370
    18
100
AcDbLine
 10
111.9141445853
 20
124.3041262456
 30
0.0
 11
111.9391445853
 21
124.3041262456
 31
0.0
  0
LINE
  5
1B5
330
1F
100
AcDbEntity
  8
SLD-0
  6
HIDDEN
 62
     7
370
    18
100
AcDbLine
 10
118.1891445853
 20
124.3041262456
 30
0.0
 11
118.2141445853
 21
124.3041262456
 31
0.0
  0
LINE
  5
1B6
330
1F
100
AcDbEntity
  8
SLD-0
  6
HIDDEN
 62
     7
370
    18
100
AcDbLine
 10
118.1891445853
 20
123.5541262456
 30
0.0
 11
118.2141445853
 21
123.5541262456
 31
0.0
  0
LINE
  5
1B7
330
1F
100
AcDbEntity
  8
SLD-0
  6
HIDDEN
 62
     7
370
    18
100
AcDbLine
 10
117.2141445853
 20
118.4738572917
 30
0.0
 11
112.9141445853
 21
118.4738572917
 31
0.0
  0
LINE
  5
1B8
330
1F
100
AcDbEntity
  8
SLD-0
  6
HIDDEN
 62
     7
370
    18
100
AcDbLine
 10
112.9141445853
 20
118.3733300571
 30
0.0
 11
112.9141445853
 21
118.4738572917
 31
0.0
  0
LINE
  5
1B9
330
1F
100
AcDbEntity
  8
SLD-0
  6
HIDDEN
 62
     7
370
    18
100
AcDbLine
 10
117.2141445853
 20
118.4738572917
 30
0.0
 11
117.2141445853
 21
118.3733300571
 31
0.0
  0
LINE
  5
1BA
330
1F
100
AcDbEntity
  8
SLD-0
  6
HIDDEN
 62
     7
370
    18
100
AcDbLine
 10
111.7391445853
 20
124.3041262456
 30
0.0
 11
111.7391445853
 21
123.5541262456
 31
0.0
  0
LINE
  5
1BB
330
1F
100
AcDbEntity
  8
SLD-0
  6
HIDDEN
 62
     7
370
    18
100
AcDbLine
 10
117.2141445853
 20
124.8843951994
 30
0.0
 11
112.9141445853
 21
124.8843951994
 31
0.0
  0
LINE
  5
1BC
330
1F
100
AcDbEntity
  8
SLD-0
  6
HIDDEN
 62
     7
370
    18
100
AcDbLine
 10
112.9141445853
 20
124.8843951994
 30
0.0
 11
112.9141445853
 21
124.984922434
 31
0.0
  0
LINE
  5
1BD
330
1F
100
AcDbEntity
  8
SLD-0
  6
HIDDEN
 62
     7
370
    18
100
AcDbLine
 10
117.2141445853
 20
124.984922434
 30
0.0
 11
117.2141445853
 21
124.8843951994
 31
0.0
  0
LINE
  5
1BE
330
1F
100
AcDbEntity
  8
SLD-0
  6
HIDDEN
 62
     7
370
    18
100
AcDbLine
 10
118.3891445853
 20
123.5541262456
 30
0.0
 11
118.3891445853
 21
124.3041262456
 31
0.0
  0
LINE
  5
1BF
330
1F
100
AcDbEntity
  8
SLD-0
  6
HIDDEN
 62
     7
370
    18
100
AcDbLine
 10
111.7391445853
 20
119.8041262456
 30
0.0
 11
111.7391445853
 21
119.0541262456
 31
0.0
  0
LINE
  5
1C0
330
1F
100
AcDbEntity
  8
SLD-0
  6
HIDDEN
 62
     7
370
    18
100
AcDbLine
 10
118.3891445853
 20
119.0541262456
 30
0.0
 11
118.3891445853
 21
119.8041262456
 31
0.0
  0
LINE
  5
1C1
330
1F
100
AcDbEntity
  8
SLD-0
  6
HIDDEN
 62
     7
370
    18
100
AcDbLine
 10
111.9391445853
 20
94.6291262456
 30
0.0
 11
111.9391445853
 21
100.7291262456
 31
0.0
  0
LINE
  5
1C2
330
1F
100
AcDbEntity
  8
SLD-0
  6
HIDDEN
 62
     7
370
    18
100
AcDbLine
 10
118.1891445853
 20
100.7291262456
 30
0.0
 11
118.1891445853
 21
94.6291262456
 31
0.0
  0
LINE
  5
1C3
330
1F
100
AcDbEntity
  8
SLD-0
  6
HIDDEN
 62
     7
370
    18
100
AcDbLine
 10
118.1891445853
 20
94.6291262456
 30
0.0
 11
111.9391445853
 21
94.6291262456
 31
0.0
  0
LINE
  5
1C4
330
1F
100
AcDbEntity
  8
SLD-0
  6
HIDDEN
 62
     7
370
    18
100
AcDbLine
 10
111.9391445853
 20
100.7291262456
 30
0.0
 11
118.1891445853
 21
100.7291262456
 31
0.0
  0
LINE
  5
1C5
330
1F
100
AcDbEntity
  8
SLD-0
  6
HIDDEN
 62
     7
370
    18
100
AcDbLine
 10
111.9141445853
 20
94.5791262456
 30
0.0
 11
118.2141445853
 21
94.5791262456
 31
0.0
  0
LINE
  5
1C6
330
1F
100
AcDbEntity
  8
SLD-0
  6
HIDDEN
 62
     7
370
    18
100
AcDbLine
 10
118.2141445853
 20
100.7791262456
 30
0.0
 11
111.9141445853
 21
100.7791262456
 31
0.0
  0
LINE
  5
1C7
330
1F
100
AcDbEntity
  8
SLD-0
  6
HIDDEN
 62
     7
370
    18
100
AcDbLine
 10
113.8141445853
 20
94.4791262456
 30
0.0
 11
113.8141445853
 21
94.6291262456
 31
0.0
  0
LINE
  5
1C8
330
1F
100
AcDbEntity
  8
SLD-0
  6
HIDDEN
 62
     7
370
    18
100
AcDbLine
 10
116.3141445853
 20
94.6291262456
 30
0.0
 11
116.3141445853
 21
94.4791262456
 31
0.0
  0
LINE
  5
1C9
330
1F
100
AcDbEntity
  8
SLD-0
  6
HIDDEN
 62
     7
370
    18
100
AcDbLine
 10
116.3641445853
 20
100.8791262456
 30
0.0
 11
116.3641445853
 21
100.7791262456
 31
0.0
  0
LINE
  5
1CA
330
1F
100
AcDbEntity
  8
SLD-0
  6
HIDDEN
 62
     7
370
    18
100
AcDbLine
 10
113.7641445853
 20
100.8791262456
 30
0.0
 11
113.7641445853
 21
100.7791262456
 31
0.0
  0
LINE
  5
1CB
330
1F
100
AcDbEntity
  8
SLD-0
  6
HIDDEN
 62
     7
370
    18
100
AcDbLine
 10
113.8141445853
 20
100.7291262456
 30
0.0
 11
113.8141445853
 21
100.8791262456
 31
0.0
  0
LINE
  5
1CC
330
1F
100
AcDbEntity
  8
SLD-0
  6
HIDDEN
 62
     7
370
    18
100
AcDbLine
 10
116.3141445853
 20
100.8791262456
 30
0.0
 11
116.3141445853
 21
100.7291262456
 31
0.0
  0
LINE
  5
1CD
330
1F
100
AcDbEntity
  8
SLD-0
  6
HIDDEN
 62
     7
370
    18
100
AcDbLine
 10
116.3641445853
 20
94.4791262456
 30
0.0
 11
116.3641445853
 21
94.5791262456
 31
0.0
  0
LINE
  5
1CE
330
1F
100
AcDbEntity
  8
SLD-0
  6
HIDDEN
 62
     7
370
    18
100
AcDbLine
 10
113.7641445853
 20
94.4791262456
 30
0.0
 11
113.7641445853
 21
94.5791262456
 31
0.0
  0
LINE
  5
1CF
330
1F
100
AcDbEntity
  8
SLD-0
  6
HIDDEN
 62
     7
370
    18
100
AcDbLine
 10
113.8141445853
 20
94.4614935475
 30
0.0
 11
116.3141445853
 21
94.4614935475
 31
0.0
  0
LINE
  5
1D0
330
1F
100
AcDbEntity
  8
SLD-0
  6
HIDDEN
 62
     7
370
    18
100
AcDbLine
 10
113.8141445853
 20
100.8967589436
 30
0.0
 11
116.3141445853
 21
100.8967589436
 31
0.0
  0
LINE
  5
1D1
330
1F
100
AcDbEntity
  8
SLD-0
  6
HIDDEN
 62
     7
370
    18
100
AcDbLine
 10
117.2141445853
 20
94.4738572917
 30
0.0
 11
117.8111544895
 21
94.5791262456
 31
0.0
  0
LINE
  5
1D2
330
1F
100
AcDbEntity
  8
SLD-0
  6
HIDDEN
 62
     7
370
    18
100
AcDbLine
 10
112.3171346812
 20
94.5791262456
 30
0.0
 11
112.9141445853
 21
94.4738572917
 31
0.0
  0
LINE
  5
1D3
330
1F
100
AcDbEntity
  8
SLD-0
  6
HIDDEN
 62
     7
370
    18
100
AcDbLine
 10
112.9141445853
 20
100.8843951994
 30
0.0
 11
112.3171346812
 21
100.7791262456
 31
0.0
  0
LINE
  5
1D4
330
1F
100
AcDbEntity
  8
SLD-0
  6
HIDDEN
 62
     7
370
    18
100
AcDbLine
 10
117.8111544895
 20
100.7791262456
 30
0.0
 11
117.2141445853
 21
100.8843951994
 31
0.0
  0
LINE
  5
1D5
330
1F
100
AcDbEntity
  8
SLD-0
  6
HIDDEN
 62
     7
370
    18
100
AcDbLine
 10
116.3141445853
 20
94.5620207821
 30
0.0
 11
116.3641445853
 21
94.5620207821
 31
0.0
  0
LINE
  5
1D6
330
1F
100
AcDbEntity
  8
SLD-0
  6
HIDDEN
 62
     7
370
    18
100
AcDbLine
 10
113.7641445853
 20
94.5620207821
 30
0.0
 11
113.8141445853
 21
94.5620207821
 31
0.0
  0
LINE
  5
1D7
330
1F
100
AcDbEntity
  8
SLD-0
  6
HIDDEN
 62
     7
370
    18
100
AcDbLine
 10
116.3141445853
 20
100.796231709
 30
0.0
 11
116.3641445853
 21
100.796231709
 31
0.0
  0
LINE
  5
1D8
330
1F
100
AcDbEntity
  8
SLD-0
  6
HIDDEN
 62
     7
370
    18
100
AcDbLine
 10
113.8141445853
 20
94.5620207821
 30
0.0
 11
116.3141445853
 21
94.5620207821
 31
0.0
  0
LINE
  5
1D9
330
1F
100
AcDbEntity
  8
SLD-0
  6
HIDDEN
 62
     7
370
    18
100
AcDbLine
 10
113.7641445853
 20
100.796231709
 30
0.0
 11
113.8141445853
 21
100.796231709
 31
0.0
  0
LINE
  5
1DA
330
1F
100
AcDbEntity
  8
SLD-0
  6
HIDDEN
 62
     7
370
    18
100
AcDbLine
 10
113.8141445853
 20
100.796231709
 30
0.0
 11
116.3141445853
 21
100.796231709
 31
0.0
  0
LINE
  5
1DB
330
1F
100
AcDbEntity
  8
SLD-0
  6
HIDDEN
 62
     7
370
    18
100
AcDbLine
 10
118.2141445853
 20
95.8041262456
 30
0.0
 11
118.1891445853
 21
95.8041262456
 31
0.0
  0
LINE
  5
1DC
330
1F
100
AcDbEntity
  8
SLD-0
  6
HIDDEN
 62
     7
370
    18
100
AcDbLine
 10
118.2141445853
 20
95.0541262456
 30
0.0
 11
118.1891445853
 21
95.0541262456
 31
0.0
  0
LINE
  5
1DD
330
1F
100
AcDbEntity
  8
SLD-0
  6
HIDDEN
 62
     7
370
    18
100
AcDbLine
 10
111.9391445853
 20
99.5541262456
 30
0.0
 11
111.9141445853
 21
99.5541262456
 31
0.0
  0
LINE
  5
1DE
330
1F
100
AcDbEntity
  8
SLD-0
  6
HIDDEN
 62
     7
370
    18
100
AcDbLine
 10
111.9391445853
 20
100.3041262456
 30
0.0
 11
111.9141445853
 21
100.3041262456
 31
0.0
  0
LINE
  5
1DF
330
1F
100
AcDbEntity
  8
SLD-0
  6
HIDDEN
 62
     7
370
    18
100
AcDbLine
 10
118.2141445853
 20
100.3041262456
 30
0.0
 11
118.1891445853
 21
100.3041262456
 31
0.0
  0
LINE
  5
1E0
330
1F
100
AcDbEntity
  8
SLD-0
  6
HIDDEN
 62
     7
370
    18
100
AcDbLine
 10
118.2141445853
 20
99.5541262456
 30
0.0
 11
118.1891445853
 21
99.5541262456
 31
0.0
  0
LINE
  5
1E1
330
1F
100
AcDbEntity
  8
SLD-0
  6
HIDDEN
 62
     7
370
    18
100
AcDbLine
 10
111.9391445853
 20
95.0541262456
 30
0.0
 11
111.9141445853
 21
95.0541262456
 31
0.0
  0
LINE
  5
1E2
330
1F
100
AcDbEntity
  8
SLD-0
  6
HIDDEN
 62
     7
370
    18
100
AcDbLine
 10
111.9391445853
 20
95.8041262456
 30
0.0
 11
111.9141445853
 21
95.8041262456
 31
0.0
  0
LINE
  5
1E3
330
1F
100
AcDbEntity
  8
SLD-0
  6
HIDDEN
 62
     7
370
    18
100
AcDbLine
 10
118.3891445853
 20
99.5541262456
 30
0.0
 11
118.3891445853
 21
100.3041262456
 31
0.0
  0
LINE
  5
1E4
330
1F
100
AcDbEntity
  8
SLD-0
  6
HIDDEN
 62
     7
370
    18
100
AcDbLine
 10
111.7391445853
 20
100.3041262456
 30
0.0
 11
111.7391445853
 21
99.5541262456
 31
0.0
  0
LINE
  5
1E5
330
1F
100
AcDbEntity
  8
SLD-0
  6
HIDDEN
 62
     7
370
    18
100
AcDbLine
 10
111.7391445853
 20
95.8041262456
 30
0.0
 11
111.7391445853
 21
95.0541262456
 31
0.0
  0
LINE
  5
1E6
330
1F
100
AcDbEntity
  8
SLD-0
  6
HIDDEN
 62
     7
370
    18
100
AcDbLine
 10
112.9141445853
 20
100.8843951994
 30
0.0
 11
117.2141445853
 21
100.8843951994
 31
0.0
  0
LINE
  5
1E7
330
1F
100
AcDbEntity
  8
SLD-0
  6
HIDDEN
 62
     7
370
    18
100
AcDbLine
 10
112.9141445853
 20
100.8843951994
 30
0.0
 11
112.9141445853
 21
100.984922434
 31
0.0
  0
LINE
  5
1E8
330
1F
100
AcDbEntity
  8
SLD-0
  6
HIDDEN
 62
     7
370
    18
100
AcDbLine
 10
117.2141445853
 20
100.984922434
 30
0.0
 11
117.2141445853
 21
100.8843951994
 31
0.0
  0
LINE
  5
1E9
330
1F
100
AcDbEntity
  8
SLD-0
  6
HIDDEN
 62
     7
370
    18
100
AcDbLine
 10
118.3891445853
 20
95.0541262456
 30
0.0
 11
118.3891445853
 21
95.8041262456
 31
0.0
  0
LINE
  5
1EA
330
1F
100
AcDbEntity
  8
SLD-0
  6
HIDDEN
 62
     7
370
    18
100
AcDbLine
 10
112.9141445853
 20
94.4738572917
 30
0.0
 11
117.2141445853
 21
94.4738572917
 31
0.0
  0
LINE
  5
1EB
330
1F
100
AcDbEntity
  8
SLD-0
  6
HIDDEN
 62
     7
370
    18
100
AcDbLine
 10
117.2141445853
 20
94.4738572917
 30
0.0
 11
117.2141445853
 21
94.3733300571
 31
0.0
  0
LINE
  5
1EC
330
1F
100
AcDbEntity
  8
SLD-0
  6
HIDDEN
 62
     7
370
    18
100
AcDbLine
 10
112.9141445853
 20
94.3733300571
 30
0.0
 11
112.9141445853
 21
94.4738572917
 31
0.0
  0
LINE
  5
1ED
330
1F
100
AcDbEntity
  8
SLD-0
  6
HIDDEN
 62
     7
370
    18
100
AcDbLine
 10
115.6293183559
 20
121.2061262056
 30
0.0
 11
116.7420753642
 21
121.2061262056
 31
0.0
  0
LINE
  5
1EE
330
1F
100
AcDbEntity
  8
SLD-0
  6
HIDDEN
 62
     7
370
    18
100
AcDbLine
 10
113.3793183559
 20
121.2061262056
 30
0.0
 11
114.4920753642
 21
121.2061262056
 31
0.0
  0
LINE
  5
1EF
330
1F
100
AcDbEntity
  8
SLD-0
  6
HIDDEN
 62
     7
370
    18
100
AcDbLine
 10
115.628899203
 20
121.3561262056
 30
0.0
 11
116.7419042958
 21
121.3561262056
 31
0.0
  0
LINE
  5
1F0
330
1F
100
AcDbEntity
  8
SLD-0
  6
HIDDEN
 62
     7
370
    18
100
AcDbLine
 10
113.378899203
 20
121.3561262056
 30
0.0
 11
114.4919042959
 21
121.3561262056
 31
0.0
  0
LINE
  5
1F1
330
1F
100
AcDbEntity
  8
SLD-0
  6
HIDDEN
 62
     7
370
    18
100
AcDbLine
 10
115.5641445853
 20
121.2509820011
 30
0.0
 11
115.9441445853
 21
121.2509820011
 31
0.0
  0
LINE
  5
1F2
330
1F
100
AcDbEntity
  8
SLD-0
  6
HIDDEN
 62
     7
370
    18
100
AcDbLine
 10
116.4341445853
 20
121.2509820011
 30
0.0
 11
116.8141445853
 21
121.2509820011
 31
0.0
  0
LINE
  5
1F3
330
1F
100
AcDbEntity
  8
SLD-0
  6
HIDDEN
 62
     7
370
    18
100
AcDbLine
 10
113.3141445853
 20
121.2509820012
 30
0.0
 11
113.6941445853
 21
121.2509820012
 31
0.0
  0
LINE
  5
1F4
330
1F
100
AcDbEntity
  8
SLD-0
  6
HIDDEN
 62
     7
370
    18
100
AcDbLine
 10
114.1841445853
 20
121.2509820012
 30
0.0
 11
114.5641445853
 21
121.2509820012
 31
0.0
  0
LINE
  5
1F5
330
1F
100
AcDbEntity
  8
SLD-0
  6
HIDDEN
 62
     7
370
    18
100
AcDbLine
 10
116.8141445853
 20
121.3906306637
 30
0.0
 11
116.4341445853
 21
121.3906306637
 31
0.0
  0
LINE
  5
1F6
330
1F
100
AcDbEntity
  8
SLD-0
  6
HIDDEN
 62
     7
370
    18
100
AcDbLine
 10
115.9441445853
 20
121.3906306637
 30
0.0
 11
115.5641445853
 21
121.3906306637
 31
0.0
  0
LINE
  5
1F7
330
1F
100
AcDbEntity
  8
SLD-0
  6
HIDDEN
 62
     7
370
    18
100
AcDbLine
 10
114.5641445853
 20
121.3906306637
 30
0.0
 11
114.1841445853
 21
121.3906306637
 31
0.0
  0
LINE
  5
1F8
330
1F
100
AcDbEntity
  8
SLD-0
  6
HIDDEN
 62
     7
370
    18
100
AcDbLine
 10
113.6941445853
 20
121.3906306637
 30
0.0
 11
113.3141445853
 21
121.3906306637
 31
0.0
  0
ARC
  5
1F9
330
1F
100
AcDbEntity
  8
SLD-0
  6
Continuous
 62
     7
370
    25
100
AcDbCircle
 10
115.0641445853
 20
109.6791262456
 30
0.0
 40
1.250000000000014
100
AcDbArc
 50
0.0
 51
180.0
  0
ARC
  5
1FA
330
1F
100
AcDbEntity
  8
SLD-0
  6
Continuous
 62
     7
370
    25
100
AcDbCircle
 10
115.0641445853
 20
109.6791262456
 30
0.0
 40
1.250000000000014
100
AcDbArc
 50
180.0
 51
0.0
  0
ARC
  5
1FB
330
1F
100
AcDbEntity
  8
SLD-0
  6
Continuous
 62
     7
370
    25
100
AcDbCircle
 10
115.0641445853
 20
121.6791262456
 30
0.0
 40
1.400000000000105
100
AcDbArc
 50
0.0
 51
179.3462885477
  0
ARC
  5
1FC
330
1F
100
AcDbEntity
  8
SLD-0
  6
Continuous
 62
     7
370
    25
100
AcDbCircle
 10
115.0641445853
 20
121.6791262456
 30
0.0
 40
1.470710678107091
100
AcDbArc
 50
359.3462885477
 51
179.3462885499
  0
ARC
  5
1FD
330
1F
100
AcDbEntity
  8
SLD-0
  6
Continuous
 62
     7
370
    25
100
AcDbCircle
 10
115.0641445853
 20
121.6791262456
 30
0.0
 40
1.400000000000105
100
AcDbArc
 50
359.346288545
 51
0.0
  0
ARC
  5
1FE
330
1F
100
AcDbEntity
  8
SLD-0
  6
Continuous
 62
     7
370
    25
100
AcDbCircle
 10
115.0641445853
 20
121.6791262456
 30
0.0
 40
1.400000000000099
100
AcDbArc
 50
180.0
 51
359.346288545
  0
ARC
  5
1FF
330
1F
100
AcDbEntity
  8
SLD-0
  6
Continuous
 62
     7
370
    25
100
AcDbCircle
 10
115.0641445853
 20
121.6791262456
 30
0.0
 40
1.400000000000091
100
AcDbArc
 50
179.3462885477
 51
180.0
  0
ARC
  5
200
330
1F
100
AcDbEntity
  8
SLD-0
  6
Continuous
 62
     7
370
    25
100
AcDbCircle
 10
115.0641445853
 20
121.6791262456
 30
0.0
 40
1.470710678107091
100
AcDbArc
 50
179.3462885499
 51
359.3462885477
  0
ARC
  5
201
330
1F
100
AcDbEntity
  8
SLD-0
  6
Continuous
 62
     7
370
    25
100
AcDbCircle
 10
115.0641445853
 20
121.6791262456
 30
0.0
 40
1.499999999970785
100
AcDbArc
 50
359.3462885477
 51
0.0
  0
ARC
  5
202
330
1F
100
AcDbEntity
  8
SLD-0
  6
Continuous
 62
     7
370
    25
100
AcDbCircle
 10
115.0641445853
 20
121.6791262456
 30
0.0
 40
1.499999999970793
100
AcDbArc
 50
0.0
 51
179.3462885476
  0
ARC
  5
203
330
1F
100
AcDbEntity
  8
SLD-0
  6
Continuous
 62
     7
370
    25
100
AcDbCircle
 10
115.0641445853
 20
121.6791262456
 30
0.0
 40
1.499999999970797
100
AcDbArc
 50
180.0
 51
359.3462885477
  0
ARC
  5
204
330
1F
100
AcDbEntity
  8
SLD-0
  6
Continuous
 62
     7
370
    25
100
AcDbCircle
 10
115.0641445853
 20
121.6791262456
 30
0.0
 40
1.499999999970797
100
AcDbArc
 50
179.3462885476
 51
180.0
  0
ARC
  5
205
330
1F
100
AcDbEntity
  8
SLD-0
  6
Continuous
 62
     7
370
    25
100
AcDbCircle
 10
115.0641445853
 20
121.6791262456
 30
0.0
 40
1.600000000000009
100
AcDbArc
 50
180.0
 51
0.0
  0
ARC
  5
206
330
1F
100
AcDbEntity
  8
SLD-0
  6
Continuous
 62
     7
370
    25
100
AcDbCircle
 10
115.0641445853
 20
121.6791262456
 30
0.0
 40
1.600000000000009
100
AcDbArc
 50
0.0
 51
180.0
  0
ARC
  5
207
330
1F
100
AcDbEntity
  8
SLD-0
  6
Continuous
 62
     7
370
    25
100
AcDbCircle
 10
115.0641445853
 20
97.6791262456
 30
0.0
 40
1.400000000000105
100
AcDbArc
 50
179.3462885477
 51
180.0
  0
ARC
  5
208
330
1F
100
AcDbEntity
  8
SLD-0
  6
Continuous
 62
     7
370
    25
100
AcDbCircle
 10
115.0641445853
 20
97.6791262456
 30
0.0
 40
1.400000000000105
100
AcDbArc
 50
0.0
 51
179.3462885477
  0
ARC
  5
209
330
1F
100
AcDbEntity
  8
SLD-0
  6
Continuous
 62
     7
370
    25
100
AcDbCircle
 10
115.0641445853
 20
97.6791262456
 30
0.0
 40
1.400000000000105
100
AcDbArc
 50
359.3462885477
 51
0.0
  0
ARC
  5
20A
330
1F
100
AcDbEntity
  8
SLD-0
  6
Continuous
 62
     7
370
    25
100
AcDbCircle
 10
115.0641445853
 20
97.6791262456
 30
0.0
 40
1.400000000000105
100
AcDbArc
 50
180.0
 51
359.3462885477
  0
ARC
  5
20B
330
1F
100
AcDbEntity
  8
SLD-0
  6
Continuous
 62
     7
370
    25
100
AcDbCircle
 10
115.0641445853
 20
97.6791262456
 30
0.0
 40
1.470710678107105
100
AcDbArc
 50
359.3462885477
 51
179.3462885499
  0
ARC
  5
20C
330
1F
100
AcDbEntity
  8
SLD-0
  6
Continuous
 62
     7
370
    25
100
AcDbCircle
 10
115.0641445853
 20
97.6791262456
 30
0.0
 40
1.470710678107105
100
AcDbArc
 50
179.3462885499
 51
359.3462885477
  0
ARC
  5
20D
330
1F
100
AcDbEntity
  8
SLD-0
  6
Continuous
 62
     7
370
    25
100
AcDbCircle
 10
115.0641445853
 20
97.6791262456
 30
0.0
 40
1.5
100
AcDbArc
 50
0.0
 51
179.3462885477
  0
ARC
  5
20E
330
1F
100
AcDbEntity
  8
SLD-0
  6
Continuous
 62
     7
370
    25
100
AcDbCircle
 10
115.0641445853
 20
97.6791262456
 30
0.0
 40
1.500000000000004
100
AcDbArc
 50
359.3462885477
 51
0.0
  0
ARC
  5
20F
330
1F
100
AcDbEntity
  8
SLD-0
  6
Continuous
 62
     7
370
    25
100
AcDbCircle
 10
115.0641445853
 20
97.6791262456
 30
0.0
 40
1.500000000000014
100
AcDbArc
 50
179.3462885477
 51
180.0
  0
ARC
  5
210
330
1F
100
AcDbEntity
  8
SLD-0
  6
Continuous
 62
     7
370
    25
100
AcDbCircle
 10
115.0641445853
 20
97.6791262456
 30
0.0
 40
1.500000000000014
100
AcDbArc
 50
180.0
 51
359.3462885477
  0
ARC
  5
211
330
1F
100
AcDbEntity
  8
SLD-0
  6
Continuous
 62
     7
370
    25
100
AcDbCircle
 10
115.0641445853
 20
97.6791262456
 30
0.0
 40
1.600000000000009
100
AcDbArc
 50
0.0
 51
180.0
  0
ARC
  5
212
330
1F
100
AcDbEntity
  8
SLD-0
  6
Continuous
 62
     7
370
    25
100
AcDbCircle
 10
115.0641445853
 20
97.6791262456
 30
0.0
 40
1.600000000000009
100
AcDbArc
 50
180.0
 51
0.0
  0
ARC
  5
213
330
1F
100
AcDbEntity
  8
SLD-0
  6
Continuous
 62
     7
370
    25
100
AcDbCircle
 10
123.0641445853
 20
124.6791262456
 30
0.0
 40
1.750000000000014
100
AcDbArc
 50
90.0
 51
270.0
  0
ARC
  5
214
330
1F
100
AcDbEntity
  8
SLD-0
  6
Continuous
 62
     7
370
    25
100
AcDbCircle
 10
123.0641445853
 20
124.6791262456
 30
0.0
 40
1.750000000000014
100
AcDbArc
 50
270.0
 51
90.0
  0
ARC
  5
215
330
1F
100
AcDbEntity
  8
SLD-0
  6
Continuous
 62
     7
370
    25
100
AcDbCircle
 10
128.0641445853
 20
96.6791262456
 30
0.0
 40
1.75
100
AcDbArc
 50
90.0
 51
270.0
  0
ARC
  5
216
330
1F
100
AcDbEntity
  8
SLD-0
  6
Continuous
 62
     7
370
    25
100
AcDbCircle
 10
128.0641445853
 20
96.6791262456
 30
0.0
 40
1.75
100
AcDbArc
 50
270.0
 51
90.0
  0
ARC
  5
217
330
1F
100
AcDbEntity
  8
SLD-0
  6
Continuous
 62
     7
370
    25
100
AcDbCircle
 10
99.5641445853
 20
109.6791262456
 30
0.0
 40
1.750000000000014
100
AcDbArc
 50
90.0
 51
270.0
  0
ARC
  5
218
330
1F
100
AcDbEntity
  8
SLD-0
  6
Continuous
 62
     7
370
    25
100
AcDbCircle
 10
99.5641445853
 20
109.6791262456
 30
0.0
 40
1.750000000000014
100
AcDbArc
 50
270.0
 51
90.0
  0
ARC
  5
219
330
1F
100
AcDbEntity
  8
SLD-0
  6
Continuous
 62
     7
370
    25
100
AcDbCircle
 10
132.9391243082
 20
112.6791262456
 30
0.0
 40
0.5000000000016996
100
AcDbArc
 50
270.0
 51
0.9231716456
  0
ARC
  5
21A
330
1F
100
AcDbEntity
  8
SLD-0
  6
Continuous
 62
     7
370
    25
100
AcDbCircle
 10
131.0641445853
 20
109.6791262456
 30
0.0
 40
2.500000000000014
100
AcDbArc
 50
90.0
 51
270.0
  0
ARC
  5
21B
330
1F
100
AcDbEntity
  8
SLD-0
  6
Continuous
 62
     7
370
    25
100
AcDbCircle
 10
132.9391251858
 20
106.6791262456
 30
0.0
 40
0.4999999999999987
100
AcDbArc
 50
359.0769354379
 51
90.0
  0
ARC
  5
21C
330
1F
100
AcDbEntity
  8
SLD-0
  6
HIDDEN
 62
     7
370
    18
100
AcDbCircle
 10
110.9214622191
 20
108.4853262456
 30
0.0
 40
0.787665512715446
100
AcDbArc
 50
91.4877212881
 51
268.5122787119
  0
ARC
  5
21D
330
1F
100
AcDbEntity
  8
SLD-0
  6
HIDDEN
 62
     7
370
    18
100
AcDbCircle
 10
110.8924114273
 20
108.5005138319
 30
0.0
 40
0.544483420895684
100
AcDbArc
 50
358.4016088499
 51
181.5983911501
  0
ARC
  5
21E
330
1F
100
AcDbEntity
  8
SLD-0
  6
HIDDEN
 62
     7
370
    18
100
AcDbCircle
 10
110.8924114273
 20
108.4701386592
 30
0.0
 40
0.5444834208941302
100
AcDbArc
 50
178.4016088558
 51
1.5983911442
  0
ARC
  5
21F
330
1F
100
AcDbEntity
  8
SLD-0
  6
HIDDEN
 62
     7
370
    18
100
AcDbCircle
 10
119.2068269516
 20
110.8729262456
 30
0.0
 40
0.7876655127154599
100
AcDbArc
 50
271.4877212881
 51
88.5122787119
  0
ARC
  5
220
330
1F
100
AcDbEntity
  8
SLD-0
  6
HIDDEN
 62
     7
370
    18
100
AcDbCircle
 10
119.2358777433
 20
110.8577386585
 30
0.0
 40
0.544483420895689
100
AcDbArc
 50
178.401608782
 51
1.5983912219
  0
ARC
  5
221
330
1F
100
AcDbEntity
  8
SLD-0
  6
HIDDEN
 62
     7
370
    18
100
AcDbCircle
 10
119.2358777433
 20
110.8881138326
 30
0.0
 40
0.5444834208941213
100
AcDbArc
 50
358.4016087878
 51
181.598391216
  0
ARC
  5
222
330
1F
100
AcDbEntity
  8
SLD-0
  6
HIDDEN
 62
     7
370
    18
100
AcDbCircle
 10
119.2068269516
 20
108.4853262456
 30
0.0
 40
0.7876655127141359
100
AcDbArc
 50
271.4877212844
 51
88.5122787156
  0
ARC
  5
223
330
1F
100
AcDbEntity
  8
SLD-0
  6
HIDDEN
 62
     7
370
    18
100
AcDbCircle
 10
119.2358777433
 20
108.5005138317
 30
0.0
 40
0.5444834208955832
100
AcDbArc
 50
358.4016088767
 51
181.5983911247
  0
ARC
  5
224
330
1F
100
AcDbEntity
  8
SLD-0
  6
HIDDEN
 62
     7
370
    18
100
AcDbCircle
 10
119.2358777433
 20
108.4701386595
 30
0.0
 40
0.5444834208941898
100
AcDbArc
 50
178.401608882
 51
1.5983911195
  0
ARC
  5
225
330
1F
100
AcDbEntity
  8
SLD-0
  6
HIDDEN
 62
     7
370
    18
100
AcDbCircle
 10
110.9214622191
 20
110.8729262456
 30
0.0
 40
0.7876655127167321
100
AcDbArc
 50
91.4877212917
 51
268.5122787119
  0
ARC
  5
226
330
1F
100
AcDbEntity
  8
SLD-0
  6
HIDDEN
 62
     7
370
    18
100
AcDbCircle
 10
110.8924114273
 20
110.8577386592
 30
0.0
 40
0.5444834208955901
100
AcDbArc
 50
178.4016088502
 51
1.5983911498
  0
ARC
  5
227
330
1F
100
AcDbEntity
  8
SLD-0
  6
HIDDEN
 62
     7
370
    18
100
AcDbCircle
 10
110.8924114273
 20
110.8881138319
 30
0.0
 40
0.544483420894196
100
AcDbArc
 50
358.4016088555
 51
181.5983911445
  0
ARC
  5
228
330
1F
100
AcDbEntity
  8
SLD-0
  6
HIDDEN
 62
     7
370
    18
100
AcDbCircle
 10
119.2201690322
 20
108.4791181164
 30
0.0
 40
0.3645533883359796
100
AcDbArc
 50
179.0242395005
 51
268.9898148908
  0
ARC
  5
229
330
1F
100
AcDbEntity
  8
SLD-0
  6
HIDDEN
 62
     7
370
    18
100
AcDbCircle
 10
119.2073147756
 20
108.4791181164
 30
0.0
 40
0.364553388349767
100
AcDbArc
 50
271.0101851135
 51
0.9757604995
  0
ARC
  5
22A
330
1F
100
AcDbEntity
  8
SLD-0
  6
HIDDEN
 62
     7
370
    18
100
AcDbCircle
 10
110.920974395
 20
110.8667181164
 30
0.0
 40
0.364553388335775
100
AcDbArc
 50
179.0242394983
 51
268.9898148887
  0
ARC
  5
22B
330
1F
100
AcDbEntity
  8
SLD-0
  6
HIDDEN
 62
     7
370
    18
100
AcDbCircle
 10
110.9081201384
 20
110.8667181164
 30
0.0
 40
0.3645533883495684
100
AcDbArc
 50
271.0101851135
 51
0.9757604995
  0
ARC
  5
22C
330
1F
100
AcDbEntity
  8
SLD-0
  6
HIDDEN
 62
     7
370
    18
100
AcDbCircle
 10
119.2073147756
 20
110.8791343748
 30
0.0
 40
0.3645533883860982
100
AcDbArc
 50
359.0242395006
 51
88.9898148908
  0
ARC
  5
22D
330
1F
100
AcDbEntity
  8
SLD-0
  6
HIDDEN
 62
     7
370
    18
100
AcDbCircle
 10
119.2201690322
 20
110.8791343748
 30
0.0
 40
0.3645533883495671
100
AcDbArc
 50
91.0101851134
 51
180.9757605108
  0
ARC
  5
22E
330
1F
100
AcDbEntity
  8
SLD-0
  6
HIDDEN
 62
     7
370
    18
100
AcDbCircle
 10
119.2201690322
 20
110.8667181164
 30
0.0
 40
0.364553388349354
100
AcDbArc
 50
179.0242395007
 51
268.9898148908
  0
ARC
  5
22F
330
1F
100
AcDbEntity
  8
SLD-0
  6
HIDDEN
 62
     7
370
    18
100
AcDbCircle
 10
119.2073147756
 20
110.8667181164
 30
0.0
 40
0.3645533883860814
100
AcDbArc
 50
271.0101851135
 51
0.9757604992
  0
ARC
  5
230
330
1F
100
AcDbEntity
  8
SLD-0
  6
HIDDEN
 62
     7
370
    18
100
AcDbCircle
 10
110.9081201384
 20
110.8791343748
 30
0.0
 40
0.3645533883493712
100
AcDbArc
 50
359.0242395003
 51
88.9898148906
  0
ARC
  5
231
330
1F
100
AcDbEntity
  8
SLD-0
  6
HIDDEN
 62
     7
370
    18
100
AcDbCircle
 10
110.920974395
 20
110.8791343748
 30
0.0
 40
0.3645533883360894
100
AcDbArc
 50
91.0101851155
 51
180.9757605019
  0
ARC
  5
232
330
1F
100
AcDbEntity
  8
SLD-0
  6
HIDDEN
 62
     7
370
    18
100
AcDbCircle
 10
110.9081201384
 20
108.4915343747
 30
0.0
 40
0.3645533883858345
100
AcDbArc
 50
359.0242395116
 51
88.9898148905
  0
ARC
  5
233
330
1F
100
AcDbEntity
  8
SLD-0
  6
HIDDEN
 62
     7
370
    18
100
AcDbCircle
 10
110.920974395
 20
108.4915343747
 30
0.0
 40
0.364553388349646
100
AcDbArc
 50
91.0101851076
 51
180.9757604941
  0
ARC
  5
234
330
1F
100
AcDbEntity
  8
SLD-0
  6
HIDDEN
 62
     7
370
    18
100
AcDbCircle
 10
110.920974395
 20
108.4791181163
 30
0.0
 40
0.3645533883493424
100
AcDbArc
 50
179.0242394951
 51
268.9898148967
  0
ARC
  5
235
330
1F
100
AcDbEntity
  8
SLD-0
  6
HIDDEN
 62
     7
370
    18
100
AcDbCircle
 10
110.9081201384
 20
108.4791181163
 30
0.0
 40
0.3645533883860343
100
AcDbArc
 50
271.0101851135
 51
0.9757604992
  0
ARC
  5
236
330
1F
100
AcDbEntity
  8
SLD-0
  6
HIDDEN
 62
     7
370
    18
100
AcDbCircle
 10
119.2073147756
 20
108.4915343748
 30
0.0
 40
0.3645533883494599
100
AcDbArc
 50
359.0242395007
 51
88.9898148908
  0
ARC
  5
237
330
1F
100
AcDbEntity
  8
SLD-0
  6
HIDDEN
 62
     7
370
    18
100
AcDbCircle
 10
119.2201690322
 20
108.4915343748
 30
0.0
 40
0.3645533883360325
100
AcDbArc
 50
91.0101851135
 51
180.9757605037
  0
ARC
  5
238
330
1F
100
AcDbEntity
  8
SLD-0
  6
HIDDEN
 62
     7
370
    18
100
AcDbCircle
 10
120.5983725459
 20
110.8490183972
 30
0.0
 40
1.427399796951228
100
AcDbArc
 50
179.0402949025
 51
194.0611406561
  0
ARC
  5
239
330
1F
100
AcDbEntity
  8
SLD-0
  6
HIDDEN
 62
     7
370
    18
100
AcDbCircle
 10
120.5983725459
 20
110.8968340941
 30
0.0
 40
1.427399796977233
100
AcDbArc
 50
165.9388593477
 51
180.9597051101
  0
ARC
  5
23A
330
1F
100
AcDbEntity
  8
SLD-0
  6
HIDDEN
 62
     7
370
    18
100
AcDbCircle
 10
120.5983725459
 20
108.4614183972
 30
0.0
 40
1.427399796951314
100
AcDbArc
 50
179.0402949025
 51
194.0611406561
  0
ARC
  5
23B
330
1F
100
AcDbEntity
  8
SLD-0
  6
HIDDEN
 62
     7
370
    18
100
AcDbCircle
 10
120.5983725459
 20
108.5092340941
 30
0.0
 40
1.427399796977275
100
AcDbArc
 50
165.9388593479
 51
180.9597051074
  0
ARC
  5
23C
330
1F
100
AcDbEntity
  8
SLD-0
  6
HIDDEN
 62
     7
370
    18
100
AcDbCircle
 10
109.5299166247
 20
110.8968340939
 30
0.0
 40
1.427399796963379
100
AcDbArc
 50
359.0402949025
 51
14.06114066
  0
ARC
  5
23D
330
1F
100
AcDbEntity
  8
SLD-0
  6
HIDDEN
 62
     7
370
    18
100
AcDbCircle
 10
109.5299166247
 20
110.8490183972
 30
0.0
 40
1.427399796965084
100
AcDbArc
 50
345.9388593442
 51
0.9597051001
  0
ARC
  5
23E
330
1F
100
AcDbEntity
  8
SLD-0
  6
HIDDEN
 62
     7
370
    18
100
AcDbCircle
 10
109.5299166247
 20
108.5092340938
 30
0.0
 40
1.427399796963478
100
AcDbArc
 50
359.0402949025
 51
14.06114066
  0
ARC
  5
23F
330
1F
100
AcDbEntity
  8
SLD-0
  6
HIDDEN
 62
     7
370
    18
100
AcDbCircle
 10
109.5299166247
 20
108.4614183971
 30
0.0
 40
1.427399796965183
100
AcDbArc
 50
345.9388593442
 51
0.9597051001
  0
ARC
  5
240
330
1F
100
AcDbEntity
  8
SLD-0
  6
HIDDEN
 62
     7
370
    18
100
AcDbCircle
 10
119.1673829291
 20
110.8729262456
 30
0.0
 40
0.7876655127154599
100
AcDbArc
 50
271.4877212881
 51
88.5122787119
  0
ARC
  5
241
330
1F
100
AcDbEntity
  8
SLD-0
  6
HIDDEN
 62
     7
370
    18
100
AcDbCircle
 10
119.1673829291
 20
108.4853262456
 30
0.0
 40
0.7876655127154456
100
AcDbArc
 50
271.4877212881
 51
88.5122787119
  0
ARC
  5
242
330
1F
100
AcDbEntity
  8
SLD-0
  6
HIDDEN
 62
     7
370
    18
100
AcDbCircle
 10
110.9609062416
 20
110.8729262456
 30
0.0
 40
0.7876655127154599
100
AcDbArc
 50
91.4877212881
 51
268.5122787119
  0
ARC
  5
243
330
1F
100
AcDbEntity
  8
SLD-0
  6
HIDDEN
 62
     7
370
    18
100
AcDbCircle
 10
110.9609062416
 20
108.4853262456
 30
0.0
 40
0.7876655127154456
100
AcDbArc
 50
91.4877212881
 51
268.5122787119
  0
ARC
  5
244
330
1F
100
AcDbEntity
  8
SLD-0
  6
HIDDEN
 62
     7
370
    18
100
AcDbCircle
 10
119.1964337208
 20
110.8881138305
 30
0.0
 40
0.5444834208956876
100
AcDbArc
 50
358.4016090051
 51
181.598390995
  0
ARC
  5
245
330
1F
100
AcDbEntity
  8
SLD-0
  6
HIDDEN
 62
     7
370
    18
100
AcDbCircle
 10
110.9318554498
 20
108.5005138319
 30
0.0
 40
0.544483420895604
100
AcDbArc
 50
358.4016088502
 51
181.5983911498
  0
ARC
  5
246
330
1F
100
AcDbEntity
  8
SLD-0
  6
HIDDEN
 62
     7
370
    18
100
AcDbCircle
 10
119.1964337208
 20
108.4701386607
 30
0.0
 40
0.544483420895578
100
AcDbArc
 50
178.4016090054
 51
1.5983909947
  0
ARC
  5
247
330
1F
100
AcDbEntity
  8
SLD-0
  6
HIDDEN
 62
     7
370
    18
100
AcDbCircle
 10
119.1964337208
 20
110.8577386608
 30
0.0
 40
0.5444834208941255
100
AcDbArc
 50
178.4016090109
 51
1.5983909891
  0
ARC
  5
248
330
1F
100
AcDbEntity
  8
SLD-0
  6
HIDDEN
 62
     7
370
    18
100
AcDbCircle
 10
110.9318554498
 20
110.8577386592
 30
0.0
 40
0.5444834208956982
100
AcDbArc
 50
178.4016088499
 51
1.5983911501
  0
ARC
  5
249
330
1F
100
AcDbEntity
  8
SLD-0
  6
HIDDEN
 62
     7
370
    18
100
AcDbCircle
 10
110.9318554498
 20
108.4701386592
 30
0.0
 40
0.5444834208942102
100
AcDbArc
 50
178.4016088555
 51
1.5983911445
  0
ARC
  5
24A
330
1F
100
AcDbEntity
  8
SLD-0
  6
HIDDEN
 62
     7
370
    18
100
AcDbCircle
 10
119.1964337208
 20
108.5005138305
 30
0.0
 40
0.5444834208941924
100
AcDbArc
 50
358.4016090107
 51
181.5983909894
  0
ARC
  5
24B
330
1F
100
AcDbEntity
  8
SLD-0
  6
HIDDEN
 62
     7
370
    18
100
AcDbCircle
 10
110.9318554498
 20
110.8881138319
 30
0.0
 40
0.5444834208941447
100
AcDbArc
 50
358.4016088558
 51
181.5983911442
  0
ARC
  5
24C
330
1F
100
AcDbEntity
  8
SLD-0
  6
HIDDEN
 62
     7
370
    18
100
AcDbCircle
 10
119.1956590058
 20
110.8648258786
 30
0.0
 40
0.4756692610784791
100
AcDbArc
 50
179.0242394981
 51
268.9898148907
  0
ARC
  5
24D
330
1F
100
AcDbEntity
  8
SLD-0
  6
HIDDEN
 62
     7
370
    18
100
AcDbCircle
 10
119.1956590058
 20
110.8810266125
 30
0.0
 40
0.4756692610767562
100
AcDbArc
 50
91.0101851091
 51
180.9757604901
  0
ARC
  5
24E
330
1F
100
AcDbEntity
  8
SLD-0
  6
HIDDEN
 62
     7
370
    18
100
AcDbCircle
 10
119.1956590058
 20
108.4934266125
 30
0.0
 40
0.4756692610767417
100
AcDbArc
 50
91.0101851091
 51
180.9757604901
  0
ARC
  5
24F
330
1F
100
AcDbEntity
  8
SLD-0
  6
HIDDEN
 62
     7
370
    18
100
AcDbCircle
 10
119.1956590058
 20
108.4772258786
 30
0.0
 40
0.4756692610784793
100
AcDbArc
 50
179.024239498
 51
268.9898148907
  0
ARC
  5
250
330
1F
100
AcDbEntity
  8
SLD-0
  6
HIDDEN
 62
     7
370
    18
100
AcDbCircle
 10
110.9326301648
 20
110.8810266125
 30
0.0
 40
0.4756692611276273
100
AcDbArc
 50
359.0242395122
 51
88.9898148907
  0
ARC
  5
251
330
1F
100
AcDbEntity
  8
SLD-0
  6
HIDDEN
 62
     7
370
    18
100
AcDbCircle
 10
110.9326301648
 20
110.8648258786
 30
0.0
 40
0.4756692611275841
100
AcDbArc
 50
271.0101851091
 51
0.9757605017
  0
ARC
  5
252
330
1F
100
AcDbEntity
  8
SLD-0
  6
HIDDEN
 62
     7
370
    18
100
AcDbCircle
 10
110.9326301648
 20
108.4772258785
 30
0.0
 40
0.4756692611275987
100
AcDbArc
 50
271.0101851091
 51
0.9757605017
  0
ARC
  5
253
330
1F
100
AcDbEntity
  8
SLD-0
  6
HIDDEN
 62
     7
370
    18
100
AcDbCircle
 10
110.9326301648
 20
108.4934266124
 30
0.0
 40
0.4756692611276241
100
AcDbArc
 50
359.0242395122
 51
88.9898148907
  0
ARC
  5
254
330
1F
100
AcDbEntity
  8
SLD-0
  6
HIDDEN
 62
     7
370
    18
100
AcDbCircle
 10
120.9939389507
 20
108.516521206
 30
0.0
 40
1.862471255286921
100
AcDbArc
 50
165.9388593422
 51
180.9597050937
  0
ARC
  5
255
330
1F
100
AcDbEntity
  8
SLD-0
  6
HIDDEN
 62
     7
370
    18
100
AcDbCircle
 10
120.9939389507
 20
108.4541312851
 30
0.0
 40
1.862471255287956
100
AcDbArc
 50
179.0402949036
 51
194.0611406578
  0
ARC
  5
256
330
1F
100
AcDbEntity
  8
SLD-0
  6
HIDDEN
 62
     7
370
    18
100
AcDbCircle
 10
119.1788867719
 20
108.4934266125
 30
0.0
 40
0.4756692610774528
100
AcDbArc
 50
359.0242395103
 51
88.9898148998
  0
ARC
  5
257
330
1F
100
AcDbEntity
  8
SLD-0
  6
HIDDEN
 62
     7
370
    18
100
AcDbCircle
 10
119.1788867719
 20
108.4772258786
 30
0.0
 40
0.4756692610778112
100
AcDbArc
 50
271.0101851
 51
0.975760502
  0
ARC
  5
258
330
1F
100
AcDbEntity
  8
SLD-0
  6
HIDDEN
 62
     7
370
    18
100
AcDbCircle
 10
120.9939389507
 20
110.904121206
 30
0.0
 40
1.862471255286514
100
AcDbArc
 50
165.9388593422
 51
180.9597050937
  0
ARC
  5
259
330
1F
100
AcDbEntity
  8
SLD-0
  6
HIDDEN
 62
     7
370
    18
100
AcDbCircle
 10
120.9939389507
 20
110.8417312851
 30
0.0
 40
1.862471255287559
100
AcDbArc
 50
179.0402949036
 51
194.0611406578
  0
ARC
  5
25A
330
1F
100
AcDbEntity
  8
SLD-0
  6
HIDDEN
 62
     7
370
    18
100
AcDbCircle
 10
119.1788867719
 20
110.8648258786
 30
0.0
 40
0.4756692610778066
100
AcDbArc
 50
271.0101851
 51
0.9757605019
  0
ARC
  5
25B
330
1F
100
AcDbEntity
  8
SLD-0
  6
HIDDEN
 62
     7
370
    18
100
AcDbCircle
 10
119.1788867719
 20
110.8810266125
 30
0.0
 40
0.4756692610774665
100
AcDbArc
 50
359.0242395103
 51
88.9898148998
  0
ARC
  5
25C
330
1F
100
AcDbEntity
  8
SLD-0
  6
HIDDEN
 62
     7
370
    18
100
AcDbCircle
 10
109.1343502199
 20
108.454131285
 30
0.0
 40
1.862471255286626
100
AcDbArc
 50
345.9388593422
 51
0.9597050963
  0
ARC
  5
25D
330
1F
100
AcDbEntity
  8
SLD-0
  6
HIDDEN
 62
     7
370
    18
100
AcDbCircle
 10
109.1343502199
 20
108.5165212059
 30
0.0
 40
1.862471255287681
100
AcDbArc
 50
359.0402949036
 51
14.0611406578
  0
ARC
  5
25E
330
1F
100
AcDbEntity
  8
SLD-0
  6
HIDDEN
 62
     7
370
    18
100
AcDbCircle
 10
110.9494023988
 20
108.4772258785
 30
0.0
 40
0.4756692611278519
100
AcDbArc
 50
179.0242394983
 51
268.9898148902
  0
ARC
  5
25F
330
1F
100
AcDbEntity
  8
SLD-0
  6
HIDDEN
 62
     7
370
    18
100
AcDbCircle
 10
110.9494023988
 20
108.4934266124
 30
0.0
 40
0.4756692611278355
100
AcDbArc
 50
91.01018511
 51
180.9757604877
  0
ARC
  5
260
330
1F
100
AcDbEntity
  8
SLD-0
  6
HIDDEN
 62
     7
370
    18
100
AcDbCircle
 10
109.1343502199
 20
110.8417312851
 30
0.0
 40
1.862471255287024
100
AcDbArc
 50
345.9388593422
 51
0.9597050963
  0
ARC
  5
261
330
1F
100
AcDbEntity
  8
SLD-0
  6
HIDDEN
 62
     7
370
    18
100
AcDbCircle
 10
109.1343502199
 20
110.904121206
 30
0.0
 40
1.862471255288078
100
AcDbArc
 50
359.0402949036
 51
14.0611406578
  0
ARC
  5
262
330
1F
100
AcDbEntity
  8
SLD-0
  6
HIDDEN
 62
     7
370
    18
100
AcDbCircle
 10
110.9494023988
 20
110.8810266125
 30
0.0
 40
0.4756692611278386
100
AcDbArc
 50
91.01018511
 51
180.9757604878
  0
ARC
  5
263
330
1F
100
AcDbEntity
  8
SLD-0
  6
HIDDEN
 62
     7
370
    18
100
AcDbCircle
 10
110.9494023988
 20
110.8648258786
 30
0.0
 40
0.4756692611278232
100
AcDbArc
 50
179.0242394983
 51
268.9898148902
  0
ARC
  5
264
330
1F
100
AcDbEntity
  8
SLD-0
  6
HIDDEN
 62
     7
370
    18
100
AcDbCircle
 10
100.4641445853
 20
124.2791262456
 30
0.0
 40
0.5
100
AcDbArc
 50
270.0
 51
90.0
  0
ARC
  5
265
330
1F
100
AcDbEntity
  8
SLD-0
  6
HIDDEN
 62
     7
370
    18
100
AcDbCircle
 10
103.6641445853
 20
124.2791262456
 30
0.0
 40
0.5
100
AcDbArc
 50
90.0
 51
270.0
  0
ARC
  5
266
330
1F
100
AcDbEntity
  8
SLD-0
  6
HIDDEN
 62
     7
370
    18
100
AcDbCircle
 10
102.0641445853
 20
122.6791262456
 30
0.0
 40
1.15000000000002
100
AcDbArc
 50
90.0
 51
270.0
  0
ARC
  5
267
330
1F
100
AcDbEntity
  8
SLD-0
  6
HIDDEN
 62
     7
370
    18
100
AcDbCircle
 10
100.4641445853
 20
124.2791262456
 30
0.0
 40
0.5
100
AcDbArc
 50
90.0
 51
270.0
  0
ARC
  5
268
330
1F
100
AcDbEntity
  8
SLD-0
  6
HIDDEN
 62
     7
370
    18
100
AcDbCircle
 10
103.6641445853
 20
121.0791262456
 30
0.0
 40
0.5
100
AcDbArc
 50
270.0
 51
90.0
  0
ARC
  5
269
330
1F
100
AcDbEntity
  8
SLD-0
  6
HIDDEN
 62
     7
370
    18
100
AcDbCircle
 10
103.6641445853
 20
121.0791262456
 30
0.0
 40
0.5
100
AcDbArc
 50
90.0
 51
270.0
  0
ARC
  5
26A
330
1F
100
AcDbEntity
  8
SLD-0
  6
HIDDEN
 62
     7
370
    18
100
AcDbCircle
 10
102.0641445853
 20
122.6791262456
 30
0.0
 40
1.15000000000002
100
AcDbArc
 50
270.0
 51
90.0
  0
ARC
  5
26B
330
1F
100
AcDbEntity
  8
SLD-0
  6
HIDDEN
 62
     7
370
    18
100
AcDbCircle
 10
103.6641445853
 20
124.2791262456
 30
0.0
 40
0.5
100
AcDbArc
 50
270.0
 51
90.0
  0
ARC
  5
26C
330
1F
100
AcDbEntity
  8
SLD-0
  6
HIDDEN
 62
     7
370
    18
100
AcDbCircle
 10
100.4641445853
 20
121.0791262456
 30
0.0
 40
0.5
100
AcDbArc
 50
270.0
 51
90.0
  0
ARC
  5
26D
330
1F
100
AcDbEntity
  8
SLD-0
  6
HIDDEN
 62
     7
370
    18
100
AcDbCircle
 10
100.4641445853
 20
121.0791262456
 30
0.0
 40
0.5
100
AcDbArc
 50
90.0
 51
270.0
  0
ARC
  5
26E
330
1F
100
AcDbEntity
  8
SLD-0
  6
HIDDEN
 62
     7
370
    18
100
AcDbCircle
 10
103.6641445853
 20
124.2791262456
 30
0.0
 40
0.3000000000000114
100
AcDbArc
 50
90.0
 51
270.0
  0
ARC
  5
26F
330
1F
100
AcDbEntity
  8
SLD-0
  6
HIDDEN
 62
     7
370
    18
100
AcDbCircle
 10
103.6641445853
 20
124.2791262456
 30
0.0
 40
0.3000000000000114
100
AcDbArc
 50
270.0
 51
90.0
  0
ARC
  5
270
330
1F
100
AcDbEntity
  8
SLD-0
  6
HIDDEN
 62
     7
370
    18
100
AcDbCircle
 10
103.6641445853
 20
121.0791262456
 30
0.0
 40
0.2999999999999972
100
AcDbArc
 50
270.0
 51
90.0
  0
ARC
  5
271
330
1F
100
AcDbEntity
  8
SLD-0
  6
HIDDEN
 62
     7
370
    18
100
AcDbCircle
 10
103.6641445853
 20
121.0791262456
 30
0.0
 40
0.2999999999999972
100
AcDbArc
 50
90.0
 51
270.0
  0
ARC
  5
272
330
1F
100
AcDbEntity
  8
SLD-0
  6
HIDDEN
 62
     7
370
    18
100
AcDbCircle
 10
100.4641445853
 20
121.0791262456
 30
0.0
 40
0.2999999999999972
100
AcDbArc
 50
90.0
 51
270.0
  0
ARC
  5
273
330
1F
100
AcDbEntity
  8
SLD-0
  6
HIDDEN
 62
     7
370
    18
100
AcDbCircle
 10
100.4641445853
 20
124.2791262456
 30
0.0
 40
0.3000000000000114
100
AcDbArc
 50
90.0
 51
270.0
  0
ARC
  5
274
330
1F
100
AcDbEntity
  8
SLD-0
  6
HIDDEN
 62
     7
370
    18
100
AcDbCircle
 10
100.4641445853
 20
124.2791262456
 30
0.0
 40
0.3000000000000114
100
AcDbArc
 50
270.0
 51
90.0
  0
ARC
  5
275
330
1F
100
AcDbEntity
  8
SLD-0
  6
HIDDEN
 62
     7
370
    18
100
AcDbCircle
 10
100.4641445853
 20
121.0791262456
 30
0.0
 40
0.2999999999999972
100
AcDbArc
 50
270.0
 51
90.0
  0
ARC
  5
276
330
1F
100
AcDbEntity
  8
SLD-0
  6
HIDDEN
 62
     7
370
    18
100
AcDbCircle
 10
102.0641445853
 20
122.6791262456
 30
0.0
 40
0.950000000000017
100
AcDbArc
 50
270.0
 51
90.0
  0
ARC
  5
277
330
1F
100
AcDbEntity
  8
SLD-0
  6
HIDDEN
 62
     7
370
    18
100
AcDbCircle
 10
102.0641445853
 20
122.6791262456
 30
0.0
 40
0.950000000000017
100
AcDbArc
 50
90.0
 51
270.0
  0
CIRCLE
  5
278
330
1F
100
AcDbEntity
  8
SLD-0
100
AcDbCircle
 10
115.0641445853
 20
109.6791262456
 30
0.0
 40
3.500000000000001
  0
SPLINE
  5
279
330
1F
100
AcDbEntity
  8
SLD-0
  6
Continuous
 62
     7
370
    25
100
AcDbSpline
210
0.0
220
0.0
230
1.0
 70
     8
 71
     3
 72
    30
 73
    26
 74
     0
 42
0.00000001
 43
0.00000001
 40
0.0
 40
0.0
 40
0.0
 40
0.0
 40
0.0764893116853853
 40
0.1526724975573856
 40
0.2283653159691239
 40
0.3032116983414318
 40
0.336371202910321
 40
0.3691162293534545
 40
0.4012690966674854
 40
0.4325769404629362
 40
0.4626725953442852
 40
0.4909759657007369
 40
0.5168249288864588
 40
0.5376000728203829
 40
0.5571850121264863
 40
0.5774709181618471
 40
0.5997557806902736
 40
0.6241436914628246
 40
0.6585213340617484
 40
0.694779461509155
 40
0.7322411619689957
 40
0.7977859524107755
 40
0.8645740823120469
 40
0.9320701741468527
 40
1.0
 40
1.0
 40
1.0
 40
1.0
 10
115.0641413678461
 20
91.2816825496302
 30
0.0
 10
115.8285341050489
 20
91.28384801165632
 30
0.0
 10
117.354260323942
 20
91.2881702690882
 30
0.0
 10
119.6361269373454
 20
91.33123521287426
 30
0.0
 10
121.9004276887124
 20
91.41541772286276
 30
0.0
 10
123.7327578569576
 20
91.53518611009414
 30
0.0
 10
125.1327549057722
 20
91.67230232759708
 30
0.0
 10
126.105362610102
 20
91.79291519088201
 30
0.0
 10
127.0553742855498
 20
91.94204869790497
 30
0.0
 10
127.9721810108053
 20
92.1272164125828
 30
0.0
 10
128.8399893331592
 20
92.35475866294207
 30
0.0
 10
129.6360519841385
 20
92.632362129354
 30
0.0
 10
130.3137905845475
 20
92.9557783212466
 30
0.0
 10
130.8658043717216
 20
93.32529005254001
 30
0.0
 10
131.3073861411078
 20
93.74498777605933
 30
0.0
 10
131.6774292915549
 20
94.24732492053627
 30
0.0
 10
131.9923949855355
 20
94.83975702989491
 30
0.0
 10
132.2917133347953
 20
95.5936784916333
 30
0.0
 10
132.5565985193514
 20
96.50700965462205
 30
0.0
 10
132.7814653923204
 20
97.56422701059259
 30
0.0
 10
132.9992855065319
 20
98.93925898927853
 30
0.0
 10
133.1800371992136
 20
100.6272536498534
 30
0.0
 10
133.3139893952129
 20
102.6199762867499
 30
0.0
 10
133.3985233524469
 20
104.6392220609388
 30
0.0
 10
133.4255191639752
 20
105.9923436787819
 30
0.0
 10
133.4390603000235
 20
106.6710713361422
 30
0.0
  0
SPLINE
  5
27A
330
1F
100
AcDbEntity
  8
SLD-0
  6
Continuous
 62
     7
370
    25
100
AcDbSpline
210
0.0
220
0.0
230
1.0
 70
     8
 71
     3
 72
    30
 73
    26
 74
     0
 42
0.00000001
 43
0.00000001
 40
0.0
 40
0.0
 40
0.0
 40
0.0
 40
0.0679284218663646
 40
0.1354249096476912
 40
0.2022123435613716
 40
0.2677581129963533
 40
0.2964613949561665
 40
0.3245158379363747
 40
0.3517176724201777
 40
0.377664528424536
 40
0.4019142646254119
 40
0.4236653362702293
 40
0.4435194931961733
 40
0.4627611021729903
 40
0.4831820846544992
 40
0.5089720135563941
 40
0.5372059567554589
 40
0.567229984639566
 40
0.5984617075633012
 40
0.630538035565325
 40
0.6950934221184681
 40
0.7608809180391506
 40
0.8400943651491091
 40
0.9198755156683995
 40
1.0
 40
1.0
 40
1.0
 40
1.0
 10
133.43905940737
 20
112.687182089418
 30
0.0
 10
133.4255207268066
 20
113.3659000576455
 30
0.0
 10
133.3985294536154
 20
114.7190202538472
 30
0.0
 10
133.3139963198608
 20
116.7382665740236
 30
0.0
 10
133.1800519370551
 20
118.7309950204518
 30
0.0
 10
133.008599896689
 20
120.3319754567961
 30
0.0
 10
132.8225368157098
 20
121.5401758972806
 30
0.0
 10
132.6637782173834
 20
122.3643152832554
 30
0.0
 10
132.4725779496026
 20
123.1533759199112
 30
0.0
 10
132.2432673101764
 20
123.8927797989586
 30
0.0
 10
131.9729165453526
 20
124.5602446081506
 30
0.0
 10
131.6583138285258
 20
125.1403185712788
 30
0.0
 10
131.2923746965989
 20
125.6292716073305
 30
0.0
 10
130.8571359985582
 20
126.0390002206315
 30
0.0
 10
130.311127119656
 20
126.4036493683435
 30
0.0
 10
129.6378012045152
 20
126.7251148525479
 30
0.0
 10
128.8437170892661
 20
127.0023054567432
 30
0.0
 10
127.9780953848024
 20
127.2296490986609
 30
0.0
 10
127.0635458471992
 20
127.4147081554773
 30
0.0
 10
125.8009885037236
 20
127.6133489227883
 30
0.0
 10
124.1865347015659
 20
127.7885495060577
 30
0.0
 10
122.0970096022508
 20
127.9324446194015
 30
0.0
 10
119.8521777267343
 20
128.0217095255048
 30
0.0
 10
117.4629002710053
 20
128.0694720559045
 30
0.0
 10
115.864874561311
 20
128.0742005954562
 30
0.0
 10
115.064146143846
 20
128.076569941562
 30
0.0
  0
SPLINE
  5
27B
330
1F
100
AcDbEntity
  8
SLD-0
  6
Continuous
 62
     7
370
    25
100
AcDbSpline
210
0.0
220
0.0
230
1.0
 70
     8
 71
     3
 72
    32
 73
    28
 74
     0
 42
0.00000001
 43
0.00000001
 40
0.0
 40
0.0
 40
0.0
 40
0.0
 40
0.0566902474344729
 40
0.1132117452351654
 40
0.1694879754069051
 40
0.2253939102990991
 40
0.2807109997000586
 40
0.3350378312169245
 40
0.3630767550763227
 40
0.390419515269719
 40
0.4167951027746251
 40
0.4417435339401088
 40
0.4647373483053647
 40
0.4851086460279574
 40
0.5039999395672512
 40
0.523339298253027
 40
0.5446419067153426
 40
0.56852351808012
 40
0.5941296631379855
 40
0.6209632874075076
 40
0.6486179039011365
 40
0.6768904937441232
 40
0.7335316963068745
 40
0.7911025183793012
 40
0.8603368785011615
 40
0.9300271697641505
 40
1.0
 40
1.0
 40
1.0
 40
1.0
 10
96.66670088939762
 20
109.6791272609609
 30
0.0
 10
96.66814759938492
 20
109.0557527711994
 30
0.0
 10
96.67103671294362
 20
107.8108593880376
 30
0.0
 10
96.69863484446877
 20
105.94729999702
 30
0.0
 10
96.7503123801452
 20
104.0928717552315
 30
0.0
 10
96.83574515959913
 20
102.2528605609697
 30
0.0
 10
96.96694960935035
 20
100.4369564616174
 30
0.0
 10
97.1328905265694
 20
98.9314484336239
 30
0.0
 10
97.31857329052737
 20
97.73920924050668
 30
0.0
 10
97.49349382719619
 20
96.85705149996845
 30
0.0
 10
97.70680097920868
 20
96.01817465299956
 30
0.0
 10
97.96547203314775
 20
95.24197412455523
 30
0.0
 10
98.27309917338943
 20
94.55484006164127
 30
0.0
 10
98.6358777982613
 20
93.97105319146061
 30
0.0
 10
99.06835202649603
 20
93.48836039672426
 30
0.0
 10
99.59154997297952
 20
93.08925943366701
 30
0.0
 10
100.2182183120408
 20
92.75190681789302
 30
0.0
 10
100.9436639739278
 20
92.46600589010815
 30
0.0
 10
101.7489732530531
 20
92.22713094335408
 30
0.0
 10
102.6079526580451
 20
92.03067056307708
 30
0.0
 10
103.5040341311028
 20
91.87036555141395
 30
0.0
 10
104.7298296642317
 20
91.69686772750086
 30
0.0
 10
106.2895223183677
 20
91.5418933714689
 30
0.0
 10
108.3028166547125
 20
91.41291746557941
 30
0.0
 10
110.4621912453443
 20
91.33198360191169
 30
0.0
 10
112.758943835904
 20
91.28824326957304
 30
0.0
 10
114.2947065727742
 20
91.28387240370338
 30
0.0
 10
115.0641413678461
 20
91.2816825496302
 30
0.0
  0
SPLINE
  5
27C
330
1F
100
AcDbEntity
  8
SLD-0
  6
Continuous
 62
     7
370
    25
100
AcDbSpline
210
0.0
220
0.0
230
1.0
 70
     8
 71
     3
 72
    32
 73
    28
 74
     0
 42
0.00000001
 43
0.00000001
 40
0.0
 40
0.0
 40
0.0
 40
0.0
 40
0.0566902471656832
 40
0.1132117446698397
 40
0.1694879744978167
 40
0.2253939089587708
 40
0.280710997764474
 40
0.3350378283611334
 40
0.363076751430963
 40
0.3904195106184291
 40
0.4167950965694749
 40
0.4417435255465622
 40
0.4647373369507713
 40
0.4851086317617898
 40
0.503999924341551
 40
0.5233392850434155
 40
0.5446418967772434
 40
0.5685235110929948
 40
0.5941296583434494
 40
0.6209632841093491
 40
0.6486179016664415
 40
0.6768904922498881
 40
0.7335316956838664
 40
0.7911025181928898
 40
0.8603368785302272
 40
0.930027169827902
 40
1.0
 40
1.0
 40
1.0
 40
1.0
 10
115.064146143846
 20
128.076569941562
 30
0.0
 10
114.4407716072934
 20
128.0751232485246
 30
0.0
 10
113.1958781310027
 20
128.072234168816
 30
0.0
 10
111.3323186006601
 20
128.0446360831483
 30
0.0
 10
109.4778902215417
 20
127.9929585874744
 30
0.0
 10
107.6378788938244
 20
127.9075258391228
 30
0.0
 10
105.8219746690059
 20
127.7763214070687
 30
0.0
 10
104.3164665449874
 20
127.6103804867425
 30
0.0
 10
103.1242272878009
 20
127.4246977019452
 30
0.0
 10
102.2420695170177
 20
127.2497771373412
 30
0.0
 10
101.4031926627367
 20
127.0364699442498
 30
0.0
 10
100.6269921610218
 20
126.7777988344903
 30
0.0
 10
99.9398581597845
 20
126.4701716232554
 30
0.0
 10
99.3560713705275
 20
126.1073929027722
 30
0.0
 10
98.87337865445208
 20
125.6749185384667
 30
0.0
 10
98.47427775199878
 20
125.1517204212368
 30
0.0
 10
98.1369251771813
 20
124.5250518946699
 30
0.0
 10
97.85102428346282
 20
123.7996060541106
 30
0.0
 10
97.61214936688376
 20
122.9942966206702
 30
0.0
 10
97.41568900870021
 20
122.1353170852852
 30
0.0
 10
97.25538401364052
 20
121.2392354988498
 30
0.0
 10
97.08188620038956
 20
120.0134398349702
 30
0.0
 10
96.92691184421274
 20
118.4537470330074
 30
0.0
 10
96.79793592127503
 20
116.4404525199262
 30
0.0
 10
96.71700202782199
 20
114.2810777505444
 30
0.0
 10
96.67326165565039
 20
111.9843249755481
 30
0.0
 10
96.66889075892719
 20
110.4485621166362
 30
0.0
 10
96.66670088939763
 20
109.6791272609609
 30
0.0
  0
SPLINE
  5
27D
330
1F
100
AcDbEntity
  8
SLD-0
  6
HIDDEN
 62
     7
370
    18
100
AcDbSpline
210
0.0
220
0.0
230
1.0
 70
     8
 71
     3
 72
     9
 73
     5
 74
     0
 42
0.00000001
 43
0.00000001
 40
0.0
 40
0.0
 40
0.0
 40
0.0
 40
0.4936491320070183
 40
1.0
 40
1.0
 40
1.0
 40
1.0
 10
115.5641445853
 20
121.37660464306
 30
0.0
 10
115.5700153587528
 20
121.3704073574802
 30
0.0
 10
115.5819079623697
 20
121.357853328357
 30
0.0
 10
115.6131033774744
 20
121.3567067675958
 30
0.0
 10
115.6288992029901
 20
121.3561262055592
 30
0.0
  0
SPLINE
  5
27E
330
1F
100
AcDbEntity
  8
SLD-0
  6
HIDDEN
 62
     7
370
    18
100
AcDbSpline
210
0.0
220
0.0
230
1.0
 70
     8
 71
     3
 72
     9
 73
     5
 74
     0
 42
0.00000001
 43
0.00000001
 40
0.0
 40
0.0
 40
0.0
 40
0.0
 40
0.4413606585374886
 40
1.0
 40
1.0
 40
1.0
 40
1.0
 10
115.6288992029901
 20
121.3561262055592
 30
0.0
 10
115.6689790264188
 20
121.3591868841203
 30
0.0
 10
115.7597887138104
 20
121.3661215270293
 30
0.0
 10
115.8780687203426
 20
121.3818462274508
 30
0.0
 10
115.9441445853
 20
121.3906306637389
 30
0.0
  0
SPLINE
  5
27F
330
1F
100
AcDbEntity
  8
SLD-0
  6
HIDDEN
 62
     7
370
    18
100
AcDbSpline
210
0.0
220
0.0
230
1.0
 70
     8
 71
     3
 72
     9
 73
     5
 74
     0
 42
0.00000001
 43
0.00000001
 40
0.0
 40
0.0
 40
0.0
 40
0.0
 40
0.5399526187017741
 40
1.0
 40
1.0
 40
1.0
 40
1.0
 10
115.9441445853
 20
121.2509820011425
 30
0.0
 10
115.8773643508825
 20
121.2395092638596
 30
0.0
 10
115.753686398217
 20
121.2182615897387
 30
0.0
 10
115.6685642470711
 20
121.2099499693033
 30
0.0
 10
115.629404024346
 20
121.2061262300876
 30
0.0
  0
SPLINE
  5
280
330
1F
100
AcDbEntity
  8
SLD-0
  6
HIDDEN
 62
     7
370
    18
100
AcDbSpline
210
0.0
220
0.0
230
1.0
 70
     8
 71
     3
 72
     9
 73
     5
 74
     0
 42
0.00000001
 43
0.00000001
 40
0.0
 40
0.0
 40
0.0
 40
0.0
 40
0.4972660696998876
 40
1.0
 40
1.0
 40
1.0
 40
1.0
 10
115.629404024346
 20
121.2061262300876
 30
0.0
 10
115.6134075652804
 20
121.2069804231986
 30
0.0
 10
115.5812387525657
 20
121.2086982019954
 30
0.0
 10
115.5698633740499
 20
121.2247023473599
 30
0.0
 10
115.5641445853
 20
121.23274817426
 30
0.0
  0
SPLINE
  5
281
330
1F
100
AcDbEntity
  8
SLD-0
  6
HIDDEN
 62
     7
370
    18
100
AcDbSpline
210
0.0
220
0.0
230
1.0
 70
     8
 71
     3
 72
    11
 73
     7
 74
     0
 42
0.00000001
 43
0.00000001
 40
0.0
 40
0.0
 40
0.0
 40
0.0
 40
0.2698134787834119
 40
0.5180434743891851
 40
0.7568897771776922
 40
1.0
 40
1.0
 40
1.0
 40
1.0
 10
116.7421037653192
 20
121.2061262097299
 30
0.0
 10
116.7233568671967
 20
121.2075326465222
 30
0.0
 10
116.6873627119707
 20
121.2102330134783
 30
0.0
 10
116.6139068710951
 20
121.2259894075329
 30
0.0
 10
116.5293510711905
 20
121.241837467427
 30
0.0
 10
116.4660667083997
 20
121.2479158977334
 30
0.0
 10
116.4341445853001
 20
121.2509820011425
 30
0.0
  0
SPLINE
  5
282
330
1F
100
AcDbEntity
  8
SLD-0
  6
HIDDEN
 62
     7
370
    18
100
AcDbSpline
210
0.0
220
0.0
230
1.0
 70
     8
 71
     3
 72
    11
 73
     7
 74
     0
 42
0.00000001
 43
0.00000001
 40
0.0
 40
0.0
 40
0.0
 40
0.0
 40
0.2698134787839314
 40
0.5180434743898263
 40
0.7568897771781168
 40
1.0
 40
1.0
 40
1.0
 40
1.0
 10
114.4921037653486
 20
121.2061262097732
 30
0.0
 10
114.473356867226
 20
121.2075326465656
 30
0.0
 10
114.4373627119999
 20
121.2102330135217
 30
0.0
 10
114.3639068711242
 20
121.2259894075763
 30
0.0
 10
114.2793510712195
 20
121.2418374674705
 30
0.0
 10
114.2160667084288
 20
121.2479158977769
 30
0.0
 10
114.1841445853291
 20
121.2509820011859
 30
0.0
  0
SPLINE
  5
283
330
1F
100
AcDbEntity
  8
SLD-0
  6
HIDDEN
 62
     7
370
    18
100
AcDbSpline
210
0.0
220
0.0
230
1.0
 70
     8
 71
     3
 72
     9
 73
     5
 74
     0
 42
0.00000001
 43
0.00000001
 40
0.0
 40
0.0
 40
0.0
 40
0.0
 40
0.4972660696984728
 40
0.9999999999999999
 40
0.9999999999999999
 40
0.9999999999999999
 40
0.9999999999999999
 10
113.3794040243748
 20
121.2061262301309
 30
0.0
 10
113.3634075653093
 20
121.2069804232419
 30
0.0
 10
113.3312387525946
 20
121.2086982020388
 30
0.0
 10
113.3198633740789
 20
121.2247023474032
 30
0.0
 10
113.314144585329
 20
121.2327481743034
 30
0.0
  0
SPLINE
  5
284
330
1F
100
AcDbEntity
  8
SLD-0
  6
HIDDEN
 62
     7
370
    18
100
AcDbSpline
210
0.0
220
0.0
230
1.0
 70
     8
 71
     3
 72
     9
 73
     5
 74
     0
 42
0.00000001
 43
0.00000001
 40
0.0
 40
0.0
 40
0.0
 40
0.0
 40
0.5399526186966582
 40
1.0
 40
1.0
 40
1.0
 40
1.0
 10
113.694144585329
 20
121.2509820011859
 30
0.0
 10
113.6273643509122
 20
121.2395092639031
 30
0.0
 10
113.5036863982465
 20
121.2182615897821
 30
0.0
 10
113.4185642471004
 20
121.2099499693467
 30
0.0
 10
113.3794040243748
 20
121.2061262301309
 30
0.0
  0
SPLINE
  5
285
330
1F
100
AcDbEntity
  8
SLD-0
  6
HIDDEN
 62
     7
370
    18
100
AcDbSpline
210
0.0
220
0.0
230
1.0
 70
     8
 71
     3
 72
     9
 73
     5
 74
     0
 42
0.00000001
 43
0.00000001
 40
0.0
 40
0.0
 40
0.0
 40
0.0
 40
0.4936491320183213
 40
1.0
 40
1.0
 40
1.0
 40
1.0
 10
113.314144585329
 20
121.376604643053
 30
0.0
 10
113.3200153587821
 20
121.3704073574731
 30
0.0
 10
113.3319079623992
 20
121.3578533283499
 30
0.0
 10
113.3631033775039
 20
121.3567067675888
 30
0.0
 10
113.3788992030192
 20
121.3561262055522
 30
0.0
  0
SPLINE
  5
286
330
1F
100
AcDbEntity
  8
SLD-0
  6
HIDDEN
 62
     7
370
    18
100
AcDbSpline
210
0.0
220
0.0
230
1.0
 70
     8
 71
     3
 72
     9
 73
     5
 74
     0
 42
0.00000001
 43
0.00000001
 40
0.0
 40
0.0
 40
0.0
 40
0.0
 40
0.4413606585374874
 40
1.0
 40
1.0
 40
1.0
 40
1.0
 10
113.3788992030192
 20
121.3561262055522
 30
0.0
 10
113.4189790264479
 20
121.3591868841133
 30
0.0
 10
113.5097887138394
 20
121.3661215270223
 30
0.0
 10
113.6280687203717
 20
121.3818462274438
 30
0.0
 10
113.694144585329
 20
121.3906306637319
 30
0.0
  0
SPLINE
  5
287
330
1F
100
AcDbEntity
  8
SLD-0
  6
HIDDEN
 62
     7
370
    18
100
AcDbSpline
210
0.0
220
0.0
230
1.0
 70
     8
 71
     3
 72
    10
 73
     6
 74
     0
 42
0.00000001
 43
0.00000001
 40
0.0
 40
0.0
 40
0.0
 40
0.0
 40
0.5061384831106603
 40
0.7494323744502122
 40
1.0
 40
1.0
 40
1.0
 40
1.0
 10
114.1841445853291
 20
121.39063066366
 30
0.0
 10
114.2454002809404
 20
121.3850084146113
 30
0.0
 10
114.3361007570798
 20
121.376683626841
 30
0.0
 10
114.4352600830473
 20
121.3593923216666
 30
0.0
 10
114.4728384034969
 20
121.3572255485426
 30
0.0
 10
114.4919042958679
 20
121.3561262055522
 30
0.0
  0
SPLINE
  5
288
330
1F
100
AcDbEntity
  8
SLD-0
  6
HIDDEN
 62
     7
370
    18
100
AcDbSpline
210
0.0
220
0.0
230
1.0
 70
     8
 71
     3
 72
    10
 73
     6
 74
     0
 42
0.00000001
 43
0.00000001
 40
0.0
 40
0.0
 40
0.0
 40
0.0
 40
0.506138483107581
 40
0.7494323744480065
 40
1.0
 40
1.0
 40
1.0
 40
1.0
 10
116.4341445853001
 20
121.3906306636671
 30
0.0
 10
116.4954002809109
 20
121.3850084146185
 30
0.0
 10
116.5861007570499
 20
121.376683626848
 30
0.0
 10
116.6852600830173
 20
121.3593923216738
 30
0.0
 10
116.7228384034673
 20
121.3572255485496
 30
0.0
 10
116.7419042958386
 20
121.3561262055592
 30
0.0
  0
DIMENSION
  5
289
330
1F
100
AcDbEntity
  8
SLD-0
 62
     7
100
AcDbDimension
  2
_D
 10
191.8252427184
 20
56.1737864078
 30
0.0
 11
191.8252427184
 21
44.906180774
 31
0.0
 70
   160
  1
<>
 71
     2
 42
-1.0
  3
SLDDIMSTYLE0
100
AcDbAlignedDimension
 13
208.4621359223
 23
31.1737864078
 33
0.0
 14
208.4621359223
 24
56.1737864078
 34
0.0
 50
90.0
100
AcDbRotatedDimension
  0
DIMENSION
  5
29F
330
1F
100
AcDbEntity
  8
SLD-0
 62
     7
100
AcDbDimension
  2
_D_1
 10
208.4621359223
 20
70.8597087379
 30
0.0
 11
220.6083623374
 21
70.8597087379
 31
0.0
 70
   160
  1
<>
 71
     2
 42
-1.0
  3
SLDDIMSTYLE0
100
AcDbAlignedDimension
 13
233.4621359223
 23
56.1737864078
 33
0.0
 14
208.4621359223
 24
56.1737864078
 34
0.0
100
AcDbRotatedDimension
  0
ENDSEC
  0
SECTION
  2
OBJECTS
  0
DICTIONARY
  5
C
330
0
100
AcDbDictionary
281
     1
  3
ACAD_GROUP
350
D
  3
ACAD_LAYOUT
350
1A
  3
ACAD_MLINESTYLE
350
17
  3
ACAD_PLOTSETTINGS
350
19
  3
ACAD_PLOTSTYLENAME
350
E
  3
ACAD_SCALELIST
350
47
  3
DWGPROPS
350
2AF
  0
DICTIONARY
  5
D
102
{ACAD_REACTORS
330
C
102
}
330
C
100
AcDbDictionary
281
     1
  0
DICTIONARY
  5
1A
102
{ACAD_REACTORS
330
C
102
}
330
C
100
AcDbDictionary
281
     1
  3
Layout1
350
1E
  3
Layout2
350
26
  3
Model
350
22
  0
DICTIONARY
  5
17
102
{ACAD_REACTORS
330
C
102
}
330
C
100
AcDbDictionary
281
     1
  3
Standard
350
18
  0
DICTIONARY
  5
19
102
{ACAD_REACTORS
330
C
102
}
330
C
100
AcDbDictionary
281
     1
  0
ACDBDICTIONARYWDFLT
  5
E
102
{ACAD_REACTORS
330
C
102
}
330
C
100
AcDbDictionary
281
     1
  3
Normal
350
F
100
AcDbDictionaryWithDefault
340
F
  0
DICTIONARY
  5
47
102
{ACAD_REACTORS
330
C
102
}
330
C
100
AcDbDictionary
281
     1
  3
A0
350
48
  3
A1
350
49
  3
A2
350
4A
  3
A3
350
4B
  3
A4
350
4C
  3
A5
350
4D
  3
A6
350
4E
  3
A7
350
4F
  3
A8
350
50
  3
A9
350
51
  3
B0
350
52
  3
B1
350
53
  3
B2
350
54
  3
B3
350
55
  3
B4
350
56
  3
B5
350
57
  3
B6
350
58
  0
XRECORD
  5
2AF
102
{ACAD_REACTORS
330
C
102
}
330
C
100
AcDbXrecord
280
     1
  1
DWGPROPS COOKIE
  2

  3

  4

  6

  7

  8
avi
  9

300
=
301
=
302
=
303
=
304
=
305
=
306
=
307
=
308
=
309
=
 40
0.0
 41
2460795.734498993
 42
2460795.734499479
  1

 90
        0
  0
LAYOUT
  5
1E
102
{ACAD_REACTORS
330
1A
102
}
330
1A
100
AcDbPlotSettings
  1

  2
none_device
  4

  6

 40
0.0
 41
0.0
 42
0.0
 43
0.0
 44
0.0
 45
0.0
 46
0.0
 47
0.0
 48
0.0
 49
0.0
140
0.0
141
0.0
142
1.0
143
1.0
 70
   688
 72
     1
 73
     0
 74
     5
  7

 75
    16
147
1.0
148
0.0
149
0.0
100
AcDbLayout
  1
Layout1
 70
     1
 71
     1
 10
0.0
 20
0.0
 11
420.0
 21
297.0
 12
0.0
 22
0.0
 32
0.0
 14
1.0000000000E+20
 24
1.0000000000E+20
 34
1.0000000000E+20
 15
-1.0000000000E+20
 25
-1.0000000000E+20
 35
-1.0000000000E+20
146
0.0
 13
0.0
 23
0.0
 33
0.0
 16
1.0
 26
0.0
 36
0.0
 17
0.0
 27
1.0
 37
0.0
 76
     0
330
1B
  0
LAYOUT
  5
26
102
{ACAD_REACTORS
330
1A
102
}
330
1A
100
AcDbPlotSettings
  1

  2
none_device
  4

  6

 40
0.0
 41
0.0
 42
0.0
 43
0.0
 44
0.0
 45
0.0
 46
0.0
 47
0.0
 48
0.0
 49
0.0
140
0.0
141
0.0
142
1.0
143
1.0
 70
   688
 72
     1
 73
     0
 74
     5
  7

 75
    16
147
1.0
148
0.0
149
0.0
100
AcDbLayout
  1
Layout2
 70
     1
 71
     2
 10
0.0
 20
0.0
 11
0.0
 21
0.0
 12
0.0
 22
0.0
 32
0.0
 14
0.0
 24
0.0
 34
0.0
 15
0.0
 25
0.0
 35
0.0
146
0.0
 13
0.0
 23
0.0
 33
0.0
 16
1.0
 26
0.0
 36
0.0
 17
0.0
 27
1.0
 37
0.0
 76
     0
330
23
  0
LAYOUT
  5
22
102
{ACAD_REACTORS
330
1A
102
}
330
1A
100
AcDbPlotSettings
  1

  2
none_device
  4
Letter_(8.50_x_11.00_Inches)
  6

 40
6.35
 41
6.35
 42
6.35000508
 43
6.35000508
 44
215.9
 45
279.4
 46
0.0
 47
0.0
 48
0.0
 49
0.0
140
0.0
141
0.0
142
1.0
143
1.0
 70
  1712
 72
     1
 73
     0
 74
     0
  7

 75
     0
147
1.0
148
0.0
149
0.0
100
AcDbLayout
  1
Model
 70
     1
 71
     0
 10
0.0
 20
0.0
 11
297.0
 21
210.0
 12
0.0
 22
0.0
 32
0.0
 14
0.0
 24
0.0
 34
0.0
 15
297.0
 25
210.0
 35
0.0
146
0.0
 13
0.0
 23
0.0
 33
0.0
 16
1.0
 26
0.0
 36
0.0
 17
0.0
 27
1.0
 37
0.0
 76
     0
330
1F
331
29
  0
MLINESTYLE
  5
18
102
{ACAD_REACTORS
330
17
102
}
330
17
100
AcDbMlineStyle
  2
Standard
 70
     0
  3

 62
   256
 51
90.0
 52
90.0
 71
     2
 49
0.5
 62
   256
  6
BYLAYER
 49
-0.5
 62
   256
  6
BYLAYER
  0
ACDBPLACEHOLDER
  5
F
102
{ACAD_REACTORS
330
E
102
}
330
E
  0
SCALE
  5
48
102
{ACAD_REACTORS
330
47
102
}
330
47
100
AcDbScale
 70
     0
300
1:1
140
1.0
141
1.0
290
     1
  0
SCALE
  5
49
102
{ACAD_REACTORS
330
47
102
}
330
47
100
AcDbScale
 70
     0
300
1:2
140
1.0
141
2.0
290
     0
  0
SCALE
  5
4A
102
{ACAD_REACTORS
330
47
102
}
330
47
100
AcDbScale
 70
     0
300
1:4
140
1.0
141
4.0
290
     0
  0
SCALE
  5
4B
102
{ACAD_REACTORS
330
47
102
}
330
47
100
AcDbScale
 70
     0
300
1:5
140
1.0
141
5.0
290
     0
  0
SCALE
  5
4C
102
{ACAD_REACTORS
330
47
102
}
330
47
100
AcDbScale
 70
     0
300
1:8
140
1.0
141
8.0
290
     0
  0
SCALE
  5
4D
102
{ACAD_REACTORS
330
47
102
}
330
47
100
AcDbScale
 70
     0
300
1:10
140
1.0
141
10.0
290
     0
  0
SCALE
  5
4E
102
{ACAD_REACTORS
330
47
102
}
330
47
100
AcDbScale
 70
     0
300
1:16
140
1.0
141
16.0
290
     0
  0
SCALE
  5
4F
102
{ACAD_REACTORS
330
47
102
}
330
47
100
AcDbScale
 70
     0
300
1:20
140
1.0
141
20.0
290
     0
  0
SCALE
  5
50
102
{ACAD_REACTORS
330
47
102
}
330
47
100
AcDbScale
 70
     0
300
1:30
140
1.0
141
30.0
290
     0
  0
SCALE
  5
51
102
{ACAD_REACTORS
330
47
102
}
330
47
100
AcDbScale
 70
     0
300
1:40
140
1.0
141
40.0
290
     0
  0
SCALE
  5
52
102
{ACAD_REACTORS
330
47
102
}
330
47
100
AcDbScale
 70
     0
300
1:50
140
1.0
141
50.0
290
     0
  0
SCALE
  5
53
102
{ACAD_REACTORS
330
47
102
}
330
47
100
AcDbScale
 70
     0
300
1:100
140
1.0
141
100.0
290
     0
  0
SCALE
  5
54
102
{ACAD_REACTORS
330
47
102
}
330
47
100
AcDbScale
 70
     0
300
2:1
140
2.0
141
1.0
290
     0
  0
SCALE
  5
55
102
{ACAD_REACTORS
330
47
102
}
330
47
100
AcDbScale
 70
     0
300
4:1
140
4.0
141
1.0
290
     0
  0
SCALE
  5
56
102
{ACAD_REACTORS
330
47
102
}
330
47
100
AcDbScale
 70
     0
300
8:1
140
8.0
141
1.0
290
     0
  0
SCALE
  5
57
102
{ACAD_REACTORS
330
47
102
}
330
47
100
AcDbScale
 70
     0
300
10:1
140
10.0
141
1.0
290
     0
  0
SCALE
  5
58
102
{ACAD_REACTORS
330
47
102
}
330
47
100
AcDbScale
 70
     0
300
100:1
140
100.0
141
1.0
290
     0
  0
ENDSEC
  0
EOF
