M48
;FILE_FORMAT=2:4
INCH,LZ
FMAT,2
ICI,OFF
;TYPE=PLATED
T1C.012
T2C.039
T3C.03937
%
M72
G90
G93X0Y0
T1C.012F095S3
X100445Y1009
X100786Y10315
X10215Y10466
X10065Y105
X10215Y10525
X10085Y10525
X10066Y10625
X10185Y10625
X10086Y10675
X10185Y10675
X10066Y1072
X10215Y10777
X103595Y10686
X1033Y10673
X103151Y105549
X104674Y104577
X10442Y1039
X10445Y10101
X1056Y10122
X1067Y10122
X1078Y10122
X1059Y10258
X106005Y104593
X105922Y10492
X106564Y106471
X107147Y106809
X107388Y10787
X108532Y106237
X112901Y104626
X11Y10122
T2C.039F197S55
X10135Y1045
X10095Y1075
X10175Y1075
T3C.03937F197S55
X103786Y103137G85X102912Y102903
X110632Y104971G85X109757Y104737
M30
