1900 0 1 0           
20 XD3DPlugin XRACreate 14 ACIS 24.0.2 NT 24 Fri Nov 11 14:39:42 2016 
1 9.9999999999999995e-007 1e-010 
body $1 -1 -1 $-1 $2 $-1 $-1 T 0 0 0 152.40000000000001 6 177.80000000000001 #
string_attrib-name_attrib-gen-attrib $-1 -1 $3 $-1 $0 2 1 2 1 1 1 1 1 1 1 1 1 1 1 0 1 1 1 @15 ATTRIB_XACIS_ID @2 14 #
lump $4 -1 -1 $-1 $-1 $5 $0 T 0 0 0 152.40000000000001 6 177.80000000000001 #
string_attrib-name_attrib-gen-attrib $-1 -1 $6 $1 $0 2 1 2 1 1 1 1 1 1 1 1 1 1 1 0 1 1 1 @23 ATTRIB_XSTEP_PRODUCT_ID @28 Merifix MF300 Probe Plate v1 #
string_attrib-name_attrib-gen-attrib $-1 -1 $7 $-1 $2 2 1 2 1 1 1 1 1 1 1 1 1 1 1 0 1 1 1 @15 ATTRIB_XACIS_ID @2 14 #
shell $-1 -1 -1 $-1 $-1 $-1 $8 $-1 $2 T 0 0 0 152.40000000000001 6 177.80000000000001 #
string_attrib-name_attrib-gen-attrib $-1 -1 $9 $3 $0 2 1 2 1 1 1 1 1 1 1 1 1 1 1 0 1 1 1 @17 ATTRIB_XACIS_NAME @5 Body1 #
string_attrib-name_attrib-gen-attrib $-1 -1 $10 $4 $2 2 1 2 1 1 1 1 1 1 1 1 1 1 1 0 1 1 1 @23 ATTRIB_XSTEP_PRODUCT_ID @28 Merifix MF300 Probe Plate v1 #
face $11 -1 -1 $-1 $12 $13 $5 $-1 $14 reversed single T 144.09999999999999 0 165.44999999999999 148.09999999999999 6 169.44999999999999 F #
rgb_color-st-attrib $-1 -1 $-1 $6 $0 2 1 2 1 1 1 1 1 1 1 1 1 1 1 0 1 1 1 0.62745100259780884 0.62745100259780884 0.62745100259780884 #
string_attrib-name_attrib-gen-attrib $-1 -1 $15 $7 $2 2 1 2 1 1 1 1 1 1 1 1 1 1 1 0 1 1 1 @17 ATTRIB_XACIS_NAME @5 Body1 #
string_attrib-name_attrib-gen-attrib $-1 -1 $-1 $-1 $8 2 1 2 1 1 1 1 1 1 1 1 1 1 1 0 1 1 1 @15 ATTRIB_XACIS_ID @3 356 #
face $16 -1 -1 $-1 $17 $18 $5 $-1 $19 reversed single T 75.340000000000003 0 24.550000000000001 77.060000000000002 6 26.27 F #
loop $20 -1 -1 $-1 $21 $22 $8 T 144.09999999999999 6 165.44999999999999 148.09999999999999 6 169.44999999999999 u_sep $14 T #
cone-surface $-1 -1 -1 $-1 146.09999999999999 0 167.44999999999999 0 -1 0 1.99999999999999 0 0 1 I I -0 1 1.99999999999999 reversed I I I I #
rgb_color-st-attrib $-1 -1 $-1 $10 $2 2 1 2 1 1 1 1 1 1 1 1 1 1 1 0 1 1 1 0.62745100259780884 0.62745100259780884 0.62745100259780884 #
string_attrib-name_attrib-gen-attrib $-1 -1 $-1 $-1 $12 2 1 2 1 1 1 1 1 1 1 1 1 1 1 0 1 1 1 @15 ATTRIB_XACIS_ID @3 357 #
face $23 -1 -1 $-1 $24 $25 $5 $-1 $26 reversed single T 4.2999999999999998 0 14 8.3000000000000007 6 18 F #
loop $27 -1 -1 $-1 $28 $29 $12 T 75.340000000000003 6 24.550000000000001 77.060000000000002 6 26.27 u_sep $19 T #
cone-surface $-1 -1 -1 $-1 76.200000000000003 0 25.41 0 -1 0 8.8817841970012318e-015 0 0.85999999999999899 1 I I -0 1 0.85999999999999899 reversed I I I I #
string_attrib-name_attrib-gen-attrib $-1 -1 $-1 $-1 $13 2 1 2 1 1 1 1 1 1 1 1 1 1 1 0 1 1 1 @15 ATTRIB_XACIS_ID @2 -1 #
loop $30 -1 -1 $-1 $-1 $31 $8 T 144.09999999999999 0 165.44999999999999 148.09999999999999 0 169.44999999999999 u_sep $14 T #
coedge $-1 -1 -1 $-1 $22 $22 $32 $33 reversed $13 $-1 #
string_attrib-name_attrib-gen-attrib $-1 -1 $-1 $-1 $17 2 1 2 1 1 1 1 1 1 1 1 1 1 1 0 1 1 1 @15 ATTRIB_XACIS_ID @3 358 #
face $34 -1 -1 $-1 $35 $36 $5 $-1 $37 reversed single T 144.09999999999999 0 14.000000000000011 148.09999999999999 6 17.999999999999989 F #
loop $38 -1 -1 $-1 $39 $40 $17 T 4.2999999999999998 6 14 8.3000000000000007 6 18 u_sep $26 T #
cone-surface $-1 -1 -1 $-1 6.2999999999999998 0 16 0 -1 0 2 0 0 1 I I -0 1 2 reversed I I I I #
string_attrib-name_attrib-gen-attrib $-1 -1 $-1 $-1 $18 2 1 2 1 1 1 1 1 1 1 1 1 1 1 0 1 1 1 @15 ATTRIB_XACIS_ID @2 -1 #
loop $41 -1 -1 $-1 $-1 $42 $12 T 75.340000000000003 0 24.550000000000001 77.060000000000002 0 26.27 u_sep $19 T #
coedge $-1 -1 -1 $-1 $29 $29 $43 $44 reversed $18 $-1 #
string_attrib-name_attrib-gen-attrib $-1 -1 $-1 $-1 $21 2 1 2 1 1 1 1 1 1 1 1 1 1 1 0 1 1 1 @15 ATTRIB_XACIS_ID @2 -1 #
coedge $-1 -1 -1 $-1 $31 $31 $45 $46 forward $21 $-1 #
coedge $-1 -1 -1 $-1 $32 $32 $22 $33 forward $47 $-1 #
edge $48 -1 -1 $-1 $49 3.1415926535897931 $49 9.4247779607693793 $22 $50 forward @7 unknown T 144.09999999999999 6 165.44999999999999 148.09999999999999 6 169.44999999999999 #
string_attrib-name_attrib-gen-attrib $-1 -1 $-1 $-1 $24 2 1 2 1 1 1 1 1 1 1 1 1 1 1 0 1 1 1 @15 ATTRIB_XACIS_ID @3 359 #
face $51 -1 -1 $-1 $52 $53 $5 $-1 $54 reversed single T 4.2999999999999998 0 165.44999999999999 8.3000000000000007 6 169.44999999999999 F #
loop $55 -1 -1 $-1 $56 $57 $24 T 144.09999999999999 6 14.000000000000011 148.09999999999999 6 17.999999999999989 u_sep $37 T #
cone-surface $-1 -1 -1 $-1 146.09999999999999 0 16 0 -1 0 1.99999999999999 0 0 1 I I -0 1 1.99999999999999 reversed I I I I #
string_attrib-name_attrib-gen-attrib $-1 -1 $-1 $-1 $25 2 1 2 1 1 1 1 1 1 1 1 1 1 1 0 1 1 1 @15 ATTRIB_XACIS_ID @2 -1 #
loop $58 -1 -1 $-1 $-1 $59 $17 T 4.2999999999999998 0 14 8.3000000000000007 0 18 u_sep $26 T #
coedge $-1 -1 -1 $-1 $40 $40 $60 $61 reversed $25 $-1 #
string_attrib-name_attrib-gen-attrib $-1 -1 $-1 $-1 $28 2 1 2 1 1 1 1 1 1 1 1 1 1 1 0 1 1 1 @15 ATTRIB_XACIS_ID @2 -1 #
coedge $-1 -1 -1 $-1 $42 $42 $62 $63 forward $28 $-1 #
coedge $-1 -1 -1 $-1 $43 $43 $29 $44 forward $64 $-1 #
edge $65 -1 -1 $-1 $66 0 $66 6.2831853071795862 $29 $67 forward @7 unknown T 75.340000000000003 6 24.550000000000001 77.060000000000002 6 26.27 #
coedge $-1 -1 -1 $-1 $45 $45 $31 $46 reversed $68 $-1 #
edge $69 -1 -1 $-1 $70 3.1415926535897931 $70 9.4247779607693793 $31 $71 forward @7 unknown T 144.09999999999999 0 165.44999999999999 148.09999999999999 0 169.44999999999999 #
loop $72 -1 -1 $-1 $-1 $32 $73 T 144.09999999999999 6 165.44999999999999 148.09999999999999 6 169.44999999999999 hole $74 F #
string_attrib-name_attrib-gen-attrib $-1 -1 $-1 $-1 $33 2 1 2 1 1 1 1 1 1 1 1 1 1 1 0 1 1 1 @15 ATTRIB_XACIS_ID @3 213 #
vertex $75 -1 -1 $-1 $33 $76 #
ellipse-curve $-1 -1 -1 $-1 146.09999999999999 6 167.44999999999999 0 -1 0 1.99999999999999 0 0 1 I I #
string_attrib-name_attrib-gen-attrib $-1 -1 $-1 $-1 $35 2 1 2 1 1 1 1 1 1 1 1 1 1 1 0 1 1 1 @15 ATTRIB_XACIS_ID @3 360 #
face $77 -1 -1 $-1 $78 $79 $5 $-1 $80 forward single T 71.5 0 3.2499999999999898 80.900000000000006 6 3.25 F #
loop $81 -1 -1 $-1 $82 $83 $35 T 4.2999999999999998 6 165.44999999999999 8.3000000000000007 6 169.44999999999999 u_sep $54 T #
cone-surface $-1 -1 -1 $-1 6.2999999999999998 0 167.44999999999999 0 -1 0 2 0 0 1 I I -0 1 2 reversed I I I I #
string_attrib-name_attrib-gen-attrib $-1 -1 $-1 $-1 $36 2 1 2 1 1 1 1 1 1 1 1 1 1 1 0 1 1 1 @15 ATTRIB_XACIS_ID @2 -1 #
loop $84 -1 -1 $-1 $-1 $85 $24 T 144.09999999999999 0 14.000000000000011 148.09999999999999 0 17.999999999999989 u_sep $37 T #
coedge $-1 -1 -1 $-1 $57 $57 $86 $87 reversed $36 $-1 #
string_attrib-name_attrib-gen-attrib $-1 -1 $-1 $-1 $39 2 1 2 1 1 1 1 1 1 1 1 1 1 1 0 1 1 1 @15 ATTRIB_XACIS_ID @2 -1 #
coedge $-1 -1 -1 $-1 $59 $59 $88 $89 forward $39 $-1 #
coedge $-1 -1 -1 $-1 $60 $60 $40 $61 forward $90 $-1 #
edge $91 -1 -1 $-1 $92 3.1415926535897931 $92 9.4247779607693793 $40 $93 forward @7 unknown T 4.2999999999999998 6 14 8.3000000000000007 6 18 #
coedge $-1 -1 -1 $-1 $62 $62 $42 $63 reversed $94 $-1 #
edge $95 -1 -1 $-1 $96 0 $96 6.2831853071795862 $42 $97 forward @7 unknown T 75.340000000000003 0 24.550000000000001 77.060000000000002 0 26.27 #
loop $98 -1 -1 $-1 $47 $43 $73 T 75.340000000000003 6 24.550000000000001 77.060000000000002 6 26.27 hole $74 F #
string_attrib-name_attrib-gen-attrib $-1 -1 $-1 $-1 $44 2 1 2 1 1 1 1 1 1 1 1 1 1 1 0 1 1 1 @15 ATTRIB_XACIS_ID @3 215 #
vertex $99 -1 -1 $-1 $44 $100 #
ellipse-curve $-1 -1 -1 $-1 76.200000000000003 6 25.41 0 -1 0 8.8817841970012318e-015 0 0.85999999999999899 1 I I #
loop $101 -1 -1 $-1 $-1 $45 $102 T 144.09999999999999 0 165.44999999999999 148.09999999999999 0 169.44999999999999 hole $103 T #
string_attrib-name_attrib-gen-attrib $-1 -1 $-1 $-1 $46 2 1 2 1 1 1 1 1 1 1 1 1 1 1 0 1 1 1 @15 ATTRIB_XACIS_ID @3 214 #
vertex $104 -1 -1 $-1 $46 $105 #
ellipse-curve $-1 -1 -1 $-1 146.09999999999999 0 167.44999999999999 0 -1 0 1.99999999999999 0 0 1 I I #
string_attrib-name_attrib-gen-attrib $-1 -1 $-1 $-1 $47 2 1 2 1 1 1 1 1 1 1 1 1 1 1 0 1 1 1 @15 ATTRIB_XACIS_ID @2 -1 #
face $106 -1 -1 $-1 $102 $107 $5 $-1 $74 forward single T 0 6 0 152.40000000000001 6 177.80000000000001 F #
plane-surface $-1 -1 -1 $-1 76.200000000000003 6 88.900000000000006 0 1 0 1 0 -0 forward_v I I I I #
string_attrib-name_attrib-gen-attrib $-1 -1 $-1 $-1 $49 2 1 2 1 1 1 1 1 1 1 1 1 1 1 0 1 1 1 @15 ATTRIB_XACIS_ID @3 179 #
point $-1 -1 -1 $-1 144.09999999999999 6 167.44999999999999 #
string_attrib-name_attrib-gen-attrib $-1 -1 $-1 $-1 $52 2 1 2 1 1 1 1 1 1 1 1 1 1 1 0 1 1 1 @15 ATTRIB_XACIS_ID @3 361 #
face $108 -1 -1 $-1 $109 $110 $5 $-1 $111 forward single T 80.900000000000006 0 3.2499999999999898 80.900000000000006 6 5.5000000000000098 F #
loop $112 -1 -1 $-1 $-1 $113 $52 T 71.5 0 3.2499999999999898 80.900000000000006 6 3.25 periphery $80 F #
plane-surface $-1 -1 -1 $-1 80.900000000000006 0 3.25 0 0 -1 0 -1 -0 forward_v I I I I #
string_attrib-name_attrib-gen-attrib $-1 -1 $-1 $-1 $53 2 1 2 1 1 1 1 1 1 1 1 1 1 1 0 1 1 1 @15 ATTRIB_XACIS_ID @2 -1 #
loop $114 -1 -1 $-1 $-1 $115 $35 T 4.2999999999999998 0 165.44999999999999 8.3000000000000007 0 169.44999999999999 u_sep $54 T #
coedge $-1 -1 -1 $-1 $83 $83 $116 $117 reversed $53 $-1 #
string_attrib-name_attrib-gen-attrib $-1 -1 $-1 $-1 $56 2 1 2 1 1 1 1 1 1 1 1 1 1 1 0 1 1 1 @15 ATTRIB_XACIS_ID @2 -1 #
coedge $-1 -1 -1 $-1 $85 $85 $118 $119 forward $56 $-1 #
coedge $-1 -1 -1 $-1 $86 $86 $57 $87 forward $120 $-1 #
edge $121 -1 -1 $-1 $122 3.1415926535897931 $122 9.4247779607693793 $57 $123 forward @7 unknown T 144.09999999999999 6 14.000000000000011 148.09999999999999 6 17.999999999999989 #
coedge $-1 -1 -1 $-1 $88 $88 $59 $89 reversed $124 $-1 #
edge $125 -1 -1 $-1 $126 3.1415926535897931 $126 9.4247779607693793 $59 $127 forward @7 unknown T 4.2999999999999998 0 14 8.3000000000000007 0 18 #
loop $128 -1 -1 $-1 $64 $60 $73 T 4.2999999999999998 6 14 8.3000000000000007 6 18 hole $74 F #
string_attrib-name_attrib-gen-attrib $-1 -1 $-1 $-1 $61 2 1 2 1 1 1 1 1 1 1 1 1 1 1 0 1 1 1 @15 ATTRIB_XACIS_ID @3 217 #
vertex $129 -1 -1 $-1 $61 $130 #
ellipse-curve $-1 -1 -1 $-1 6.2999999999999998 6 16 0 -1 0 2 0 0 1 I I #
loop $131 -1 -1 $-1 $68 $62 $102 T 75.340000000000003 0 24.550000000000001 77.060000000000002 0 26.27 hole $103 T #
string_attrib-name_attrib-gen-attrib $-1 -1 $-1 $-1 $63 2 1 2 1 1 1 1 1 1 1 1 1 1 1 0 1 1 1 @15 ATTRIB_XACIS_ID @3 216 #
vertex $132 -1 -1 $-1 $63 $133 #
ellipse-curve $-1 -1 -1 $-1 76.200000000000003 0 25.41 0 -1 0 8.8817841970012318e-015 0 0.85999999999999899 1 I I #
string_attrib-name_attrib-gen-attrib $-1 -1 $-1 $-1 $64 2 1 2 1 1 1 1 1 1 1 1 1 1 1 0 1 1 1 @15 ATTRIB_XACIS_ID @2 -1 #
string_attrib-name_attrib-gen-attrib $-1 -1 $-1 $-1 $66 2 1 2 1 1 1 1 1 1 1 1 1 1 1 0 1 1 1 @15 ATTRIB_XACIS_ID @3 181 #
point $-1 -1 -1 $-1 76.200000000000003 6 26.27 #
string_attrib-name_attrib-gen-attrib $-1 -1 $-1 $-1 $68 2 1 2 1 1 1 1 1 1 1 1 1 1 1 0 1 1 1 @15 ATTRIB_XACIS_ID @2 -1 #
face $134 -1 -1 $-1 $-1 $135 $5 $-1 $103 reversed single T 0 0 0 152.40000000000001 0 177.80000000000001 F #
plane-surface $-1 -1 -1 $-1 76.200000000000003 0 88.900000000000006 0 1 0 1 0 -0 forward_v I I I I #
string_attrib-name_attrib-gen-attrib $-1 -1 $-1 $-1 $70 2 1 2 1 1 1 1 1 1 1 1 1 1 1 0 1 1 1 @15 ATTRIB_XACIS_ID @3 180 #
point $-1 -1 -1 $-1 144.09999999999999 0 167.44999999999999 #
string_attrib-name_attrib-gen-attrib $-1 -1 $-1 $-1 $73 2 1 2 1 1 1 1 1 1 1 1 1 1 1 0 1 1 1 @15 ATTRIB_XACIS_ID @3 373 #
loop $136 -1 -1 $-1 $137 $138 $73 T 0 6 0 152.40000000000001 6 177.80000000000001 periphery $74 F #
string_attrib-name_attrib-gen-attrib $-1 -1 $-1 $-1 $78 2 1 2 1 1 1 1 1 1 1 1 1 1 1 0 1 1 1 @15 ATTRIB_XACIS_ID @3 362 #
face $139 -1 -1 $-1 $140 $141 $5 $-1 $142 forward single T 80.900000000000006 0 5.5 100.03 6 5.5000000000000098 F #
loop $143 -1 -1 $-1 $-1 $144 $78 T 80.900000000000006 0 3.2499999999999898 80.900000000000006 6 5.5000000000000098 periphery $111 F #
plane-surface $-1 -1 -1 $-1 80.900000000000006 0 5.5 1 0 0 0 1 -0 forward_v I I I I #
string_attrib-name_attrib-gen-attrib $-1 -1 $-1 $-1 $79 2 1 2 1 1 1 1 1 1 1 1 1 1 1 0 1 1 1 @15 ATTRIB_XACIS_ID @2 -1 #
coedge $-1 -1 -1 $-1 $145 $146 $147 $148 forward $79 $-1 #
string_attrib-name_attrib-gen-attrib $-1 -1 $-1 $-1 $82 2 1 2 1 1 1 1 1 1 1 1 1 1 1 0 1 1 1 @15 ATTRIB_XACIS_ID @2 -1 #
coedge $-1 -1 -1 $-1 $115 $115 $149 $150 forward $82 $-1 #
coedge $-1 -1 -1 $-1 $116 $116 $83 $117 forward $137 $-1 #
edge $151 -1 -1 $-1 $152 3.1415926535897931 $152 9.4247779607693793 $83 $153 forward @7 unknown T 4.2999999999999998 6 165.44999999999999 8.3000000000000007 6 169.44999999999999 #
coedge $-1 -1 -1 $-1 $118 $118 $85 $119 reversed $154 $-1 #
edge $155 -1 -1 $-1 $156 3.1415926535897931 $156 9.4247779607693793 $85 $157 forward @7 unknown T 144.09999999999999 0 14.000000000000011 148.09999999999999 0 17.999999999999989 #
loop $158 -1 -1 $-1 $90 $86 $73 T 144.09999999999999 6 14.000000000000011 148.09999999999999 6 17.999999999999989 hole $74 F #
string_attrib-name_attrib-gen-attrib $-1 -1 $-1 $-1 $87 2 1 2 1 1 1 1 1 1 1 1 1 1 1 0 1 1 1 @15 ATTRIB_XACIS_ID @3 219 #
vertex $159 -1 -1 $-1 $87 $160 #
ellipse-curve $-1 -1 -1 $-1 146.09999999999999 6 16 0 -1 0 1.99999999999999 0 0 1 I I #
loop $161 -1 -1 $-1 $94 $88 $102 T 4.2999999999999998 0 14 8.3000000000000007 0 18 hole $103 T #
string_attrib-name_attrib-gen-attrib $-1 -1 $-1 $-1 $89 2 1 2 1 1 1 1 1 1 1 1 1 1 1 0 1 1 1 @15 ATTRIB_XACIS_ID @3 218 #
vertex $162 -1 -1 $-1 $89 $163 #
ellipse-curve $-1 -1 -1 $-1 6.2999999999999998 0 16 0 -1 0 2 0 0 1 I I #
string_attrib-name_attrib-gen-attrib $-1 -1 $-1 $-1 $90 2 1 2 1 1 1 1 1 1 1 1 1 1 1 0 1 1 1 @15 ATTRIB_XACIS_ID @2 -1 #
string_attrib-name_attrib-gen-attrib $-1 -1 $-1 $-1 $92 2 1 2 1 1 1 1 1 1 1 1 1 1 1 0 1 1 1 @15 ATTRIB_XACIS_ID @3 183 #
point $-1 -1 -1 $-1 4.2999999999999998 6 16 #
string_attrib-name_attrib-gen-attrib $-1 -1 $-1 $-1 $94 2 1 2 1 1 1 1 1 1 1 1 1 1 1 0 1 1 1 @15 ATTRIB_XACIS_ID @2 -1 #
string_attrib-name_attrib-gen-attrib $-1 -1 $-1 $-1 $96 2 1 2 1 1 1 1 1 1 1 1 1 1 1 0 1 1 1 @15 ATTRIB_XACIS_ID @3 182 #
point $-1 -1 -1 $-1 76.200000000000003 0 26.27 #
string_attrib-name_attrib-gen-attrib $-1 -1 $-1 $-1 $102 2 1 2 1 1 1 1 1 1 1 1 1 1 1 0 1 1 1 @15 ATTRIB_XACIS_ID @3 374 #
loop $164 -1 -1 $-1 $165 $166 $102 T 0 0 0 152.40000000000001 0 177.80000000000001 periphery $103 T #
string_attrib-name_attrib-gen-attrib $-1 -1 $-1 $-1 $107 2 1 2 1 1 1 1 1 1 1 1 1 1 1 0 1 1 1 @15 ATTRIB_XACIS_ID @2 -1 #
loop $167 -1 -1 $-1 $120 $116 $73 T 4.2999999999999998 6 165.44999999999999 8.3000000000000007 6 169.44999999999999 hole $74 F #
coedge $-1 -1 -1 $-1 $168 $169 $170 $171 forward $107 $-1 #
string_attrib-name_attrib-gen-attrib $-1 -1 $-1 $-1 $109 2 1 2 1 1 1 1 1 1 1 1 1 1 1 0 1 1 1 @15 ATTRIB_XACIS_ID @3 363 #
face $172 -1 -1 $-1 $173 $174 $5 $-1 $175 forward single T 100.03 0 0 100.03 6 5.5000000000000098 F #
loop $176 -1 -1 $-1 $-1 $177 $109 T 80.900000000000006 0 5.5 100.03 6 5.5000000000000098 periphery $142 F #
plane-surface $-1 -1 -1 $-1 100.03 0 5.5 0 0 -1 0 -1 -0 forward_v I I I I #
string_attrib-name_attrib-gen-attrib $-1 -1 $-1 $-1 $110 2 1 2 1 1 1 1 1 1 1 1 1 1 1 0 1 1 1 @15 ATTRIB_XACIS_ID @2 -1 #
coedge $-1 -1 -1 $-1 $178 $179 $180 $181 reversed $110 $-1 #
coedge $-1 -1 -1 $-1 $182 $113 $183 $184 forward $79 $-1 #
coedge $-1 -1 -1 $-1 $113 $182 $178 $185 reversed $79 $-1 #
coedge $-1 -1 -1 $-1 $180 $166 $113 $148 reversed $135 $-1 #
edge $186 -1 -1 $-1 $187 -0.47000000000000031 $188 0.47000000000000031 $113 $189 forward @7 unknown T 71.5 0 3.25 80.900000000000006 0 3.25 #
coedge $-1 -1 -1 $-1 $149 $149 $115 $150 reversed $165 $-1 #
edge $190 -1 -1 $-1 $191 3.1415926535897931 $191 9.4247779607693793 $115 $192 forward @7 unknown T 4.2999999999999998 0 165.44999999999999 8.3000000000000007 0 169.44999999999999 #
string_attrib-name_attrib-gen-attrib $-1 -1 $-1 $-1 $117 2 1 2 1 1 1 1 1 1 1 1 1 1 1 0 1 1 1 @15 ATTRIB_XACIS_ID @3 221 #
vertex $193 -1 -1 $-1 $117 $194 #
ellipse-curve $-1 -1 -1 $-1 6.2999999999999998 6 167.44999999999999 0 -1 0 2 0 0 1 I I #
loop $195 -1 -1 $-1 $124 $118 $102 T 144.09999999999999 0 14.000000000000011 148.09999999999999 0 17.999999999999989 hole $103 T #
string_attrib-name_attrib-gen-attrib $-1 -1 $-1 $-1 $119 2 1 2 1 1 1 1 1 1 1 1 1 1 1 0 1 1 1 @15 ATTRIB_XACIS_ID @3 220 #
vertex $196 -1 -1 $-1 $119 $197 #
ellipse-curve $-1 -1 -1 $-1 146.09999999999999 0 16 0 -1 0 1.99999999999999 0 0 1 I I #
string_attrib-name_attrib-gen-attrib $-1 -1 $-1 $-1 $120 2 1 2 1 1 1 1 1 1 1 1 1 1 1 0 1 1 1 @15 ATTRIB_XACIS_ID @2 -1 #
string_attrib-name_attrib-gen-attrib $-1 -1 $-1 $-1 $122 2 1 2 1 1 1 1 1 1 1 1 1 1 1 0 1 1 1 @15 ATTRIB_XACIS_ID @3 185 #
point $-1 -1 -1 $-1 144.09999999999999 6 16 #
string_attrib-name_attrib-gen-attrib $-1 -1 $-1 $-1 $124 2 1 2 1 1 1 1 1 1 1 1 1 1 1 0 1 1 1 @15 ATTRIB_XACIS_ID @2 -1 #
string_attrib-name_attrib-gen-attrib $-1 -1 $-1 $-1 $126 2 1 2 1 1 1 1 1 1 1 1 1 1 1 0 1 1 1 @15 ATTRIB_XACIS_ID @3 184 #
point $-1 -1 -1 $-1 4.2999999999999998 0 16 #
string_attrib-name_attrib-gen-attrib $-1 -1 $-1 $-1 $135 2 1 2 1 1 1 1 1 1 1 1 1 1 1 0 1 1 1 @15 ATTRIB_XACIS_ID @2 -1 #
loop $198 -1 -1 $-1 $154 $149 $102 T 4.2999999999999998 0 165.44999999999999 8.3000000000000007 0 169.44999999999999 hole $103 T #
coedge $-1 -1 -1 $-1 $147 $199 $200 $201 reversed $135 $-1 #
string_attrib-name_attrib-gen-attrib $-1 -1 $-1 $-1 $137 2 1 2 1 1 1 1 1 1 1 1 1 1 1 0 1 1 1 @15 ATTRIB_XACIS_ID @2 -1 #
coedge $-1 -1 -1 $-1 $202 $138 $203 $204 forward $107 $-1 #
coedge $-1 -1 -1 $-1 $138 $205 $182 $206 forward $107 $-1 #
coedge $-1 -1 -1 $-1 $183 $207 $138 $171 reversed $208 $-1 #
edge $209 -1 -1 $-1 $210 -1.0214051826551439e-015 $211 0.22500000000000098 $170 $212 forward @7 unknown T 71.5 6 3.2499999999999898 71.5 6 5.5000000000000098 #
string_attrib-name_attrib-gen-attrib $-1 -1 $-1 $-1 $140 2 1 2 1 1 1 1 1 1 1 1 1 1 1 0 1 1 1 @15 ATTRIB_XACIS_ID @3 364 #
face $213 -1 -1 $-1 $214 $215 $5 $-1 $216 forward single T 100.03 0 0 152.40000000000001 6 0 F #
loop $217 -1 -1 $-1 $-1 $218 $140 T 100.03 0 0 100.03 6 5.5000000000000098 periphery $175 F #
plane-surface $-1 -1 -1 $-1 100.03 0 0 -1 0 0 0 0 1 forward_v I I I I #
string_attrib-name_attrib-gen-attrib $-1 -1 $-1 $-1 $141 2 1 2 1 1 1 1 1 1 1 1 1 1 1 0 1 1 1 @15 ATTRIB_XACIS_ID @2 -1 #
coedge $-1 -1 -1 $-1 $219 $220 $221 $222 reversed $141 $-1 #
coedge $-1 -1 -1 $-1 $223 $144 $146 $185 forward $110 $-1 #
coedge $-1 -1 -1 $-1 $144 $223 $219 $224 reversed $110 $-1 #
coedge $-1 -1 -1 $-1 $221 $147 $144 $181 forward $135 $-1 #
edge $225 -1 -1 $-1 $187 0 $226 0.22500000000000001 $144 $227 forward @7 unknown T 80.900000000000006 0 3.25 80.900000000000006 0 5.5 #
coedge $-1 -1 -1 $-1 $146 $145 $169 $206 reversed $79 $-1 #
coedge $-1 -1 -1 $-1 $200 $170 $145 $184 reversed $208 $-1 #
edge $228 -1 -1 $-1 $188 0 $210 0.59999999999999998 $145 $229 forward @7 unknown T 71.5 0 3.2499999999999898 71.5 6 3.25 #
edge $230 -1 -1 $-1 $187 0 $231 0.59999999999999998 $146 $232 forward @7 unknown T 80.900000000000006 0 3.2499999999999898 80.900000000000006 6 3.25 #
string_attrib-name_attrib-gen-attrib $-1 -1 $-1 $-1 $148 2 1 2 1 1 1 1 1 1 1 1 1 1 1 0 1 1 1 @15 ATTRIB_XACIS_ID @3 223 #
vertex $233 -1 -1 $-1 $148 $234 #
vertex $235 -1 -1 $-1 $148 $236 #
straight-curve $-1 -1 -1 $-1 76.200000000000003 0 3.25 -10 0 0 F -0.47000000000000031 F 0.47000000000000031 #
string_attrib-name_attrib-gen-attrib $-1 -1 $-1 $-1 $150 2 1 2 1 1 1 1 1 1 1 1 1 1 1 0 1 1 1 @15 ATTRIB_XACIS_ID @3 222 #
vertex $237 -1 -1 $-1 $150 $238 #
ellipse-curve $-1 -1 -1 $-1 6.2999999999999998 0 167.44999999999999 0 -1 0 2 0 0 1 I I #
string_attrib-name_attrib-gen-attrib $-1 -1 $-1 $-1 $152 2 1 2 1 1 1 1 1 1 1 1 1 1 1 0 1 1 1 @15 ATTRIB_XACIS_ID @3 187 #
point $-1 -1 -1 $-1 4.2999999999999998 6 167.44999999999999 #
string_attrib-name_attrib-gen-attrib $-1 -1 $-1 $-1 $154 2 1 2 1 1 1 1 1 1 1 1 1 1 1 0 1 1 1 @15 ATTRIB_XACIS_ID @2 -1 #
string_attrib-name_attrib-gen-attrib $-1 -1 $-1 $-1 $156 2 1 2 1 1 1 1 1 1 1 1 1 1 1 0 1 1 1 @15 ATTRIB_XACIS_ID @3 186 #
point $-1 -1 -1 $-1 144.09999999999999 0 16 #
string_attrib-name_attrib-gen-attrib $-1 -1 $-1 $-1 $165 2 1 2 1 1 1 1 1 1 1 1 1 1 1 0 1 1 1 @15 ATTRIB_XACIS_ID @2 -1 #
coedge $-1 -1 -1 $-1 $166 $239 $240 $241 reversed $135 $-1 #
coedge $-1 -1 -1 $-1 $207 $183 $166 $201 forward $208 $-1 #
edge $242 -1 -1 $-1 $188 0 $243 0.22500000000000001 $200 $244 forward @7 unknown T 71.5 0 3.25 71.5 0 5.5 #
coedge $-1 -1 -1 $-1 $245 $168 $246 $247 forward $107 $-1 #
coedge $-1 -1 -1 $-1 $248 $249 $168 $204 reversed $250 $-1 #
edge $251 -1 -1 $-1 $211 0 $252 1.9130000000000003 $203 $253 forward @7 unknown T 52.369999999999997 6 5.5 71.5 6 5.5000000000000098 #
coedge $-1 -1 -1 $-1 $169 $254 $223 $255 forward $107 $-1 #
edge $256 -1 -1 $-1 $231 -0.47000000000000031 $210 0.47000000000000031 $182 $257 forward @7 unknown T 71.5 6 3.2499999999999898 80.900000000000006 6 3.25 #
coedge $-1 -1 -1 $-1 $170 $200 $248 $258 forward $208 $-1 #
loop $259 -1 -1 $-1 $-1 $200 $260 T 71.5 0 3.2499999999999898 71.5 6 5.5000000000000098 periphery $261 F #
string_attrib-name_attrib-gen-attrib $-1 -1 $-1 $-1 $171 2 1 2 1 1 1 1 1 1 1 1 1 1 1 0 1 1 1 @15 ATTRIB_XACIS_ID @3 258 #
vertex $262 -1 -1 $-1 $171 $263 #
vertex $264 -1 -1 $-1 $204 $265 #
straight-curve $-1 -1 -1 $-1 71.5 6 3.25 0 0 10 F -1.0214051826551439e-015 F 0.22500000000000098 #
string_attrib-name_attrib-gen-attrib $-1 -1 $-1 $-1 $173 2 1 2 1 1 1 1 1 1 1 1 1 1 1 0 1 1 1 @15 ATTRIB_XACIS_ID @3 365 #
face $266 -1 -1 $-1 $267 $268 $5 $-1 $269 forward single T 152.40000000000001 0 0 152.40000000000001 6 177.80000000000001 F #
loop $270 -1 -1 $-1 $-1 $271 $173 T 100.03 0 0 152.40000000000001 6 0 periphery $216 F #
plane-surface $-1 -1 -1 $-1 152.40000000000001 0 0 0 0 -1 0 -1 -0 forward_v I I I I #
string_attrib-name_attrib-gen-attrib $-1 -1 $-1 $-1 $174 2 1 2 1 1 1 1 1 1 1 1 1 1 1 0 1 1 1 @15 ATTRIB_XACIS_ID @2 -1 #
coedge $-1 -1 -1 $-1 $272 $273 $274 $275 reversed $174 $-1 #
coedge $-1 -1 -1 $-1 $276 $177 $179 $224 forward $141 $-1 #
coedge $-1 -1 -1 $-1 $177 $276 $272 $277 reversed $141 $-1 #
coedge $-1 -1 -1 $-1 $274 $180 $177 $222 forward $135 $-1 #
edge $278 -1 -1 $-1 $226 0 $279 1.9129999999999996 $177 $280 forward @7 unknown T 80.900000000000006 0 5.5 100.03 0 5.5 #
coedge $-1 -1 -1 $-1 $179 $178 $205 $255 reversed $110 $-1 #
edge $281 -1 -1 $-1 $226 0 $282 0.59999999999999998 $179 $283 forward @7 unknown T 80.900000000000006 0 5.5 80.900000000000006 6 5.5000000000000098 #
string_attrib-name_attrib-gen-attrib $-1 -1 $-1 $-1 $181 2 1 2 1 1 1 1 1 1 1 1 1 1 1 0 1 1 1 @15 ATTRIB_XACIS_ID @3 227 #
vertex $284 -1 -1 $-1 $224 $285 #
straight-curve $-1 -1 -1 $-1 80.900000000000006 0 3.25 0 0 10 F 0 F 0.22500000000000001 #
string_attrib-name_attrib-gen-attrib $-1 -1 $-1 $-1 $184 2 1 2 1 1 1 1 1 1 1 1 1 1 1 0 1 1 1 @15 ATTRIB_XACIS_ID @3 224 #
straight-curve $-1 -1 -1 $-1 71.5 0 3.25 0 10 0 F 0 F 0.59999999999999998 #
string_attrib-name_attrib-gen-attrib $-1 -1 $-1 $-1 $185 2 1 2 1 1 1 1 1 1 1 1 1 1 1 0 1 1 1 @15 ATTRIB_XACIS_ID @3 226 #
vertex $286 -1 -1 $-1 $185 $287 #
straight-curve $-1 -1 -1 $-1 80.900000000000006 0 3.25 0 10 0 F 0 F 0.59999999999999998 #
string_attrib-name_attrib-gen-attrib $-1 -1 $-1 $-1 $187 2 1 2 1 1 1 1 1 1 1 1 1 1 1 0 1 1 1 @15 ATTRIB_XACIS_ID @3 189 #
point $-1 -1 -1 $-1 80.900000000000006 0 3.25 #
string_attrib-name_attrib-gen-attrib $-1 -1 $-1 $-1 $188 2 1 2 1 1 1 1 1 1 1 1 1 1 1 0 1 1 1 @15 ATTRIB_XACIS_ID @3 190 #
point $-1 -1 -1 $-1 71.5 0 3.25 #
string_attrib-name_attrib-gen-attrib $-1 -1 $-1 $-1 $191 2 1 2 1 1 1 1 1 1 1 1 1 1 1 0 1 1 1 @15 ATTRIB_XACIS_ID @3 188 #
point $-1 -1 -1 $-1 4.2999999999999998 0 167.44999999999999 #
coedge $-1 -1 -1 $-1 $199 $288 $289 $290 reversed $135 $-1 #
coedge $-1 -1 -1 $-1 $249 $248 $199 $241 forward $250 $-1 #
edge $291 -1 -1 $-1 $243 0 $292 1.9130000000000003 $240 $293 forward @7 unknown T 52.369999999999997 0 5.5 71.5 0 5.5 #
string_attrib-name_attrib-gen-attrib $-1 -1 $-1 $-1 $201 2 1 2 1 1 1 1 1 1 1 1 1 1 1 0 1 1 1 @15 ATTRIB_XACIS_ID @3 257 #
vertex $294 -1 -1 $-1 $241 $295 #
straight-curve $-1 -1 -1 $-1 71.5 0 3.25 0 0 10 F 0 F 0.22500000000000001 #
coedge $-1 -1 -1 $-1 $296 $202 $297 $298 forward $107 $-1 #
coedge $-1 -1 -1 $-1 $299 $300 $202 $247 reversed $301 $-1 #
edge $302 -1 -1 $-1 $252 -9.7699626167013783e-016 $303 0.55000000000000004 $246 $304 forward @7 unknown T 52.369999999999997 6 0 52.369999999999997 6 5.5000000000000098 #
coedge $-1 -1 -1 $-1 $240 $203 $207 $258 reversed $250 $-1 #
coedge $-1 -1 -1 $-1 $203 $240 $299 $305 forward $250 $-1 #
loop $306 -1 -1 $-1 $-1 $240 $307 T 52.369999999999997 0 5.5 71.5 6 5.5000000000000098 periphery $308 F #
string_attrib-name_attrib-gen-attrib $-1 -1 $-1 $-1 $204 2 1 2 1 1 1 1 1 1 1 1 1 1 1 0 1 1 1 @15 ATTRIB_XACIS_ID @3 255 #
vertex $309 -1 -1 $-1 $204 $310 #
straight-curve $-1 -1 -1 $-1 71.5 6 5.5 -10 0 0 F 0 F 1.9130000000000003 #
coedge $-1 -1 -1 $-1 $205 $311 $276 $312 forward $107 $-1 #
edge $313 -1 -1 $-1 $282 -0.22500000000000098 $231 1.0214051826551439e-015 $223 $314 forward @7 unknown T 80.900000000000006 6 3.2499999999999898 80.900000000000006 6 5.5000000000000098 #
string_attrib-name_attrib-gen-attrib $-1 -1 $-1 $-1 $206 2 1 2 1 1 1 1 1 1 1 1 1 1 1 0 1 1 1 @15 ATTRIB_XACIS_ID @3 225 #
straight-curve $-1 -1 -1 $-1 76.200000000000003 6 3.25 -10 0 0 F -0.47000000000000031 F 0.47000000000000031 #
edge $315 -1 -1 $-1 $243 0 $211 0.59999999999999998 $248 $316 forward @7 unknown T 71.5 0 5.5 71.5 6 5.5000000000000098 #
string_attrib-name_attrib-gen-attrib $-1 -1 $-1 $-1 $208 2 1 2 1 1 1 1 1 1 1 1 1 1 1 0 1 1 1 @15 ATTRIB_XACIS_ID @2 -1 #
face $317 -1 -1 $-1 $73 $208 $5 $-1 $261 forward single T 71.5 0 3.2499999999999898 71.5 6 5.5000000000000098 F #
plane-surface $-1 -1 -1 $-1 71.5 0 3.25 -1 0 0 0 0 1 forward_v I I I I #
string_attrib-name_attrib-gen-attrib $-1 -1 $-1 $-1 $210 2 1 2 1 1 1 1 1 1 1 1 1 1 1 0 1 1 1 @15 ATTRIB_XACIS_ID @3 191 #
point $-1 -1 -1 $-1 71.5 6 3.2499999999999898 #
string_attrib-name_attrib-gen-attrib $-1 -1 $-1 $-1 $211 2 1 2 1 1 1 1 1 1 1 1 1 1 1 0 1 1 1 @15 ATTRIB_XACIS_ID @3 212 #
point $-1 -1 -1 $-1 71.5 6 5.5000000000000098 #
string_attrib-name_attrib-gen-attrib $-1 -1 $-1 $-1 $214 2 1 2 1 1 1 1 1 1 1 1 1 1 1 0 1 1 1 @15 ATTRIB_XACIS_ID @3 366 #
face $318 -1 -1 $-1 $319 $320 $5 $-1 $321 forward single T 0 0 177.80000000000001 152.40000000000001 6 177.80000000000001 F #
loop $322 -1 -1 $-1 $-1 $323 $214 T 152.40000000000001 0 0 152.40000000000001 6 177.80000000000001 periphery $269 F #
plane-surface $-1 -1 -1 $-1 152.40000000000001 0 177.80000000000001 1 0 0 0 1 -0 forward_v I I I I #
string_attrib-name_attrib-gen-attrib $-1 -1 $-1 $-1 $215 2 1 2 1 1 1 1 1 1 1 1 1 1 1 0 1 1 1 @15 ATTRIB_XACIS_ID @2 -1 #
coedge $-1 -1 -1 $-1 $324 $325 $326 $327 forward $215 $-1 #
coedge $-1 -1 -1 $-1 $328 $218 $220 $277 forward $174 $-1 #
coedge $-1 -1 -1 $-1 $218 $328 $324 $329 reversed $174 $-1 #
coedge $-1 -1 -1 $-1 $326 $221 $218 $275 forward $135 $-1 #
edge $330 -1 -1 $-1 $279 0 $331 0.55000000000000004 $218 $332 forward @7 unknown T 100.03 0 0 100.03 0 5.5 #
coedge $-1 -1 -1 $-1 $220 $219 $254 $312 reversed $141 $-1 #
edge $333 -1 -1 $-1 $279 0 $334 0.59999999999999998 $220 $335 forward @7 unknown T 100.03 0 5.5 100.03 6 5.5000000000000098 #
string_attrib-name_attrib-gen-attrib $-1 -1 $-1 $-1 $222 2 1 2 1 1 1 1 1 1 1 1 1 1 1 0 1 1 1 @15 ATTRIB_XACIS_ID @3 230 #
vertex $336 -1 -1 $-1 $275 $337 #
straight-curve $-1 -1 -1 $-1 80.900000000000006 0 5.5 10 0 0 F 0 F 1.9129999999999996 #
string_attrib-name_attrib-gen-attrib $-1 -1 $-1 $-1 $224 2 1 2 1 1 1 1 1 1 1 1 1 1 1 0 1 1 1 @15 ATTRIB_XACIS_ID @3 229 #
vertex $338 -1 -1 $-1 $255 $339 #
straight-curve $-1 -1 -1 $-1 80.900000000000006 0 5.5 0 10 0 F 0 F 0.59999999999999998 #
string_attrib-name_attrib-gen-attrib $-1 -1 $-1 $-1 $226 2 1 2 1 1 1 1 1 1 1 1 1 1 1 0 1 1 1 @15 ATTRIB_XACIS_ID @3 193 #
point $-1 -1 -1 $-1 80.900000000000006 0 5.5 #
string_attrib-name_attrib-gen-attrib $-1 -1 $-1 $-1 $231 2 1 2 1 1 1 1 1 1 1 1 1 1 1 0 1 1 1 @15 ATTRIB_XACIS_ID @3 192 #
point $-1 -1 -1 $-1 80.900000000000006 6 3.2499999999999898 #
coedge $-1 -1 -1 $-1 $239 $340 $341 $342 forward $135 $-1 #
coedge $-1 -1 -1 $-1 $300 $299 $239 $290 forward $301 $-1 #
edge $343 -1 -1 $-1 $292 0 $344 0.55000000000000004 $289 $345 forward @7 unknown T 52.369999999999997 0 0 52.369999999999997 0 5.5 #
string_attrib-name_attrib-gen-attrib $-1 -1 $-1 $-1 $241 2 1 2 1 1 1 1 1 1 1 1 1 1 1 0 1 1 1 @15 ATTRIB_XACIS_ID @3 254 #
vertex $346 -1 -1 $-1 $241 $347 #
straight-curve $-1 -1 -1 $-1 71.5 0 5.5 -10 0 0 F 0 F 1.9130000000000003 #
string_attrib-name_attrib-gen-attrib $-1 -1 $-1 $-1 $243 2 1 2 1 1 1 1 1 1 1 1 1 1 1 0 1 1 1 @15 ATTRIB_XACIS_ID @3 211 #
point $-1 -1 -1 $-1 71.5 0 5.5 #
coedge $-1 -1 -1 $-1 $348 $245 $349 $350 forward $107 $-1 #
coedge $-1 -1 -1 $-1 $351 $352 $245 $298 reversed $353 $-1 #
edge $354 -1 -1 $-1 $303 -5.2370000000000001 $355 0 $297 $356 forward @7 unknown T 0 6 0 52.370000000000005 6 0 #
coedge $-1 -1 -1 $-1 $289 $246 $249 $305 reversed $301 $-1 #
coedge $-1 -1 -1 $-1 $246 $289 $351 $357 forward $301 $-1 #
loop $358 -1 -1 $-1 $-1 $289 $359 T 52.369999999999997 0 0 52.369999999999997 6 5.5000000000000098 periphery $360 F #
string_attrib-name_attrib-gen-attrib $-1 -1 $-1 $-1 $247 2 1 2 1 1 1 1 1 1 1 1 1 1 1 0 1 1 1 @15 ATTRIB_XACIS_ID @3 252 #
vertex $361 -1 -1 $-1 $298 $362 #
straight-curve $-1 -1 -1 $-1 52.369999999999997 6 5.5 0 0 -10 F -9.7699626167013783e-016 F 0.55000000000000004 #
edge $363 -1 -1 $-1 $292 0 $252 0.59999999999999998 $299 $364 forward @7 unknown T 52.369999999999997 0 5.5 52.369999999999997 6 5.5000000000000098 #
string_attrib-name_attrib-gen-attrib $-1 -1 $-1 $-1 $250 2 1 2 1 1 1 1 1 1 1 1 1 1 1 0 1 1 1 @15 ATTRIB_XACIS_ID @2 -1 #
face $365 -1 -1 $-1 $260 $250 $5 $-1 $308 forward single T 52.369999999999997 0 5.5 71.5 6 5.5000000000000098 F #
plane-surface $-1 -1 -1 $-1 71.5 0 5.5 0 0 -1 0 -1 -0 forward_v I I I I #
string_attrib-name_attrib-gen-attrib $-1 -1 $-1 $-1 $252 2 1 2 1 1 1 1 1 1 1 1 1 1 1 0 1 1 1 @15 ATTRIB_XACIS_ID @3 210 #
point $-1 -1 -1 $-1 52.369999999999997 6 5.5000000000000098 #
coedge $-1 -1 -1 $-1 $254 $366 $328 $367 forward $107 $-1 #
edge $368 -1 -1 $-1 $334 -1.9129999999999996 $282 0 $276 $369 forward @7 unknown T 80.900000000000006 6 5.5 100.03 6 5.5000000000000098 #
string_attrib-name_attrib-gen-attrib $-1 -1 $-1 $-1 $255 2 1 2 1 1 1 1 1 1 1 1 1 1 1 0 1 1 1 @15 ATTRIB_XACIS_ID @3 228 #
straight-curve $-1 -1 -1 $-1 80.900000000000006 6 3.25 0 0 -10 F -0.22500000000000098 F 1.0214051826551439e-015 #
string_attrib-name_attrib-gen-attrib $-1 -1 $-1 $-1 $258 2 1 2 1 1 1 1 1 1 1 1 1 1 1 0 1 1 1 @15 ATTRIB_XACIS_ID @3 256 #
straight-curve $-1 -1 -1 $-1 71.5 0 5.5 0 10 0 F 0 F 0.59999999999999998 #
string_attrib-name_attrib-gen-attrib $-1 -1 $-1 $-1 $260 2 1 2 1 1 1 1 1 1 1 1 1 1 1 0 1 1 1 @15 ATTRIB_XACIS_ID @3 372 #
string_attrib-name_attrib-gen-attrib $-1 -1 $-1 $-1 $267 2 1 2 1 1 1 1 1 1 1 1 1 1 1 0 1 1 1 @15 ATTRIB_XACIS_ID @3 367 #
face $370 -1 -1 $-1 $371 $372 $5 $-1 $373 forward single T 0 0 0 0 6 177.80000000000001 F #
loop $374 -1 -1 $-1 $-1 $375 $267 T 0 0 177.80000000000001 152.40000000000001 6 177.80000000000001 periphery $321 F #
plane-surface $-1 -1 -1 $-1 0 0 177.80000000000001 0 0 1 1 -0 0 forward_v I I I I #
string_attrib-name_attrib-gen-attrib $-1 -1 $-1 $-1 $268 2 1 2 1 1 1 1 1 1 1 1 1 1 1 0 1 1 1 @15 ATTRIB_XACIS_ID @2 -1 #
coedge $-1 -1 -1 $-1 $376 $377 $378 $379 forward $268 $-1 #
coedge $-1 -1 -1 $-1 $380 $271 $273 $329 forward $215 $-1 #
coedge $-1 -1 -1 $-1 $271 $380 $376 $381 reversed $215 $-1 #
coedge $-1 -1 -1 $-1 $378 $274 $271 $327 reversed $135 $-1 #
edge $382 -1 -1 $-1 $383 0 $331 5.2370000000000001 $271 $384 forward @7 unknown T 100.03 0 0 152.40000000000001 0 0 #
coedge $-1 -1 -1 $-1 $273 $272 $311 $367 reversed $174 $-1 #
edge $385 -1 -1 $-1 $331 0 $386 0.59999999999999998 $273 $387 forward @7 unknown T 100.03 0 0 100.03 6 0 #
string_attrib-name_attrib-gen-attrib $-1 -1 $-1 $-1 $275 2 1 2 1 1 1 1 1 1 1 1 1 1 1 0 1 1 1 @15 ATTRIB_XACIS_ID @3 233 #
vertex $388 -1 -1 $-1 $327 $389 #
straight-curve $-1 -1 -1 $-1 100.03 0 5.5 0 0 -10 F 0 F 0.55000000000000004 #
string_attrib-name_attrib-gen-attrib $-1 -1 $-1 $-1 $277 2 1 2 1 1 1 1 1 1 1 1 1 1 1 0 1 1 1 @15 ATTRIB_XACIS_ID @3 232 #
vertex $390 -1 -1 $-1 $367 $391 #
straight-curve $-1 -1 -1 $-1 100.03 0 5.5 0 10 0 F 0 F 0.59999999999999998 #
string_attrib-name_attrib-gen-attrib $-1 -1 $-1 $-1 $279 2 1 2 1 1 1 1 1 1 1 1 1 1 1 0 1 1 1 @15 ATTRIB_XACIS_ID @3 195 #
point $-1 -1 -1 $-1 100.03 0 5.5 #
string_attrib-name_attrib-gen-attrib $-1 -1 $-1 $-1 $282 2 1 2 1 1 1 1 1 1 1 1 1 1 1 0 1 1 1 @15 ATTRIB_XACIS_ID @3 194 #
point $-1 -1 -1 $-1 80.900000000000006 6 5.5000000000000098 #
coedge $-1 -1 -1 $-1 $288 $392 $393 $394 forward $135 $-1 #
coedge $-1 -1 -1 $-1 $352 $351 $288 $342 reversed $353 $-1 #
edge $395 -1 -1 $-1 $396 0 $344 5.2370000000000001 $341 $397 forward @7 unknown T 0 0 0 52.370000000000005 0 0 #
string_attrib-name_attrib-gen-attrib $-1 -1 $-1 $-1 $290 2 1 2 1 1 1 1 1 1 1 1 1 1 1 0 1 1 1 @15 ATTRIB_XACIS_ID @3 251 #
vertex $398 -1 -1 $-1 $357 $399 #
straight-curve $-1 -1 -1 $-1 52.369999999999997 0 5.5 0 0 -10 F 0 F 0.55000000000000004 #
string_attrib-name_attrib-gen-attrib $-1 -1 $-1 $-1 $292 2 1 2 1 1 1 1 1 1 1 1 1 1 1 0 1 1 1 @15 ATTRIB_XACIS_ID @3 209 #
point $-1 -1 -1 $-1 52.369999999999997 0 5.5 #
coedge $-1 -1 -1 $-1 $400 $296 $401 $402 forward $107 $-1 #
coedge $-1 -1 -1 $-1 $403 $404 $296 $350 reversed $372 $-1 #
edge $405 -1 -1 $-1 $355 -17.780000000000001 $406 0 $349 $407 forward @7 unknown T 0 6 0 0 6 177.80000000000001 #
coedge $-1 -1 -1 $-1 $341 $297 $300 $357 reversed $353 $-1 #
coedge $-1 -1 -1 $-1 $297 $341 $403 $408 forward $353 $-1 #
loop $409 -1 -1 $-1 $-1 $341 $371 T 0 0 0 52.370000000000005 6 0 periphery $410 F #
string_attrib-name_attrib-gen-attrib $-1 -1 $-1 $-1 $298 2 1 2 1 1 1 1 1 1 1 1 1 1 1 0 1 1 1 @15 ATTRIB_XACIS_ID @3 249 #
vertex $411 -1 -1 $-1 $408 $412 #
straight-curve $-1 -1 -1 $-1 0 6 0 -10 0 0 F -5.2370000000000001 F 0 #
edge $413 -1 -1 $-1 $344 0 $303 0.59999999999999998 $351 $414 forward @7 unknown T 52.369999999999997 0 0 52.369999999999997 6 0 #
string_attrib-name_attrib-gen-attrib $-1 -1 $-1 $-1 $301 2 1 2 1 1 1 1 1 1 1 1 1 1 1 0 1 1 1 @15 ATTRIB_XACIS_ID @2 -1 #
face $415 -1 -1 $-1 $307 $301 $5 $-1 $360 forward single T 52.369999999999997 0 0 52.369999999999997 6 5.5000000000000098 F #
plane-surface $-1 -1 -1 $-1 52.369999999999997 0 5.5 1 0 0 0 1 -0 forward_v I I I I #
string_attrib-name_attrib-gen-attrib $-1 -1 $-1 $-1 $303 2 1 2 1 1 1 1 1 1 1 1 1 1 1 0 1 1 1 @15 ATTRIB_XACIS_ID @3 208 #
point $-1 -1 -1 $-1 52.369999999999997 6 0 #
string_attrib-name_attrib-gen-attrib $-1 -1 $-1 $-1 $305 2 1 2 1 1 1 1 1 1 1 1 1 1 1 0 1 1 1 @15 ATTRIB_XACIS_ID @3 253 #
straight-curve $-1 -1 -1 $-1 52.369999999999997 0 5.5 0 10 0 F 0 F 0.59999999999999998 #
string_attrib-name_attrib-gen-attrib $-1 -1 $-1 $-1 $307 2 1 2 1 1 1 1 1 1 1 1 1 1 1 0 1 1 1 @15 ATTRIB_XACIS_ID @3 371 #
coedge $-1 -1 -1 $-1 $311 $400 $380 $416 forward $107 $-1 #
edge $417 -1 -1 $-1 $386 -0.55000000000000004 $334 9.7699626167013783e-016 $328 $418 forward @7 unknown T 100.03 6 0 100.03 6 5.5000000000000098 #
string_attrib-name_attrib-gen-attrib $-1 -1 $-1 $-1 $312 2 1 2 1 1 1 1 1 1 1 1 1 1 1 0 1 1 1 @15 ATTRIB_XACIS_ID @3 231 #
straight-curve $-1 -1 -1 $-1 80.900000000000006 6 5.5 -10 0 0 F -1.9129999999999996 F 0 #
string_attrib-name_attrib-gen-attrib $-1 -1 $-1 $-1 $319 2 1 2 1 1 1 1 1 1 1 1 1 1 1 0 1 1 1 @15 ATTRIB_XACIS_ID @3 368 #
face $419 -1 -1 $-1 $359 $353 $5 $-1 $410 forward single T 0 0 0 52.370000000000005 6 0 F #
loop $420 -1 -1 $-1 $-1 $393 $319 T 0 0 0 0 6 177.80000000000001 periphery $373 F #
plane-surface $-1 -1 -1 $-1 0 0 0 -1 0 0 0 0 1 forward_v I I I I #
string_attrib-name_attrib-gen-attrib $-1 -1 $-1 $-1 $320 2 1 2 1 1 1 1 1 1 1 1 1 1 1 0 1 1 1 @15 ATTRIB_XACIS_ID @2 -1 #
coedge $-1 -1 -1 $-1 $421 $422 $392 $423 reversed $320 $-1 #
coedge $-1 -1 -1 $-1 $424 $323 $325 $381 forward $268 $-1 #
coedge $-1 -1 -1 $-1 $323 $424 $421 $425 reversed $268 $-1 #
coedge $-1 -1 -1 $-1 $392 $326 $323 $379 reversed $135 $-1 #
edge $426 -1 -1 $-1 $427 0 $383 17.780000000000001 $323 $428 forward @7 unknown T 152.40000000000001 0 0 152.40000000000001 0 177.80000000000001 #
coedge $-1 -1 -1 $-1 $325 $324 $366 $416 reversed $215 $-1 #
edge $429 -1 -1 $-1 $383 0 $430 0.59999999999999998 $325 $431 forward @7 unknown T 152.40000000000001 0 0 152.40000000000001 6 0 #
string_attrib-name_attrib-gen-attrib $-1 -1 $-1 $-1 $327 2 1 2 1 1 1 1 1 1 1 1 1 1 1 0 1 1 1 @15 ATTRIB_XACIS_ID @3 236 #
vertex $432 -1 -1 $-1 $327 $433 #
straight-curve $-1 -1 -1 $-1 152.40000000000001 0 0 -10 0 0 F 0 F 5.2370000000000001 #
string_attrib-name_attrib-gen-attrib $-1 -1 $-1 $-1 $329 2 1 2 1 1 1 1 1 1 1 1 1 1 1 0 1 1 1 @15 ATTRIB_XACIS_ID @3 235 #
vertex $434 -1 -1 $-1 $367 $435 #
straight-curve $-1 -1 -1 $-1 100.03 0 0 0 10 0 F 0 F 0.59999999999999998 #
string_attrib-name_attrib-gen-attrib $-1 -1 $-1 $-1 $331 2 1 2 1 1 1 1 1 1 1 1 1 1 1 0 1 1 1 @15 ATTRIB_XACIS_ID @3 197 #
point $-1 -1 -1 $-1 100.03 0 0 #
string_attrib-name_attrib-gen-attrib $-1 -1 $-1 $-1 $334 2 1 2 1 1 1 1 1 1 1 1 1 1 1 0 1 1 1 @15 ATTRIB_XACIS_ID @3 196 #
point $-1 -1 -1 $-1 100.03 6 5.5000000000000098 #
coedge $-1 -1 -1 $-1 $340 $378 $375 $423 forward $135 $-1 #
coedge $-1 -1 -1 $-1 $404 $403 $340 $394 reversed $372 $-1 #
edge $436 -1 -1 $-1 $437 0 $396 17.780000000000001 $393 $438 forward @7 unknown T 0 0 0 0 0 177.80000000000001 #
string_attrib-name_attrib-gen-attrib $-1 -1 $-1 $-1 $342 2 1 2 1 1 1 1 1 1 1 1 1 1 1 0 1 1 1 @15 ATTRIB_XACIS_ID @3 248 #
vertex $439 -1 -1 $-1 $394 $440 #
straight-curve $-1 -1 -1 $-1 0 0 0 10 0 0 F 0 F 5.2370000000000001 #
string_attrib-name_attrib-gen-attrib $-1 -1 $-1 $-1 $344 2 1 2 1 1 1 1 1 1 1 1 1 1 1 0 1 1 1 @15 ATTRIB_XACIS_ID @3 207 #
point $-1 -1 -1 $-1 52.369999999999997 0 0 #
coedge $-1 -1 -1 $-1 $366 $348 $424 $441 forward $107 $-1 #
coedge $-1 -1 -1 $-1 $422 $421 $348 $402 reversed $320 $-1 #
edge $442 -1 -1 $-1 $406 -14.580000000000002 $443 0.65999999999999948 $401 $444 forward @7 unknown T 0 6 177.80000000000001 152.40000000000001 6 177.80000000000001 #
coedge $-1 -1 -1 $-1 $393 $349 $352 $408 reversed $372 $-1 #
coedge $-1 -1 -1 $-1 $349 $393 $422 $445 forward $372 $-1 #
string_attrib-name_attrib-gen-attrib $-1 -1 $-1 $-1 $350 2 1 2 1 1 1 1 1 1 1 1 1 1 1 0 1 1 1 @15 ATTRIB_XACIS_ID @3 246 #
vertex $446 -1 -1 $-1 $402 $447 #
straight-curve $-1 -1 -1 $-1 0 6 177.80000000000001 0 0 10 F -17.780000000000001 F 0 #
edge $448 -1 -1 $-1 $396 0 $355 0.59999999999999998 $403 $449 forward @7 unknown T 0 0 0 0 6 0 #
string_attrib-name_attrib-gen-attrib $-1 -1 $-1 $-1 $353 2 1 2 1 1 1 1 1 1 1 1 1 1 1 0 1 1 1 @15 ATTRIB_XACIS_ID @2 -1 #
plane-surface $-1 -1 -1 $-1 52.369999999999997 0 0 0 0 -1 0 -1 -0 forward_v I I I I #
string_attrib-name_attrib-gen-attrib $-1 -1 $-1 $-1 $355 2 1 2 1 1 1 1 1 1 1 1 1 1 1 0 1 1 1 @15 ATTRIB_XACIS_ID @3 206 #
point $-1 -1 -1 $-1 0 6 0 #
string_attrib-name_attrib-gen-attrib $-1 -1 $-1 $-1 $357 2 1 2 1 1 1 1 1 1 1 1 1 1 1 0 1 1 1 @15 ATTRIB_XACIS_ID @3 250 #
straight-curve $-1 -1 -1 $-1 52.369999999999997 0 0 0 10 0 F 0 F 0.59999999999999998 #
string_attrib-name_attrib-gen-attrib $-1 -1 $-1 $-1 $359 2 1 2 1 1 1 1 1 1 1 1 1 1 1 0 1 1 1 @15 ATTRIB_XACIS_ID @3 370 #
edge $450 -1 -1 $-1 $430 0 $386 5.2370000000000001 $380 $451 forward @7 unknown T 100.03 6 0 152.40000000000001 6 0 #
string_attrib-name_attrib-gen-attrib $-1 -1 $-1 $-1 $367 2 1 2 1 1 1 1 1 1 1 1 1 1 1 0 1 1 1 @15 ATTRIB_XACIS_ID @3 234 #
straight-curve $-1 -1 -1 $-1 100.03 6 5.5 0 0 10 F -0.55000000000000004 F 9.7699626167013783e-016 #
string_attrib-name_attrib-gen-attrib $-1 -1 $-1 $-1 $371 2 1 2 1 1 1 1 1 1 1 1 1 1 1 0 1 1 1 @15 ATTRIB_XACIS_ID @3 369 #
string_attrib-name_attrib-gen-attrib $-1 -1 $-1 $-1 $372 2 1 2 1 1 1 1 1 1 1 1 1 1 1 0 1 1 1 @15 ATTRIB_XACIS_ID @2 -1 #
coedge $-1 -1 -1 $-1 $401 $375 $377 $425 forward $320 $-1 #
coedge $-1 -1 -1 $-1 $375 $401 $404 $445 reversed $320 $-1 #
edge $452 -1 -1 $-1 $427 -0.65999999999999948 $437 14.580000000000002 $375 $453 forward @7 unknown T 0 0 177.80000000000001 152.40000000000001 0 177.80000000000001 #
coedge $-1 -1 -1 $-1 $377 $376 $400 $441 reversed $268 $-1 #
edge $454 -1 -1 $-1 $427 0 $443 0.59999999999999998 $377 $455 forward @7 unknown T 152.40000000000001 0 177.80000000000001 152.40000000000001 6 177.80000000000001 #
string_attrib-name_attrib-gen-attrib $-1 -1 $-1 $-1 $379 2 1 2 1 1 1 1 1 1 1 1 1 1 1 0 1 1 1 @15 ATTRIB_XACIS_ID @3 239 #
vertex $456 -1 -1 $-1 $425 $457 #
straight-curve $-1 -1 -1 $-1 152.40000000000001 0 177.80000000000001 0 0 -10 F 0 F 17.780000000000001 #
string_attrib-name_attrib-gen-attrib $-1 -1 $-1 $-1 $381 2 1 2 1 1 1 1 1 1 1 1 1 1 1 0 1 1 1 @15 ATTRIB_XACIS_ID @3 238 #
vertex $458 -1 -1 $-1 $381 $459 #
straight-curve $-1 -1 -1 $-1 152.40000000000001 0 0 0 10 0 F 0 F 0.59999999999999998 #
string_attrib-name_attrib-gen-attrib $-1 -1 $-1 $-1 $383 2 1 2 1 1 1 1 1 1 1 1 1 1 1 0 1 1 1 @15 ATTRIB_XACIS_ID @3 199 #
point $-1 -1 -1 $-1 152.40000000000001 0 0 #
string_attrib-name_attrib-gen-attrib $-1 -1 $-1 $-1 $386 2 1 2 1 1 1 1 1 1 1 1 1 1 1 0 1 1 1 @15 ATTRIB_XACIS_ID @3 198 #
point $-1 -1 -1 $-1 100.03 6 0 #
string_attrib-name_attrib-gen-attrib $-1 -1 $-1 $-1 $394 2 1 2 1 1 1 1 1 1 1 1 1 1 1 0 1 1 1 @15 ATTRIB_XACIS_ID @3 245 #
vertex $460 -1 -1 $-1 $394 $461 #
straight-curve $-1 -1 -1 $-1 0 0 177.80000000000001 0 0 -10 F 0 F 17.780000000000001 #
string_attrib-name_attrib-gen-attrib $-1 -1 $-1 $-1 $396 2 1 2 1 1 1 1 1 1 1 1 1 1 1 0 1 1 1 @15 ATTRIB_XACIS_ID @3 205 #
point $-1 -1 -1 $-1 0 0 0 #
edge $462 -1 -1 $-1 $443 0 $430 17.780000000000001 $424 $463 forward @7 unknown T 152.40000000000001 6 0 152.40000000000001 6 177.80000000000001 #
string_attrib-name_attrib-gen-attrib $-1 -1 $-1 $-1 $402 2 1 2 1 1 1 1 1 1 1 1 1 1 1 0 1 1 1 @15 ATTRIB_XACIS_ID @3 243 #
vertex $464 -1 -1 $-1 $425 $465 #
straight-curve $-1 -1 -1 $-1 145.80000000000001 6 177.80000000000001 10 0 0 F -14.580000000000002 F 0.65999999999999948 #
edge $466 -1 -1 $-1 $437 0 $406 0.59999999999999998 $422 $467 forward @7 unknown T 0 0 177.80000000000001 0 6 177.80000000000001 #
string_attrib-name_attrib-gen-attrib $-1 -1 $-1 $-1 $406 2 1 2 1 1 1 1 1 1 1 1 1 1 1 0 1 1 1 @15 ATTRIB_XACIS_ID @3 204 #
point $-1 -1 -1 $-1 0 6 177.80000000000001 #
string_attrib-name_attrib-gen-attrib $-1 -1 $-1 $-1 $408 2 1 2 1 1 1 1 1 1 1 1 1 1 1 0 1 1 1 @15 ATTRIB_XACIS_ID @3 247 #
straight-curve $-1 -1 -1 $-1 0 0 0 0 10 0 F 0 F 0.59999999999999998 #
string_attrib-name_attrib-gen-attrib $-1 -1 $-1 $-1 $416 2 1 2 1 1 1 1 1 1 1 1 1 1 1 0 1 1 1 @15 ATTRIB_XACIS_ID @3 237 #
straight-curve $-1 -1 -1 $-1 152.40000000000001 6 0 -10 0 0 F 0 F 5.2370000000000001 #
string_attrib-name_attrib-gen-attrib $-1 -1 $-1 $-1 $423 2 1 2 1 1 1 1 1 1 1 1 1 1 1 0 1 1 1 @15 ATTRIB_XACIS_ID @3 242 #
straight-curve $-1 -1 -1 $-1 145.80000000000001 0 177.80000000000001 -10 0 0 F -0.65999999999999948 F 14.580000000000002 #
string_attrib-name_attrib-gen-attrib $-1 -1 $-1 $-1 $425 2 1 2 1 1 1 1 1 1 1 1 1 1 1 0 1 1 1 @15 ATTRIB_XACIS_ID @3 241 #
straight-curve $-1 -1 -1 $-1 152.40000000000001 0 177.80000000000001 0 10 0 F 0 F 0.59999999999999998 #
string_attrib-name_attrib-gen-attrib $-1 -1 $-1 $-1 $427 2 1 2 1 1 1 1 1 1 1 1 1 1 1 0 1 1 1 @15 ATTRIB_XACIS_ID @3 201 #
point $-1 -1 -1 $-1 152.40000000000001 0 177.80000000000001 #
string_attrib-name_attrib-gen-attrib $-1 -1 $-1 $-1 $430 2 1 2 1 1 1 1 1 1 1 1 1 1 1 0 1 1 1 @15 ATTRIB_XACIS_ID @3 200 #
point $-1 -1 -1 $-1 152.40000000000001 6 0 #
string_attrib-name_attrib-gen-attrib $-1 -1 $-1 $-1 $437 2 1 2 1 1 1 1 1 1 1 1 1 1 1 0 1 1 1 @15 ATTRIB_XACIS_ID @3 203 #
point $-1 -1 -1 $-1 0 0 177.80000000000001 #
string_attrib-name_attrib-gen-attrib $-1 -1 $-1 $-1 $441 2 1 2 1 1 1 1 1 1 1 1 1 1 1 0 1 1 1 @15 ATTRIB_XACIS_ID @3 240 #
straight-curve $-1 -1 -1 $-1 152.40000000000001 6 177.80000000000001 0 0 -10 F 0 F 17.780000000000001 #
string_attrib-name_attrib-gen-attrib $-1 -1 $-1 $-1 $443 2 1 2 1 1 1 1 1 1 1 1 1 1 1 0 1 1 1 @15 ATTRIB_XACIS_ID @3 202 #
point $-1 -1 -1 $-1 152.40000000000001 6 177.80000000000001 #
string_attrib-name_attrib-gen-attrib $-1 -1 $-1 $-1 $445 2 1 2 1 1 1 1 1 1 1 1 1 1 1 0 1 1 1 @15 ATTRIB_XACIS_ID @3 244 #
straight-curve $-1 -1 -1 $-1 0 0 177.80000000000001 0 10 0 F 0 F 0.59999999999999998 #
End-of-ACIS-data 