M48
;FILE_FORMAT=2:4
INCH,LZ
FMAT,2
ICI,OFF
;TYPE=PLATED
T1C.01
T2C.012
T3C.01969
T4C.02
T5C.02362
T6C.02756
T7C.035
T9C.03937
T10C.12795
;TYPE=NON_PLATED
T8C.039
T11C.15748
%
M72
G90
G93X0Y0
T1C.01F095S3
X1005Y104
X102248Y105667
X10048Y107435
X102248Y109202
X10048Y11097
X101597Y112488
X102412Y112488
X102Y113482
X1028Y113482
X10048Y114506
X102248Y116273
X10048Y118041
X101918Y1194
X102248Y119809
X101849Y1204
X10048Y121577
X102248Y123345
X10048Y125112
X104015Y128648
X105022Y123663
X104Y122
X1049Y1204
X104Y120397
X103282Y1194
X1048Y119028
X104Y119018
X104119Y117888
X104795Y117837
X104481Y117829
X1051Y1177
X105461Y117457
X103766Y11703
X104259Y116865
X104862Y116862
X10335Y11685
X10374Y116467
X10425Y11645
X104Y116332
X10375Y116207
X10425Y11619
X103755Y115947
X10426Y11593
X104594Y115589
X10335Y11555
X1043Y1147
X1044Y113482
X1052Y113482
X1036Y113482
X104721Y1122
X1041Y110358
X104015Y107435
X104015Y103899
X1041Y101242
X104438Y100811
X104Y1005
X106518Y1008
X107882Y1008
X1076Y101242
X107551Y103899
X105783Y105667
X107551Y107435
X1074Y111882
X106Y1121
X107149Y113265
X105696Y114051
X106741Y114521
X106088Y11472
X1071Y114938
X106317Y115172
X105696Y115654
X107211Y115738
X107582Y115904
X106811Y116339
X106828Y116788
X107149Y118443
X105623Y119021
X1072Y119028
X1064Y119028
X105982Y119725
X1072Y120372
X1064Y120372
X106025Y120613
X10655Y1207
X105968Y120993
X106228Y121062
X107766Y121577
X1063Y12265
X106715Y12353
X105783Y12688
X107551Y128648
X109319Y123345
X109345Y1223
X108082Y121
X1081Y120441
X109Y120372
X109Y119028
X1081Y118959
X108375Y117271
X109739Y116948
X108466Y116818
X109605Y116375
X108467Y115968
X108563Y115533
X108426Y115098
X1085Y113
X1082Y111882
X11016Y109102
X1099Y1091
X10855Y1087
X11Y1067
X11Y106
X11Y1053
X1081Y102484
X109095Y1008
X110445Y1008
X111Y1005
X111086Y103899
X1107Y1053
X1114Y1053
X112854Y105667
X1114Y106
X1114Y1067
X1107Y1067
X111086Y107435
X112583Y107957
X111096Y108874
X1114Y1091
X1126Y11035
X1116Y111882
X1108Y111882
X111086Y114506
X111086Y118041
X112854Y119809
X112002Y121235
X112854Y12688
X111086Y128648
X114622Y128648
X114622Y121577
X1145Y1175
X1135Y1165
X114Y1145
X1152Y113772
X1135Y1125
X113901Y112228
X1149Y112133
X11515Y11155
X1153Y1112
X113102Y108925
X1154Y10855
X114622Y107435
X113603Y10256
X114098Y102553
X1151Y101242
X1146Y101242
X1145Y1005
X117571Y100575
X1161Y101242
X117909Y105924
X117631Y106112
X11785Y1066
X11785Y1077
X117859Y108391
X115832Y1087
X11755Y1088
X115602Y110405
X116816Y111115
X11735Y111882
X1179Y1119
X116Y1125
X117Y1126
X117Y1134
X11639Y119809
X1168Y123118
X11639Y123345
X1168Y124482
X1166Y1256
X11745Y12575
X11639Y12688
X1179Y12715
X118158Y128648
X1202Y126745
X119179Y123718
X119925Y123345
X1186Y121855
X118977Y120402
X119622Y119888
X118595Y119728
X119482Y1193
X119482Y1184
X118124Y118397
X120124Y117858
X118943Y117583
X11925Y11645
X11865Y11645
X120464Y114905
X12Y113
X12015Y109206
X118766Y108559
X120264Y108452
X119515Y108407
X118698Y108205
X118814Y10667
X118408Y105616
X11935Y1056
X12015Y105525
X119672Y104095
X1182Y103018
X119925Y102131
X1182Y101618
X11976Y100628
X122443Y101014
X121137Y101519
X121036Y102977
X120814Y105229
X12205Y10595
X120767Y108407
X122806Y108849
X120748Y108954
X12245Y10905
X121318Y1102
X1227Y1104
X120945Y114877
X12095Y1154
X12215Y11615
X120563Y116213
X121991Y116359
X12205Y117
X121093Y117525
X122535Y117571
X120568Y117804
X121528Y117808
X121685Y118308
X121443Y119128
X121153Y119139
X121754Y119729
X12155Y12
X1221Y121792
X122225Y122858
X122321Y1236
X122182Y1243
X12475Y12615
X12447Y126082
X1232Y124655
X1238Y12355
X125229Y121577
X1244Y121518
X1254Y12065
X1234Y1203
X1233Y11925
X124751Y11902
X1248Y11795
X123497Y115987
X123Y11575
X124955Y115637
X1235Y11525
X123794Y114996
X1235Y11475
X123573Y113482
X123841Y113041
X124823Y111934
X125078Y111827
X12509Y111567
X124224Y11149
X124952Y111215
X12405Y1109
X124202Y110595
X124967Y11057
X1238Y11055
X124823Y110027
X124229Y109787
X124784Y10949
X125004Y109348
X12358Y10897
X125311Y108926
X12509Y108763
X1239Y10825
X12441Y108139
X124804Y108094
X1253Y1067
X123143Y105975
X124254Y105975
X123461Y102131
X125Y1005
X126957Y101014
X126996Y102131
X1277Y1033
X126408Y106663
X127118Y108411
X1267Y1087
X125985Y108849
X12724Y10893
X127046Y1092
X127118Y1101
X12655Y11105
X126383Y111314
X126653Y111345
X12778Y111497
X125766Y112134
X12615Y11215
X126722Y112284
X127043Y11265
X12661Y113141
X12745Y11315
X12595Y11365
X127444Y113976
X126233Y114858
X125814Y11492
X1277Y11515
X127418Y1155
X126305Y1157
X127418Y116375
X127282Y116755
X125918Y11744
X127282Y1175
X127426Y118092
X127718Y119542
X127776Y120219
X127464Y122438
X127Y12245
X129572Y122459
X128971Y12245
X128323Y12245
X129296Y12245
X128583Y122438
X128054Y122438
X128343Y12173
X128923Y1215
X12825Y12142
X12835Y12076
X12895Y12075
X128322Y1205
X128968Y120083
X128255Y119992
X12905Y118
X12965Y11745
X12939Y11744
X13029Y11651
X13025Y11455
X129948Y11394
X129382Y113589
X128782Y11346
X129786Y1134
X128923Y113241
X129564Y113114
X128129Y113106
X128509Y113099
X128791Y112976
X129441Y11287
X129017Y112842
X13Y1125
X128655Y112149
X128767Y111541
X129625Y11141
X128482Y10929
X128748Y10862
X1302Y108555
X130189Y108175
X128Y10815
X129353Y107947
X12935Y10765
X128502Y107628
X128818Y106961
X129353Y106274
X128778Y105637
X1297Y105218
X128714Y104657
X1292Y10075
X132Y1005
X131Y102
X1323Y103899
X1306Y105149
X13195Y10534
X13195Y1056
X132979Y105794
X131334Y106962
X13235Y1071
X130973Y107123
X131618Y10795
X132162Y110279
X132728Y110689
X132535Y11125
X13215Y1117
X13205Y11205
X131045Y112051
X131165Y112915
X132257Y113163
X131761Y113233
X13065Y1133
X13069Y114311
X131526Y114639
X130628Y114837
X13115Y11485
X13065Y115098
X132764Y115131
X132264Y11525
X132764Y115544
X13065Y115838
X132339Y115921
X1318Y11615
X130592Y11647
X131789Y117422
X13285Y117437
X130702Y117588
X131866Y118467
X1325Y11945
X1313Y11945
X132802Y119495
X1313Y11985
X131922Y119908
X132806Y120261
X13191Y120584
X131471Y121024
X131287Y121222
X13205Y1213
X131526Y12245
X1323Y125112
X1321Y12585
X134067Y12688
X134445Y1243
X133116Y123688
X134067Y123345
X134037Y122055
X133625Y120888
X134745Y1181
X13311Y117448
X133172Y116872
X133139Y116309
X133164Y11394
X133127Y11339
X133065Y112866
X133375Y112616
X133241Y111571
X133164Y106839
X134067Y105667
T2C.012F095S3
X118788Y107448
X120399Y10746
X1244Y1212
X123208Y118908
X122955Y11834
X122584Y10945
X124617Y107379
T3C.01969F095S3
X11225Y1222
X11125Y1222
X11175Y1232
X11275Y1232
X11475Y1232
X11375Y1232
X11425Y1222
X11325Y1222
X116924Y128535G85X116924Y128791
X119876Y128535G85X119876Y128791
T4C.02F197S55
X1218Y1085
X10166Y121206
X12255Y128596
X130272Y122653
X124836Y118335
X126622Y117087
X128702Y114508
X129184Y10693
X131128Y106546
X130491Y106704
X133843Y1228
T5C.02362F197S55
X117494Y1276G85X117337Y1276
X119463Y1276G85X119306Y1276
T6C.02756F197S55
X11051Y127027
X11449Y127027
X11151Y127625
X11549Y127625
T7C.035F197S55
X1165Y1164
X1165Y1179
X1216Y1263
X1216Y1253
X1217Y1211
X1207Y1211
X1184Y1211
X1194Y1211
X1212Y1126
X1222Y1126
X1212Y1113
X1222Y1113
X1232Y1113
X1232Y1126
T8C.039F197S55
X1217Y1145
X1197Y1149
X1217Y1153
T9C.03937F197S55
X108987Y126302G85X108987Y125317
X103813Y126302G85X103813Y125317
X1161Y124692G85X1161Y124298
X1099Y124692G85X1099Y124298
T10C.12795F035S794
X11075Y125696
X11525Y125696
T11C.15748F035S9
X1017Y1017
X1017Y1283
X1333Y1283
X1333Y1017
M30
